<svg xmlns="http://www.w3.org/2000/svg" xmlns:xlink="http://www.w3.org/1999/xlink" width="500" zoomAndPan="magnify" viewBox="0 0 375 374.999991" height="500" preserveAspectRatio="xMidYMid meet" version="1.0"><defs><g/><clipPath id="67374b0ed8"><path d="M 0 170.589844 L 375 170.589844 L 375 207.339844 L 0 207.339844 Z M 0 170.589844 " clip-rule="nonzero"/></clipPath></defs><g fill="#ffd700" fill-opacity="1"><g transform="translate(58.367557, 249.184771)"><g><path d="M 166.058594 6.257812 C 165.601562 5.582031 164.941406 4.34375 164.355469 3.453125 C 163.007812 1.042969 158.941406 -1.167969 153.644531 -2.410156 C 149.203125 -3.328125 148.953125 -3.445312 148.761719 -4.695312 C 148.613281 -5.535156 148.464844 -6.535156 148.574219 -7.101562 C 148.800781 -9.238281 144.457031 -17.300781 141.035156 -21.0625 C 133.109375 -29.5625 122.785156 -36.25 96.078125 -50.210938 C 92.453125 -52.214844 89.339844 -53.984375 89.207031 -54.199219 C 89.082031 -54.257812 87.171875 -55.460938 85.070312 -56.753906 C 77.886719 -60.734375 75.367188 -62.453125 72.945312 -64.050781 C 64.382812 -70.375 62.433594 -71.984375 59.671875 -74.511719 C 55.972656 -78.171875 52.484375 -82.28125 51.449219 -84.695312 C 50.921875 -85.714844 50.632812 -88.402344 50.539062 -90.84375 C 50.476562 -93.191406 50.398438 -95.003906 50.28125 -94.75 C 50.160156 -94.496094 49.976562 -93.113281 49.949219 -91.734375 C 50.125 -88.640625 49.8125 -88.632812 49.265625 -91.59375 C 48.953125 -93.902344 49.664062 -97.898438 50.363281 -97.574219 C 50.617188 -97.453125 51.328125 -98.976562 52.003906 -100.75 C 55.234375 -110.136719 66.890625 -120.839844 84.980469 -131.085938 C 95.871094 -137.351562 122.671875 -148.699219 132.84375 -151.441406 C 135.769531 -152.238281 139.035156 -153.105469 139.777344 -153.375 C 140.867188 -153.71875 142.296875 -154.128906 143.300781 -154.125 C 144.238281 -154.148438 147.699219 -154.773438 150.816406 -155.324219 C 154.03125 -155.75 158.675781 -156.59375 161.363281 -156.882812 C 163.894531 -157.167969 166.761719 -157.679688 167.726562 -157.925781 C 177.703125 -159.753906 201.894531 -156.9375 213.628906 -152.605469 C 217.613281 -151.207031 217.933594 -150.902344 218.445312 -149.351562 C 219.769531 -145.40625 215.042969 -139.269531 204.902344 -131.800781 C 189.875 -120.664062 174.828125 -112.628906 159.925781 -107.539062 C 155.421875 -106.015625 154.925781 -105.9375 150.773438 -106.488281 C 147.660156 -106.9375 144.933594 -105.898438 144.816406 -104.328125 C 144.273438 -100.023438 147.609375 -95.753906 151.820312 -95.175781 C 153.105469 -95.273438 154.554688 -94.902344 155.0625 -94.664062 C 158.226562 -93.335938 170.863281 -97.707031 180.144531 -103.339844 C 183.140625 -104.949219 186.6875 -107.078125 188.167969 -107.933594 C 195.484375 -112.164062 205.074219 -117.957031 210.421875 -121.949219 C 210.910156 -122.339844 212.609375 -123.324219 214.023438 -124.363281 C 215.597656 -125.25 217.195312 -126.355469 217.621094 -126.929688 C 218.074219 -127.570312 219.726562 -129.117188 221.46875 -130.695312 C 225.078125 -134.109375 227.824219 -139.320312 227.703125 -142.699219 C 227.765625 -145.144531 225.988281 -149.609375 223.800781 -153.027344 C 220.179688 -158.511719 205.328125 -165.921875 196.25 -166.84375 C 194.242188 -167.011719 192.414062 -167.402344 192.035156 -167.582031 C 191.589844 -167.789062 188.320312 -168.234375 184.835938 -168.550781 C 171.550781 -169.898438 153.707031 -168.273438 139.179688 -164.324219 C 136.039062 -163.394531 131.960938 -162.445312 130.09375 -162.082031 C 125.011719 -161.132812 93.546875 -148.410156 86.695312 -144.503906 C 86.078125 -144.175781 84.503906 -143.289062 83.082031 -142.5625 C 81.785156 -141.777344 80.53125 -140.742188 80.351562 -140.359375 C 80.234375 -140.105469 79.179688 -139.671875 78.277344 -139.398438 C 77.28125 -139.246094 76.535156 -138.976562 76.730469 -138.730469 C 76.804688 -138.230469 68.765625 -132.949219 66.964844 -132.398438 C 66.125 -132.097656 65.753906 -131.960938 66.066406 -131.96875 C 66.445312 -131.949219 63.902344 -129.65625 60.375 -126.902344 C 56.90625 -124.117188 53.480469 -120.929688 52.566406 -119.964844 C 50.046875 -116.890625 46.609375 -110.539062 45.179688 -106.492188 C 43.839844 -102.632812 43.128906 -96.320312 44.015625 -95.902344 C 44.269531 -95.785156 44.152344 -95.53125 43.90625 -95.335938 C 43.226562 -94.882812 44.335938 -88.488281 45.703125 -85.296875 C 47.222656 -81.109375 50.601562 -75.121094 52.222656 -73.125 C 60.1875 -63.214844 71.539062 -54.269531 88.089844 -45.367188 C 91.328125 -43.699219 94.640625 -41.6875 95.664062 -40.898438 C 96.621094 -40.140625 102.027344 -37.148438 107.859375 -34.417969 C 123.714844 -27 135.03125 -19.464844 140.304688 -13.054688 C 141.082031 -12.074219 142.019531 -10.9375 142.402344 -10.761719 C 143.289062 -10.347656 143.867188 -7.449219 143.386719 -5.429688 C 143.085938 -3.792969 142.773438 -3.785156 134.539062 -3.539062 C 120.148438 -2.851562 111.171875 -1.175781 95.515625 3.867188 C 84.449219 7.195312 75.820312 11.429688 68.3125 16.574219 C 66.867188 17.675781 66.066406 18.074219 66.300781 17.566406 C 67.339844 15.347656 65.648438 16.488281 63.625 19.484375 C 58.523438 26.761719 58.152344 30.527344 62.136719 35.5625 C 64.890625 39.09375 71.546875 40.890625 78.886719 40.074219 C 88.753906 38.972656 107.621094 34.5 108.273438 33.105469 C 108.394531 32.851562 110.460938 31.734375 112.789062 30.890625 C 120.726562 27.800781 131.277344 22.765625 134.453125 20.769531 C 138.363281 18.195312 143.570312 12.355469 146.179688 7.933594 L 148.273438 4.121094 L 151.53125 4.253906 C 153.351562 4.332031 156.785156 5.089844 159.066406 6 C 162.988281 7.527344 163.242188 7.644531 163.761719 9.511719 C 164.304688 11.160156 164.371094 11.34375 165.363281 10.878906 C 166.667969 10.40625 167.128906 7.765625 166.058594 6.257812 Z M 72.667969 -125.09375 C 71.941406 -124.199219 71.5 -124.25 71.855469 -125.007812 C 71.972656 -125.261719 72.40625 -125.523438 72.652344 -125.71875 C 73.089844 -125.667969 73.164062 -125.324219 72.667969 -125.09375 Z M 113.800781 -146.589844 C 112.667969 -145.496094 104.976562 -142.601562 105.273438 -143.234375 C 105.390625 -143.488281 107.527344 -144.421875 110.160156 -145.585938 C 112.832031 -146.5 114.476562 -147.046875 113.800781 -146.589844 Z M 134.628906 -153.929688 C 134.070312 -153.726562 133.480469 -153.460938 133.355469 -153.519531 C 133.226562 -153.582031 133.5625 -153.964844 134.121094 -154.167969 C 134.679688 -154.371094 135.238281 -154.574219 135.363281 -154.511719 C 135.492188 -154.453125 135.1875 -154.132812 134.628906 -153.929688 Z M 56.558594 -114.617188 C 56.566406 -114.304688 55.699219 -112.777344 54.605469 -111.433594 C 53.355469 -110.085938 51.589844 -106.972656 50.363281 -104.683594 C 49.265625 -102.335938 48.40625 -100.496094 48.214844 -100.585938 C 48.089844 -100.644531 48.332031 -102.15625 48.664062 -103.855469 C 50.265625 -110.914062 56.320312 -120.21875 63.277344 -126.007812 C 80.488281 -139.988281 112.769531 -154.957031 139.542969 -161.292969 C 149.875 -163.882812 170.863281 -166.121094 170.125 -164.535156 C 170.003906 -164.28125 169.632812 -164.144531 169.378906 -164.265625 C 168.996094 -164.441406 165.03125 -164.058594 162.480469 -163.394531 C 162.039062 -163.445312 157.519531 -162.546875 152.3125 -161.660156 C 147.167969 -160.742188 141.683594 -159.597656 140.253906 -159.183594 C 138.824219 -158.769531 137.300781 -158.324219 136.859375 -158.375 C 134.285156 -158.652344 101.289062 -145.949219 91.246094 -140.675781 C 77.304688 -133.515625 62.742188 -123.707031 57.871094 -118.410156 C 53.910156 -114.078125 50.835938 -109.488281 50.628906 -107.730469 C 50.65625 -106.789062 50.960938 -107.109375 51.789062 -108.886719 C 53.066406 -111.613281 57.214844 -117.015625 58.097656 -116.914062 C 58.410156 -116.921875 58.585938 -117.300781 58.699219 -117.871094 C 58.75 -118.308594 58.996094 -118.503906 59.25 -118.386719 C 59.628906 -118.207031 61.382812 -119.472656 61.855469 -120.488281 C 61.914062 -120.617188 63.171875 -121.652344 64.585938 -122.691406 C 66.035156 -123.636719 67.320312 -124.734375 67.441406 -124.988281 C 67.882812 -125.941406 80.957031 -133.894531 88.957031 -138.265625 C 93.375 -140.605469 104.554688 -145.503906 113.613281 -148.996094 C 128.804688 -155.03125 133.558594 -156.441406 146.179688 -158.960938 C 154.902344 -160.753906 155.589844 -160.898438 157.84375 -160.925781 C 159.160156 -160.929688 161.3125 -161.234375 162.746094 -161.492188 C 165.832031 -162.136719 173.3125 -162.425781 173.816406 -162.1875 C 174.070312 -162.070312 172.109375 -161.671875 169.546875 -161.480469 C 166.984375 -161.132812 163.835938 -160.519531 162.46875 -160.230469 C 161.128906 -159.851562 159.945312 -159.632812 159.808594 -160.007812 C 159.742188 -160.191406 159.429688 -160.183594 159.3125 -159.929688 C 159.132812 -159.550781 158.632812 -159.472656 158.191406 -159.683594 C 157.808594 -159.859375 156.8125 -159.707031 155.910156 -159.433594 C 155.105469 -159.039062 154.355469 -158.925781 154.230469 -158.984375 C 154.035156 -159.230469 148.703125 -158.242188 148.027344 -157.789062 C 147.78125 -157.59375 146.191406 -157.332031 144.753906 -157.234375 C 139.597656 -156.785156 135.988281 -155.84375 126.082031 -152.515625 C 110.492188 -147.285156 85.816406 -136.179688 84.808594 -134.023438 C 84.628906 -133.644531 83.609375 -133.117188 82.675781 -132.933594 C 79.902344 -132.300781 69.464844 -125.355469 63.183594 -120.023438 C 60.207031 -117.625 57.472656 -115.582031 57.101562 -115.445312 C 56.726562 -115.3125 56.550781 -114.929688 56.558594 -114.617188 Z M 79.003906 -51.550781 C 77.796875 -52.117188 77.347656 -52.480469 77.917969 -52.371094 C 78.546875 -52.230469 79.433594 -51.8125 80.007812 -51.390625 C 80.457031 -51.027344 80.015625 -51.078125 79.003906 -51.550781 Z M 138.71875 -1.894531 C 139.234375 -1.34375 139.417969 -1.410156 139.402344 -2.039062 C 139.417969 -2.726562 139.417969 -2.726562 139.648438 -2.230469 C 139.96875 -1.925781 139.859375 -1.359375 139.488281 -1.226562 C 138.9375 -0.710938 138.175781 -1.066406 138.152344 -2.003906 C 138.140625 -2.316406 138.328125 -2.386719 138.71875 -1.894531 Z M 136.007812 -2.542969 C 136.632812 -2.5625 136.574219 -2.433594 135.777344 -1.722656 C 134.519531 -0.6875 134.394531 -0.746094 134.898438 -1.828125 C 135.074219 -2.207031 135.566406 -2.59375 136.007812 -2.542969 Z M 133.742188 0.648438 C 134.113281 0.511719 135.238281 0.421875 136.367188 0.484375 C 139.46875 0.464844 136.824219 1.160156 131.414062 1.492188 C 127.003906 1.824219 124.003906 2.121094 118.484375 3.019531 C 115.832031 3.402344 102.757812 6.5625 98.375 7.835938 C 94.863281 8.898438 93.738281 8.988281 96.089844 7.925781 C 100.605469 5.707031 120.019531 1.882812 129.082031 1.019531 C 131.335938 0.992188 133.425781 0.65625 133.742188 0.648438 Z M 121.65625 4.503906 C 121.035156 4.675781 120.476562 4.878906 120.347656 4.816406 C 120.222656 4.757812 120.652344 4.496094 121.085938 4.234375 C 121.765625 3.933594 122.324219 3.734375 122.453125 3.792969 C 122.578125 3.851562 122.273438 4.171875 121.65625 4.503906 Z M 132.941406 -2.433594 C 133.75 -2.515625 134.003906 -2.398438 133.679688 -1.699219 C 133.5 -1.320312 133.0625 -1.371094 132.738281 -1.675781 C 132.351562 -2.167969 132.164062 -2.097656 132.242188 -1.601562 C 132.316406 -1.101562 132.199219 -0.847656 132.070312 -0.90625 C 131.308594 -1.261719 131.785156 -2.277344 132.941406 -2.433594 Z M 120.917969 -1.023438 C 121.816406 -1.296875 122.699219 -1.195312 122.824219 -1.136719 C 122.832031 -0.824219 123.703125 -1.03125 124.824219 -1.28125 C 125.816406 -1.746094 126.910156 -1.773438 127.332031 -1.191406 C 127.78125 -0.828125 127.96875 -0.894531 127.921875 -1.457031 C 127.847656 -1.957031 128.03125 -2.023438 128.546875 -1.472656 C 129.0625 -0.921875 129.25 -0.988281 129.175781 -1.488281 C 129.097656 -1.988281 129.410156 -1.996094 129.800781 -1.503906 C 130.378906 -0.925781 130.566406 -0.992188 130.425781 -1.523438 C 130.351562 -2.019531 130.46875 -2.273438 130.597656 -2.214844 C 130.722656 -2.15625 130.921875 -1.753906 130.929688 -1.441406 C 130.9375 -1.128906 129.445312 -0.746094 127.605469 -0.445312 C 125.660156 -0.425781 123.074219 -0.015625 121.632812 0.0859375 C 118.949219 0.375 118.230469 -0.734375 120.917969 -1.023438 Z M 99.363281 3.738281 C 109.75 0.867188 112.335938 0.296875 112.792969 0.972656 C 113.117188 1.4375 113.175781 1.308594 113.167969 0.996094 C 113.03125 0.46875 113.652344 0.292969 114.40625 0.335938 C 115.097656 0.507812 116.285156 0.289062 117.054688 -0.203125 C 117.859375 -0.597656 118.355469 -0.675781 118.433594 -0.175781 C 118.515625 0.636719 116.371094 1.257812 108.269531 2.878906 C 106.214844 3.308594 102.820312 4.117188 101.011719 4.507812 C 96.445312 5.847656 96.445312 5.847656 96.0625 5.671875 C 95.808594 5.550781 94.507812 6.023438 92.863281 6.726562 C 91.257812 7.519531 90.167969 7.859375 90.316406 7.542969 C 90.433594 7.289062 89.933594 7.207031 89.21875 7.414062 C 85.667969 8.226562 94.667969 5.019531 99.363281 3.738281 Z M 99.570312 32.046875 C 99.441406 31.988281 97.324219 32.390625 94.933594 33.203125 C 92.382812 33.863281 89.554688 34.785156 88.683594 34.996094 L 86.9375 35.257812 L 88.566406 35.25 C 90.257812 35.265625 98.671875 33.636719 101.535156 32.96875 C 102.496094 32.566406 103.496094 32.414062 103.75 32.535156 C 106.09375 33.632812 81.558594 38 75.191406 37.726562 C 71.175781 37.550781 64.769531 35.710938 63.511719 34.273438 C 62.480469 33.171875 63.539062 32.894531 66.324219 34.042969 C 67.96875 34.65625 69.855469 34.921875 70.539062 34.777344 C 71.25 34.414062 73.316406 34.300781 75.199219 34.40625 C 77.105469 34.292969 79.105469 34.148438 79.539062 33.886719 C 81.273438 33.152344 88.449219 32.023438 88.527344 32.679688 C 88.640625 33.429688 93.601562 32.578125 93.988281 31.753906 C 94.164062 31.375 95.214844 30.785156 96.460938 30.59375 C 97.550781 30.253906 98.414062 29.730469 98.40625 29.417969 C 98.464844 29.289062 98.902344 29.339844 99.542969 29.792969 C 100.691406 30.640625 100.691406 30.640625 113.808594 25.570312 C 117.871094 23.992188 121.011719 23.0625 120.835938 23.441406 C 120.539062 24.078125 100.203125 32.34375 99.570312 32.046875 Z M 137.035156 6.828125 C 130.4375 14.484375 117.269531 21.3125 97.378906 27.3125 C 88.214844 30.214844 76.40625 31.492188 68.925781 30.464844 C 65.1875 30.03125 64.863281 29.726562 65.800781 28.386719 C 68.875 24.953125 77.535156 19.496094 87.597656 15.007812 C 91.28125 13.25 95.019531 11.367188 95.945312 10.71875 C 96.835938 10.128906 98.386719 9.464844 99.378906 9.15625 L 101.21875 8.855469 L 99.582031 9.714844 C 98.589844 10.019531 97.078125 10.9375 96.15625 11.589844 L 94.429688 12.636719 L 96.609375 12.265625 C 97.796875 12.046875 99.003906 11.609375 99.125 11.355469 C 99.242188 11.101562 100.488281 10.753906 101.917969 10.34375 C 103.320312 10.148438 106.558594 9.34375 109.015625 8.714844 C 116.519531 6.890625 126.8125 5.214844 133.21875 4.734375 L 139.128906 4.328125 Z M 137.035156 6.828125 "/></g></g></g><g clip-path="url(#67374b0ed8)"><path fill="#464a4e" d="M 0.015625 170.589844 L 374.984375 170.589844 L 374.984375 207.339844 L 0.015625 207.339844 L 0.015625 170.589844 " fill-opacity="1" fill-rule="nonzero"/></g><g fill="#ffffff" fill-opacity="1"><g transform="translate(113.366621, 194.923934)"><g><path d="M 5.179688 0.199219 C 7.542969 0.199219 9.074219 -0.957031 9.074219 -2.84375 C 9.074219 -4.4375 8.007812 -5.394531 5.238281 -6.074219 C 3.136719 -6.585938 2.441406 -7.140625 2.441406 -8.039062 C 2.441406 -9.074219 3.371094 -9.722656 4.914062 -9.722656 C 6.507812 -9.722656 7.496094 -8.917969 7.527344 -7.621094 L 8.871094 -7.621094 C 8.855469 -9.722656 7.34375 -11.019531 4.914062 -11.019531 C 2.550781 -11.019531 1.050781 -9.863281 1.050781 -8.039062 C 1.050781 -6.367188 2.242188 -5.441406 4.898438 -4.808594 C 6.847656 -4.34375 7.667969 -3.800781 7.667969 -2.796875 C 7.667969 -1.730469 6.707031 -1.097656 5.179688 -1.097656 C 3.492188 -1.097656 2.320312 -1.933594 2.289062 -3.324219 L 0.925781 -3.324219 C 0.941406 -1.207031 2.597656 0.199219 5.179688 0.199219 Z M 5.179688 0.199219 "/></g></g></g><g fill="#ffffff" fill-opacity="1"><g transform="translate(130.852348, 194.923934)"><g><path d="M 1.578125 0 L 2.9375 0 L 2.9375 -3.554688 L 5.238281 -3.554688 C 7.683594 -3.554688 9.257812 -4.960938 9.257812 -7.1875 C 9.257812 -9.398438 7.683594 -10.820312 5.238281 -10.820312 L 1.578125 -10.820312 Z M 2.9375 -4.824219 L 2.9375 -9.523438 L 5.210938 -9.523438 C 6.957031 -9.523438 7.867188 -8.71875 7.867188 -7.171875 C 7.867188 -5.625 6.957031 -4.824219 5.210938 -4.824219 Z M 2.9375 -4.824219 "/></g></g></g><g fill="#ffffff" fill-opacity="1"><g transform="translate(148.21441, 194.923934)"><g><path d="M 1.578125 0 L 8.316406 0 L 8.316406 -1.265625 L 2.9375 -1.265625 L 2.9375 -4.882812 L 7.757812 -4.882812 L 7.757812 -6.136719 L 2.9375 -6.136719 L 2.9375 -9.554688 L 8.144531 -9.554688 L 8.144531 -10.820312 L 1.578125 -10.820312 Z M 1.578125 0 "/></g></g></g><g fill="#ffffff" fill-opacity="1"><g transform="translate(165.020029, 194.923934)"><g><path d="M 1.578125 0 L 2.9375 0 L 2.9375 -3.878906 L 5.316406 -3.878906 L 7.960938 0 L 9.597656 0 L 6.878906 -4.019531 C 8.457031 -4.40625 9.429688 -5.59375 9.429688 -7.34375 C 9.429688 -9.492188 7.945312 -10.820312 5.703125 -10.820312 L 1.578125 -10.820312 Z M 2.9375 -5.179688 L 2.9375 -9.523438 L 5.550781 -9.523438 C 7.125 -9.523438 8.039062 -8.71875 8.039062 -7.34375 C 8.039062 -5.964844 7.125 -5.179688 5.550781 -5.179688 Z M 2.9375 -5.179688 "/></g></g></g><g fill="#ffffff" fill-opacity="1"><g transform="translate(183.031289, 194.923934)"><g><path d="M 1.578125 0 L 8.316406 0 L 8.316406 -1.265625 L 2.9375 -1.265625 L 2.9375 -4.882812 L 7.757812 -4.882812 L 7.757812 -6.136719 L 2.9375 -6.136719 L 2.9375 -9.554688 L 8.144531 -9.554688 L 8.144531 -10.820312 L 1.578125 -10.820312 Z M 1.578125 0 "/></g></g></g><g fill="#ffffff" fill-opacity="1"><g transform="translate(199.836903, 194.923934)"><g><path d="M 1.578125 0 L 2.921875 0 L 2.921875 -8.472656 L 8.902344 0 L 10.171875 0 L 10.171875 -10.820312 L 8.839844 -10.820312 L 8.839844 -2.347656 L 2.859375 -10.820312 L 1.578125 -10.820312 Z M 1.578125 0 "/></g></g></g><g fill="#ffffff" fill-opacity="1"><g transform="translate(219.06927, 194.923934)"><g><path d="M 0.820312 0 L 8.53125 0 L 8.53125 -1.296875 L 2.628906 -1.296875 L 8.378906 -9.816406 L 8.378906 -10.820312 L 0.972656 -10.820312 L 0.972656 -9.523438 L 6.570312 -9.523438 L 0.820312 -1.003906 Z M 0.820312 0 "/></g></g></g><g fill="#ffffff" fill-opacity="1"><g transform="translate(235.890333, 194.923934)"><g><path d="M 0.261719 0 L 1.714844 0 L 2.703125 -2.457031 L 7.976562 -2.457031 L 8.996094 0 L 10.433594 0 L 5.980469 -10.820312 L 4.714844 -10.820312 Z M 3.230469 -3.726562 L 5.347656 -8.917969 L 7.464844 -3.726562 Z M 3.230469 -3.726562 "/></g></g></g></svg>