<svg width="48" height="49" viewBox="0 0 48 49" fill="none" xmlns="http://www.w3.org/2000/svg">
<path d="M0 24.3389C0 11.084 10.7452 0.338867 24 0.338867C37.2548 0.338867 48 11.084 48 24.3389C48 37.5937 37.2548 48.3389 24 48.3389C10.7452 48.3389 0 37.5937 0 24.3389Z" fill="white"/>
<path fill-rule="evenodd" clip-rule="evenodd" d="M29.2669 9.93884C29.5182 11.6455 28.8235 13.3174 27.9072 14.5003C26.9268 15.7691 25.2369 16.7505 23.5996 16.6993C23.3007 15.0653 24.066 13.3818 24.9972 12.2501C26.0186 11.0011 27.7692 10.0429 29.2669 9.93884ZM34.1854 33.9605C35.0295 32.6669 35.3448 32.0143 36 30.5538C31.2343 28.7415 30.4707 21.9662 35.1871 19.3658C33.7485 17.5617 31.727 16.5159 29.8187 16.5159C28.4437 16.5159 27.5016 16.8747 26.6452 17.2009C25.9315 17.4727 25.2772 17.7219 24.4815 17.7219C23.6216 17.7219 22.8601 17.4489 22.0628 17.163C21.1866 16.8488 20.2672 16.5192 19.1262 16.5192C16.9848 16.5192 14.7054 17.8276 13.2602 20.0646C11.2288 23.2152 11.5753 29.138 14.8696 34.1835C16.0471 35.9892 17.6203 38.018 19.678 38.0362C20.5318 38.0447 21.1 37.7898 21.7148 37.5141C22.4186 37.1984 23.1834 36.8554 24.5078 36.8483C25.8399 36.8404 26.5927 37.1876 27.2871 37.5079C27.8862 37.7842 28.4417 38.0404 29.2883 38.0312C31.3476 38.0147 33.0079 35.7662 34.1854 33.9605Z" fill="#0B0B0A"/>
</svg>
