<svg width="395" height="516" viewBox="0 0 395 516" fill="none" xmlns="http://www.w3.org/2000/svg">
<g clip-path="url(#clip0_701_968)">
<path d="M0.272259 515.499C0.874192 512.046 1.42598 508.693 2.04464 505.349C7.08582 478.284 12.8627 451.379 19.1746 424.591C23.6808 405.461 28.7052 386.499 35.2094 367.929C38.1689 359.477 42.9593 352.437 50.2578 347.169C53.1337 345.096 56.0012 343.022 58.9523 341.066C63.1826 338.273 66.836 334.929 69.7453 330.74C73.0058 326.042 77.4283 322.597 82.2772 319.671C92.0335 313.776 102.367 309.061 113.135 305.39C123.242 301.945 133.5 298.952 143.699 295.775C144.778 295.441 145.907 295.257 147.002 294.956C148.49 294.554 149.602 293.635 150.396 292.314C151.725 290.09 151.449 288.317 149.485 286.645C148.975 286.21 148.431 285.817 147.871 285.466C130.9 274.848 117.749 260.559 107.801 243.302C104.365 237.349 101.355 231.146 98.3622 224.95C95.2439 218.479 91.7493 212.292 87.193 206.699C82.6785 201.155 80.0701 194.651 78.2142 187.82C77.2862 184.408 76.5338 180.939 75.8483 177.469C75.6225 176.324 75.681 175.053 75.9318 173.916C76.1827 172.745 76.2077 171.667 75.7897 170.58C74.5942 167.461 74.6695 164.342 75.4135 161.123C76.7094 155.538 76.609 149.845 76.4084 144.159C76.3499 142.546 76.3081 140.965 76.9852 139.435C77.1524 139.051 77.1441 138.507 77.027 138.089C75.8733 134.093 76.1743 129.996 76.1659 125.933C76.1492 116.502 76.609 107.087 77.7795 97.723C78.791 89.6799 80.4213 81.7705 83.0631 74.0952C85.7969 66.1775 90.186 59.3132 96.3809 53.6362C98.7301 51.4791 100.67 49.0126 101.94 46.1031C110.259 27.1406 124.948 15.1762 143.858 7.86046C152.26 4.60808 161.03 2.8941 169.959 1.93261C181.479 0.686836 193.041 0.48618 204.603 0.845697C221.374 1.37243 237.868 3.64658 253.811 9.16475C272.521 15.6444 288.356 26.2042 300.653 41.8474C308.88 52.3152 314.732 64.0455 319.205 76.5199C322.983 87.0546 325.491 97.9153 327.255 108.952C327.866 112.781 328.476 116.602 329.153 120.423C329.58 122.856 329.605 125.214 328.158 127.479C330.023 128.976 330.148 130.957 330.24 132.989C330.558 140.213 331.578 147.361 332.74 154.485C333.375 158.398 333.459 162.353 333.174 166.29C332.815 171.156 332.23 176.006 331.803 180.863C331.67 182.419 331.001 183.338 329.279 183.606C329.471 181.022 329.688 178.506 329.847 175.989C330.073 172.319 330.416 168.648 330.399 164.978C330.374 160.062 328.727 155.739 325.224 152.11C319.781 146.484 309.373 149.385 307.233 156.308C307.116 156.692 307.007 157.085 306.848 157.445C306.087 159.175 305.511 160.873 306.455 162.762C306.765 163.381 306.756 164.209 306.706 164.928C306.305 170.864 306.004 176.808 305.385 182.72C304.39 192.218 303.17 201.699 302.058 211.188C301.949 212.108 301.916 213.028 301.841 214.031C305.235 214.984 308.303 214.508 311.204 212.844C313.453 211.548 315.242 209.742 316.454 207.443C319.731 201.239 322.917 194.993 326.194 188.79C327.021 187.226 328.05 185.763 329.153 183.974C330.232 186.131 330.265 187.962 329.538 189.726C327.732 194.115 325.951 198.513 323.928 202.802C321.604 207.727 318.151 211.815 313.662 214.901C311.806 216.171 310.594 217.777 309.699 219.783C304.792 230.728 299.057 241.204 292.159 251.028C282.52 264.756 270.891 276.42 256.629 285.358C255.274 286.21 253.937 287.105 252.666 288.092C251.144 289.262 250.927 290.14 251.521 291.946C251.705 292.514 251.955 293.066 252.198 293.618C254.798 299.479 257.423 305.332 260.006 311.209C261.143 313.793 262.982 315.331 265.8 315.9C271.627 317.079 277.412 318.416 283.222 319.679C283.473 319.737 283.749 319.729 284.234 319.762C283.866 319.16 283.59 318.709 283.206 318.082C283.699 318.082 284.067 318.023 284.41 318.09C289.727 319.177 294.642 321.159 298.797 324.737C303.32 328.633 305.812 333.65 306.372 339.528C306.706 343.039 306.781 346.601 306.673 350.138C306.238 364.109 305.21 378.054 303.069 391.867C301.498 402.025 299.366 412.1 297.401 422.2C296.365 427.509 295.094 432.776 294.066 438.085C293.489 441.07 291.884 443.018 289.1 444.097C287.795 444.607 286.491 445.142 285.246 445.777C275.573 450.71 269.662 461.763 270.858 472.139C272.237 484.154 281.316 493.267 291.716 495.591C307.768 499.187 318.536 490.057 322.816 480.375C328.601 467.29 323.435 452.391 310.786 445.644C309.256 444.824 307.684 444.097 305.962 443.236C306.171 442.274 306.338 441.304 306.589 440.36C309.231 430.419 311.881 420.477 314.548 410.545C317.875 398.137 320.408 385.571 321.93 372.812C322.908 364.644 323.577 356.442 323.226 348.206C322.975 342.387 322.248 336.626 320.952 330.941C319.046 322.588 314.439 316.092 307.35 311.351C301.314 307.313 294.634 304.763 287.486 303.76C278.357 302.481 269.186 301.527 260.031 300.491C258.518 300.315 257.306 299.914 256.712 298.325C257.214 297.205 258.092 296.611 259.329 296.503C268.617 295.717 277.889 295.483 287.093 297.305C297.234 299.312 306.514 303.166 314.138 310.398C319.422 315.415 323.36 321.334 325.491 328.324C326.654 332.128 328.961 334.62 332.497 336.317C337.973 338.942 343.366 341.76 348.766 344.544C359.2 349.912 366.088 358.373 370.21 369.225C373.897 378.924 376.522 388.94 378.921 399.015C382.224 412.869 384.615 426.89 386.312 441.037C387.934 454.573 389.689 468.093 391.345 481.62C392.649 492.306 393.903 502.991 394.354 513.751C394.379 514.286 394.354 514.813 394.354 515.298C394.271 515.382 394.229 515.44 394.187 515.482C394.137 515.532 394.095 515.607 394.037 515.616C393.777 515.658 393.51 515.708 393.242 515.708C262.539 515.708 131.836 515.708 1.13336 515.691C0.941072 515.691 0.757166 515.599 0.263916 515.474L0.272259 515.499ZM106.756 177.795C106.756 179.066 106.672 180.17 106.773 181.265C107.249 186.457 107.709 191.649 108.286 196.833C109.005 203.337 109.582 209.876 110.652 216.322C113.176 231.447 119.204 245.1 128.827 257.056C131.251 260.074 133.032 263.201 133.458 267.056C133.483 267.256 133.508 267.457 133.559 267.649C135.18 274.522 139.319 278.945 146.233 280.667C147.01 280.859 147.804 280.985 148.59 281.127C151.065 281.57 153.289 282.54 155.345 283.995C160.253 287.473 165.127 291.001 170.151 294.312C173.938 296.804 177.784 299.278 181.839 301.277C195.457 307.982 208.992 307.338 222.093 299.847C230.62 294.973 238.897 289.68 247.332 284.655C250.651 282.674 254.112 280.918 257.465 278.987C258.184 278.577 258.986 277.992 259.312 277.281C260.399 274.923 262.063 273.034 263.802 271.177C267.689 267.03 271.627 262.934 275.389 258.678C285.129 247.65 292.377 235.192 296.281 220.954C299.274 210.035 300.929 198.856 301.932 187.602C302.618 179.952 302.952 172.268 303.429 164.593C303.479 163.791 303.538 162.988 303.479 162.194C303.429 161.483 303.37 160.572 302.426 160.496C301.305 160.404 301.255 161.349 301.155 162.152C301.147 162.219 301.147 162.286 301.13 162.352C299.943 169.401 298.764 176.449 297.568 183.497C297.05 186.549 295.771 189.224 293.522 191.39C292.611 192.268 291.633 193.054 290.161 193.196C290.086 192.719 289.977 192.343 289.977 191.967C289.961 184.743 289.944 177.527 289.952 170.304C289.952 168.606 290.345 166.993 291.19 165.505C291.382 165.17 291.474 164.786 291.591 164.468C290.028 162.47 289.919 162.169 289.61 159.259C289.125 154.677 288.631 150.087 288.147 145.505C288.105 145.112 287.946 144.619 288.113 144.326C288.891 142.98 288.155 141.919 287.595 140.798C286.884 139.36 286.291 137.855 285.471 136.484C284.284 134.477 283.147 132.396 281.651 130.623C276.676 124.737 270.306 122.697 262.765 124.235C259.396 124.921 256.303 126.351 253.218 127.797C247.466 130.489 241.656 133.023 235.544 134.795C222.369 138.599 208.967 139.168 195.424 137.521C180.091 135.665 165.528 131.233 151.784 124.185C145.246 120.832 138.817 117.271 132.338 113.801C131.711 113.467 131.059 113.157 130.198 112.731C129.654 114.386 129.069 115.866 128.685 117.405C127.481 122.195 126.294 126.994 125.215 131.819C122.757 142.847 120.801 153.958 119.731 165.22C119.388 168.807 119.187 172.427 118.519 175.964C117.984 178.782 117.95 181.491 118.435 184.291C118.962 187.368 119.321 190.47 119.756 193.589C116.897 193.53 114.38 192.151 112.775 189.701C112.048 188.589 111.454 187.377 110.936 186.148C110.158 184.308 109.523 182.402 108.771 180.546C108.353 179.526 107.926 178.472 106.706 177.812L106.756 177.795ZM246.939 290.424C246.103 290.867 245.401 291.235 244.707 291.62C239.44 294.513 234.182 297.422 228.898 300.29C223.84 303.024 218.623 305.407 213.114 307.104C203.224 310.156 193.468 310.147 184.054 305.516C174.824 300.967 165.762 296.101 157.377 290.081C156.808 289.672 156.173 289.362 155.454 288.936C155.011 289.881 154.66 290.591 154.342 291.319C150.045 301.034 145.756 310.741 141.467 320.456C141.141 321.192 140.84 321.928 140.489 322.655C139.461 324.779 139.787 326.66 141.425 328.341C142.027 328.959 142.596 329.62 143.189 330.255C161.724 350.154 180.267 370.053 198.801 389.96C199.596 390.813 200.348 391.716 201.109 392.586C203.216 390.169 205.172 387.803 207.262 385.554C224.534 366.943 241.814 348.332 259.145 329.77C261.645 327.095 262.213 324.378 260.7 321.017C256.42 311.519 252.248 301.971 248.018 292.448C247.725 291.787 247.349 291.177 246.948 290.424H246.939ZM144.803 301.084C143.273 300.7 142.153 301.151 141.024 301.553C129.579 305.624 118.126 309.688 106.681 313.768C99.4908 316.335 92.5602 319.461 86.24 323.809C79.1673 328.675 73.4572 334.779 69.7537 342.571C62.3549 358.139 55.0565 373.749 47.7079 389.342C44.9491 395.203 44.0211 401.415 45.0828 407.727C46.6629 417.075 48.6442 426.355 50.5002 435.652C50.8346 437.316 51.5201 438.913 52.8996 439.95C54.6719 441.279 55.4912 443.069 56.16 445.083C60.7581 458.896 65.4064 472.699 70.0296 486.503C70.991 489.363 72.0778 492.155 73.7415 494.697C76.7261 499.254 80.856 502.071 86.2817 502.807C92.1255 503.601 98.0111 503.501 103.897 503.342C105.368 503.3 106.848 503.35 108.302 503.191C110.769 502.924 111.973 500.976 111.212 498.635C110.777 497.305 110.317 495.976 109.799 494.672C108.996 492.64 108.127 490.633 107.174 488.343C104.44 489.622 101.807 490.617 99.4156 492.03C96.7821 493.576 94.0567 494.714 91.0889 495.341C86.4824 496.311 82.5615 494.73 80.0367 490.759C79.3261 489.639 78.7241 488.41 78.3061 487.155C73.5743 472.892 68.9009 458.611 64.1858 444.339C63.4 441.948 63.6257 439.716 65.1054 437.676C65.6238 436.965 65.7575 436.296 65.5318 435.443C63.2077 426.648 61.7363 417.685 60.2231 408.722C59.153 402.401 59.9137 396.373 62.7896 390.587C68.3074 379.467 76.9518 371.633 88.0123 366.307C94.5332 363.164 101.405 361.274 108.67 361.224C113.879 361.191 119.095 361.475 124.304 361.667C128.359 361.818 132.221 362.813 135.891 364.535C141.158 367.01 145.338 370.78 148.774 375.421C153.389 381.658 157.97 387.904 162.568 394.149C163.078 394.843 163.622 395.512 164.224 396.289C165.561 395.763 166.832 395.253 168.287 394.676C170.602 398.915 173.027 402.928 175.05 407.125C180.384 418.195 185.592 429.34 190.742 440.493C191.653 442.467 192.163 444.657 192.657 446.789C192.891 447.792 192.79 448.929 192.615 449.966C192.03 453.486 189.881 455.911 186.746 457.341C184.765 458.243 182.591 458.762 180.476 459.355C178.227 459.983 175.92 460.409 173.679 461.061C171.781 461.621 171.004 462.75 171.321 464.472C171.999 468.168 173.646 471.437 176.187 474.204C177.408 475.534 178.812 475.584 180.35 474.589C180.794 474.305 181.212 473.945 181.604 473.586C184.213 471.186 186.896 468.862 189.396 466.362C191.796 463.954 194.111 461.437 196.277 458.812C199.295 455.142 200.482 450.836 200.172 446.095C199.963 442.893 198.826 439.983 197.43 437.149C190.475 423.002 183.527 408.848 176.555 394.701C175.418 392.393 174.624 390.002 174.548 387.419C174.507 385.972 174.097 384.651 173.311 383.456C169.708 377.988 166.222 372.436 162.451 367.085C157.051 359.41 149.761 354.151 140.849 351.241C137.68 350.204 134.436 349.385 131.176 348.674C119.915 346.216 108.996 342.738 98.5378 337.889C97.3924 337.354 96.2554 336.76 95.2188 336.041C92.3596 334.034 92.2342 331.911 94.759 329.444C95.0934 329.118 95.4612 328.817 95.8542 328.575C97.4593 327.613 99.0227 326.577 100.695 325.757C108.904 321.744 117.582 319.11 126.528 317.363C130.265 316.636 134.027 316.067 137.78 315.432C139.904 315.072 141.258 313.876 141.852 311.795C142.671 308.902 143.532 306.026 144.352 303.133C144.535 302.497 144.636 301.845 144.795 301.076L144.803 301.084ZM106.773 213.864C106.689 212.501 106.63 211.172 106.513 209.851C105.878 202.66 105.218 195.47 104.574 188.28C104.005 181.959 103.537 175.621 102.877 169.309C102.233 163.147 103.286 164.618 98.496 159.493C96.8992 157.787 95.3776 156.007 93.7557 154.318C93.3294 153.875 92.6606 153.356 92.1339 153.39C89.8097 153.515 87.4773 153.766 85.1699 154.1C81.8007 154.585 79.5685 156.475 78.674 159.802C78.4315 160.705 78.2727 161.633 78.1473 162.553C77.7711 165.337 77.4534 168.121 77.0772 170.897C76.9518 171.8 76.9434 172.703 77.6708 173.314C78.5235 174.024 78.7158 174.986 78.9583 175.947C80.02 180.153 80.9647 184.4 82.1853 188.564C84.1081 195.152 86.8252 201.381 91.1892 206.774C93.2207 209.282 95.5532 211.473 98.3706 213.111C100.996 214.633 103.729 214.959 106.773 213.855V213.864Z" fill="black"/>
<path d="M278.649 469.882C278.482 460.476 284.986 452.458 293.689 450.585C297.953 449.665 302.049 450.15 306.004 451.973C307.425 452.633 308.604 453.52 309.524 454.841C309.983 455.509 310.803 455.927 311.463 456.454C312.282 457.106 313.261 457.633 313.879 458.444C316.755 462.19 317.591 466.529 317.165 471.136C316.028 483.594 303.73 491.72 291.817 487.908C289.693 487.231 287.779 486.16 286.048 484.756C285.739 484.505 285.296 484.254 285.204 483.928C284.669 482.114 283.072 481.278 281.868 480.074C280.346 478.552 279.569 476.629 279.218 474.555C278.917 472.783 278.775 470.977 278.649 469.873V469.882ZM309.741 469.263C309.799 466.228 308.269 463.461 306.765 460.71C306.48 460.2 305.778 459.79 305.193 459.59C303.496 459.013 301.774 458.436 300.018 458.085C292.837 456.647 286.282 462.14 286.324 469.48C286.341 472.298 287.536 474.79 288.406 477.373C288.514 477.708 288.874 478.05 289.208 478.192C291.223 479.079 293.196 480.132 295.294 480.709C302.702 482.757 309.791 477.206 309.741 469.255V469.263Z" fill="black"/>
<path d="M309.741 469.255C309.783 477.206 302.701 482.757 295.294 480.709C293.196 480.124 291.223 479.07 289.208 478.192C288.882 478.05 288.523 477.699 288.406 477.373C287.536 474.79 286.341 472.298 286.324 469.48C286.282 462.14 292.828 456.646 300.018 458.085C301.774 458.436 303.496 459.013 305.193 459.589C305.786 459.79 306.489 460.191 306.765 460.71C308.269 463.461 309.799 466.228 309.741 469.263V469.255Z" fill="white"/>
<path d="M206.677 197.769C205.849 211.748 205.021 225.728 204.194 239.674C200.825 240.184 198.325 238.261 198.133 235.1C198.082 234.314 198.166 233.495 198.342 232.717C200.799 221.497 203.282 210.277 205.757 199.065C205.857 198.622 206.033 198.195 206.167 197.769C206.334 197.769 206.501 197.769 206.668 197.769H206.677Z" fill="black"/>
<path d="M73.3652 356.81C74.9202 353.131 76.5337 349.494 78.7325 346.133C80.045 344.126 81.7756 343.332 84.1916 343.741C87.6862 344.327 91.0136 345.389 94.2573 346.927C88.4219 347.83 83.6984 350.965 78.9498 354.075C77.2443 355.187 75.472 356.191 73.7247 357.244C73.6077 357.102 73.4823 356.952 73.3652 356.81Z" fill="black"/>
</g>
<defs>
<clipPath id="clip0_701_968">
<rect width="394.101" height="515.022" fill="white" transform="translate(0.263916 0.686035)"/>
</clipPath>
</defs>
</svg>
