<svg width="26" height="43" viewBox="0 0 26 43" fill="none" xmlns="http://www.w3.org/2000/svg">
<path d="M23.8934 32.4309C21.3394 31.3743 15.7824 31.9216 13.9554 34.011V20.0353C13.9554 19.3788 13.5084 18.8481 12.9554 18.8481C12.4024 18.8481 11.9554 19.3788 11.9554 20.0353V34.011C10.1284 31.9216 4.57143 31.3743 2.01743 32.4309C1.27643 32.7384 7.28143 42.8177 11.5244 37.7816C11.6924 37.5821 11.8304 37.3898 11.9554 37.1999V41.4049C11.9554 42.0614 12.4024 42.5921 12.9554 42.5921C13.5084 42.5921 13.9554 42.0614 13.9554 41.4049V37.1999C14.0804 37.3898 14.2184 37.5821 14.3864 37.7816C18.6294 42.8177 24.6344 32.7384 23.8934 32.4309Z" fill="#77B255"/>
<path d="M7.51742 30.3046C6.89842 29.9888 6.41042 29.3109 6.13942 28.5084L4.87342 24.5835L1.61542 22.9297C0.27942 22.2483 -0.26058 20.6479 0.31142 19.0606L1.67342 15.2841L0.30942 11.4032C-0.23158 9.80047 0.45942 7.9983 1.80942 7.35721L5.08142 5.83641L6.53042 1.81893C7.10342 0.232828 8.45142 -0.40826 9.78842 0.270818L13.0464 1.92815L16.3134 0.306434C16.9884 -0.015297 17.7244 -0.021233 18.3434 0.293375C18.9624 0.607983 19.4574 1.26569 19.7284 2.06705L21.0024 5.97294L24.3114 7.6552C25.6474 8.33428 26.1864 9.93581 25.6164 11.5231L24.1654 15.5406L25.5304 19.4192C26.0714 21.0219 25.3804 22.8217 24.0304 23.464L20.7594 24.9848L19.3964 28.7636C18.8244 30.3497 17.4744 30.992 16.1384 30.3129L12.8304 28.6306L9.56342 30.25C8.88742 30.5717 8.13642 30.6192 7.51742 30.3046Z" fill="#CCD6DD"/>
<path d="M24.3114 7.65521L21.0024 5.97294L20.9474 5.80317C19.3824 7.39046 15.7324 10.9722 15.7324 10.9722L15.7394 11.1183C14.9704 10.3941 14.0124 9.94413 12.9554 9.94413V1.88185L9.78842 0.272008C8.45142 -0.40707 7.10342 0.234018 6.53042 1.82012L5.08142 5.8376L5.02042 5.8661L9.77342 11.51C8.95942 12.4752 8.45542 13.8108 8.45542 15.2865H1.67242L0.31142 19.0594C-0.26058 20.6467 0.27942 22.2483 1.61542 22.9285L4.87342 24.5835L4.87542 24.5906L9.37142 18.486C10.1934 19.7801 11.4864 20.6289 12.9554 20.6289H12.9604C12.9664 22.9784 12.9754 26.889 12.9724 28.7031L16.1364 30.3129C17.4724 30.992 18.8224 30.3497 19.3944 28.7636L20.7564 24.9883L15.5644 19.6257C16.7044 18.657 17.4544 17.0792 17.4544 15.2877C17.4544 15.2034 17.4364 15.1251 17.4334 15.0408C19.2354 15.2568 22.3844 15.6011 24.2554 15.803L24.1634 15.5418L25.6154 11.5231C26.1864 9.93582 25.6464 8.33428 24.3114 7.65521Z" fill="#E1E8ED"/>
<path d="M12.9554 21.2225C15.7168 21.2225 17.9554 18.5649 17.9554 15.2865C17.9554 12.0082 15.7168 9.35052 12.9554 9.35052C10.194 9.35052 7.95541 12.0082 7.95541 15.2865C7.95541 18.5649 10.194 21.2225 12.9554 21.2225Z" fill="#F4900C"/>
</svg>
