<svg width="27" height="43" viewBox="0 0 27 43" fill="none" xmlns="http://www.w3.org/2000/svg">
<path d="M24.1367 32.4309C21.5827 31.3743 16.0257 31.9216 14.1987 34.011V20.0353C14.1987 19.3788 13.7517 18.8481 13.1987 18.8481C12.6457 18.8481 12.1987 19.3788 12.1987 20.0353V34.011C10.3717 31.9216 4.81474 31.3743 2.26075 32.4309C1.51975 32.7384 7.52474 42.8177 11.7677 37.7816C11.9357 37.5821 12.0737 37.3898 12.1987 37.1999V41.4049C12.1987 42.0614 12.6457 42.5921 13.1987 42.5921C13.7517 42.5921 14.1987 42.0614 14.1987 41.4049V37.1999C14.3237 37.3898 14.4617 37.5821 14.6297 37.7816C18.8727 42.8177 24.8777 32.7384 24.1367 32.4309Z" fill="#77B255"/>
<path d="M7.76074 30.3046C7.14174 29.9888 6.65374 29.3109 6.38274 28.5084L5.11674 24.5835L1.85874 22.9297C0.522736 22.2483 -0.0172638 20.6479 0.554736 19.0606L1.91674 15.2841L0.552736 11.4032C0.0117364 9.80047 0.702736 7.9983 2.05274 7.35721L5.32474 5.83641L6.77374 1.81893C7.34674 0.232828 8.69474 -0.40826 10.0317 0.270818L13.2897 1.92815L16.5567 0.306434C17.2317 -0.015297 17.9677 -0.021233 18.5867 0.293375C19.2057 0.607983 19.7007 1.26569 19.9717 2.06705L21.2457 5.97294L24.5547 7.6552C25.8907 8.33428 26.4297 9.93581 25.8597 11.5231L24.4087 15.5406L25.7737 19.4192C26.3147 21.0219 25.6237 22.8217 24.2737 23.464L21.0027 24.9848L19.6397 28.7636C19.0677 30.3497 17.7177 30.992 16.3817 30.3129L13.0737 28.6306L9.80674 30.25C9.13074 30.5717 8.37974 30.6192 7.76074 30.3046Z" fill="#CCD6DD"/>
<path d="M24.5547 7.65521L21.2457 5.97294L21.1907 5.80317C19.6257 7.39046 15.9757 10.9722 15.9757 10.9722L15.9827 11.1183C15.2137 10.3941 14.2557 9.94413 13.1987 9.94413V1.88185L10.0317 0.272008C8.69474 -0.40707 7.34674 0.234018 6.77374 1.82012L5.32474 5.8376L5.26374 5.8661L10.0167 11.51C9.20274 12.4752 8.69874 13.8108 8.69874 15.2865H1.91574L0.554736 19.0594C-0.0172638 20.6467 0.522736 22.2483 1.85874 22.9285L5.11674 24.5835L5.11874 24.5906L9.61474 18.486C10.4367 19.7801 11.7297 20.6289 13.1987 20.6289H13.2037C13.2097 22.9784 13.2187 26.889 13.2157 28.7031L16.3797 30.3129C17.7157 30.992 19.0657 30.3497 19.6377 28.7636L20.9997 24.9883L15.8077 19.6257C16.9477 18.657 17.6977 17.0792 17.6977 15.2877C17.6977 15.2034 17.6797 15.1251 17.6767 15.0408C19.4787 15.2568 22.6277 15.6011 24.4987 15.803L24.4067 15.5418L25.8587 11.5231C26.4297 9.93582 25.8897 8.33428 24.5547 7.65521Z" fill="#E1E8ED"/>
<path d="M13.1987 21.2225C15.9602 21.2225 18.1987 18.5649 18.1987 15.2865C18.1987 12.0082 15.9602 9.35052 13.1987 9.35052C10.4373 9.35052 8.19873 12.0082 8.19873 15.2865C8.19873 18.5649 10.4373 21.2225 13.1987 21.2225Z" fill="#F4900C"/>
</svg>
