<svg width="48" height="49" viewBox="0 0 48 49" fill="none" xmlns="http://www.w3.org/2000/svg">
<path d="M48 24.3389C48 11.0827 37.2562 0.338867 24 0.338867C10.7438 0.338867 0 11.0827 0 24.3389C0 36.3202 8.775 46.2483 20.25 48.0483V31.2764H14.1562V24.3389H20.25V19.0514C20.25 13.0373 23.8313 9.71387 29.3156 9.71387C31.9406 9.71387 34.6875 10.1826 34.6875 10.1826V16.0889H31.6594C28.6781 16.0889 27.75 17.9405 27.75 19.8389V24.3389H34.4062L33.3422 31.2764H27.75V48.0483C39.225 46.2483 48 36.3202 48 24.3389Z" fill="#1877F2"/>
<path d="M33.3422 31.2764L34.4062 24.3389H27.75V19.8389C27.75 17.9405 28.6781 16.0889 31.6594 16.0889H34.6875V10.1826C34.6875 10.1826 31.9406 9.71387 29.3156 9.71387C23.8313 9.71387 20.25 13.0373 20.25 19.0514V24.3389H14.1562V31.2764H20.25V48.0483C21.4734 48.2405 22.725 48.3389 24 48.3389C25.275 48.3389 26.5266 48.2405 27.75 48.0483V31.2764H33.3422Z" fill="white"/>
</svg>
