<svg width="50" height="39" viewBox="0 0 50 39" fill="none" xmlns="http://www.w3.org/2000/svg">
<g clip-path="url(#clip0_781_17281)">
<path d="M23.4972 19.4407L28.0149 19.4409C28.4113 19.4409 28.8074 19.0445 28.8074 18.6484L28.8076 13.5759C28.8077 11.1189 30.7892 9.05822 33.1671 9.05829C33.5635 9.05831 33.9596 8.74125 33.9596 8.26581L33.9598 4.22329C33.9598 3.74783 33.5634 3.43077 33.1673 3.43076L32.4541 3.43073C27.1436 3.43056 22.7052 7.86908 22.705 13.3377L22.7049 18.6479C22.7048 19.0443 23.1012 19.4407 23.4973 19.4407L23.4972 19.4407Z" fill="#02A295"/>
<path d="M23.3789 1.1316C23.3571 1.13161 23.3394 1.11389 23.3383 1.09208C23.3181 0.709306 23.0065 0.339099 22.5469 0.339085L18.346 0.338949C18.309 0.338948 18.272 0.340866 18.2353 0.344703C17.851 0.3849 17.5534 0.745067 17.5534 1.13145L17.5533 3.32923C17.5533 6.21024 15.8094 9.02948 15.8093 11.9105C15.8093 11.9824 15.8858 12.0285 15.9498 11.9958C17.2614 11.3257 18.9315 10.7996 20.8911 10.4182C20.9376 10.4091 20.9932 10.405 21.0405 10.4019C21.3759 10.3797 21.6556 10.1005 21.7573 9.78017C22.0011 9.01263 22.2997 8.29376 22.6802 7.62345C23.105 6.87513 23.4185 6.0531 23.4185 5.19263L23.4184 1.17113C23.4184 1.14929 23.4007 1.13159 23.3789 1.1316Z" fill="#02A295"/>
<path d="M17.9488 34.4993C17.9487 34.4994 17.9486 34.4993 17.9486 34.4992L17.9487 32.0423C17.9487 31.8045 18.028 31.5668 18.2658 31.4082C19.2942 30.6245 19.821 29.3478 19.6444 28.067L18.9793 23.2444C18.8451 22.44 20.4237 22.2209 20.4834 23.0342C20.4846 23.0512 20.4853 23.0684 20.4853 23.0858L21.5153 30.3775C21.5946 30.6946 21.436 30.9323 21.1982 31.0907L20.8528 31.3705C20.0184 32.0463 19.5337 33.0625 19.5337 34.1362C19.5337 35.2175 20.0103 36.2648 20.9262 36.8394C22.4903 37.8205 24.094 38.3833 25.5573 38.3834C25.9537 38.3834 26.2704 38.3834 26.5875 38.3041C28.1665 38.0412 28.7176 36.1494 28.0831 34.6799L27.83 34.0938C27.7423 33.8907 27.618 33.6906 27.618 33.4693C27.618 31.1878 26.9949 28.9496 25.8158 26.9963L25.0822 25.7812C24.8445 25.3848 25.0029 24.9094 25.32 24.6716C25.7164 24.4339 26.1919 24.5923 26.4296 24.9094L29.0451 29.1894C29.1244 29.3478 29.2035 29.4271 29.2035 29.5858L29.2034 32.7477C29.2033 33.0147 29.2567 33.2791 29.3604 33.5252C29.9002 34.8072 31.5394 35.1349 32.2977 33.9686C34.4188 30.7061 35.3989 26.0679 34.5142 21.5807C34.2558 20.1408 33.8082 18.8212 33.1955 17.6541C32.3815 16.1039 30.4721 16.8973 30.4721 18.6482C30.472 19.9164 29.3624 21.026 28.0941 21.026L23.4971 21.0255C22.2288 21.0255 21.1192 19.9159 21.1193 18.6476L21.1194 13.3374C21.1195 12.8904 21.1195 12.4432 21.1854 12.062C21.1919 12.0247 21.1635 11.9901 21.1256 11.9901C21.1217 11.9901 21.1178 11.9904 21.114 11.9912C13.8263 13.4186 10.6578 17.3809 11.8462 23.7199C12.5595 27.6035 15.0163 31.6458 17.9488 34.4992C17.9488 34.4992 17.9488 34.4993 17.9488 34.4993Z" fill="#02A295"/>
<path d="M48.8596 24.0384C48.8596 24.0384 48.8596 24.0384 48.8595 24.0384L48.1382 24.0384C47.6297 24.0384 47.1856 23.6945 47.0582 23.2023L45.531 17.3014C45.4517 16.905 45.1347 16.6673 44.7385 16.6673C44.4167 16.6673 44.1474 16.8763 44.0574 17.1246C44.0165 17.2375 44.0148 17.3609 43.9939 17.4792L43.0435 22.8485C42.8958 23.6828 41.7217 23.7433 41.489 22.9287C41.3423 22.3423 40.3868 22.2018 40.086 22.726C40.0778 22.7404 40.0699 22.7552 40.0623 22.7703C39.4163 23.8161 37.8383 23.6094 37.4834 22.4325L36.892 20.4716C36.8127 20.1545 36.4956 19.9168 36.1789 19.9168C35.9253 19.9168 35.8359 20.1474 35.9018 20.3922C35.9867 20.7072 36.0431 21.0053 36.0995 21.3434C36.4127 23.3809 36.7335 25.4346 37.3564 27.3996L37.4466 27.6843C37.5933 28.2706 38.5488 28.4112 38.8496 27.8869C38.8578 27.8725 38.8657 27.8578 38.8733 27.8427C39.4728 26.8236 41.0003 27.0149 41.3299 28.1504L41.8849 30.0622C41.9642 30.3793 42.2812 30.617 42.6773 30.6171L42.7567 30.6171C43.085 30.6171 43.3587 30.3996 43.443 30.1447C43.4775 30.0407 43.4793 29.9287 43.4979 29.8207L44.3051 25.1486C44.4641 24.2286 45.7623 24.168 46.0063 25.0692C46.0856 25.3862 46.4027 25.7033 46.7988 25.7033L48.8596 25.7031C49.335 25.7031 49.6521 25.3861 49.6521 24.9106C49.6521 24.3556 49.3351 24.0385 48.8597 24.0385C48.8596 24.0385 48.8596 24.0385 48.8596 24.0384Z" fill="#02A295"/>
</g>
<defs>
<clipPath id="clip0_781_17281">
<rect width="48.9792" height="38.0439" fill="white" transform="translate(0.672424 0.338867)"/>
</clipPath>
</defs>
</svg>
