<svg width="148" height="226" viewBox="0 0 148 226" fill="none" xmlns="http://www.w3.org/2000/svg">
<g clip-path="url(#clip0_709_18593)">
<rect opacity="0.25" x="108.405" y="187.339" width="38.3792" height="38" rx="19" stroke="white"/>
<path fill-rule="evenodd" clip-rule="evenodd" d="M127.405 203.765L127.433 204.241L126.959 204.183C125.233 203.959 123.725 203.202 122.444 201.93L121.818 201.299L121.657 201.765C121.316 202.804 121.534 203.901 122.245 204.639C122.625 205.047 122.539 205.105 121.885 204.862C121.657 204.785 121.458 204.726 121.439 204.755C121.373 204.823 121.6 205.707 121.781 206.057C122.027 206.542 122.53 207.018 123.08 207.299L123.545 207.523L122.995 207.532C122.463 207.532 122.444 207.542 122.501 207.746C122.691 208.377 123.44 209.047 124.275 209.338L124.863 209.542L124.351 209.853C123.592 210.3 122.701 210.552 121.809 210.572C121.382 210.581 121.031 210.62 121.031 210.649C121.031 210.746 122.188 211.29 122.862 211.504C124.882 212.135 127.282 211.863 129.084 210.785C130.364 210.018 131.644 208.494 132.242 207.018C132.564 206.231 132.887 204.794 132.887 204.105C132.887 203.658 132.915 203.6 133.447 203.066C133.76 202.755 134.054 202.415 134.11 202.318C134.205 202.134 134.196 202.134 133.712 202.299C132.906 202.59 132.792 202.551 133.19 202.114C133.484 201.804 133.835 201.24 133.835 201.075C133.835 201.046 133.693 201.095 133.532 201.182C133.361 201.279 132.982 201.425 132.697 201.512L132.185 201.677L131.72 201.357C131.464 201.182 131.104 200.988 130.914 200.93C130.43 200.794 129.691 200.813 129.254 200.969C128.069 201.406 127.32 202.532 127.405 203.765Z" fill="white"/>
<rect opacity="0.25" x="54.8896" y="187.339" width="38.3792" height="38" rx="19" stroke="white"/>
<path fill-rule="evenodd" clip-rule="evenodd" d="M70.5452 212.839H67.5161V203.839H70.5452V212.839Z" fill="white"/>
<path fill-rule="evenodd" clip-rule="evenodd" d="M69.0216 201.839H69.0044C68.1005 201.839 67.5161 201.172 67.5161 200.338C67.5161 199.487 68.1183 198.839 69.0394 198.839C69.9605 198.839 70.5277 199.487 70.5452 200.338C70.5452 201.172 69.9605 201.839 69.0216 201.839Z" fill="white"/>
<path fill-rule="evenodd" clip-rule="evenodd" d="M81.652 212.839H78.6755V208.134C78.6755 206.953 78.2447 206.146 77.1671 206.146C76.3447 206.146 75.8549 206.69 75.6398 207.215C75.5611 207.403 75.5417 207.665 75.5417 207.928V212.839H72.5647C72.5647 212.839 72.6039 204.871 72.5647 204.046H75.5417V205.291C75.9368 204.692 76.6444 203.839 78.2248 203.839C80.1837 203.839 81.6522 205.096 81.6522 207.797L81.652 212.839Z" fill="white"/>
<rect opacity="0.25" x="1.37433" y="187.339" width="38.3792" height="38" rx="19" stroke="white"/>
<path fill-rule="evenodd" clip-rule="evenodd" d="M18.5957 213.839V206.338H17.0299V203.753H18.5957V202.202C18.5957 200.093 19.4799 198.839 21.9919 198.839H24.0832V201.424H22.776C21.7981 201.424 21.7334 201.785 21.7334 202.459L21.7299 203.753H24.098L23.8209 206.338H21.7299V213.839H18.5957Z" fill="white"/>
</g>
<defs>
<clipPath id="clip0_709_18593">
<rect width="146.41" height="225" fill="white" transform="translate(0.874329 0.838867)"/>
</clipPath>
</defs>
</svg>
