<svg width="29" height="175" viewBox="0 0 29 175" fill="none" xmlns="http://www.w3.org/2000/svg">
<g clip-path="url(#clip0_781_13692)">
<g clip-path="url(#clip1_781_13692)">
<path d="M16.0434 98.0001C10.4698 98.0001 5.9563 102.48 5.9563 108C5.9563 113.52 10.4698 118 16.0434 118C21.6272 118 26.1507 113.52 26.1507 108C26.1507 102.48 21.6272 98.0001 16.0434 98.0001ZM16.0535 116C11.5905 116 7.97574 112.42 7.97574 108C7.97574 103.58 11.5905 100 16.0535 100C20.5165 100 24.1313 103.58 24.1313 108C24.1313 112.42 20.5165 116 16.0535 116Z" fill="white"/>
<path d="M16.5584 103H15.0438V109L20.3449 112.15L21.1022 110.92L16.5584 108.25V103Z" fill="white"/>
<path d="M24.1313 68.0001H7.97574C6.86505 68.0001 5.9664 68.9001 5.9664 70.0001L5.9563 82.0001C5.9563 83.1001 6.86505 84.0001 7.97574 84.0001H24.1313C25.242 84.0001 26.1507 83.1001 26.1507 82.0001V70.0001C26.1507 68.9001 25.242 68.0001 24.1313 68.0001ZM24.1313 72.0001L16.0535 77.0001L7.97574 72.0001V70.0001L16.0535 75.0001L24.1313 70.0001V72.0001Z" fill="white"/>
<path d="M23.1721 36.9101C22.2464 35.984 21.1438 35.2498 19.9285 34.7502C18.7133 34.2506 17.4097 33.9956 16.094 34.0001C10.5809 34.0001 6.08761 38.4501 6.08761 43.9101C6.08761 45.6601 6.55209 47.3601 7.42045 48.8601L6.00684 54.0001L11.3079 52.6201C12.772 53.4101 14.4178 53.8301 16.094 53.8301C21.607 53.8301 26.1003 49.3801 26.1003 43.9201C26.1003 41.2701 25.0603 38.7801 23.1721 36.9101ZM16.094 52.1501C14.5996 52.1501 13.1355 51.7501 11.8531 51.0001L11.5502 50.8201L8.39988 51.6401L9.23795 48.6001L9.036 48.2901C8.20575 46.9771 7.7649 45.4594 7.76375 43.9101C7.76375 39.3701 11.4997 35.6701 16.0839 35.6701C18.3053 35.6701 20.3954 36.5301 21.9604 38.0901C22.7354 38.8541 23.3495 39.7628 23.7672 40.7635C24.185 41.7643 24.3979 42.8372 24.3939 43.9201C24.4141 48.4601 20.6781 52.1501 16.094 52.1501ZM20.6579 45.9901C20.4055 45.8701 19.1736 45.2701 18.9515 45.1801C18.7192 45.1001 18.5577 45.0601 18.386 45.3001C18.2144 45.5501 17.7398 46.1101 17.5984 46.2701C17.4571 46.4401 17.3056 46.4601 17.0532 46.3301C16.8008 46.2101 15.993 45.9401 15.0438 45.1001C14.2967 44.4401 13.8019 43.6301 13.6504 43.3801C13.5091 43.1301 13.6302 43.0001 13.7615 42.8701C13.8726 42.7601 14.0139 42.5801 14.1351 42.4401C14.2563 42.3001 14.3068 42.1901 14.3875 42.0301C14.4683 41.8601 14.4279 41.7201 14.3673 41.6001C14.3068 41.4801 13.8019 40.2601 13.5999 39.7601C13.398 39.2801 13.186 39.3401 13.0345 39.3301H12.5498C12.3782 39.3301 12.1157 39.3901 11.8834 39.6401C11.6613 39.8901 11.0151 40.4901 11.0151 41.7101C11.0151 42.9301 11.9137 44.1101 12.0349 44.2701C12.156 44.4401 13.8019 46.9401 16.306 48.0101C16.9017 48.2701 17.3662 48.4201 17.7297 48.5301C18.3254 48.7201 18.8707 48.6901 19.3049 48.6301C19.7895 48.5601 20.7892 48.0301 20.9911 47.4501C21.2032 46.8701 21.2032 46.3801 21.1325 46.2701C21.0618 46.1601 20.9103 46.1101 20.6579 45.9901Z" fill="white"/>
<path d="M21.1123 15.3801C19.8703 15.3801 18.6687 15.1801 17.5479 14.8201C17.3724 14.7612 17.1836 14.7524 17.0032 14.7949C16.8228 14.8373 16.6582 14.9293 16.5281 15.0601L14.9429 17.0301C12.0853 15.6801 9.40958 13.1301 7.98588 10.2001L9.95483 8.54012C10.2275 8.26012 10.3082 7.87012 10.1972 7.52012C9.82357 6.41012 9.63172 5.22012 9.63172 3.99012C9.63172 3.45012 9.17735 3.00012 8.6321 3.00012H5.13846C4.59321 3.00012 3.93689 3.24012 3.93689 3.99012C3.93689 13.2801 11.742 21.0001 21.1123 21.0001C21.8292 21.0001 22.1119 20.3701 22.1119 19.8201V16.3701C22.1119 15.8301 21.6575 15.3801 21.1123 15.3801Z" fill="white"/>
</g>
</g>
<defs>
<clipPath id="clip0_781_13692">
<rect width="27.2625" height="175" fill="white" transform="translate(0.907715 0.00012207)"/>
</clipPath>
<clipPath id="clip1_781_13692">
<rect width="27.2625" height="120" fill="white" transform="translate(0.907715 0.00012207)"/>
</clipPath>
</defs>
</svg>
