<svg width="148" height="225" viewBox="0 0 148 225" fill="none" xmlns="http://www.w3.org/2000/svg">
<g clip-path="url(#clip0_781_13713)">
<rect opacity="0.25" x="108.405" y="186.5" width="38.3792" height="38" rx="19" stroke="white"/>
<path fill-rule="evenodd" clip-rule="evenodd" d="M127.405 202.926L127.433 203.402L126.959 203.344C125.233 203.12 123.725 202.363 122.445 201.091L121.819 200.46L121.657 200.926C121.316 201.965 121.534 203.062 122.245 203.8C122.625 204.208 122.539 204.266 121.885 204.024C121.657 203.946 121.458 203.888 121.439 203.917C121.373 203.985 121.6 204.868 121.781 205.218C122.027 205.703 122.53 206.179 123.08 206.461L123.545 206.684L122.995 206.694C122.464 206.694 122.445 206.703 122.501 206.907C122.691 207.538 123.44 208.208 124.275 208.5L124.863 208.704L124.351 209.014C123.592 209.461 122.701 209.713 121.809 209.733C121.382 209.743 121.031 209.781 121.031 209.811C121.031 209.908 122.188 210.451 122.862 210.665C124.882 211.296 127.282 211.024 129.084 209.946C130.364 209.179 131.645 207.655 132.242 206.179C132.565 205.393 132.887 203.956 132.887 203.266C132.887 202.819 132.916 202.761 133.447 202.227C133.76 201.916 134.054 201.577 134.111 201.48C134.205 201.295 134.196 201.295 133.712 201.46C132.906 201.751 132.792 201.713 133.191 201.276C133.485 200.965 133.836 200.402 133.836 200.237C133.836 200.208 133.693 200.256 133.532 200.343C133.361 200.441 132.982 200.586 132.697 200.674L132.185 200.839L131.72 200.518C131.464 200.343 131.104 200.149 130.914 200.091C130.431 199.955 129.691 199.975 129.254 200.13C128.069 200.567 127.32 201.693 127.405 202.926Z" fill="white"/>
<rect opacity="0.25" x="54.8898" y="186.5" width="38.3792" height="38" rx="19" stroke="white"/>
<path fill-rule="evenodd" clip-rule="evenodd" d="M70.5453 212H67.5161V203H70.5453V212Z" fill="white"/>
<path fill-rule="evenodd" clip-rule="evenodd" d="M69.0217 201H69.0045C68.1005 201 67.5161 200.333 67.5161 199.5C67.5161 198.648 68.1183 198 69.0394 198C69.9606 198 70.5278 198.648 70.5453 199.5C70.5453 200.333 69.9606 201 69.0217 201Z" fill="white"/>
<path fill-rule="evenodd" clip-rule="evenodd" d="M81.6521 212H78.6755V207.295C78.6755 206.114 78.2447 205.308 77.1672 205.308C76.3448 205.308 75.8549 205.851 75.6398 206.376C75.5611 206.564 75.5418 206.826 75.5418 207.089V212H72.5647C72.5647 212 72.6039 204.032 72.5647 203.207H75.5418V204.452C75.9368 203.854 76.6444 203 78.2249 203C80.1837 203 81.6522 204.257 81.6522 206.958L81.6521 212Z" fill="white"/>
<rect opacity="0.25" x="1.37439" y="186.5" width="38.3792" height="38" rx="19" stroke="white"/>
<path fill-rule="evenodd" clip-rule="evenodd" d="M18.5958 213V205.5H17.03V202.915H18.5958V201.363C18.5958 199.254 19.48 198 21.992 198H24.0833V200.585H22.7761C21.7982 200.585 21.7335 200.946 21.7335 201.621L21.73 202.914H24.0981L23.821 205.499H21.73V213H18.5958Z" fill="white"/>
</g>
<defs>
<clipPath id="clip0_781_13713">
<rect width="146.41" height="225" fill="white" transform="translate(0.87439 0.00012207)"/>
</clipPath>
</defs>
</svg>
