<svg width="29" height="176" viewBox="0 0 29 176" fill="none" xmlns="http://www.w3.org/2000/svg">
<g clip-path="url(#clip0_709_18597)">
<g clip-path="url(#clip1_709_18597)">
<path d="M16.0434 98.8389C10.4697 98.8389 5.95627 103.319 5.95627 108.839C5.95627 114.359 10.4697 118.839 16.0434 118.839C21.6272 118.839 26.1507 114.359 26.1507 108.839C26.1507 103.319 21.6272 98.8389 16.0434 98.8389ZM16.0535 116.839C11.5905 116.839 7.97571 113.259 7.97571 108.839C7.97571 104.419 11.5905 100.839 16.0535 100.839C20.5165 100.839 24.1313 104.419 24.1313 108.839C24.1313 113.259 20.5165 116.839 16.0535 116.839Z" fill="white"/>
<path d="M16.5583 103.839H15.0438V109.839L20.3448 112.989L21.1021 111.759L16.5583 109.089V103.839Z" fill="white"/>
<path d="M24.1313 68.8389H7.97571C6.86502 68.8389 5.96637 69.7389 5.96637 70.8389L5.95627 82.8389C5.95627 83.9389 6.86502 84.8389 7.97571 84.8389H24.1313C25.242 84.8389 26.1507 83.9389 26.1507 82.8389V70.8389C26.1507 69.7389 25.242 68.8389 24.1313 68.8389ZM24.1313 72.8389L16.0535 77.8389L7.97571 72.8389V70.8389L16.0535 75.8389L24.1313 70.8389V72.8389Z" fill="white"/>
<path d="M23.172 37.7489C22.2463 36.8229 21.1437 36.0886 19.9284 35.589C18.7132 35.0894 17.4097 34.8344 16.0939 34.8389C10.5808 34.8389 6.08752 39.2889 6.08752 44.7489C6.08752 46.4989 6.55199 48.1989 7.42036 49.6989L6.00674 54.8389L11.3078 53.4589C12.7719 54.2489 14.4177 54.6689 16.0939 54.6689C21.607 54.6689 26.1002 50.2189 26.1002 44.7589C26.1002 42.1089 25.0602 39.6189 23.172 37.7489ZM16.0939 52.9889C14.5995 52.9889 13.1354 52.5889 11.853 51.8389L11.5501 51.6589L8.39979 52.4789L9.23786 49.4389L9.03591 49.1289C8.20566 47.8159 7.76481 46.2982 7.76366 44.7489C7.76366 40.2089 11.4996 36.5089 16.0838 36.5089C18.3052 36.5089 20.3953 37.3689 21.9604 38.9289C22.7353 39.6929 23.3494 40.6016 23.7671 41.6024C24.1849 42.6031 24.3979 43.676 24.3938 44.7589C24.414 49.2989 20.678 52.9889 16.0939 52.9889ZM20.6578 46.8289C20.4054 46.7089 19.1735 46.1089 18.9514 46.0189C18.7191 45.9389 18.5576 45.8989 18.3859 46.1389C18.2143 46.3889 17.7397 46.9489 17.5984 47.1089C17.457 47.2789 17.3055 47.2989 17.0531 47.1689C16.8007 47.0489 15.9929 46.7789 15.0438 45.9389C14.2966 45.2789 13.8018 44.4689 13.6503 44.2189C13.509 43.9689 13.6301 43.8389 13.7614 43.7089C13.8725 43.5989 14.0138 43.4189 14.135 43.2789C14.2562 43.1389 14.3067 43.0289 14.3874 42.8689C14.4682 42.6989 14.4278 42.5589 14.3672 42.4389C14.3067 42.3189 13.8018 41.0989 13.5999 40.5989C13.3979 40.1189 13.1859 40.1789 13.0344 40.1689H12.5497C12.3781 40.1689 12.1156 40.2289 11.8833 40.4789C11.6612 40.7289 11.015 41.3289 11.015 42.5489C11.015 43.7689 11.9136 44.9489 12.0348 45.1089C12.156 45.2789 13.8018 47.7789 16.3059 48.8489C16.9016 49.1089 17.3661 49.2589 17.7296 49.3689C18.3254 49.5589 18.8706 49.5289 19.3048 49.4689C19.7895 49.3989 20.7891 48.8689 20.991 48.2889C21.2031 47.7089 21.2031 47.2189 21.1324 47.1089C21.0617 46.9989 20.9102 46.9489 20.6578 46.8289Z" fill="white"/>
<path d="M21.1122 16.2189C19.8702 16.2189 18.6687 16.0189 17.5479 15.6589C17.3723 15.5999 17.1835 15.5912 17.0031 15.6336C16.8228 15.6761 16.6581 15.768 16.5281 15.8989L14.9428 17.8689C12.0853 16.5189 9.40952 13.9689 7.98582 11.0389L9.95477 9.37887C10.2274 9.09887 10.3082 8.70887 10.1971 8.35887C9.82351 7.24887 9.63166 6.05887 9.63166 4.82887C9.63166 4.28887 9.17729 3.83887 8.63204 3.83887H5.1384C4.59315 3.83887 3.93683 4.07887 3.93683 4.82887C3.93683 14.1189 11.742 21.8389 21.1122 21.8389C21.8291 21.8389 22.1118 21.2089 22.1118 20.6589V17.2089C22.1118 16.6689 21.6575 16.2189 21.1122 16.2189Z" fill="white"/>
</g>
</g>
<defs>
<clipPath id="clip0_709_18597">
<rect width="27.2625" height="175" fill="white" transform="translate(0.907654 0.838867)"/>
</clipPath>
<clipPath id="clip1_709_18597">
<rect width="27.2625" height="120" fill="white" transform="translate(0.907654 0.838867)"/>
</clipPath>
</defs>
</svg>
