<svg width="48" height="49" viewBox="0 0 48 49" fill="none" xmlns="http://www.w3.org/2000/svg">
<path d="M0 24.3389C0 11.084 10.7452 0.338867 24 0.338867C37.2548 0.338867 48 11.084 48 24.3389C48 37.5937 37.2548 48.3389 24 48.3389C10.7452 48.3389 0 37.5937 0 24.3389Z" fill="white"/>
<path d="M24 17.9602C25.9529 17.9602 27.2702 18.8037 28.0213 19.5086L30.9564 16.6428C29.1538 14.9673 26.808 13.9388 24 13.9388C19.9324 13.9388 16.4196 16.2731 14.7093 19.6704L18.072 22.282C18.9156 19.7744 21.2498 17.9602 24 17.9602Z" fill="#EA4335"/>
<path d="M33.984 24.5699C33.984 23.7148 33.9147 23.0908 33.7644 22.4437H24V26.3033H29.7316C29.616 27.2624 28.992 28.7068 27.6053 29.6775L30.8871 32.2197C32.8516 30.4055 33.984 27.7362 33.984 24.5699Z" fill="#4285F4"/>
<path d="M18.0836 26.3957C17.864 25.7486 17.7369 25.0553 17.7369 24.3389C17.7369 23.6224 17.864 22.9291 18.072 22.282L14.7093 19.6704C14.0044 21.0802 13.6 22.6633 13.6 24.3389C13.6 26.0144 14.0044 27.5975 14.7093 29.0073L18.0836 26.3957Z" fill="#FBBC05"/>
<path d="M24 34.7389C26.808 34.7389 29.1653 33.8144 30.8871 32.2198L27.6053 29.6775C26.7271 30.29 25.5484 30.7175 24 30.7175C21.2498 30.7175 18.9156 28.9033 18.0836 26.3958L14.7209 29.0073C16.4311 32.4046 19.9324 34.7389 24 34.7389Z" fill="#34A853"/>
</svg>
