<svg width="39" height="39" viewBox="0 0 39 39" fill="none" xmlns="http://www.w3.org/2000/svg">
<path d="M19.2463 38.6515C19.2463 38.6515 19.2463 38.6515 19.2463 38.6515L31.9296 38.6519C32.6297 38.6519 33.1979 38.0849 33.1979 37.3836L33.1981 31.0267C33.1982 30.3927 33.1891 29.3597 33.3035 28.7361C33.3644 28.4128 33.3899 28.2795 33.6068 27.7215C34.0989 26.5104 35.4256 23.2456 36.0637 22.0724C37.0923 20.1624 38.2719 17.5864 38.2719 14.5539C38.2722 6.8613 32.0132 0.602093 24.3208 0.601845C16.6285 0.601596 10.369 6.86062 10.3688 14.553C10.3687 16.0697 10.1642 17.6066 9.43183 18.9348L7.98902 21.5513C7.77215 21.9445 7.77978 22.4227 8.00795 22.8083C8.2364 23.1939 8.65115 23.4312 9.10014 23.4312C9.80061 23.4312 10.3684 23.9991 10.3684 24.6996C10.3684 25.2816 10.7653 25.7879 11.3298 25.93L15.1727 26.8916C15.2842 26.9193 15.4416 27.1223 15.4416 27.2364C15.4416 27.3505 15.2842 27.5535 15.1741 27.5801C15.1271 27.5929 15.0815 27.6067 15.0371 27.6231L12.4625 28.5845C11.965 28.7697 11.6366 29.2441 11.6366 29.773L11.6365 32.3096C11.6365 33.0109 12.2035 33.578 12.9048 33.578L14.1731 33.578C16.2745 33.5781 17.978 35.2817 17.978 37.3831C17.9779 38.0844 18.5461 38.6514 19.2462 38.6515C19.2462 38.6515 19.2463 38.6515 19.2463 38.6515Z" fill="#02A295"/>
<path d="M0.222158 23.4311C0.222135 24.1315 0.79003 24.6994 1.49044 24.6995C2.19086 24.6995 2.75879 24.1316 2.75881 23.4312C2.75883 22.7308 2.19094 22.1628 1.49052 22.1628C0.790112 22.1628 0.22218 22.7307 0.222158 23.4311Z" fill="#02A295"/>
<path d="M4.02681 24.6994C4.02679 25.3998 4.59469 25.9677 5.2951 25.9678C5.99551 25.9678 6.56344 25.3999 6.56347 24.6995C6.56349 23.9991 5.99559 23.4311 5.29518 23.4311C4.59477 23.4311 4.02684 23.999 4.02681 24.6994Z" fill="#02A295"/>
<path d="M4.02645 29.7731C4.02643 30.4735 4.59432 31.0415 5.29473 31.0415C5.99515 31.0415 6.56308 30.4736 6.5631 29.7732C6.56312 29.0728 5.99523 28.5049 5.29482 28.5048C4.5944 28.5048 4.02647 29.0727 4.02645 29.7731Z" fill="#02A295"/>
<path d="M7.83126 27.2365C7.83124 27.9369 8.39913 28.5048 9.09954 28.5049C9.79996 28.5049 10.3679 27.937 10.3679 27.2366C10.3679 26.5362 9.80004 25.9682 9.09962 25.9682C8.39921 25.9682 7.83128 26.5361 7.83126 27.2365Z" fill="#02A295"/>
<path d="M0.221914 27.2363C0.221891 27.9367 0.789786 28.5046 1.4902 28.5046C2.19061 28.5047 2.75854 27.9368 2.75857 27.2363C2.75859 26.5359 2.19069 25.968 1.49028 25.968C0.789867 25.968 0.221936 26.5358 0.221914 27.2363Z" fill="#02A295"/>
<path d="M0.221547 31.0407C0.221525 31.7411 0.789419 32.309 1.48983 32.3091C2.19025 32.3091 2.75818 31.7412 2.7582 31.0408C2.75822 30.3404 2.19033 29.7724 1.48991 29.7724C0.789501 29.7724 0.22157 30.3403 0.221547 31.0407Z" fill="#02A295"/>
</svg>
