<svg width="39" height="39" viewBox="0 0 39 39" fill="none" xmlns="http://www.w3.org/2000/svg">
<path d="M19.5894 38.3761C19.5894 38.3761 19.5894 38.3761 19.5894 38.3761L32.2727 38.3765C32.9728 38.3766 33.541 37.8095 33.541 37.1082L33.5412 30.7513C33.5413 30.1173 33.5322 29.0843 33.6466 28.4607C33.7075 28.1374 33.733 28.0041 33.9499 27.4461C34.4419 26.235 35.7687 22.9702 36.4068 21.797C37.4354 19.887 38.6149 17.311 38.615 14.2785C38.6153 6.58591 32.3563 0.326702 24.6639 0.326454C16.9716 0.326206 10.7121 6.58523 10.7119 14.2776C10.7118 15.7943 10.5073 17.3312 9.77493 18.6594L8.33211 21.2759C8.11524 21.6691 8.12287 22.1473 8.35104 22.5329C8.5795 22.9185 8.99424 23.1558 9.44323 23.1558C10.1437 23.1558 10.7115 23.7237 10.7115 24.4242C10.7115 25.0062 11.1084 25.5125 11.6729 25.6546L15.5158 26.6162C15.6273 26.644 15.7847 26.847 15.7847 26.961C15.7847 27.0751 15.6273 27.2781 15.5172 27.3047C15.4702 27.3175 15.4246 27.3313 15.3802 27.3478L12.8056 28.3091C12.3081 28.4943 11.9797 28.9688 11.9797 29.4976L11.9796 32.0342C11.9796 32.7355 12.5466 33.3026 13.2479 33.3026L14.5162 33.3026C16.6176 33.3027 18.3211 35.0063 18.3211 37.1077C18.321 37.809 18.8892 38.376 19.5893 38.3761C19.5893 38.3761 19.5894 38.3761 19.5894 38.3761Z" fill="#02A295"/>
<path d="M0.565252 23.1557C0.565229 23.8561 1.13312 24.424 1.83354 24.4241C2.53395 24.4241 3.10188 23.8562 3.1019 23.1558C3.10193 22.4554 2.53403 21.8874 1.83362 21.8874C1.13321 21.8874 0.565274 22.4553 0.565252 23.1557Z" fill="#02A295"/>
<path d="M4.36992 24.424C4.3699 25.1244 4.9378 25.6923 5.63821 25.6924C6.33862 25.6924 6.90655 25.1245 6.90658 24.4241C6.9066 23.7237 6.3387 23.1557 5.63829 23.1557C4.93788 23.1557 4.36995 23.7236 4.36992 24.424Z" fill="#02A295"/>
<path d="M4.36956 29.4977C4.36954 30.1981 4.93743 30.7661 5.63784 30.7661C6.33826 30.7661 6.90619 30.1982 6.90621 29.4978C6.90623 28.7974 6.33834 28.2295 5.63792 28.2295C4.93751 28.2294 4.36958 28.7973 4.36956 29.4977Z" fill="#02A295"/>
<path d="M8.17435 26.9611C8.17433 27.6615 8.74222 28.2295 9.44264 28.2295C10.143 28.2295 10.711 27.6616 10.711 26.9612C10.711 26.2608 10.1431 25.6929 9.44272 25.6928C8.74231 25.6928 8.17437 26.2607 8.17435 26.9611Z" fill="#02A295"/>
<path d="M0.565008 26.9609C0.564985 27.6613 1.13288 28.2292 1.83329 28.2292C2.53371 28.2293 3.10164 27.6614 3.10166 26.961C3.10168 26.2605 2.53379 25.6926 1.83337 25.6926C1.13296 25.6926 0.56503 26.2605 0.565008 26.9609Z" fill="#02A295"/>
<path d="M0.564641 30.7653C0.564619 31.4657 1.13251 32.0337 1.83293 32.0337C2.53334 32.0337 3.10127 31.4658 3.10129 30.7654C3.10132 30.065 2.53342 29.4971 1.83301 29.497C1.1326 29.497 0.564664 30.0649 0.564641 30.7653Z" fill="#02A295"/>
</svg>
