<svg width="39" height="39" viewBox="0 0 39 39" fill="none" xmlns="http://www.w3.org/2000/svg">
<path d="M12.1541 19.7161L16.6718 19.7163C17.0682 19.7163 17.4643 19.3199 17.4643 18.9238L17.4645 13.8513C17.4646 11.3943 19.4461 9.33361 21.824 9.33368C22.2204 9.3337 22.6165 9.01664 22.6165 8.5412L22.6166 4.49868C22.6167 4.02322 22.2203 3.70616 21.8242 3.70615L21.111 3.70613C15.8005 3.70595 11.3621 8.14447 11.3619 13.6131L11.3617 18.9233C11.3617 19.3197 11.7581 19.7161 12.1542 19.7161L12.1541 19.7161Z" fill="#02A295"/>
<path d="M12.0358 1.40699C12.0139 1.407 11.9963 1.38928 11.9952 1.36747C11.975 0.984696 11.6634 0.61449 11.2037 0.614475L7.00286 0.61434C6.96588 0.614338 6.9289 0.616257 6.89222 0.620094C6.50793 0.660291 6.21032 1.02046 6.21031 1.40684L6.21024 3.60462C6.21014 6.48563 4.4663 9.30487 4.46621 12.1859C4.46621 12.2577 4.54267 12.3039 4.60667 12.2712C5.91828 11.6011 7.58837 11.075 9.54794 10.6936C9.59448 10.6845 9.65012 10.6804 9.69742 10.6773C10.0328 10.6551 10.3125 10.3759 10.4142 10.0556C10.658 9.28802 10.9566 8.56915 11.3371 7.89884C11.7619 7.15052 12.0754 6.32849 12.0754 5.46802L12.0753 1.44652C12.0753 1.42468 12.0576 1.40698 12.0358 1.40699Z" fill="#02A295"/>
<path d="M6.60567 34.7747C6.60561 34.7748 6.6055 34.7747 6.6055 34.7746L6.60558 32.3177C6.60559 32.0799 6.68493 31.8422 6.92267 31.6835C7.95111 30.8999 8.4779 29.6232 8.30126 28.3424L7.63619 23.5198C7.50199 22.7154 9.08054 22.4963 9.14028 23.3096C9.14152 23.3266 9.14216 23.3438 9.14216 23.3612L10.1722 30.6529C10.2515 30.97 10.0929 31.2077 9.85512 31.3661L9.50966 31.6459C8.67533 32.3217 8.19063 33.3379 8.1906 34.4116C8.19056 35.4929 8.66714 36.5402 9.58311 37.1148C11.1472 38.0959 12.7509 38.6587 14.2141 38.6588C14.6105 38.6588 14.9273 38.6588 15.2444 38.5795C16.8234 38.3166 17.3745 36.4248 16.74 34.9552L16.4869 34.3692C16.3992 34.1661 16.2749 33.9659 16.2749 33.7447C16.2749 31.4632 15.6518 29.2249 14.4727 27.2717L13.7391 26.0566C13.5014 25.6602 13.6598 25.1848 13.9769 24.947C14.3733 24.7093 14.8487 24.8677 15.0865 25.1848L17.702 29.4648C17.7813 29.6232 17.8603 29.7025 17.8603 29.8612L17.8602 33.0231C17.8602 33.2901 17.9136 33.5545 18.0172 33.8006C18.5571 35.0826 20.1963 35.4103 20.9546 34.244C23.0757 30.9815 24.0557 26.3433 23.1711 21.8561C22.9127 20.4162 22.4651 19.0966 21.8523 17.9295C21.0384 16.3793 19.129 17.1727 19.129 18.9236C19.1289 20.1918 18.0193 21.3014 16.751 21.3014L12.154 21.3009C10.8857 21.3009 9.77612 20.1912 9.77616 18.923L9.77633 13.6128C9.77635 13.1658 9.77636 12.7186 9.8423 12.3374C9.84875 12.3001 9.82036 12.2654 9.78247 12.2654C9.7786 12.2654 9.77465 12.2658 9.77086 12.2666C2.48318 13.694 -0.685271 17.6563 0.50308 23.9953C1.21641 27.8789 3.67318 31.9212 6.60567 34.7746C6.60571 34.7746 6.60571 34.7747 6.60567 34.7747Z" fill="#02A295"/>
<path d="M37.5165 24.3138C37.5165 24.3138 37.5165 24.3138 37.5164 24.3138L36.7951 24.3138C36.2866 24.3138 35.8425 23.9699 35.7151 23.4776L34.1879 17.5768C34.1086 17.1804 33.7915 16.9427 33.3954 16.9427C33.0736 16.9427 32.8042 17.1516 32.7143 17.4C32.6734 17.5129 32.6717 17.6363 32.6508 17.7546L31.7003 23.1239C31.5527 23.9582 30.3786 24.0187 30.1459 23.2041C29.9992 22.6177 29.0437 22.4772 28.7429 23.0014C28.7347 23.0158 28.7268 23.0306 28.7192 23.0457C28.0732 24.0915 26.4952 23.8848 26.1403 22.7079L25.5489 20.747C25.4696 20.4299 25.1525 20.1922 24.8358 20.1922C24.5822 20.1922 24.4928 20.4227 24.5587 20.6676C24.6436 20.9826 24.7 21.2807 24.7564 21.6188C25.0695 23.6563 25.3904 25.71 26.0133 27.675L26.1035 27.9597C26.2502 28.546 27.2057 28.6866 27.5065 28.1623C27.5147 28.1479 27.5226 28.1332 27.5301 28.1181C28.1296 27.099 29.6572 27.2903 29.9868 28.4258L30.5417 30.3376C30.6211 30.6547 30.9381 30.8924 31.3342 30.8924L31.4136 30.8925C31.7419 30.8925 32.0156 30.675 32.0999 30.4201C32.1344 30.3161 32.1362 30.204 32.1548 30.096L32.962 25.424C33.1209 24.504 34.4192 24.4434 34.6632 25.3446C34.7425 25.6616 35.0596 25.9787 35.4557 25.9787L37.5165 25.9785C37.9919 25.9785 38.309 25.6615 38.309 25.186C38.309 24.631 37.992 24.3139 37.5166 24.3139C37.5165 24.3139 37.5165 24.3139 37.5165 24.3138Z" fill="#02A295"/>
</svg>
