<svg width="25" height="24" viewBox="0 0 25 24" fill="none" xmlns="http://www.w3.org/2000/svg">
<path d="M20.2032 15.38C18.9612 15.38 17.7597 15.18 16.6389 14.82C16.4633 14.7611 16.2745 14.7523 16.0941 14.7948C15.9138 14.8372 15.7491 14.9291 15.6191 15.06L14.0338 17.03C11.1763 15.68 8.50053 13.13 7.07682 10.2L9.04578 8.54C9.3184 8.26 9.39918 7.87 9.28811 7.52C8.91451 6.41 8.72267 5.22 8.72267 3.99C8.72267 3.45 8.26829 3 7.72304 3H4.2294C3.68415 3 3.02783 3.24 3.02783 3.99C3.02783 13.28 10.833 21 20.2032 21C20.9201 21 21.2028 20.37 21.2028 19.82V16.37C21.2028 15.83 20.7485 15.38 20.2032 15.38Z" fill="white"/>
</svg>
