<svg width="25" height="24" viewBox="0 0 25 24" fill="none" xmlns="http://www.w3.org/2000/svg">
<path d="M12.1345 2C6.56082 2 2.04736 6.48 2.04736 12C2.04736 17.52 6.56082 22 12.1345 22C17.7183 22 22.2418 17.52 22.2418 12C22.2418 6.48 17.7183 2 12.1345 2ZM12.1446 20C7.68161 20 4.06681 16.42 4.06681 12C4.06681 7.58 7.68161 4 12.1446 4C16.6076 4 20.2224 7.58 20.2224 12C20.2224 16.42 16.6076 20 12.1446 20Z" fill="white"/>
<path d="M12.6493 7H11.1348V13L16.4358 16.15L17.1931 14.92L12.6493 12.25V7Z" fill="white"/>
</svg>
