<svg width="25" height="24" viewBox="0 0 25 24" fill="none" xmlns="http://www.w3.org/2000/svg">
<path d="M20.2031 15.38C18.9611 15.38 17.7596 15.18 16.6388 14.82C16.4632 14.7611 16.2744 14.7523 16.094 14.7948C15.9136 14.8372 15.749 14.9291 15.6189 15.06L14.0337 17.03C11.1762 15.68 8.5004 13.13 7.0767 10.2L9.04565 8.54C9.31828 8.26 9.39906 7.87 9.28799 7.52C8.91439 6.41 8.72254 5.22 8.72254 3.99C8.72254 3.45 8.26817 3 7.72292 3H4.22928C3.68403 3 3.02771 3.24 3.02771 3.99C3.02771 13.28 10.8329 21 20.2031 21C20.92 21 21.2027 20.37 21.2027 19.82V16.37C21.2027 15.83 20.7483 15.38 20.2031 15.38Z" fill="white"/>
</svg>
