<svg width="25" height="24" viewBox="0 0 25 24" fill="none" xmlns="http://www.w3.org/2000/svg">
<path d="M19.263 4.91006C18.3373 3.98399 17.2347 3.24973 16.0194 2.75011C14.8042 2.25049 13.5007 1.99552 12.1849 2.00006C6.67179 2.00006 2.17853 6.45006 2.17853 11.9101C2.17853 13.6601 2.643 15.3601 3.51136 16.8601L2.09775 22.0001L7.39879 20.6201C8.86289 21.4101 10.5087 21.8301 12.1849 21.8301C17.698 21.8301 22.1912 17.3801 22.1912 11.9201C22.1912 9.27006 21.1512 6.78006 19.263 4.91006ZM12.1849 20.1501C10.6905 20.1501 9.22639 19.7501 7.94404 19.0001L7.64112 18.8201L4.49079 19.6401L5.32886 16.6001L5.12691 16.2901C4.29667 14.977 3.85582 13.4593 3.85466 11.9101C3.85466 7.37006 7.59064 3.67006 12.1748 3.67006C14.3962 3.67006 16.4863 4.53006 18.0514 6.09006C18.8263 6.85402 19.4404 7.76272 19.8582 8.76348C20.2759 9.76425 20.4889 10.8372 20.4848 11.9201C20.505 16.4601 16.769 20.1501 12.1849 20.1501ZM16.7488 13.9901C16.4964 13.8701 15.2645 13.2701 15.0424 13.1801C14.8102 13.1001 14.6486 13.0601 14.4769 13.3001C14.3053 13.5501 13.8307 14.1101 13.6894 14.2701C13.548 14.4401 13.3965 14.4601 13.1441 14.3301C12.8917 14.2101 12.0839 13.9401 11.1348 13.1001C10.3876 12.4401 9.8928 11.6301 9.74134 11.3801C9.59998 11.1301 9.72115 11.0001 9.85241 10.8701C9.96348 10.7601 10.1048 10.5801 10.226 10.4401C10.3472 10.3001 10.3977 10.1901 10.4784 10.0301C10.5592 9.86006 10.5188 9.72006 10.4582 9.60006C10.3977 9.48006 9.8928 8.26006 9.69086 7.76006C9.48891 7.28006 9.27687 7.34006 9.12541 7.33006H8.64075C8.46909 7.33006 8.20657 7.39006 7.97433 7.64006C7.75219 7.89006 7.10597 8.49006 7.10597 9.71006C7.10597 10.9301 8.00462 12.1101 8.12579 12.2701C8.24696 12.4401 9.8928 14.9401 12.3969 16.0101C12.9927 16.2701 13.4571 16.4201 13.8206 16.5301C14.4164 16.7201 14.9616 16.6901 15.3958 16.6301C15.8805 16.5601 16.8801 16.0301 17.082 15.4501C17.2941 14.8701 17.2941 14.3801 17.2234 14.2701C17.1527 14.1601 17.0012 14.1101 16.7488 13.9901Z" fill="white"/>
</svg>
