<svg width="25" height="24" viewBox="0 0 25 24" fill="none" xmlns="http://www.w3.org/2000/svg">
<path d="M20.203 15.38C18.961 15.38 17.7594 15.18 16.6386 14.82C16.4631 14.7611 16.2743 14.7523 16.0939 14.7948C15.9135 14.8372 15.7489 14.9291 15.6188 15.06L14.0336 17.03C11.176 15.68 8.50028 13.13 7.07657 10.2L9.04553 8.54C9.31816 8.26 9.39893 7.87 9.28787 7.52C8.91427 6.41 8.72242 5.22 8.72242 3.99C8.72242 3.45 8.26805 3 7.7228 3H4.22916C3.68391 3 3.02759 3.24 3.02759 3.99C3.02759 13.28 10.8327 21 20.203 21C20.9199 21 21.2026 20.37 21.2026 19.82V16.37C21.2026 15.83 20.7482 15.38 20.203 15.38Z" fill="white"/>
</svg>
