<svg width="25" height="24" viewBox="0 0 25 24" fill="none" xmlns="http://www.w3.org/2000/svg">
<path d="M19.2629 4.91C18.3372 3.98392 17.2346 3.24967 16.0193 2.75005C14.8041 2.25043 13.5006 1.99546 12.1848 2C6.6717 2 2.17843 6.45 2.17843 11.91C2.17843 13.66 2.64291 15.36 3.51127 16.86L2.09766 22L7.3987 20.62C8.8628 21.41 10.5086 21.83 12.1848 21.83C17.6979 21.83 22.1911 17.38 22.1911 11.92C22.1911 9.27 21.1511 6.78 19.2629 4.91ZM12.1848 20.15C10.6904 20.15 9.22629 19.75 7.94395 19L7.64103 18.82L4.4907 19.64L5.32877 16.6L5.12682 16.29C4.29658 14.977 3.85572 13.4592 3.85457 11.91C3.85457 7.37 7.59054 3.67 12.1747 3.67C14.3961 3.67 16.4862 4.53 18.0513 6.09C18.8262 6.85396 19.4403 7.76266 19.8581 8.76342C20.2758 9.76419 20.4888 10.8371 20.4847 11.92C20.5049 16.46 16.7689 20.15 12.1848 20.15ZM16.7487 13.99C16.4963 13.87 15.2644 13.27 15.0423 13.18C14.8101 13.1 14.6485 13.06 14.4769 13.3C14.3052 13.55 13.8306 14.11 13.6893 14.27C13.5479 14.44 13.3964 14.46 13.144 14.33C12.8916 14.21 12.0838 13.94 11.1347 13.1C10.3875 12.44 9.89271 11.63 9.74125 11.38C9.59989 11.13 9.72106 11 9.85232 10.87C9.96339 10.76 10.1048 10.58 10.2259 10.44C10.3471 10.3 10.3976 10.19 10.4784 10.03C10.5591 9.86 10.5187 9.72 10.4582 9.6C10.3976 9.48 9.89271 8.26 9.69077 7.76C9.48882 7.28 9.27678 7.34 9.12532 7.33H8.64066C8.469 7.33 8.20648 7.39 7.97424 7.64C7.7521 7.89 7.10588 8.49 7.10588 9.71C7.10588 10.93 8.00453 12.11 8.1257 12.27C8.24686 12.44 9.89271 14.94 12.3968 16.01C12.9926 16.27 13.457 16.42 13.8205 16.53C14.4163 16.72 14.9615 16.69 15.3957 16.63C15.8804 16.56 16.88 16.03 17.0819 15.45C17.294 14.87 17.294 14.38 17.2233 14.27C17.1526 14.16 17.0012 14.11 16.7487 13.99Z" fill="white"/>
</svg>
