<svg width="25" height="24" viewBox="0 0 25 24" fill="none" xmlns="http://www.w3.org/2000/svg">
<path d="M19.2629 4.91006C18.3372 3.98399 17.2346 3.24973 16.0193 2.75011C14.8041 2.25049 13.5006 1.99552 12.1848 2.00006C6.6717 2.00006 2.17843 6.45006 2.17843 11.9101C2.17843 13.6601 2.64291 15.3601 3.51127 16.8601L2.09766 22.0001L7.3987 20.6201C8.8628 21.4101 10.5086 21.8301 12.1848 21.8301C17.6979 21.8301 22.1911 17.3801 22.1911 11.9201C22.1911 9.27006 21.1511 6.78006 19.2629 4.91006ZM12.1848 20.1501C10.6904 20.1501 9.22629 19.7501 7.94395 19.0001L7.64103 18.8201L4.4907 19.6401L5.32877 16.6001L5.12682 16.2901C4.29658 14.977 3.85572 13.4593 3.85457 11.9101C3.85457 7.37006 7.59054 3.67006 12.1747 3.67006C14.3961 3.67006 16.4862 4.53006 18.0513 6.09006C18.8262 6.85402 19.4403 7.76272 19.8581 8.76348C20.2758 9.76425 20.4888 10.8372 20.4847 11.9201C20.5049 16.4601 16.7689 20.1501 12.1848 20.1501ZM16.7487 13.9901C16.4963 13.8701 15.2644 13.2701 15.0423 13.1801C14.8101 13.1001 14.6485 13.0601 14.4769 13.3001C14.3052 13.5501 13.8306 14.1101 13.6893 14.2701C13.5479 14.4401 13.3964 14.4601 13.144 14.3301C12.8916 14.2101 12.0838 13.9401 11.1347 13.1001C10.3875 12.4401 9.89271 11.6301 9.74125 11.3801C9.59989 11.1301 9.72106 11.0001 9.85232 10.8701C9.96339 10.7601 10.1048 10.5801 10.2259 10.4401C10.3471 10.3001 10.3976 10.1901 10.4784 10.0301C10.5591 9.86006 10.5187 9.72006 10.4582 9.60006C10.3976 9.48006 9.89271 8.26006 9.69077 7.76006C9.48882 7.28006 9.27678 7.34006 9.12532 7.33006H8.64066C8.469 7.33006 8.20648 7.39006 7.97424 7.64006C7.7521 7.89006 7.10588 8.49006 7.10588 9.71006C7.10588 10.9301 8.00453 12.1101 8.1257 12.2701C8.24686 12.4401 9.89271 14.9401 12.3968 16.0101C12.9926 16.2701 13.457 16.4201 13.8205 16.5301C14.4163 16.7201 14.9615 16.6901 15.3957 16.6301C15.8804 16.5601 16.88 16.0301 17.0819 15.4501C17.294 14.8701 17.294 14.3801 17.2233 14.2701C17.1526 14.1601 17.0012 14.1101 16.7487 13.9901Z" fill="white"/>
</svg>
