<svg width="25" height="24" viewBox="0 0 25 24" fill="none" xmlns="http://www.w3.org/2000/svg">
<path d="M12.1344 2C6.56073 2 2.04727 6.48 2.04727 12C2.04727 17.52 6.56073 22 12.1344 22C17.7182 22 22.2417 17.52 22.2417 12C22.2417 6.48 17.7182 2 12.1344 2ZM12.1445 20C7.68152 20 4.06672 16.42 4.06672 12C4.06672 7.58 7.68152 4 12.1445 4C16.6075 4 20.2223 7.58 20.2223 12C20.2223 16.42 16.6075 20 12.1445 20Z" fill="white"/>
<path d="M12.6493 7H11.1348V13L16.4358 16.15L17.1931 14.92L12.6493 12.25V7Z" fill="white"/>
</svg>
