<svg width="92" height="29" viewBox="0 0 92 29" fill="none" xmlns="http://www.w3.org/2000/svg">
<path d="M25.0331 21.3834C25.7056 20.1583 26.0647 18.786 26.0788 17.3886C26.0928 15.9911 25.7612 14.6119 25.1135 13.3735C24.4658 12.1351 23.5221 11.076 22.3663 10.2904C21.2105 9.50485 19.8784 9.0171 18.4886 8.87058C18.0475 7.80798 17.3948 6.84626 16.5701 6.04396C15.7455 5.24166 14.7662 4.61557 13.6919 4.20379C12.6176 3.79201 11.4707 3.60317 10.3211 3.64875C9.17147 3.69433 8.04314 3.97338 7.0048 4.46892C5.96646 4.96445 5.03983 5.66611 4.2813 6.53118C3.52277 7.39625 2.94821 8.40663 2.59261 9.50082C2.23701 10.595 2.10779 11.7501 2.21283 12.8958C2.31786 14.0416 2.65496 15.1539 3.20359 16.1652L2.50783 18.6113C2.44511 18.8343 2.44294 19.0701 2.50154 19.2942C2.56013 19.5184 2.67738 19.723 2.84123 19.8868C3.00508 20.0506 3.2096 20.1679 3.43379 20.2265C3.65797 20.2851 3.89371 20.2829 4.11678 20.2202L6.56282 19.5244C7.547 20.0675 8.63014 20.4076 9.7481 20.5246C10.201 21.6296 10.8822 22.6265 11.747 23.45C12.6119 24.2735 13.6409 24.905 14.7668 25.3032C15.8927 25.7014 17.0899 25.8573 18.2802 25.7607C19.4705 25.6641 20.627 25.3172 21.6739 24.7427L24.1199 25.4384C24.3434 25.5049 24.5806 25.5098 24.8066 25.4526C25.0326 25.3953 25.2389 25.2781 25.4037 25.1133C25.5686 24.9484 25.6858 24.7421 25.743 24.5161C25.8003 24.2901 25.7954 24.0529 25.7289 23.8295L25.0331 21.3834ZM6.64979 18.1655C6.5867 18.1649 6.52404 18.176 6.46497 18.1981L3.75802 18.97L4.52989 16.2631C4.55702 16.1783 4.56524 16.0886 4.55397 16.0003C4.5427 15.9121 4.51222 15.8273 4.46466 15.7521C3.57506 14.2508 3.26402 12.4764 3.58991 10.7621C3.91581 9.04768 4.85624 7.5112 6.23466 6.44104C7.61308 5.37088 9.33471 4.84064 11.0764 4.94984C12.818 5.05904 14.4599 5.80019 15.6939 7.03414C16.9278 8.26809 17.669 9.91001 17.7782 11.6517C17.8874 13.3933 17.3571 15.1149 16.287 16.4934C15.2168 17.8718 13.6804 18.8122 11.966 19.1381C10.2516 19.464 8.47723 19.153 6.97592 18.2634C6.87899 18.1998 6.76568 18.1658 6.64979 18.1655ZM23.7068 21.4813L24.4787 24.1882L21.7717 23.4164C21.687 23.3892 21.5973 23.381 21.509 23.3923C21.4208 23.4035 21.336 23.434 21.2608 23.4816C20.4148 23.9819 19.4752 24.3033 18.5001 24.426C17.5249 24.5487 16.535 24.4701 15.5915 24.195C14.6479 23.9199 13.7708 23.4541 13.0145 22.8265C12.2581 22.199 11.6385 21.4229 11.194 20.5463C13.3408 20.4031 15.3531 19.4501 16.8243 17.8801C18.2954 16.3101 19.1157 14.2401 19.1192 12.0885C19.1167 11.4704 19.0474 10.8544 18.9126 10.2512C20.0474 10.4644 21.1142 10.9479 22.0226 11.6608C22.9309 12.3737 23.6541 13.2949 24.1309 14.3466C24.6076 15.3983 24.8239 16.5493 24.7615 17.7023C24.699 18.8553 24.3596 19.9763 23.7721 20.9703C23.7245 21.0455 23.694 21.1303 23.6828 21.2186C23.6715 21.3068 23.6797 21.3965 23.7068 21.4813Z" fill="#0D0D0D" fill-opacity="0.75"/>
<path d="M76.4649 24.2487C77.1255 24.2496 77.7699 24.0446 78.3086 23.6622C78.8473 23.2799 79.2535 22.7392 79.4707 22.1154L73.4591 22.1154C73.6763 22.7392 74.0825 23.2799 74.6212 23.6622C75.1599 24.0446 75.8043 24.2496 76.4649 24.2487ZM83.9315 16.3405V11.4488C83.9315 8.01736 81.6009 5.12671 78.4436 4.25739C78.131 3.47019 77.3673 2.91553 76.4649 2.91553C75.5625 2.91553 74.7988 3.47019 74.4862 4.25739C71.3289 5.12778 68.9983 8.01736 68.9983 11.4488V16.3405L67.1775 18.1613C67.0782 18.2602 66.9995 18.3777 66.9459 18.5071C66.8923 18.6366 66.8648 18.7753 66.865 18.9154V19.9821C66.865 20.265 66.9773 20.5363 67.1774 20.7363C67.3774 20.9364 67.6487 21.0487 67.9316 21.0487L84.9982 21.0487C85.2811 21.0487 85.5524 20.9364 85.7524 20.7363C85.9525 20.5363 86.0648 20.265 86.0648 19.9821V18.9154C86.065 18.7753 86.0375 18.6366 85.9839 18.5071C85.9303 18.3777 85.8516 18.2602 85.7523 18.1613L83.9315 16.3405Z" fill="#0D0D0D" fill-opacity="0.75"/>
<circle cx="82.504" cy="5.99173" r="2.80496" fill="#F9A135"/>
</svg>
