<svg width="149" height="180" viewBox="0 0 149 180" fill="none" xmlns="http://www.w3.org/2000/svg">
<path d="M80.2522 163.189C100.922 149.06 119.779 134.411 131.395 112.383C133.05 109.248 134.33 105.951 135.3 102.529C135.631 101.363 135.927 100.65 134.195 100.291C131.968 99.8287 128.819 100.842 127.714 98.9451C126.833 97.429 128.023 94.7154 128.238 92.5265C128.323 91.6474 128.3 90.7503 128.247 89.8667C128.153 88.3058 128.855 88.068 130.273 88.2609C135.3 88.9427 140.337 89.6469 145.391 90.0326C148.223 90.2479 148.75 91.4769 148.504 94.0426C147.261 106.884 142.211 118.21 134.808 128.513C119.448 149.89 99.0787 165.441 76.6246 178.52C75.3856 179.243 74.2853 179.53 72.93 178.74C48.6287 164.553 26.6175 147.742 11.1278 123.628C5.44269 114.779 1.77938 105.095 0.687989 94.5046C0.379358 91.5128 1.09501 90.1313 4.33787 89.9474C9.06574 89.6828 13.7847 89.0548 18.4723 88.3416C20.3599 88.0546 20.8742 88.5839 20.7087 90.3197C20.6461 90.9791 20.6506 91.6564 20.7311 92.3157C21.0219 94.5988 22.319 97.4246 21.4244 99.0169C20.4269 100.793 17.1751 99.9364 14.9253 100.318C12.6486 100.708 13.7042 101.937 13.9904 102.906C16.7592 112.316 21.912 120.385 27.9728 127.957C37.1646 139.439 56.34 155.869 68.6628 162.651C69.3293 159.655 68.9133 156.712 68.9536 153.819C69.0073 149.832 70.0405 145.302 68.5197 142.005C67.066 138.856 62.8525 137.008 59.878 134.555C51.4824 127.634 43.6906 120.116 37.4688 111.105C32.3875 103.749 29.3102 95.8726 29.6546 86.5923C30.0929 74.8451 29.8067 63.0665 29.7172 51.3058C29.7038 49.2156 30.1779 48.4666 32.4278 48.4531C41.0426 48.4082 41.0381 48.323 41.0381 57.0202C41.0381 67.1213 41.2349 77.2224 40.9621 87.3145C40.81 92.9212 42.4024 97.8193 45.3321 102.367C52.6454 113.72 62.6244 122.435 73.1805 130.567C74.0617 131.244 74.755 131.522 75.7882 130.72C86.6574 122.274 97.0435 113.361 104.361 101.426C106.902 97.281 108.226 92.8809 108.15 87.8976C107.966 75.6929 108.136 63.4836 108.047 51.2744C108.029 49.1573 108.539 48.4621 110.762 48.4531C119.475 48.4217 119.475 48.3365 119.475 57.222C119.475 66.7669 119.117 76.3298 119.574 85.8478C120.048 95.7246 116.711 104.09 111.169 111.85C103.364 122.785 93.483 131.612 82.833 139.61C80.9768 141.005 80.109 142.364 80.194 144.772C80.3908 150.612 80.2567 156.461 80.2567 163.198L80.2522 163.189Z" fill="#003256"/>
<path d="M74.9652 0.634434C98.3719 0.634434 121.783 0.688257 145.19 0.562666C148.017 0.54921 148.692 1.35209 148.576 4.06575C148.352 9.2688 148.428 14.4943 148.554 19.7018C148.598 21.6619 148.151 22.6981 146.022 22.3617C145.807 22.3258 145.579 22.3706 145.36 22.3572C142.739 22.1598 139.429 23.474 137.675 21.8055C136.056 20.2625 137.058 16.9433 137.215 14.4449C137.385 11.7672 135.882 11.9735 134.142 11.9735C109.076 11.9914 84.0139 11.9869 58.9477 11.9869C44.2631 11.9869 29.5741 12.0363 14.8895 11.9376C12.6575 11.9242 11.8747 12.3772 11.9016 14.8038C11.9865 22.3751 11.8703 22.2271 4.4318 22.4379C1.43048 22.5231 0.446435 21.7427 0.616406 18.6388C0.893727 13.66 0.840047 8.64982 0.625347 3.67104C0.517997 1.13231 1.28733 0.57164 3.73849 0.580611C27.4762 0.67929 51.2185 0.638917 74.9562 0.638917L74.9652 0.634434Z" fill="#003256"/>
<path d="M74.5268 41.2002C51.129 41.2002 27.7312 41.1554 4.33342 41.2585C1.60494 41.272 0.504601 40.8728 0.598532 37.7196C0.849015 29.5607 0.665618 29.5562 8.94945 29.5562C54.0901 29.5562 99.2307 29.5876 144.376 29.4889C147.516 29.4799 148.782 29.9509 148.625 33.5482C148.294 41.1868 148.527 41.1958 140.748 41.1958C118.674 41.1958 96.6007 41.1958 74.5268 41.1958V41.2002Z" fill="#003256"/>
<path d="M63.8008 92.6701C64.9324 88.8799 65.8717 85.4755 66.981 82.1339C67.5088 80.5416 67.5178 79.4696 66.2072 78.0656C62.5528 74.1634 62.119 69.0096 64.673 64.5691C67.0884 60.3663 71.8654 58.0743 76.4233 58.9265C81.603 59.8998 85.2171 63.6855 85.9641 69.0321C86.4382 72.423 85.4318 75.4821 83.1059 77.8683C81.7103 79.2991 81.5627 80.4878 82.1979 82.246C83.173 84.9462 83.9289 87.7272 84.7296 90.4857C85.0382 91.5487 85.4363 92.7015 83.5308 92.6925C77.054 92.6566 70.5772 92.679 63.7963 92.679L63.8008 92.6701Z" fill="#92FEC0"/>
<path d="M0.696946 65.8743C0.696946 60.8956 0.764032 55.9213 0.661155 50.947C0.620899 49.1394 1.06819 48.5024 3.00943 48.4531C11.9776 48.2199 11.9732 48.1481 11.9732 57.2041C11.9732 64.5018 11.9061 71.804 12.0179 79.1018C12.0492 81.174 11.5482 82.1294 9.32966 82.0801C7.69705 82.0442 5.9884 82.2146 4.4363 82.6901C0.916112 83.7755 0.482244 82.1653 0.638796 79.1421C0.871388 74.733 0.696946 70.2969 0.696946 65.8743Z" fill="#92FEC0"/>
<path d="M148.513 65.8744C148.513 70.5257 148.419 75.1771 148.554 79.8239C148.621 82.2236 148.41 83.6769 145.4 82.7618C143.638 82.2281 141.701 82.0666 139.845 82.0711C137.689 82.0756 137.076 81.2503 137.103 79.1197C137.21 69.8215 137.215 60.5143 137.103 51.2161C137.076 49.0228 137.747 48.4576 139.885 48.4441C148.518 48.4038 148.518 48.3275 148.518 56.8991C148.518 59.8908 148.518 62.8781 148.518 65.8699L148.513 65.8744Z" fill="#92FEC0"/>
</svg>
