<svg width="223" height="160" viewBox="0 0 223 160" fill="none" xmlns="http://www.w3.org/2000/svg">
<path d="M18.7919 53.5818C18.3469 39.8742 22.7971 28.1554 31.6974 18.2921C51.8932 -4.09442 83.4409 -5.45265 106.258 14.8238C110.965 19.0062 115.629 18.9995 120.252 14.8035C137.28 -0.654389 159.774 -3.79529 179.755 6.50461C180.378 6.82395 180.944 7.25244 181.754 7.76178C175.078 13.9223 169.261 20.669 162.08 26.0089C160.02 27.541 158.989 27.4803 157.148 25.5724C150.695 18.8904 141.67 17.423 133.518 21.336C126.244 24.8286 121.498 33.1113 122.267 40.9737C123.161 50.1336 129.423 57.2684 138.421 59.3785C147.257 61.4482 157.456 56.0557 161.275 47.2272C161.845 45.9053 162.072 44.539 163.637 43.8033C173.496 39.187 180.605 31.1589 188.356 23.8988C195.598 17.1198 194.024 15.9799 199.959 25.3581C207.172 36.7535 209.223 49.3252 206.885 62.6609C206.209 66.5132 203.831 68.3848 200.614 69.7067C190.88 73.7046 180.77 73.6641 170.523 72.601C160.769 71.5904 151.517 68.2999 141.92 66.59C126.972 63.9302 115.697 69.0478 108.095 82.2865C102.735 91.6202 95.0721 97.4574 83.8131 97.3927C81.2846 97.3765 78.9503 97.3321 78.9301 93.5687C78.9179 91.2726 77.5182 88.7461 75.2 88.0306C71.4012 86.8624 70.851 84.1176 70.1834 80.8636C69.083 75.5236 65.7009 71.4166 61.6998 67.9321C54.1668 61.3754 45.6872 56.3791 36.2245 53.0724C30.4716 51.0593 24.7956 51.2332 18.8041 53.5777L18.7919 53.5818Z" fill="#023357"/>
<path d="M192.479 89.2838C183.234 97.6555 174.556 105.583 165.806 113.429C156.165 122.075 146.427 130.617 136.782 139.259C129.626 145.67 122.51 152.126 115.47 158.667C113.864 160.158 112.881 160.28 111.17 158.723C94.9993 144.054 78.74 129.481 62.5049 114.888C61.7726 114.229 60.5792 113.732 61.3842 112.483C62.2095 111.197 63.2776 110.749 65.0415 110.878C70.2563 111.262 75.2971 112.81 80.4674 113.166C97.5683 114.35 110.611 107.191 120.187 93.2695C128.376 81.3608 131.467 79.9985 145.699 83.9721C158.111 87.4364 170.628 89.5506 183.53 89.5789C186.26 89.5829 188.882 88.1681 192.479 89.2838Z" fill="#92FEC0"/>
<path d="M179.828 83.4951C169.592 83.8751 159.252 81.5103 148.948 78.8505C146.136 78.1269 143.308 77.4518 140.46 76.8697C130.508 74.8364 123.849 77.4761 118.302 85.9125C113.205 93.6657 107.739 100.922 98.79 104.689C92.3372 107.406 85.7065 109.116 78.837 107.07C73.691 105.534 68.2941 106.088 63.2047 104.515C61.6472 104.034 60.5144 104.536 59.4868 105.942C53.5883 114.027 45.0561 114.569 36.0465 114.274C28.8453 114.039 21.8787 113.02 15.0821 110.627C12.3634 109.669 10.0857 108.109 8.45939 105.829C5.56677 101.783 4.30049 96.8753 1.03567 92.8572C-1.19751 90.1084 0.392418 86.3894 3.62891 84.2308C6.33543 82.4279 10.6723 83.1758 12.683 85.8397C14.989 88.8957 15.3895 92.2266 12.238 94.7894C9.03791 97.3846 10.1383 99.7858 11.8173 102.332C13.1361 104.337 15.0821 105.68 17.3598 106.411C27.0531 109.512 36.9689 111.06 47.0061 108.804C54.6725 107.082 58.3581 101.128 60.1422 93.9688C61.9263 86.8058 60.656 80.427 54.6321 75.4832C47.2407 69.4116 39.287 64.3829 29.8445 62.1879C24.2049 60.8782 20.8269 63.7887 21.1262 69.4237C21.3123 72.9244 18.3995 76.1825 14.7908 76.5099C10.6481 76.8818 7.67858 74.699 6.83709 70.6566C6.15743 67.3985 9.01364 63.0651 12.7842 62.7902C15.6485 62.5841 17.6672 61.4239 19.7709 59.8434C24.6216 56.2012 29.9093 56.7025 35.1686 58.6226C44.0204 61.8564 52.0145 66.586 58.9204 73.0295C62.9175 76.7606 65.357 81.3446 65.1709 86.919C65.0819 89.6152 66.0731 90.925 68.6501 91.4747C72.2629 92.2468 74.4151 93.985 73.0518 98.2376C72.2103 100.861 74.4718 101.302 76.3166 101.831C89.1655 105.518 102.569 100.4 110.68 88.7057C111.76 87.1494 112.877 85.6133 113.86 84.0004C121.68 71.1902 130.366 70.4949 142.681 72.5808C152.965 74.323 162.909 77.8035 173.42 78.7009C183.602 79.57 193.526 78.9839 202.953 74.893C214.337 69.9533 219.362 59.8434 217.367 45.1292C215.992 34.987 212.82 25.2732 207.298 16.5256C202.285 8.58641 198.324 7.8224 190.994 13.6555C184.035 19.1935 178.553 26.3566 171.518 31.8501C167.954 34.6312 164.499 37.6226 160.227 39.2153C158.03 40.0318 157.128 41.3698 156.456 43.4638C153.904 51.4312 147.006 55.2836 138.615 53.6303C132.304 52.3852 127.886 45.9579 128.161 38.4149C128.396 31.9795 132.636 27.1286 139.618 25.3096C145.201 23.8543 152.265 26.6597 154.83 32.0361C156.428 35.3912 157.945 35.2861 160.692 33.7096C166.445 30.411 171.288 26.0413 175.968 21.437C180.843 16.6428 185.358 11.4524 191.208 7.72539C197.738 3.56986 202.738 3.966 207.949 9.63337C214.442 16.6954 217.416 25.6006 220.009 34.5625C221.987 41.4062 223.043 48.3671 222.254 55.6393C220.462 72.1766 207.427 80.0996 194.259 82.5452C189.643 83.4022 185.006 83.576 179.828 83.4911V83.4951Z" fill="#92FEC0"/>
<path d="M54.9921 89.595C54.6644 91.4788 54.806 93.3463 53.9686 95.1533C50.5298 102.575 49.2109 102.923 43.2274 97.6029C37.155 92.2064 30.8397 87.0322 26.5716 79.9338C25.7787 78.616 26.0174 69.1771 26.9155 68.114C27.7408 67.1398 28.8291 67.5521 29.7393 67.8351C38.4738 70.5556 46.1201 75.1477 52.6861 81.4982C54.9881 83.7215 54.891 86.733 54.9962 89.6031L54.9921 89.595Z" fill="#023357"/>
</svg>
