<svg width="254" height="252" viewBox="0 0 254 252" fill="none" xmlns="http://www.w3.org/2000/svg">
<path d="M219.954 79.3643C220.039 79.6916 219.873 79.9098 219.792 80.1385C216.272 89.8086 212.732 99.4716 209.233 109.152C208.842 110.236 208.179 110.697 207.061 110.792C201.894 111.232 196.728 111.682 191.569 112.189C184.893 112.847 178.249 113.737 171.629 114.814C164.29 116.007 156.976 117.341 149.711 118.921C145.197 119.903 140.771 121.233 136.324 122.475C129.155 124.481 122.144 126.944 115.369 130.041C110.954 132.057 106.74 134.443 102.666 137.079C102.166 137.402 101.675 137.751 101.005 137.434C101.083 137.107 101.351 136.931 101.552 136.713C107.875 129.766 115.214 124.045 123.138 119.051C133.697 112.4 144.838 106.858 156.264 101.875C169.125 96.2659 182.237 91.3042 195.54 86.8386C203.39 84.2064 211.275 81.6939 219.256 79.484C219.471 79.4242 219.679 79.3397 219.958 79.3679L219.954 79.3643Z" fill="#003256" fill-opacity="0.8"/>
<path d="M211.483 47.1589C211.54 48.1301 211.31 49.031 210.961 49.8931C209.131 54.4044 207.689 59.0529 206.042 63.6311C204.412 68.153 202.804 72.6854 201.263 77.2424C200.769 78.7028 199.884 79.491 198.407 79.8922C186.081 83.2458 174.02 87.3805 162.27 92.3915C148.445 98.2858 135.252 105.348 122.796 113.766C119.033 116.306 115.496 119.15 111.871 121.873C111.511 122.144 111.201 122.486 110.823 122.721C110.168 123.133 109.938 123.006 109.829 122.253C109.646 120.99 110.012 119.924 110.947 119.044C112.485 117.594 114.015 116.137 115.546 114.684C120.631 109.849 125.727 105.028 131.179 100.605C140.373 93.1446 149.849 86.0609 159.589 79.3292C176.171 67.8679 193.265 57.2231 210.852 47.3735C211.018 47.282 211.166 47.1272 211.48 47.1624L211.483 47.1589Z" fill="#92FEC0"/>
<path d="M123.964 15.8578C138.638 15.8613 151.326 25.7742 154.828 39.8465C155.544 42.7285 155.915 45.6492 155.848 48.6192C155.738 53.5 154.409 58.0571 152.007 62.2868C147.856 69.5852 141.886 74.7932 133.937 77.6471C130.167 78.9984 126.256 79.3784 122.281 79.1602C115.256 78.7731 109.05 76.2993 103.724 71.7247C97.7539 66.5976 93.9839 60.1403 92.8025 52.3634C91.2261 42.0177 94.3507 33.0654 101.524 25.5314C106.01 20.816 111.515 17.8108 117.908 16.4736C119.954 16.0443 122.027 15.8226 123.971 15.8613L123.964 15.8578ZM95.4193 47.655C95.3875 49.0098 95.4122 50.4737 95.6344 51.927C95.7472 52.6766 95.8813 53.4261 96.0541 54.1651C97.4894 60.3303 100.695 65.4363 105.562 69.4409C113.091 75.6342 121.692 77.7104 131.147 75.2542C140.006 72.9493 146.269 67.3577 150.089 59.0881C152.427 54.0279 153.153 48.6966 152.233 43.186C151.295 37.5662 148.883 32.615 144.957 28.5014C137.492 20.6822 128.411 17.4413 117.722 19.7919C104.765 22.6423 94.915 34.7053 95.4193 47.6585V47.655Z" fill="#003256" fill-opacity="0.8"/>
<path d="M92.4146 132.881C91.8927 133.018 91.6247 132.764 91.3707 132.497C88.0875 129.048 84.3316 126.181 80.3466 123.605C73.2052 118.984 65.4255 115.856 57.1803 113.829C55.0996 113.319 52.9978 112.921 50.8995 112.499C49.1397 112.143 48.8117 111.781 48.7905 110.025C48.7588 107.322 48.7659 104.62 48.7659 101.917C48.7659 101.28 48.7835 101.273 49.45 101.453C52.0209 102.139 54.4507 103.177 56.8383 104.328C62.6677 107.136 68.134 110.553 73.4168 114.269C77.8709 117.401 82.1593 120.74 86.1055 124.502C87.6361 125.962 89.1102 127.472 90.3974 129.158C90.9123 129.83 91.3919 130.523 91.7904 131.269C92.0549 131.765 92.2877 132.272 92.4111 132.877L92.4146 132.881Z" fill="#92FEC0"/>
<path d="M86.9766 133.211C86.5005 133.078 86.1655 132.828 85.8128 132.617C82.6565 130.738 79.3944 129.098 75.8995 127.94C72.2178 126.719 68.4514 125.945 64.5862 125.628C58.9542 125.167 53.3787 125.579 47.8384 126.61C47.5351 126.666 47.2247 126.712 46.9179 126.733C46.0927 126.796 45.7718 126.529 45.733 125.691C45.7048 125.104 45.7471 124.509 45.7718 123.921C45.8599 121.866 45.8635 119.815 45.7436 117.76C45.7259 117.478 45.7118 117.197 45.7295 116.915C45.8 115.891 46.2549 115.493 47.2776 115.62C48.0888 115.722 48.8893 115.881 49.6934 116.035C58.1678 117.693 66.3424 120.241 74.0692 124.14C78.4916 126.371 82.6671 128.971 86.2713 132.402C86.4547 132.578 86.638 132.754 86.8144 132.933C86.8673 132.99 86.899 133.067 86.9836 133.204L86.9766 133.211Z" fill="#003256" fill-opacity="0.8"/>
<path d="M96.844 203.235C96.8017 202.2 96.7523 201.25 96.7276 200.3C96.5372 193.238 96.3573 186.179 96.1634 179.116C95.9447 171.128 95.7155 163.137 95.4863 155.149C95.4122 152.506 95.3417 149.86 95.2394 147.217C95.2218 146.742 95.3487 146.446 95.7331 146.154C98.1841 144.296 100.78 142.66 103.446 141.133C112.922 135.706 122.98 131.628 133.348 128.267C141.688 125.561 150.177 123.404 158.768 121.645C165.204 120.325 171.675 119.241 178.185 118.354C182.318 117.791 186.466 117.327 190.616 116.919C195.388 116.447 200.166 116.078 204.952 115.81C210.443 115.501 215.934 115.268 221.435 115.233C221.915 115.233 222.395 115.198 222.871 115.198C223.389 115.198 223.696 115.645 223.523 116.148C223.47 116.306 223.386 116.454 223.315 116.609C213.578 137.797 203.845 158.984 194.101 180.168C192.655 183.311 191.293 186.492 189.661 189.546C189.424 189.986 189.449 190.525 189.086 190.919C188.451 191.612 188.31 192.541 187.961 193.368C186.007 197.978 183.877 202.507 181.691 207.011C180.911 208.612 180.125 210.203 179.476 211.867C178.351 214.749 176.94 217.508 175.635 220.313C175.089 221.484 174.56 222.663 174.017 223.839C173.911 224.067 173.819 224.314 173.664 224.507C173.23 225.046 173.089 225.053 172.521 224.68C164.703 219.549 156.419 215.302 147.775 211.74C141.226 209.045 134.515 206.842 127.607 205.255C123.428 204.294 119.22 203.481 114.935 203.189C111.226 202.936 107.505 202.834 103.781 202.989C101.951 203.066 100.117 203.115 98.297 203.334C97.8103 203.39 97.3942 203.017 96.8475 203.239L96.844 203.235ZM222.835 115.557C221.114 115.588 219.513 115.624 217.909 115.673C214.728 115.771 211.547 115.87 208.369 116.021C205.474 116.162 202.582 116.338 199.69 116.539C196.94 116.729 194.196 116.964 191.449 117.221C188.818 117.464 186.19 117.77 183.563 118.055C180.767 118.361 177.984 118.752 175.202 119.143C172.197 119.565 169.203 120.075 166.212 120.599C161.532 121.419 156.874 122.359 152.247 123.436C143.36 125.508 134.6 128.014 126.037 131.177C120.857 133.092 115.771 135.228 110.802 137.635C108.316 138.838 105.883 140.14 103.495 141.527C100.935 143.012 98.4345 144.585 96.0682 146.365C95.7331 146.619 95.6097 146.875 95.6238 147.28C95.6732 148.656 95.6697 150.032 95.7543 151.411C95.8848 153.516 95.7931 155.627 95.9342 157.735C96.0646 159.699 95.9624 161.669 96.0964 163.636C96.2339 165.656 96.1352 167.683 96.2692 169.706C96.3997 171.67 96.3045 173.641 96.4349 175.608C96.5725 177.684 96.4702 179.767 96.6113 181.847C96.7417 183.754 96.7065 185.668 96.7558 187.579C96.837 190.701 96.9992 193.818 96.9957 196.943C96.9957 198.717 97.2002 200.48 97.1649 202.253C97.1544 202.816 97.2073 202.837 97.7433 202.756C99.4995 202.5 101.273 202.408 103.04 202.348C107.011 202.215 110.975 202.348 114.935 202.771C117.566 203.049 120.183 203.4 122.782 203.872C128.188 204.85 133.492 206.244 138.701 207.972C144.023 209.738 149.221 211.818 154.306 214.19C160.034 216.86 165.592 219.83 170.934 223.205C171.594 223.624 172.257 224.039 172.885 224.437C173.11 224.3 173.16 224.131 173.227 223.983C174.507 221.199 175.787 218.412 177.064 215.625C179.37 210.586 181.673 205.547 183.979 200.511C185.281 197.672 186.589 194.839 187.887 191.999C190.207 186.935 192.521 181.872 194.841 176.808C196.188 173.866 197.546 170.931 198.893 167.989C201.14 163.08 203.379 158.164 205.626 153.255C206.983 150.289 208.359 147.329 209.716 144.363C212.002 139.377 214.276 134.387 216.562 129.4C218.212 125.793 219.887 122.197 221.52 118.587C221.957 117.622 222.479 116.686 222.828 115.553L222.835 115.557Z" fill="#003256" fill-opacity="0.8"/>
<path d="M95.5921 202.123C95.1877 202.013 94.9561 202.166 94.8973 202.584C88.4119 195.894 80.7486 191.081 71.791 188.385C66.5893 186.819 61.2677 186.179 55.8367 186.538C55.3571 186.569 54.8739 186.552 54.4049 186.636C53.9112 186.724 53.7842 186.516 53.6925 186.08C53.16 183.578 52.5958 181.08 52.0456 178.581C50.2611 170.449 48.4767 162.317 46.6922 154.184C45.1123 146.988 43.5289 139.788 41.9489 132.592C41.8043 131.941 41.8079 131.93 42.4956 131.783C48.3321 130.526 54.2391 129.921 60.2097 129.967C64.565 130.002 68.8781 130.435 73.1171 131.455C76.3086 132.223 79.3627 133.342 82.2721 134.879C83.718 135.643 85.1816 136.357 86.5111 137.318C89.29 139.324 91.5577 141.794 93.328 144.729C94.0157 145.873 94.3719 147.073 94.2872 148.42C94.1532 150.56 94.3895 152.692 94.5094 154.828C94.5799 156.123 94.6364 157.415 94.4847 158.706C94.4706 158.819 94.4495 158.931 94.46 159.044C94.7281 162.461 94.6963 165.892 94.8056 169.312C95.0208 175.949 95.2359 182.586 95.4087 189.223C95.511 193.217 95.5357 197.214 95.5921 201.208C95.5956 201.49 95.5921 201.768 95.5921 202.127V202.123ZM94.5588 201.666C94.5306 200.314 94.4918 199.139 94.4459 197.964C94.3225 194.818 94.4283 191.665 94.2661 188.515C94.125 185.763 94.2449 183.005 94.1109 180.249C93.9593 177.16 94.0827 174.063 93.9346 170.97C93.79 167.993 93.9099 165.009 93.7688 162.028C93.6278 159.051 93.7441 156.067 93.596 153.086C93.5043 151.232 93.5466 149.374 93.5396 147.516C93.5396 147.111 93.462 146.749 93.2716 146.386C92.2489 144.465 91.0357 142.674 89.5757 141.059C86.2184 137.339 82.0923 134.788 77.3948 133.113C73.9352 131.878 70.3769 131.107 66.7198 130.727C63.8915 130.431 61.0631 130.319 58.2172 130.368C55.4276 130.417 52.6522 130.586 49.8803 130.913C47.588 131.184 45.3168 131.564 43.0563 132.011C42.2593 132.17 42.2275 132.247 42.3968 133.011C43.7299 139.067 45.0665 145.123 46.3995 151.179C47.528 156.303 48.6565 161.43 49.7815 166.553C50.4692 169.678 51.1463 172.803 51.834 175.928C52.5393 179.134 53.2482 182.339 53.9641 185.545C54.1298 186.284 54.1439 186.291 54.9092 186.246C55.4135 186.217 55.9178 186.119 56.4221 186.115C58.3653 186.112 60.3049 186.059 62.2481 186.231C64.4099 186.421 66.547 186.728 68.663 187.192C73.7095 188.297 78.4457 190.201 82.9175 192.773C86.296 194.716 89.4452 196.975 92.3406 199.593C93.0494 200.233 93.7124 200.92 94.5623 201.662L94.5588 201.666Z" fill="#003256" fill-opacity="0.8"/>
<path d="M101.376 131.005C101.764 129.868 102.384 128.939 103.061 128.042C104.179 126.561 105.467 125.223 106.673 123.816C106.817 123.647 106.965 123.439 107.223 123.503C107.501 123.569 107.597 123.809 107.664 124.066C107.868 124.875 107.54 125.48 106.955 126.001C105.611 127.197 104.275 128.397 102.938 129.597C102.416 130.065 101.898 130.533 101.379 131.005H101.376Z" fill="#003256" fill-opacity="0.8"/>
<path d="M222.835 115.557C222.483 116.693 221.964 117.626 221.527 118.59C219.891 122.204 218.219 125.8 216.569 129.404C214.283 134.39 212.009 139.38 209.724 144.366C208.366 147.333 206.99 150.292 205.633 153.259C203.386 158.168 201.147 163.084 198.9 167.993C197.553 170.935 196.195 173.869 194.848 176.811C192.528 181.875 190.214 186.939 187.894 192.003C186.593 194.842 185.284 197.675 183.986 200.515C181.68 205.554 179.377 210.593 177.071 215.629C175.794 218.416 174.514 221.203 173.234 223.986C173.167 224.134 173.117 224.303 172.892 224.44C172.264 224.043 171.601 223.627 170.941 223.209C165.599 219.834 160.041 216.864 154.314 214.193C149.232 211.821 144.033 209.742 138.708 207.975C133.496 206.247 128.192 204.854 122.789 203.875C120.19 203.404 117.573 203.052 114.943 202.774C110.982 202.355 107.018 202.218 103.047 202.352C101.28 202.412 99.5066 202.503 97.7504 202.76C97.2143 202.837 97.1614 202.82 97.172 202.257C97.2073 200.483 96.9992 198.717 97.0027 196.947C97.0027 193.825 96.844 190.704 96.7629 187.583C96.7135 185.672 96.7453 183.758 96.6183 181.85C96.4773 179.771 96.576 177.684 96.442 175.611C96.3115 173.644 96.4067 171.674 96.2762 169.71C96.1422 167.687 96.2375 165.656 96.1034 163.64C95.9694 161.673 96.0717 159.699 95.9412 157.738C95.8001 155.631 95.8954 153.519 95.7614 151.415C95.6767 150.039 95.6803 148.663 95.6309 147.284C95.6168 146.879 95.7402 146.622 96.0752 146.369C98.4416 144.588 100.945 143.015 103.502 141.53C105.89 140.144 108.323 138.842 110.809 137.638C115.778 135.231 120.864 133.092 126.044 131.181C134.61 128.017 143.367 125.512 152.254 123.439C156.881 122.359 161.536 121.423 166.219 120.603C169.21 120.079 172.2 119.568 175.209 119.146C177.991 118.755 180.774 118.361 183.57 118.059C186.198 117.77 188.821 117.468 191.456 117.225C194.199 116.971 196.947 116.732 199.697 116.542C202.589 116.341 205.481 116.166 208.376 116.025C211.557 115.87 214.735 115.775 217.916 115.676C219.52 115.627 221.122 115.592 222.842 115.56L222.835 115.557Z" fill="#003256"/>
<path d="M94.5588 201.666C93.7089 200.923 93.0459 200.233 92.337 199.596C89.4417 196.978 86.2924 194.719 82.9139 192.777C78.4422 190.204 73.706 188.301 68.6594 187.196C66.5434 186.731 64.4063 186.425 62.2445 186.235C60.3014 186.066 58.3617 186.115 56.4186 186.119C55.9143 186.119 55.4135 186.217 54.9057 186.249C54.1404 186.295 54.1263 186.288 53.9605 185.549C53.2446 182.343 52.5358 179.141 51.8305 175.931C51.1428 172.807 50.4657 169.682 49.778 166.557C48.653 161.433 47.5245 156.306 46.396 151.183C45.0629 145.127 43.7263 139.07 42.3933 133.014C42.224 132.251 42.2557 132.17 43.0527 132.015C45.3133 131.568 47.5844 131.191 49.8767 130.917C52.6451 130.59 55.4241 130.421 58.2136 130.372C61.0561 130.322 63.8844 130.435 66.7162 130.731C70.3733 131.111 73.9317 131.881 77.3913 133.116C82.0887 134.791 86.2184 137.343 89.5722 141.062C91.0287 142.677 92.2418 144.469 93.268 146.39C93.462 146.752 93.5361 147.115 93.5361 147.519C93.5396 149.377 93.4973 151.239 93.5925 153.09C93.7441 156.071 93.6242 159.055 93.7653 162.032C93.9064 165.012 93.79 167.996 93.931 170.973C94.0792 174.066 93.9557 177.163 94.1074 180.253C94.2414 183.008 94.125 185.767 94.2625 188.519C94.4248 191.668 94.319 194.821 94.4424 197.967C94.4882 199.143 94.527 200.318 94.5553 201.669L94.5588 201.666Z" fill="#003256"/>
<path d="M128.492 39.3011C128.802 39.2272 128.94 39.4664 129.105 39.653C129.335 39.9063 129.592 40.1175 129.909 40.2582C130.354 40.4518 130.788 40.4518 131.193 40.1667C131.669 39.8324 131.761 39.4559 131.341 39.0477C130.703 38.4248 130.364 37.6155 129.867 36.9117C129.543 36.4507 129.261 35.9616 128.929 35.5076C128.153 34.4379 127.159 33.7094 125.797 33.5652C125.625 33.5476 125.343 33.5863 125.364 33.3048C125.381 33.0373 125.614 32.9564 125.864 32.9599C126.259 32.9634 126.654 32.9493 127.046 32.9775C127.564 33.0127 127.91 32.7945 128.121 32.3335C128.146 32.2807 128.174 32.235 128.199 32.1822C128.7 31.1687 128.686 31.1863 127.815 30.4896C127.353 30.1236 126.958 29.6767 126.517 29.2826C125.801 28.6421 125.064 28.0228 124.242 27.5337C123.262 26.9495 123.085 26.0803 123.212 25.0634C123.258 24.6974 123.435 24.437 123.812 24.3314C124.299 24.1977 124.676 24.2857 124.948 24.6446C125.117 24.8663 125.244 25.1232 125.417 25.3449C125.928 25.9888 126.559 26.2809 127.416 26.1437C129.031 25.8833 129.959 26.4006 130.456 27.9771C131.034 29.8034 131.821 31.5488 132.456 33.3505C132.713 34.0754 133.14 34.5681 133.926 34.6912C134.522 34.7862 134.826 34.6103 135.041 34.0543C135.062 34.0015 135.079 33.9487 135.087 33.8924C135.33 32.4145 136.328 31.6262 137.629 31.1089C138.31 30.838 138.966 30.5107 139.685 30.3453C140.13 30.2397 140.528 30.0321 140.835 29.6767C140.891 29.6134 140.962 29.5641 141.025 29.5113C141.963 28.7301 142.447 28.8357 142.944 29.9582C143.064 30.2292 143.265 30.4931 143.177 30.8802C142.461 30.9224 141.731 30.8978 141.018 31.0526C140.627 31.1371 140.324 31.2778 140.253 31.7107C140.186 32.1189 140.299 32.4391 140.704 32.601C141.18 32.791 141.681 32.8825 142.189 32.9001C142.69 32.9177 143.025 32.6432 143.166 32.1294C143.272 31.7529 143.307 31.3588 143.378 30.9365C144.012 31.0421 144.418 31.4679 144.749 31.95C145.194 32.601 145.603 33.2731 145.998 33.9558C146.34 34.5469 146.312 35.1487 145.885 35.6941C145.642 36.0038 145.359 36.2783 145.088 36.5633C144.894 36.7674 144.679 36.9504 144.552 37.2108C144.245 37.8407 144.407 38.2806 145.102 38.3756C146.238 38.5339 146.647 39.2835 146.837 40.2652C146.939 40.8036 146.837 40.9796 146.301 40.9374C145.67 40.8846 145.292 41.2013 144.947 41.6306C144.474 42.2218 144.453 42.3837 144.883 43.0347C145.409 43.8264 145.419 44.6147 144.912 45.4029C144.425 46.1595 143.966 46.9301 143.533 47.7184C142.845 48.9711 142.573 50.2943 142.644 51.6948C142.697 52.7787 143.282 53.5352 144.256 53.9857C145.06 54.3551 145.917 54.51 146.795 54.5628C147.331 54.5944 147.863 54.6367 148.399 54.6507C148.77 54.6613 148.823 54.8513 148.742 55.1469C148.607 55.636 148.481 56.1252 148.325 56.6073C147.098 60.3585 144.876 63.4728 142.09 66.2175C138.698 69.557 134.702 71.8092 130.04 72.8473C129.574 72.9528 129.116 73.0901 128.65 73.2027C127.959 73.3681 127.628 73.1886 127.469 72.5094C127.279 71.7071 127.37 70.947 127.952 70.296C128.721 69.4339 129.522 68.5999 130.361 67.8081C131.334 66.8932 132.219 65.9255 132.628 64.6094C132.759 64.1871 133.041 63.9056 133.496 63.7719C134.409 63.5009 135.041 62.8675 135.499 62.0546C136.01 61.1467 136.511 60.2353 136.991 59.3134C137.439 58.4442 137.273 57.8459 136.413 57.3111C135.33 56.6389 134.138 56.1991 132.953 55.7522C132.586 55.6149 132.311 55.4706 132.195 55.0625C131.976 54.3094 131.433 53.8273 130.728 53.5282C130.34 53.3628 129.945 53.215 129.543 53.0883C128.866 52.8772 128.238 52.5851 127.645 52.1839C126.443 51.364 125.332 51.4027 124.122 52.2508C123.272 52.8455 122.588 52.6801 122.176 51.7546C121.978 51.3183 121.629 51.0508 121.252 50.7975C120.723 50.4421 120.282 50.0655 120.289 49.3266C120.292 48.8937 119.982 48.7424 119.495 48.8656C119.167 48.95 118.847 49.0626 118.504 49.0556C118.064 49.045 117.88 48.8726 117.891 48.4292C117.905 47.8029 118.106 47.2152 118.381 46.6557C118.427 46.5607 118.522 46.4797 118.61 46.4129C119.577 45.6774 121.664 46.346 122.01 47.4967C122.154 47.9858 122.105 48.0949 121.615 48.3307C121.541 48.3659 121.456 48.3905 121.382 48.4257C121.22 48.5031 121.1 48.6263 121.082 48.8057C121.065 49.031 121.273 49.0662 121.421 49.1084C122.669 49.4638 123.9 49.8544 125.074 50.4139C125.48 50.6075 125.907 50.5019 126.27 50.2344C126.485 50.0761 126.623 49.8509 126.58 49.5799C126.531 49.2562 126.245 49.2139 125.995 49.2175C125.304 49.228 124.743 48.9148 124.207 48.5454C123.364 47.9647 122.941 47.1413 122.821 46.1384C122.775 45.7619 122.853 45.4874 123.209 45.3009C124.147 44.8082 124.574 44.02 124.591 42.9643C124.602 42.352 124.789 42.1725 125.385 42.0705C125.829 41.9966 126.274 41.9227 126.704 41.7819C127.716 41.4547 128.322 40.7966 128.397 39.7093C128.407 39.572 128.389 39.4277 128.502 39.3116L128.492 39.3011Z" fill="#92FEC0"/>
<path d="M97.9549 47.7782C97.8738 44.1678 98.6285 40.8423 99.9404 37.6331C100.787 35.5674 102.571 34.8636 104.634 35.7575C106.115 36.4014 107.17 37.5064 107.918 38.914C108.369 39.762 108.672 40.6699 108.983 41.5708C109.268 42.3942 109.575 43.2106 109.952 43.9988C111.084 46.3706 112.745 48.2709 114.992 49.6538C116.24 50.4245 117.559 51.0579 118.889 51.6772C120.215 52.2965 121.548 52.9053 122.789 53.6865C123.533 54.1545 123.562 54.2847 123.089 55.0132C122.084 56.5721 122.109 57.948 123.163 59.4858C123.484 59.9538 123.879 60.3514 124.292 60.7385C125.568 61.9455 125.97 63.4094 125.632 65.1196C125.402 66.2809 124.923 67.3717 124.687 68.5295C124.443 69.7083 124.443 70.8625 124.842 72.0168C125.293 73.3293 125.004 73.7023 123.583 73.6636C113.31 73.3786 103.71 67.2802 99.6971 56.9627C98.5368 53.9751 97.9055 50.8749 97.962 47.7782H97.9549Z" fill="#92FEC0"/>
<path d="M124.905 32.8438C124.613 32.8684 124.39 32.8789 124.168 32.9106C123.357 33.0303 123.008 33.4525 123.011 34.2865C123.011 34.7158 123.135 35.1205 123.258 35.5217C123.357 35.8489 123.431 36.1727 123.396 36.514C123.35 36.9609 123.068 37.2037 122.669 37.3515C122.281 37.4958 122.013 37.3234 121.798 37.0278C121.343 36.412 120.719 35.9651 120.204 35.4056C119.287 34.4097 119.263 33.8185 120.084 32.7417C120.56 32.1189 121.156 31.5945 121.597 30.933C121.837 30.5705 121.915 30.2573 121.826 29.8421C121.703 29.2615 121.826 29.1489 122.419 29.1876C123.272 29.2474 124.133 29.9195 124.186 30.7289C124.232 31.4151 124.461 31.9746 124.838 32.513C124.881 32.5728 124.873 32.6678 124.905 32.8402V32.8438Z" fill="#003256" fill-opacity="0.8"/>
<path d="M111.927 26.8439C112.604 26.7208 113.186 26.6926 113.775 26.7137C114.177 26.7313 114.502 26.6328 114.646 26.2176C114.794 25.7918 114.537 25.5349 114.248 25.2921C113.588 24.7361 113.5 24.4053 113.874 23.9091C114.146 23.5502 114.382 23.5009 114.696 23.8388C115.034 24.2047 115.461 24.4053 115.888 24.6094C116.163 24.7431 116.438 24.6939 116.646 24.437C116.861 24.1731 116.702 23.969 116.544 23.7649C116.508 23.7191 116.466 23.6804 116.438 23.6347C116.35 23.5045 116.166 23.3531 116.325 23.2089C116.484 23.0646 116.699 23.1455 116.868 23.2652C117.013 23.3672 117.087 23.5185 117.104 23.6945C117.118 23.8352 117.115 23.976 117.129 24.1132C117.207 24.9331 117.207 24.9261 116.406 25.0176C116.212 25.0387 116.015 25.0809 115.838 25.1584C115.419 25.3413 115.348 25.5595 115.574 25.9536C115.701 26.1718 115.881 26.3583 115.997 26.58C116.247 27.0586 116.085 27.3929 115.56 27.3577C114.791 27.3084 114.054 27.4175 113.31 27.5548C112.749 27.6568 112.252 27.5337 111.934 26.8475L111.927 26.8439Z" fill="#003256" fill-opacity="0.8"/>
<path d="M105.943 29.2157C105.886 28.5647 106.193 28.248 106.606 28.0298C107.195 27.7202 107.812 27.4562 108.337 27.0586C108.415 27.1255 108.489 27.1571 108.492 27.1994C108.616 28.1776 109.307 28.519 110.15 28.7371C110.831 28.9131 111.497 29.1453 111.91 29.8421C109.991 29.082 107.995 29.1137 105.946 29.2157H105.943Z" fill="#003256" fill-opacity="0.8"/>
</svg>
