<svg width="44" height="6" viewBox="0 0 44 6" fill="none" xmlns="http://www.w3.org/2000/svg">
<line x1="0.304587" y1="2.50264" x2="42.3046" y2="0.502641" stroke="#00CAB8"/>
<line x1="0.304587" y1="2.50264" x2="42.3046" y2="0.502641" stroke="#00CAB8"/>
<line x1="0.304587" y1="2.50264" x2="42.3046" y2="0.502641" stroke="#00CAB8"/>
<line x1="0.304587" y1="2.50264" x2="42.3046" y2="0.502641" stroke="#00CAB8"/>
<line x1="0.304587" y1="5.50264" x2="42.3046" y2="3.50264" stroke="#00CAB8"/>
<line x1="0.304587" y1="5.50264" x2="42.3046" y2="3.50264" stroke="#00CAB8"/>
<line x1="0.304587" y1="5.50264" x2="42.3046" y2="3.50264" stroke="#00CAB8"/>
<line x1="0.304587" y1="5.50264" x2="42.3046" y2="3.50264" stroke="#00CAB8"/>
<line x1="0.828369" y1="2.00208" x2="0.828369" y2="5.00208" stroke="#00CAB8"/>
<line x1="0.828369" y1="2.00208" x2="0.828369" y2="5.00208" stroke="#00CAB8"/>
<line x1="0.828369" y1="2.00208" x2="0.828369" y2="5.00208" stroke="#00CAB8"/>
<line x1="0.828369" y1="2.00208" x2="0.828369" y2="5.00208" stroke="#00CAB8"/>
<line x1="42.8284" y1="0.0020752" x2="42.8284" y2="4.00208" stroke="#00CAB8"/>
<line x1="42.8284" y1="0.0020752" x2="42.8284" y2="4.00208" stroke="#00CAB8"/>
<line x1="42.8284" y1="0.0020752" x2="42.8284" y2="4.00208" stroke="#00CAB8"/>
<line x1="42.8284" y1="0.0020752" x2="42.8284" y2="4.00208" stroke="#00CAB8"/>
</svg>
