<svg width="44" height="6" viewBox="0 0 44 6" fill="none" xmlns="http://www.w3.org/2000/svg">
<line y1="-0.5" x2="42.0476" y2="-0.5" transform="matrix(-0.998868 -0.0475652 -0.0475652 0.998868 43.3283 3.00208)" stroke="#00CAB8"/>
<line y1="-0.5" x2="42.0476" y2="-0.5" transform="matrix(-0.998868 -0.0475652 -0.0475652 0.998868 43.3283 3.00208)" stroke="#00CAB8"/>
<line y1="-0.5" x2="42.0476" y2="-0.5" transform="matrix(-0.998868 -0.0475652 -0.0475652 0.998868 43.3283 3.00208)" stroke="#00CAB8"/>
<line y1="-0.5" x2="42.0476" y2="-0.5" transform="matrix(-0.998868 -0.0475652 -0.0475652 0.998868 43.3283 3.00208)" stroke="#00CAB8"/>
<line y1="-0.5" x2="42.0476" y2="-0.5" transform="matrix(-0.998868 -0.0475652 -0.0475652 0.998868 43.3283 6.00208)" stroke="#00CAB8"/>
<line y1="-0.5" x2="42.0476" y2="-0.5" transform="matrix(-0.998868 -0.0475652 -0.0475652 0.998868 43.3283 6.00208)" stroke="#00CAB8"/>
<line y1="-0.5" x2="42.0476" y2="-0.5" transform="matrix(-0.998868 -0.0475652 -0.0475652 0.998868 43.3283 6.00208)" stroke="#00CAB8"/>
<line y1="-0.5" x2="42.0476" y2="-0.5" transform="matrix(-0.998868 -0.0475652 -0.0475652 0.998868 43.3283 6.00208)" stroke="#00CAB8"/>
<line y1="-0.5" x2="3" y2="-0.5" transform="matrix(0 1 1 0 43.3283 2.00208)" stroke="#00CAB8"/>
<line y1="-0.5" x2="3" y2="-0.5" transform="matrix(0 1 1 0 43.3283 2.00208)" stroke="#00CAB8"/>
<line y1="-0.5" x2="3" y2="-0.5" transform="matrix(0 1 1 0 43.3283 2.00208)" stroke="#00CAB8"/>
<line y1="-0.5" x2="3" y2="-0.5" transform="matrix(0 1 1 0 43.3283 2.00208)" stroke="#00CAB8"/>
<line y1="-0.5" x2="4" y2="-0.5" transform="matrix(0 1 1 0 1.32834 0.0020752)" stroke="#00CAB8"/>
<line y1="-0.5" x2="4" y2="-0.5" transform="matrix(0 1 1 0 1.32834 0.0020752)" stroke="#00CAB8"/>
<line y1="-0.5" x2="4" y2="-0.5" transform="matrix(0 1 1 0 1.32834 0.0020752)" stroke="#00CAB8"/>
<line y1="-0.5" x2="4" y2="-0.5" transform="matrix(0 1 1 0 1.32834 0.0020752)" stroke="#00CAB8"/>
</svg>
