<svg width="57" height="508" viewBox="0 0 57 508" fill="none" xmlns="http://www.w3.org/2000/svg">
<rect opacity="0.8" x="0.504639" y="0.437744" width="56.0095" height="50.8235" rx="8.19307" fill="white" fill-opacity="0.4"/>
<g clip-path="url(#clip0_701_13342)">
<path d="M16.8408 26.6273H27.2129V13.6621H16.8408V26.6273ZM16.8408 36.9994H27.2129V29.2203H16.8408V36.9994ZM29.8059 36.9994H40.1781V24.0342H29.8059V36.9994ZM29.8059 13.6621V21.4412H40.1781V13.6621H29.8059Z" fill="white"/>
</g>
<g clip-path="url(#clip1_701_13342)">
<path d="M34.9918 107.011H40.1779C40.5217 107.011 40.8515 107.148 41.0947 107.391C41.3378 107.634 41.4744 107.964 41.4744 108.308V129.052C41.4744 129.396 41.3378 129.726 41.0947 129.969C40.8515 130.212 40.5217 130.349 40.1779 130.349H16.8406C16.4967 130.349 16.167 130.212 15.9238 129.969C15.6807 129.726 15.5441 129.396 15.5441 129.052L15.5441 108.308C15.5441 107.964 15.6807 107.634 15.9238 107.391C16.167 107.148 16.4967 107.011 16.8406 107.011H22.0267V104.418H24.6197V107.011H32.3988V104.418H34.9918V107.011ZM18.1371 114.791V127.756H38.8814V114.791H18.1371ZM20.7301 119.977H27.2127V125.163H20.7301V119.977Z" fill="white"/>
</g>
<g clip-path="url(#clip2_701_13342)">
<path d="M28.5094 318.344C21.3487 318.344 15.5442 312.539 15.5442 305.379C15.5442 299.573 19.3598 294.659 24.6198 293.007V295.761C22.391 296.666 20.5459 298.318 19.4001 300.433C18.2543 302.548 17.8791 304.995 18.3385 307.357C18.798 309.718 20.0636 311.846 21.9189 313.377C23.7741 314.909 26.1038 315.748 28.5094 315.751C30.5757 315.751 32.595 315.134 34.3085 313.979C36.0219 312.824 37.3516 311.184 38.1269 309.268H40.8807C39.229 314.528 34.3152 318.344 28.5094 318.344ZM41.4097 306.675H27.2128V292.478C27.6394 292.436 28.0724 292.414 28.5094 292.414C35.67 292.414 41.4745 298.218 41.4745 305.379C41.4745 305.816 41.4525 306.249 41.4097 306.675ZM29.8059 295.087V304.082H38.8011C38.5125 301.797 37.472 299.673 35.8435 298.045C34.2149 296.416 32.0909 295.376 29.8059 295.087Z" fill="white"/>
</g>
<g clip-path="url(#clip3_701_13342)">
<path d="M15.5441 208.132C15.5434 207.111 15.7442 206.099 16.135 205.155C16.5258 204.212 17.0989 203.354 17.8215 202.632C18.5441 201.911 19.402 201.338 20.346 200.949C21.2901 200.559 22.3018 200.359 23.3232 200.361H33.6953C37.9907 200.361 41.4744 203.855 41.4744 208.132V223.698H23.3232C19.0278 223.698 15.5441 220.204 15.5441 215.927V208.132ZM38.8814 221.105V208.132C38.878 206.758 38.3302 205.442 37.3582 204.471C36.3861 203.501 35.069 202.955 33.6953 202.954H23.3232C22.6423 202.952 21.9678 203.085 21.3383 203.344C20.7089 203.604 20.1368 203.985 19.655 204.466C19.1732 204.947 18.7911 205.519 18.5306 206.148C18.2702 206.777 18.1364 207.451 18.1371 208.132V215.927C18.1405 217.3 18.6883 218.617 19.6603 219.587C20.6324 220.558 21.9495 221.104 23.3232 221.105H38.8814ZM31.1023 210.733H33.6953V213.326H31.1023V210.733ZM23.3232 210.733H25.9162V213.326H23.3232V210.733Z" fill="white"/>
</g>
<path d="M17.5704 406.68C16.9857 405.669 16.5313 404.588 16.2178 403.463C16.9001 403.116 17.473 402.587 17.8733 401.935C18.2735 401.283 18.4856 400.532 18.4858 399.767C18.4861 399.001 18.2747 398.251 17.8749 397.598C17.4751 396.946 16.9026 396.416 16.2206 396.069C16.8457 393.808 18.036 391.744 19.6794 390.071C20.3212 390.488 21.0659 390.72 21.8312 390.74C22.5965 390.76 23.3524 390.568 24.0154 390.185C24.6783 389.803 25.2224 389.244 25.5875 388.571C25.9526 387.898 26.1243 387.137 26.0838 386.373C28.3548 385.786 30.7378 385.787 33.0082 386.376C32.9681 387.14 33.1402 387.901 33.5055 388.573C33.8709 389.246 34.4152 389.805 35.0783 390.187C35.7414 390.57 36.4974 390.761 37.2626 390.741C38.0278 390.72 38.7724 390.488 39.4141 390.071C40.2148 390.887 40.9256 391.815 41.5231 392.851C42.1219 393.886 42.57 394.966 42.8756 396.067C42.1934 396.414 41.6205 396.943 41.2202 397.596C40.8199 398.248 40.6079 398.998 40.6076 399.764C40.6073 400.529 40.8188 401.28 41.2186 401.932C41.6183 402.585 42.1909 403.114 42.8728 403.462C42.2477 405.722 41.0574 407.787 39.4141 409.46C38.7723 409.043 38.0275 408.811 37.2622 408.791C36.497 408.771 35.741 408.962 35.0781 409.345C34.4151 409.728 33.871 410.287 33.5059 410.96C33.1409 411.633 32.9691 412.393 33.0096 413.158C30.7387 413.745 28.3557 413.744 26.0852 413.155C26.1254 412.391 25.9533 411.63 25.5879 410.957C25.2226 410.285 24.6782 409.726 24.0152 409.344C23.3521 408.961 22.5961 408.769 21.8309 408.79C21.0656 408.81 20.321 409.042 19.6794 409.46C18.862 408.626 18.1534 407.692 17.5704 406.68ZM25.3979 406.951C26.8716 407.801 27.9796 409.165 28.5095 410.782C29.1996 410.847 29.8925 410.848 30.5826 410.783C31.1128 409.166 32.2213 407.802 33.6956 406.953C35.1687 406.1 36.9047 405.822 38.5705 406.171C38.9715 405.607 39.3173 405.005 39.6049 404.376C38.4701 403.109 37.8432 401.467 37.8444 399.765C37.8444 398.023 38.4944 396.395 39.6049 395.155C39.3152 394.526 38.968 393.925 38.5677 393.359C36.903 393.708 35.1681 393.431 33.6956 392.58C32.2219 391.73 31.1138 390.365 30.5839 388.749C29.8938 388.684 29.201 388.682 28.5109 388.747C27.9807 390.364 26.8721 391.728 25.3979 392.578C23.9247 393.43 22.1887 393.709 20.523 393.359C20.1227 393.924 19.7764 394.525 19.4885 395.155C20.6233 396.422 21.2502 398.064 21.249 399.765C21.249 401.508 20.599 403.136 19.4885 404.376C19.7782 405.005 20.1254 405.606 20.5257 406.171C22.1904 405.822 23.9253 406.1 25.3979 406.951ZM29.5467 403.914C28.4464 403.914 27.3911 403.477 26.613 402.699C25.835 401.921 25.3979 400.866 25.3979 399.765C25.3979 398.665 25.835 397.61 26.613 396.832C27.3911 396.054 28.4464 395.616 29.5467 395.616C30.6471 395.616 31.7023 396.054 32.4804 396.832C33.2585 397.61 33.6956 398.665 33.6956 399.765C33.6956 400.866 33.2585 401.921 32.4804 402.699C31.7023 403.477 30.6471 403.914 29.5467 403.914ZM29.5467 401.148C29.9135 401.148 30.2653 401.003 30.5246 400.743C30.784 400.484 30.9297 400.132 30.9297 399.765C30.9297 399.399 30.784 399.047 30.5246 398.787C30.2653 398.528 29.9135 398.382 29.5467 398.382C29.1799 398.382 28.8282 398.528 28.5688 398.787C28.3095 399.047 28.1638 399.399 28.1638 399.765C28.1638 400.132 28.3095 400.484 28.5688 400.743C28.8282 401.003 29.1799 401.148 29.5467 401.148Z" fill="white"/>
<g clip-path="url(#clip4_701_13342)">
<path d="M18.1372 499.856H20.7302V502.449H36.2884V481.705H20.7302V484.298H18.1372V480.408C18.1372 480.064 18.2738 479.735 18.5169 479.492C18.7601 479.248 19.0898 479.112 19.4337 479.112H37.5849C37.9288 479.112 38.2586 479.248 38.5017 479.492C38.7448 479.735 38.8814 480.064 38.8814 480.408V503.746C38.8814 504.089 38.7448 504.419 38.5017 504.662C38.2586 504.906 37.9288 505.042 37.5849 505.042H19.4337C19.0898 505.042 18.7601 504.906 18.5169 504.662C18.2738 504.419 18.1372 504.089 18.1372 503.746V499.856ZM20.7302 490.78H29.8058V493.374H20.7302V497.263L14.2476 492.077L20.7302 486.891V490.78Z" fill="white"/>
</g>
<defs>
<clipPath id="clip0_701_13342">
<rect width="31.1164" height="31.1164" fill="white" transform="translate(12.9512 9.77271)"/>
</clipPath>
<clipPath id="clip1_701_13342">
<rect width="31.1164" height="31.1164" fill="white" transform="translate(12.951 103.122)"/>
</clipPath>
<clipPath id="clip2_701_13342">
<rect width="31.1164" height="31.1164" fill="white" transform="translate(12.951 289.821)"/>
</clipPath>
<clipPath id="clip3_701_13342">
<rect width="31.1164" height="31.1164" fill="white" transform="translate(12.9509 196.471)"/>
</clipPath>
<clipPath id="clip4_701_13342">
<rect width="31.1164" height="31.1164" fill="white" transform="translate(12.9509 476.519)"/>
</clipPath>
</defs>
</svg>
