<svg width="252" height="32" viewBox="0 0 252 32" fill="none" xmlns="http://www.w3.org/2000/svg">
<rect opacity="0.25" x="184.703" y="0.5" width="66.5198" height="30.8352" rx="15.4176" stroke="white"/>
<path fill-rule="evenodd" clip-rule="evenodd" d="M217.638 13.8165L217.687 14.2049L216.874 14.1574C213.914 13.9751 211.328 13.3568 209.133 12.3185L208.06 11.8033L207.783 12.1838C207.198 13.0319 207.572 13.9275 208.792 14.5299C209.442 14.8628 209.296 14.9103 208.174 14.7122C207.783 14.6488 207.442 14.6012 207.409 14.625C207.295 14.6805 207.686 15.4017 207.995 15.6871C208.417 16.0834 209.279 16.4718 210.223 16.7016L211.019 16.8839L210.076 16.8918C209.166 16.8918 209.133 16.8998 209.231 17.0662C209.556 17.5814 210.841 18.1283 212.272 18.3661L213.28 18.5325L212.402 18.7861C211.101 19.1507 209.572 19.3568 208.043 19.3727C207.312 19.3806 206.71 19.4123 206.71 19.4361C206.71 19.5153 208.694 19.9592 209.849 20.1336C213.312 20.6488 217.427 20.4268 220.517 19.547C222.712 18.9209 224.907 17.6765 225.932 16.4718C226.485 15.8298 227.038 14.6567 227.038 14.094C227.038 13.7294 227.087 13.6818 227.997 13.2459C228.534 12.9922 229.038 12.7148 229.136 12.6356C229.298 12.485 229.282 12.485 228.453 12.6197C227.07 12.8575 226.875 12.8258 227.558 12.4691C228.062 12.2155 228.664 11.7558 228.664 11.621C228.664 11.5973 228.42 11.6369 228.144 11.7082C227.851 11.7875 227.2 11.9064 226.713 11.9777L225.834 12.1125L225.038 11.8509C224.598 11.7082 223.98 11.5497 223.655 11.5022C222.826 11.3912 221.557 11.407 220.809 11.5339C218.777 11.8905 217.492 12.8099 217.638 13.8165Z" fill="white"/>
<rect opacity="0.25" x="92.9451" y="0.5" width="66.5198" height="30.8352" rx="15.4176" stroke="white"/>
<path fill-rule="evenodd" clip-rule="evenodd" d="M120.145 21.2233H114.951V13.8768H120.145V21.2233Z" fill="white"/>
<path fill-rule="evenodd" clip-rule="evenodd" d="M117.533 12.2443H117.504C115.954 12.2443 114.952 11.6999 114.952 11.0195C114.952 10.3247 115.984 9.79547 117.564 9.79547C119.143 9.79547 120.116 10.3247 120.145 11.0195C120.145 11.6999 119.143 12.2443 117.533 12.2443Z" fill="white"/>
<path fill-rule="evenodd" clip-rule="evenodd" d="M139.189 21.2232H134.085V17.383C134.085 16.4184 133.347 15.7603 131.499 15.7603C130.089 15.7603 129.249 16.204 128.88 16.6325C128.746 16.7861 128.712 17.0001 128.712 17.2147V21.2233H123.608C123.608 21.2233 123.675 14.719 123.608 14.0455H128.712V15.0622C129.39 14.5735 130.603 13.8768 133.313 13.8768C136.671 13.8768 139.189 14.9029 139.189 17.1076L139.189 21.2232Z" fill="white"/>
<rect opacity="0.25" x="1.18726" y="0.5" width="66.5198" height="30.8352" rx="15.4176" stroke="white"/>
<path fill-rule="evenodd" clip-rule="evenodd" d="M31.0722 22.0398V15.9171H28.3875V13.8072H31.0722V12.5403C31.0722 10.819 32.5882 9.79547 36.8952 9.79547H40.481V11.9057H38.2396C36.563 11.9057 36.4521 12.2006 36.4521 12.7509L36.446 13.8069H40.5064L40.0313 15.9169H36.446V22.0398H31.0722Z" fill="white"/>
</svg>
