<svg width="147" height="19" viewBox="0 0 147 19" fill="none" xmlns="http://www.w3.org/2000/svg">
<rect opacity="0.25" x="107.531" y="0.5" width="38.3792" height="17.567" rx="8.78352" stroke="white"/>
<path fill-rule="evenodd" clip-rule="evenodd" d="M126.531 8.05808L126.559 8.28459L126.085 8.25686C124.359 8.15054 122.851 7.78997 121.57 7.1844L120.944 6.88393L120.783 7.10582C120.441 7.60044 120.66 8.1228 121.371 8.47412C121.75 8.66827 121.665 8.69601 121.011 8.58044C120.783 8.54346 120.584 8.51572 120.565 8.52959C120.498 8.56195 120.726 8.98261 120.906 9.14902C121.153 9.38016 121.656 9.60666 122.206 9.74072L122.67 9.84704L122.12 9.85166C121.589 9.85166 121.57 9.85629 121.627 9.95336C121.817 10.2538 122.566 10.5728 123.401 10.7115L123.989 10.8085L123.477 10.9565C122.718 11.1691 121.826 11.2893 120.935 11.2985C120.508 11.3032 120.157 11.3217 120.157 11.3355C120.157 11.3818 121.314 11.6406 121.987 11.7423C124.008 12.0428 126.407 11.9134 128.209 11.4002C129.49 11.0351 130.77 10.3093 131.368 9.60666C131.69 9.23223 132.013 8.54808 132.013 8.21987C132.013 8.00723 132.041 7.9795 132.572 7.72525C132.885 7.57733 133.179 7.41554 133.236 7.36931C133.331 7.28148 133.321 7.28148 132.838 7.36006C132.032 7.49874 131.918 7.48025 132.316 7.27223C132.61 7.12431 132.961 6.8562 132.961 6.77761C132.961 6.76375 132.819 6.78686 132.658 6.82846C132.487 6.87469 132.107 6.94403 131.823 6.98563L131.311 7.06422L130.846 6.91167C130.59 6.82846 130.23 6.73601 130.04 6.70827C129.556 6.64356 128.816 6.6528 128.38 6.72676C127.194 6.93478 126.445 7.47101 126.531 8.05808Z" fill="white"/>
<rect opacity="0.25" x="54.0153" y="0.5" width="38.3792" height="17.567" rx="8.78352" stroke="white"/>
<path fill-rule="evenodd" clip-rule="evenodd" d="M69.6709 12.378H66.6417V8.09326H69.6709V12.378Z" fill="white"/>
<path fill-rule="evenodd" clip-rule="evenodd" d="M68.1473 7.14113H68.1301C67.2261 7.14113 66.6417 6.82359 66.6417 6.42676C66.6417 6.02153 67.2439 5.71289 68.165 5.71289C69.0862 5.71289 69.6534 6.02153 69.6709 6.42676C69.6709 6.82359 69.0862 7.14113 68.1473 7.14113Z" fill="white"/>
<path fill-rule="evenodd" clip-rule="evenodd" d="M80.7777 12.3779H77.8011V10.1382C77.8011 9.57563 77.3704 9.19176 76.2928 9.19176C75.4704 9.19176 74.9806 9.45054 74.7654 9.70049C74.6867 9.79007 74.6674 9.91488 74.6674 10.04V12.378H71.6903C71.6903 12.378 71.7296 8.58449 71.6903 8.19168H74.6674V8.78463C75.0625 8.49958 75.7701 8.09326 77.3505 8.09326C79.3093 8.09326 80.7778 8.69172 80.7778 9.97756L80.7777 12.3779Z" fill="white"/>
<rect opacity="0.25" x="0.5" y="0.5" width="38.3792" height="17.567" rx="8.78352" stroke="white"/>
<path fill-rule="evenodd" clip-rule="evenodd" d="M17.7214 12.8541V9.2832H16.1556V8.05261H17.7214V7.31377C17.7214 6.30986 18.6056 5.71289 21.1176 5.71289H23.2089V6.94362H21.9017C20.9238 6.94362 20.8591 7.11559 20.8591 7.43655L20.8556 8.05247H23.2237L22.9466 9.28306H20.8556V12.8541H17.7214Z" fill="white"/>
</svg>
