<svg width="148" height="39" viewBox="0 0 148 39" fill="none" xmlns="http://www.w3.org/2000/svg">
<rect opacity="0.25" x="108.304" y="0.5" width="38.3792" height="38" rx="19" stroke="white"/>
<path fill-rule="evenodd" clip-rule="evenodd" d="M127.304 16.9262L127.333 17.402L126.859 17.3437C125.132 17.1204 123.624 16.363 122.344 15.091L121.718 14.4599L121.557 14.926C121.215 15.9649 121.433 17.0621 122.145 17.8001C122.524 18.2079 122.439 18.2661 121.784 18.0234C121.557 17.9457 121.357 17.8874 121.338 17.9166C121.272 17.9845 121.5 18.8681 121.68 19.2177C121.927 19.7032 122.429 20.179 122.979 20.4605L123.444 20.6839L122.894 20.6936C122.363 20.6936 122.344 20.7033 122.401 20.9072C122.59 21.5383 123.34 22.2083 124.174 22.4996L124.762 22.7035L124.25 23.0142C123.491 23.4609 122.6 23.7133 121.708 23.7328C121.282 23.7425 120.931 23.7813 120.931 23.8104C120.931 23.9075 122.088 24.4513 122.761 24.6649C124.781 25.296 127.181 25.0242 128.983 23.9464C130.263 23.1793 131.544 21.6549 132.141 20.179C132.464 19.3925 132.786 17.9554 132.786 17.266C132.786 16.8194 132.815 16.7611 133.346 16.2271C133.659 15.9164 133.953 15.5765 134.01 15.4794C134.105 15.2949 134.095 15.2949 133.611 15.46C132.805 15.7513 132.691 15.7124 133.09 15.2755C133.384 14.9648 133.735 14.4016 133.735 14.2366C133.735 14.2074 133.593 14.256 133.431 14.3434C133.261 14.4405 132.881 14.5861 132.597 14.6735L132.084 14.8386L131.62 14.5181C131.364 14.3434 131.003 14.1492 130.814 14.0909C130.33 13.955 129.59 13.9744 129.154 14.1297C127.968 14.5667 127.219 15.693 127.304 16.9262Z" fill="white"/>
<rect opacity="0.25" x="54.7886" y="0.5" width="38.3792" height="38" rx="19" stroke="white"/>
<path fill-rule="evenodd" clip-rule="evenodd" d="M70.4442 26H67.415V17H70.4442V26Z" fill="white"/>
<path fill-rule="evenodd" clip-rule="evenodd" d="M68.9206 15H68.9034C67.9994 15 67.415 14.333 67.415 13.4995C67.415 12.6483 68.0172 12 68.9384 12C69.8595 12 70.4267 12.6483 70.4442 13.4995C70.4442 14.333 69.8595 15 68.9206 15Z" fill="white"/>
<path fill-rule="evenodd" clip-rule="evenodd" d="M81.5512 25.9998H78.5747V21.2954C78.5747 20.1137 78.1439 19.3074 77.0663 19.3074C76.2439 19.3074 75.7541 19.851 75.539 20.376C75.4603 20.5641 75.4409 20.8263 75.4409 21.0891V26H72.4639C72.4639 26 72.5031 18.0318 72.4639 17.2067H75.4409V18.4522C75.836 17.8535 76.5436 17 78.124 17C80.0829 17 81.5514 18.2571 81.5514 20.958L81.5512 25.9998Z" fill="white"/>
<rect opacity="0.25" x="1.27344" y="0.5" width="38.3792" height="38" rx="19" stroke="white"/>
<path fill-rule="evenodd" clip-rule="evenodd" d="M18.495 27V19.4994H16.9292V16.9146H18.495V15.3626C18.495 13.2539 19.3792 12 21.8912 12H23.9825V14.5851H22.6752C21.6974 14.5851 21.6327 14.9464 21.6327 15.6205L21.6291 16.9143H23.9973L23.7202 19.4991H21.6291V27H18.495Z" fill="white"/>
</svg>
