<svg width="132" height="131" viewBox="0 0 132 131" fill="none" xmlns="http://www.w3.org/2000/svg">
<g clip-path="url(#clip0_501_314)">
<path d="M78.9651 89.3923C78.8052 89.158 78.5741 88.7287 78.369 88.42C77.8973 87.5844 76.4739 86.818 74.6198 86.3874C73.0651 86.0691 72.9776 86.0285 72.9106 85.5952C72.8586 85.304 72.8067 84.9574 72.845 84.761C72.9243 84.0203 71.4038 81.2253 70.206 79.9212C67.4317 76.9745 63.8178 74.6562 54.4694 69.8164C53.2005 69.1217 52.1107 68.5083 52.0643 68.4338C52.0205 68.4135 51.3519 67.9964 50.6162 67.5482C48.1017 66.1683 47.2198 65.5725 46.372 65.0186C43.3749 62.8262 42.6926 62.2683 41.7259 61.3922C40.431 60.1233 39.21 58.6987 38.8476 57.8618C38.663 57.5084 38.5618 56.5767 38.529 55.7304C38.5072 54.9165 38.4798 54.2882 38.4388 54.3762C38.3964 54.4642 38.3321 54.9436 38.3226 55.4216C38.3841 56.4941 38.2747 56.4968 38.0833 55.4704C37.9739 54.6701 38.2227 53.2848 38.4675 53.3972C38.5564 53.4391 38.8052 52.911 39.0418 52.2962C40.1726 49.0422 44.2527 45.3317 50.5848 41.7798C54.3969 39.6077 63.7782 35.6738 67.3387 34.7232C68.3629 34.4469 69.5059 34.1463 69.7657 34.0529C70.1472 33.9337 70.6477 33.7915 70.9991 33.7929C71.3272 33.7848 72.5387 33.5681 73.6298 33.3772C74.7551 33.2295 76.3809 32.937 77.3216 32.8368C78.2076 32.738 79.2113 32.5606 79.549 32.4753C83.0412 31.8415 91.5091 32.8179 95.6165 34.3197C97.0112 34.8044 97.1233 34.9101 97.3024 35.4477C97.766 36.8154 96.1115 38.9428 92.5619 41.5319C87.3018 45.3927 82.0348 48.1782 76.8184 49.9427C75.2419 50.4708 75.0682 50.4979 73.6148 50.3069C72.525 50.1512 71.5706 50.5114 71.5296 51.0558C71.3395 52.5481 72.5072 54.0282 73.9812 54.2286C74.4311 54.1948 74.9384 54.3234 75.1161 54.406C76.2236 54.8664 80.647 53.3511 83.8957 51.3984C84.9445 50.8405 86.186 50.1025 86.7042 49.8059C89.2653 48.3393 92.6221 46.3311 94.4939 44.9472C94.6649 44.8117 95.2596 44.4705 95.7546 44.1103C96.3057 43.8029 96.8649 43.4197 97.0139 43.2206C97.1725 42.9985 97.7509 42.4623 98.3608 41.9152C99.6242 40.7316 100.585 38.9252 100.543 37.7538C100.565 36.9061 99.9428 35.3583 99.1771 34.1734C97.9095 32.2722 92.7109 29.7033 89.5333 29.3837C88.8304 29.3255 88.1905 29.1901 88.0579 29.1278C87.902 29.056 86.7576 28.9016 85.5379 28.7919C80.8876 28.3248 74.6416 28.8881 69.5565 30.2571C68.4572 30.5794 67.0297 30.9085 66.3761 31.0344C64.5972 31.3635 53.5834 35.774 51.1851 37.1282C50.969 37.2419 50.418 37.5493 49.9203 37.8012C49.4663 38.0734 49.0274 38.4323 48.9645 38.565C48.9235 38.653 48.5543 38.8033 48.2385 38.8981C47.8898 38.9509 47.6286 39.0443 47.697 39.1297C47.723 39.303 44.909 41.1338 44.2787 41.3248C43.9847 41.429 43.8548 41.4764 43.9642 41.4737C44.0968 41.4805 43.2067 42.2754 41.972 43.2301C40.7578 44.1956 39.5586 45.3006 39.2387 45.6351C38.3567 46.7008 37.1535 48.9027 36.6531 50.3056C36.1841 51.6435 35.9352 53.8318 36.2456 53.9767C36.3345 54.0174 36.2934 54.1054 36.2073 54.1731C35.9694 54.3302 36.3577 56.5469 36.8363 57.6533C37.3682 59.105 38.5509 61.1809 39.1184 61.8729C41.9063 65.3084 45.8798 68.4094 51.6732 71.4956C52.8067 72.0738 53.9662 72.7712 54.3245 73.0448C54.6594 73.3075 56.5518 74.3448 58.5933 75.2913C64.1433 77.8629 68.1044 80.4751 69.9503 82.6973C70.2224 83.0372 70.5506 83.4312 70.6846 83.4922C70.995 83.6357 71.1973 84.6405 71.0291 85.3406C70.9239 85.908 70.8145 85.9107 67.9321 85.996C62.8949 86.2343 59.7528 86.8153 54.2725 88.5635C50.3988 89.7173 47.3784 91.1852 44.7504 92.9686C44.2445 93.3505 43.9642 93.4886 44.0462 93.3126C44.4099 92.5434 43.8179 92.9388 43.1096 93.9775C41.3239 96.5003 41.194 97.8057 42.5886 99.5512C43.5526 100.775 45.8825 101.398 48.4518 101.115C51.9056 100.733 58.5099 99.1829 58.7382 98.6994C58.7806 98.6114 59.5039 98.2241 60.3188 97.9316C63.0973 96.8605 66.7904 95.115 67.9021 94.423C69.2708 93.5306 71.0934 91.5061 72.0068 89.9732L72.7397 88.6515L73.88 88.6976C74.5172 88.7247 75.7191 88.9874 76.5176 89.3029C77.8904 89.8324 77.9793 89.873 78.1612 90.5203C78.3512 91.0917 78.3745 91.1554 78.7218 90.9942C79.1784 90.8304 79.3398 89.915 78.9651 89.3923ZM46.275 43.857C46.0206 44.1672 45.8661 44.1495 45.9906 43.8868C46.0316 43.7988 46.1834 43.7081 46.2695 43.6404C46.4226 43.658 46.4486 43.7772 46.275 43.857ZM60.673 36.4051C60.2764 36.7842 57.5842 37.7877 57.6881 37.5683C57.7291 37.4803 58.477 37.1566 59.3986 36.7531C60.3339 36.4362 60.9095 36.2466 60.673 36.4051ZM67.9636 33.8606C67.7681 33.931 67.5616 34.0231 67.5178 34.0028C67.4727 33.9811 67.5903 33.8484 67.7858 33.778C67.9814 33.7076 68.1769 33.6372 68.2206 33.6588C68.2658 33.6791 68.1591 33.7902 67.9636 33.8606ZM40.6361 47.4889C40.6388 47.5973 40.3353 48.1267 39.9524 48.5926C39.5149 49.0598 38.8968 50.139 38.4675 50.9326C38.0833 51.7464 37.7825 52.3842 37.7155 52.3531C37.6717 52.3328 37.7565 51.8087 37.8727 51.2197C38.4333 48.7727 40.5527 45.547 42.9879 43.5402C49.0124 38.6936 60.312 33.5044 69.6837 31.308C73.3003 30.4102 80.647 29.6342 80.3885 30.184C80.3461 30.272 80.2163 30.3194 80.1274 30.2775C79.9934 30.2165 78.6055 30.3492 77.7127 30.5794C77.5582 30.5618 75.9762 30.8733 74.1535 31.1807C72.3527 31.4989 70.433 31.8957 69.9325 32.0392C69.4321 32.1828 68.8988 32.3371 68.7443 32.3195C67.8433 32.2234 56.2934 36.6272 52.778 38.4553C47.898 40.9375 42.8006 44.3378 41.0955 46.174C39.709 47.6758 38.6329 49.2669 38.5605 49.8763C38.5701 50.2027 38.6767 50.0916 38.9666 49.4755C39.4137 48.5303 40.8658 46.6575 41.1748 46.6927C41.2842 46.69 41.3457 46.5586 41.3854 46.3609C41.4032 46.2092 41.4893 46.1415 41.5782 46.1822C41.7108 46.2444 42.3247 45.8057 42.4902 45.4536C42.5107 45.4089 42.951 45.0501 43.446 44.6899C43.9532 44.3622 44.4031 43.9816 44.4455 43.8936C44.6 43.5632 49.1764 40.8061 51.9767 39.2908C53.5232 38.4797 57.4365 36.7815 60.6073 35.5709C65.9249 33.4787 67.5889 32.9899 72.0068 32.1164C75.06 31.4949 75.3007 31.4448 76.0896 31.4353C76.5504 31.4339 77.3038 31.3283 77.8056 31.2389C78.8858 31.0155 81.5043 30.9153 81.6807 30.9979C81.7695 31.0385 81.0831 31.1766 80.1862 31.243C79.2892 31.3635 78.1871 31.5761 77.7086 31.6763C77.2396 31.8077 76.8253 31.8835 76.7774 31.7535C76.7542 31.6899 76.6448 31.6926 76.6038 31.7806C76.5409 31.9119 76.3658 31.939 76.2113 31.8659C76.0773 31.805 75.7287 31.8578 75.4128 31.9526C75.1311 32.0893 74.8686 32.1286 74.8249 32.1083C74.7565 32.023 72.8901 32.3656 72.6535 32.5227C72.5674 32.5904 72.0109 32.6811 71.5077 32.715C69.7028 32.8707 68.4394 33.197 64.9719 34.3508C59.5148 36.164 50.8774 40.0139 50.5246 40.7614C50.4617 40.8928 50.1049 41.0756 49.7781 41.1392C48.8073 41.3586 45.1538 43.7663 42.9551 45.6148C41.9132 46.4462 40.956 47.1544 40.8261 47.2018C40.6949 47.2479 40.6334 47.3806 40.6361 47.4889ZM48.4928 69.3519C48.0703 69.1556 47.913 69.0297 48.1127 69.0676C48.3328 69.1163 48.6432 69.2612 48.8442 69.4075C49.0014 69.5334 48.8469 69.5158 48.4928 69.3519ZM69.3952 86.5661C69.5757 86.757 69.6399 86.734 69.6345 86.516C69.6399 86.2777 69.6399 86.2777 69.7206 86.4497C69.8327 86.5553 69.7944 86.7516 69.6646 86.7977C69.4718 86.9764 69.2051 86.8532 69.1969 86.5282C69.1928 86.4199 69.2585 86.3955 69.3952 86.5661ZM68.4463 86.3413C68.665 86.3345 68.6445 86.3792 68.3656 86.6257C67.9253 86.9846 67.8815 86.9642 68.0579 86.5891C68.1195 86.4578 68.2917 86.3237 68.4463 86.3413ZM67.6532 87.4477C67.7831 87.4003 68.1769 87.3691 68.5721 87.3908C69.6577 87.384 68.732 87.6251 66.8383 87.7402C65.2946 87.8553 64.2444 87.9582 62.3124 88.2697C61.384 88.4024 56.8075 89.4979 55.2734 89.9393C54.0441 90.3077 53.6504 90.3388 54.4735 89.9705C56.0541 89.2013 62.8498 87.8756 66.022 87.5763C66.8109 87.5668 67.5425 87.4504 67.6532 87.4477ZM63.4227 88.7842C63.2053 88.8438 63.0097 88.9142 62.9646 88.8926C62.9209 88.8723 63.0713 88.7815 63.223 88.6908C63.461 88.5865 63.6565 88.5175 63.7016 88.5378C63.7454 88.5581 63.6387 88.6691 63.4227 88.7842ZM67.3729 86.3792C67.6559 86.3508 67.7448 86.3914 67.6313 86.6338C67.5684 86.7652 67.4153 86.7476 67.3018 86.6419C67.1664 86.4713 67.1008 86.4957 67.1281 86.6677C67.1541 86.841 67.1131 86.929 67.068 86.9087C66.8014 86.7855 66.9682 86.4334 67.3729 86.3792ZM63.1643 86.8681C63.4787 86.7733 63.7878 86.8085 63.8315 86.8288C63.8342 86.9372 64.1392 86.8654 64.5316 86.7787C64.8789 86.6176 65.2617 86.6081 65.4094 86.8099C65.5667 86.9358 65.6323 86.9128 65.6159 86.7178C65.5899 86.5444 65.6542 86.5214 65.8347 86.7124C66.0151 86.9033 66.0808 86.8803 66.0548 86.7069C66.0274 86.5336 66.1368 86.5309 66.2736 86.7015C66.4759 86.9019 66.5416 86.8789 66.4923 86.6948C66.4664 86.5228 66.5074 86.4348 66.5525 86.4551C66.5963 86.4754 66.666 86.6149 66.6687 86.7232C66.6715 86.8315 66.1491 86.9642 65.5051 87.0685C64.8242 87.0753 63.919 87.2175 63.4145 87.2527C62.4751 87.3529 62.2235 86.9683 63.1643 86.8681ZM55.6193 88.5188C59.2551 87.5235 60.1602 87.3258 60.3202 87.5601C60.4337 87.7212 60.4542 87.6765 60.4515 87.5682C60.4036 87.3854 60.621 87.3244 60.8849 87.3393C61.1269 87.3989 61.5426 87.3231 61.812 87.1525C62.0936 87.0157 62.2673 86.9886 62.2946 87.1619C62.3233 87.4436 61.5727 87.6589 58.7368 88.2209C58.0176 88.3699 56.8294 88.6502 56.1963 88.7856C54.5979 89.2501 54.5979 89.2501 54.4639 89.1891C54.375 89.1472 53.9197 89.311 53.3441 89.5548C52.7821 89.8297 52.4006 89.9475 52.4526 89.8378C52.4936 89.7498 52.3186 89.7213 52.0684 89.7931C50.8254 90.0748 53.9758 88.963 55.6193 88.5188ZM55.6918 98.3325C55.6467 98.3122 54.9056 98.4516 54.0688 98.7333C53.1759 98.9622 52.1859 99.2817 51.881 99.3549L51.2698 99.4456L51.84 99.4429C52.4321 99.4483 55.3773 98.8836 56.3796 98.652C56.7159 98.5126 57.066 98.4598 57.1548 98.5017C57.9752 98.8823 49.387 100.396 47.1583 100.301C45.7526 100.24 43.5102 99.6027 43.0699 99.1043C42.709 98.7225 43.0795 98.6263 44.0544 99.0244C44.6301 99.2371 45.2905 99.3291 45.5298 99.279C45.7786 99.1531 46.5019 99.1138 47.161 99.1504C47.8283 99.1111 48.5283 99.061 48.6801 98.9703C49.2872 98.7157 51.799 98.3243 51.8263 98.5518C51.866 98.8118 53.6025 98.5166 53.7379 98.2309C53.7994 98.0995 54.1672 97.8951 54.6034 97.8287C54.9849 97.7109 55.2871 97.5294 55.2843 97.4211C55.3048 97.3764 55.458 97.394 55.6822 97.5511C56.0842 97.845 56.0842 97.845 60.6757 96.0873C62.0977 95.5402 63.1971 95.2179 63.1355 95.3492C63.0316 95.57 55.9133 98.4354 55.6918 98.3325ZM68.8059 89.59C66.4964 92.2441 61.8872 94.6112 54.9247 96.6912C51.717 97.6974 47.5835 98.1402 44.9651 97.784C43.6565 97.6337 43.543 97.5281 43.8712 97.0636C44.9473 95.8733 47.9787 93.9815 51.5009 92.4256C52.7903 91.8162 54.0988 91.1635 54.4229 90.9387C54.7347 90.7342 55.2775 90.504 55.6248 90.397L56.2688 90.2928L55.6959 90.5907C55.3486 90.6963 54.8194 91.0145 54.4967 91.2407L53.8924 91.6036L54.6553 91.475C55.071 91.3991 55.4935 91.2475 55.5359 91.1594C55.5769 91.0714 56.0131 90.9509 56.5136 90.8087C57.0044 90.741 58.1379 90.462 58.998 90.244C61.6246 89.6116 65.2276 89.0307 67.47 88.8641L69.5388 88.7233L68.8059 89.59Z" fill="#FFD700"/>
<mask id="mask0_501_314" style="mask-type:luminance" maskUnits="userSpaceOnUse" x="0" y="59" width="132" height="14">
<path d="M0.407654 59.9767H131.672V72.7167H0.407654V59.9767Z" fill="white"/>
</mask>
<g mask="url(#mask0_501_314)">
<path d="M0.413025 59.9767H131.666V72.7167H0.413025V59.9767Z" fill="#464A4E"/>
</g>
<path d="M41.9033 68.4816C42.7305 68.4816 43.2665 68.0807 43.2665 67.4267C43.2665 66.8742 42.8932 66.5424 41.9238 66.3068C41.1882 66.1294 40.9448 65.9371 40.9448 65.6256C40.9448 65.2668 41.2702 65.042 41.8103 65.042C42.3682 65.042 42.7141 65.3209 42.725 65.7705H43.1954C43.1899 65.042 42.6608 64.5924 41.8103 64.5924C40.9831 64.5924 40.458 64.9932 40.458 65.6256C40.458 66.2052 40.875 66.5262 41.8048 66.7455C42.4871 66.9067 42.7743 67.0949 42.7743 67.4429C42.7743 67.8126 42.4379 68.032 41.9033 68.032C41.3126 68.032 40.9024 67.7422 40.8914 67.2601H40.4142C40.4197 67.9941 40.9995 68.4816 41.9033 68.4816Z" fill="white"/>
<path d="M46.7632 68.4125H47.2391V67.1802H48.0444C48.9004 67.1802 49.4514 66.6927 49.4514 65.9209C49.4514 65.1544 48.9004 64.6615 48.0444 64.6615H46.7632V68.4125ZM47.2391 66.7401V65.1111H48.0349C48.6461 65.1111 48.9646 65.39 48.9646 65.9263C48.9646 66.4625 48.6461 66.7401 48.0349 66.7401H47.2391Z" fill="white"/>
<path d="M52.8406 68.4125H55.1992V67.9738H53.3164V66.7198H55.0037V66.2851H53.3164V65.1002H55.1391V64.6615H52.8406V68.4125Z" fill="white"/>
<path d="M58.7232 68.4125H59.199V67.0679H60.0317L60.9574 68.4125H61.5303L60.5787 67.0191C61.1311 66.885 61.4715 66.4734 61.4715 65.8667C61.4715 65.1219 60.952 64.6615 60.1671 64.6615H58.7232V68.4125ZM59.199 66.6169V65.1111H60.1138C60.6648 65.1111 60.9848 65.39 60.9848 65.8667C60.9848 66.3447 60.6648 66.6169 60.1138 66.6169H59.199Z" fill="white"/>
<path d="M65.0278 68.4125H67.3864V67.9738H65.5036V66.7198H67.1909V66.2851H65.5036V65.1002H67.3263V64.6615H65.0278V68.4125Z" fill="white"/>
<path d="M70.9104 68.4125H71.3808V65.4754L73.4741 68.4125H73.9185V64.6615H73.4523V67.5987L71.3589 64.6615H70.9104V68.4125Z" fill="white"/>
<path d="M77.3771 68.4125H80.0763V67.963H78.0102L80.0229 65.0095V64.6615H77.4305V65.1111H79.3898L77.3771 68.0645V68.4125Z" fill="white"/>
<path d="M83.0696 68.4125H83.5783L83.9242 67.5608H85.7701L86.127 68.4125H86.6302L85.0714 64.6615H84.6284L83.0696 68.4125ZM84.1088 67.1207L84.8499 65.321L85.591 67.1207H84.1088Z" fill="white"/>
</g>
<defs>
<clipPath id="clip0_501_314">
<rect width="131.264" height="130" fill="white" transform="translate(0.407654 0.838867)"/>
</clipPath>
</defs>
</svg>
