<svg width="130" height="130" viewBox="0 0 130 130" fill="none" xmlns="http://www.w3.org/2000/svg">
<g clip-path="url(#clip0_781_13647)">
<path d="M77.8011 88.5533C77.6426 88.319 77.4138 87.8898 77.2107 87.581C76.7435 86.7455 75.3338 85.979 73.4975 85.5484C71.9579 85.2302 71.8712 85.1895 71.8048 84.7562C71.7534 84.4651 71.7019 84.1184 71.7398 83.922C71.8184 83.1813 70.3125 80.3863 69.1263 79.0823C66.3787 76.1356 62.7996 73.8173 53.5412 68.9775C52.2845 68.2828 51.2053 67.6693 51.1592 67.5949C51.1159 67.5746 50.4537 67.1575 49.7252 66.7092C47.2348 65.3293 46.3614 64.7335 45.5218 64.1797C42.5535 61.9873 41.8778 61.4293 40.9204 60.5532C39.638 59.2843 38.4287 57.8598 38.0698 57.0229C37.887 56.6694 37.7868 55.7378 37.7543 54.8914C37.7327 54.0776 37.7056 53.4492 37.6649 53.5373C37.623 53.6253 37.5593 54.1047 37.5498 54.5827C37.6108 55.6552 37.5024 55.6579 37.3129 54.6314C37.2045 53.8311 37.451 52.4458 37.6934 52.5582C37.7814 52.6002 38.0279 52.072 38.2621 51.4573C39.382 48.2032 43.4229 44.4928 49.694 40.9408C53.4694 38.7687 62.7604 34.8349 66.2866 33.8842C67.3009 33.608 68.433 33.3074 68.6903 33.2139C69.0681 33.0948 69.5637 32.9526 69.9117 32.9539C70.2367 32.9458 71.4365 32.7291 72.5171 32.5382C73.6316 32.3906 75.2417 32.0981 76.1734 31.9979C77.0509 31.899 78.0448 31.7216 78.3793 31.6363C81.8379 31.0026 90.2242 31.9789 94.2921 33.4807C95.6734 33.9655 95.7844 34.0711 95.9618 34.6087C96.4209 35.9764 94.7823 38.1038 91.2669 40.693C86.0574 44.5537 80.8412 47.3392 75.675 49.1037C74.1137 49.6318 73.9417 49.6589 72.5022 49.468C71.423 49.3123 70.4778 49.6725 70.4371 50.2168C70.2489 51.7091 71.4054 53.1892 72.8651 53.3897C73.3107 53.3558 73.8131 53.4844 73.9891 53.567C75.086 54.0275 79.4667 52.5122 82.6842 50.5594C83.7229 50.0015 84.9524 49.2635 85.4657 48.9669C88.002 47.5004 91.3265 45.4922 93.1804 44.1082C93.3496 43.9728 93.9387 43.6315 94.4289 43.2713C94.9746 42.9639 95.5285 42.5807 95.6761 42.3816C95.8332 42.1595 96.406 41.6233 97.0099 41.0762C98.2612 39.8927 99.2132 38.0862 99.1712 36.9149C99.1929 36.0672 98.5767 34.5193 97.8184 33.3344C96.5631 31.4332 91.4145 28.8643 88.2674 28.5448C87.5714 28.4865 86.9377 28.3511 86.8063 28.2888C86.6519 28.217 85.5185 28.0627 84.3106 27.953C79.705 27.4858 73.5192 28.0491 68.4831 29.4182C67.3943 29.7405 65.9806 30.0695 65.3333 30.1955C63.5715 30.5245 52.6637 34.9351 50.2885 36.2892C50.0745 36.403 49.5288 36.7104 49.0359 36.9623C48.5863 37.2344 48.1516 37.5933 48.0893 37.726C48.0487 37.814 47.6831 37.9643 47.3703 38.0591C47.0249 38.1119 46.7663 38.2054 46.834 38.2907C46.8597 38.464 44.0729 40.2949 43.4486 40.4858C43.1574 40.5901 43.0288 40.6375 43.1371 40.6348C43.2685 40.6415 42.3869 41.4364 41.1641 42.3911C39.9616 43.3566 38.774 44.4616 38.4571 44.7961C37.5837 45.8618 36.392 48.0637 35.8964 49.4666C35.4319 50.8045 35.1855 52.9929 35.4929 53.1378C35.5809 53.1784 35.5403 53.2664 35.4549 53.3341C35.2193 53.4912 35.6039 55.708 36.0779 56.8143C36.6046 58.266 37.776 60.3419 38.338 61.0339C41.0991 64.4694 45.0343 67.5705 50.7719 70.6566C51.8945 71.2349 53.0429 71.9323 53.3976 72.2058C53.7294 72.4685 55.6036 73.5058 57.6254 74.4524C63.1219 77.0239 67.0449 79.6361 68.8731 81.8583C69.1425 82.1982 69.4675 82.5923 69.6003 82.6532C69.9076 82.7967 70.1081 83.8015 69.9415 84.5016C69.8372 85.069 69.7289 85.0717 66.8743 85.157C61.8856 85.3954 58.7737 85.9763 53.3462 87.7245C49.5098 88.8783 46.5185 90.3462 43.9158 92.1297C43.4147 92.5115 43.1371 92.6497 43.2184 92.4736C43.5786 91.7044 42.9922 92.0999 42.2908 93.1385C40.5222 95.6613 40.3936 96.9667 41.7748 98.7123C42.7295 99.9364 45.037 100.559 47.5815 100.276C51.0021 99.8944 57.5428 98.3439 57.7689 97.8605C57.8109 97.7725 58.5272 97.3852 59.3343 97.0927C62.086 96.0215 65.7436 94.276 66.8445 93.584C68.2 92.6916 70.0051 90.6672 70.9097 89.1342L71.6356 87.8126L72.7649 87.8586C73.396 87.8857 74.5863 88.1484 75.3771 88.4639C76.7367 88.9934 76.8247 89.034 77.0048 89.6813C77.1931 90.2528 77.2161 90.3164 77.56 90.1553C78.0123 89.9914 78.1721 89.076 77.8011 88.5533ZM45.4257 43.0181C45.1738 43.3282 45.0208 43.3106 45.144 43.0479C45.1846 42.9599 45.3349 42.8691 45.4203 42.8014C45.5719 42.819 45.5976 42.9382 45.4257 43.0181ZM59.685 35.5661C59.2923 35.9453 56.626 36.9487 56.7289 36.7293C56.7695 36.6413 57.5103 36.3177 58.423 35.9141C59.3492 35.5973 59.9193 35.4077 59.685 35.5661ZM66.9055 33.0216C66.7118 33.092 66.5073 33.1841 66.464 33.1638C66.4193 33.1421 66.5358 33.0094 66.7294 32.939C66.9231 32.8686 67.1167 32.7982 67.16 32.8199C67.2047 32.8402 67.0991 32.9512 66.9055 33.0216ZM39.8411 46.65C39.8438 46.7583 39.5432 47.2878 39.164 47.7536C38.7307 48.2208 38.1186 49.3001 37.6934 50.0936C37.3129 50.9075 37.0149 51.5453 36.9486 51.5141C36.9053 51.4938 36.9892 50.9698 37.1043 50.3807C37.6595 47.9337 39.7585 44.7081 42.1703 42.7012C48.1367 37.8547 59.3275 32.6655 68.609 30.469C72.1908 29.5712 79.4667 28.7953 79.2108 29.3451C79.1688 29.4331 79.0401 29.4805 78.9521 29.4385C78.8194 29.3776 77.4449 29.5103 76.5607 29.7405C76.4076 29.7229 74.8409 30.0343 73.0358 30.3417C71.2523 30.66 69.3511 31.0567 68.8555 31.2003C68.3598 31.3438 67.8317 31.4982 67.6787 31.4806C66.7863 31.3844 55.3476 35.7882 51.8661 37.6163C47.0331 40.0985 41.9847 43.4988 40.2961 45.3351C38.923 46.8368 37.8572 48.428 37.7855 49.0374C37.7949 49.3637 37.9006 49.2527 38.1876 48.6365C38.6305 47.6913 40.0686 45.8185 40.3746 45.8537C40.483 45.851 40.5439 45.7197 40.5832 45.5219C40.6008 45.3703 40.6861 45.3026 40.7741 45.3432C40.9055 45.4055 41.5135 44.9667 41.6773 44.6147C41.6976 44.57 42.1337 44.2111 42.6239 43.8509C43.1263 43.5232 43.5718 43.1427 43.6138 43.0547C43.7668 42.7242 48.2992 39.9672 51.0725 38.4518C52.6041 37.6407 56.4797 35.9426 59.62 34.7319C64.8864 32.6398 66.5344 32.1509 70.9097 31.2775C73.9336 30.6559 74.1719 30.6058 74.9533 30.5963C75.4096 30.595 76.1558 30.4893 76.6528 30.4C77.7225 30.1765 80.3158 30.0763 80.4905 30.1589C80.5785 30.1995 79.8987 30.3377 79.0104 30.404C78.122 30.5245 77.0306 30.7371 76.5566 30.8374C76.0921 30.9687 75.6818 31.0445 75.6344 30.9145C75.6114 30.8509 75.5031 30.8536 75.4624 30.9416C75.4001 31.073 75.2268 31.1001 75.0738 31.0269C74.9411 30.966 74.5958 31.0188 74.283 31.1136C74.004 31.2504 73.744 31.2896 73.7007 31.2693C73.633 31.184 71.7845 31.5266 71.5503 31.6837C71.4649 31.7514 70.9138 31.8421 70.4155 31.876C68.628 32.0317 67.3767 32.3581 63.9425 33.5118C58.5381 35.3251 49.9838 39.175 49.6344 39.9225C49.5721 40.0538 49.2187 40.2366 48.895 40.3003C47.9336 40.5197 44.3153 42.9274 42.1378 44.7758C41.1059 45.6073 40.158 46.3155 40.0293 46.3629C39.8993 46.4089 39.8384 46.5416 39.8411 46.65ZM47.6221 68.513C47.2037 68.3166 47.048 68.1907 47.2457 68.2286C47.4637 68.2774 47.7711 68.4223 47.9701 68.5685C48.1259 68.6944 47.9729 68.6768 47.6221 68.513ZM68.3233 85.7272C68.502 85.9181 68.5657 85.8951 68.5603 85.677C68.5657 85.4387 68.5657 85.4387 68.6456 85.6107C68.7566 85.7163 68.7187 85.9127 68.59 85.9587C68.3991 86.1375 68.135 86.0142 68.1269 85.6892C68.1229 85.5809 68.1879 85.5565 68.3233 85.7272ZM67.3835 85.5024C67.6001 85.4956 67.5798 85.5403 67.3036 85.7867C66.8675 86.1456 66.8242 86.1253 66.9989 85.7502C67.0598 85.6188 67.2305 85.4848 67.3835 85.5024ZM66.5981 86.6087C66.7267 86.5613 67.1167 86.5302 67.5081 86.5518C68.5833 86.5451 67.6665 86.7861 65.791 86.9012C64.2621 87.0163 63.2221 87.1192 61.3087 87.4307C60.3892 87.5634 55.8568 88.6589 54.3374 89.1004C53.12 89.4687 52.73 89.4999 53.5453 89.1315C55.1107 88.3624 61.8409 87.0366 64.9825 86.7374C65.7639 86.7279 66.4884 86.6114 66.5981 86.6087ZM62.4083 87.9453C62.193 88.0049 61.9993 88.0753 61.9546 88.0536C61.9113 88.0333 62.0603 87.9426 62.2106 87.8518C62.4462 87.7476 62.6398 87.6785 62.6845 87.6988C62.7279 87.7191 62.6222 87.8302 62.4083 87.9453ZM66.3205 85.5403C66.6008 85.5118 66.6888 85.5525 66.5764 85.7949C66.5141 85.9262 66.3624 85.9086 66.25 85.803C66.116 85.6324 66.051 85.6567 66.0781 85.8287C66.1038 86.002 66.0632 86.0901 66.0185 86.0698C65.7544 85.9465 65.9196 85.5944 66.3205 85.5403ZM62.1523 86.0291C62.4638 85.9343 62.7698 85.9695 62.8132 85.9899C62.8159 86.0982 63.1179 86.0264 63.5065 85.9398C63.8505 85.7786 64.2296 85.7691 64.3759 85.9709C64.5316 86.0968 64.5966 86.0738 64.5804 85.8788C64.5546 85.7055 64.6183 85.6825 64.797 85.8734C64.9758 86.0643 65.0408 86.0413 65.015 85.868C64.988 85.6947 65.0963 85.6919 65.2317 85.8626C65.4321 86.063 65.4971 86.04 65.4484 85.8558C65.4226 85.6838 65.4633 85.5958 65.508 85.6161C65.5513 85.6364 65.6204 85.7759 65.6231 85.8842C65.6258 85.9926 65.1085 86.1253 64.4707 86.2295C63.7963 86.2363 62.8998 86.3785 62.4001 86.4137C61.4698 86.5139 61.2207 86.1293 62.1523 86.0291ZM54.68 87.6799C58.2808 86.6845 59.1772 86.4868 59.3357 86.7211C59.4481 86.8823 59.4684 86.8376 59.4657 86.7292C59.4183 86.5464 59.6336 86.4855 59.8949 86.5004C60.1346 86.56 60.5463 86.4841 60.8131 86.3135C61.092 86.1767 61.264 86.1497 61.2911 86.323C61.3195 86.6047 60.5761 86.82 57.7675 87.3819C57.0553 87.5309 55.8785 87.8112 55.2515 87.9466C53.6685 88.4111 53.6685 88.4111 53.5358 88.3502C53.4478 88.3082 52.9968 88.472 52.4267 88.7158C51.8701 88.9907 51.4923 89.1085 51.5438 88.9988C51.5844 88.9108 51.4111 88.8824 51.1633 88.9541C49.9323 89.2358 53.0523 88.124 54.68 87.6799ZM54.7518 97.4935C54.7071 97.4732 53.9732 97.6127 53.1444 97.8943C52.2601 98.1232 51.2797 98.4428 50.9778 98.5159L50.3724 98.6066L50.9371 98.6039C51.5235 98.6093 54.4404 98.0447 55.433 97.8131C55.7661 97.6736 56.1128 97.6208 56.2008 97.6628C57.0133 98.0433 48.5078 99.5573 46.3005 99.4625C44.9084 99.4015 42.6875 98.7637 42.2515 98.2654C41.894 97.8835 42.261 97.7874 43.2265 98.1855C43.7966 98.3981 44.4507 98.4902 44.6876 98.4401C44.9341 98.3141 45.6505 98.2749 46.3032 98.3114C46.964 98.2722 47.6573 98.222 47.8076 98.1313C48.4089 97.8767 50.8965 97.4854 50.9236 97.7129C50.9629 97.9729 52.6826 97.6777 52.8167 97.3919C52.8776 97.2606 53.2419 97.0561 53.6739 96.9898C54.0517 96.8719 54.351 96.6905 54.3483 96.5822C54.3686 96.5375 54.5203 96.5551 54.7423 96.7122C55.1405 97.006 55.1405 97.006 59.6878 95.2483C61.0961 94.7012 62.1848 94.3789 62.1239 94.5103C62.021 94.731 54.9712 97.5964 54.7518 97.4935ZM67.7396 88.751C65.4524 91.4052 60.8875 93.7723 53.9921 95.8523C50.8153 96.8584 46.7216 97.3012 44.1284 96.9451C42.8324 96.7948 42.72 96.6891 43.045 96.2247C44.1108 95.0343 47.113 93.1426 50.6013 91.5866C51.8783 90.9773 53.1742 90.3246 53.4951 90.0998C53.8039 89.8953 54.3415 89.6651 54.6855 89.5581L55.3233 89.4538L54.7559 89.7517C54.4119 89.8574 53.8879 90.1756 53.5683 90.4017L52.9697 90.7647L53.7254 90.636C54.137 90.5602 54.5555 90.4085 54.5974 90.3205C54.6381 90.2325 55.07 90.1119 55.5657 89.9698C56.0518 89.9021 57.1744 89.6231 58.0262 89.4051C60.6275 88.7727 64.1958 88.1917 66.4166 88.0252L68.4655 87.8843L67.7396 88.751Z" fill="#FFD700"/>
<mask id="mask0_781_13647" style="mask-type:luminance" maskUnits="userSpaceOnUse" x="0" y="59" width="130" height="13">
<path d="M0 59.1377H130V71.8777H0V59.1377Z" fill="white"/>
</mask>
<g mask="url(#mask0_781_13647)">
<path d="M0.00537109 59.1377H129.995V71.8777H0.00537109V59.1377Z" fill="#464A4E"/>
</g>
<path d="M41.096 67.6426C41.9153 67.6426 42.4461 67.2418 42.4461 66.5877C42.4461 66.0352 42.0764 65.7034 41.1163 65.4678C40.3878 65.2904 40.1468 65.0981 40.1468 64.7866C40.1468 64.4278 40.469 64.203 41.0039 64.203C41.5564 64.203 41.899 64.482 41.9099 64.9315H42.3757C42.3703 64.203 41.8462 63.7534 41.0039 63.7534C40.1847 63.7534 39.6647 64.1543 39.6647 64.7866C39.6647 65.3662 40.0777 65.6872 40.9985 65.9065C41.6743 66.0677 41.9586 66.2559 41.9586 66.6039C41.9586 66.9736 41.6255 67.193 41.096 67.193C40.511 67.193 40.1048 66.9032 40.0939 66.4211H39.6213C39.6268 67.1551 40.2009 67.6426 41.096 67.6426Z" fill="white"/>
<path d="M45.9092 67.5735H46.3805V66.3412H47.1781C48.0258 66.3412 48.5715 65.8537 48.5715 65.0819C48.5715 64.3154 48.0258 63.8225 47.1781 63.8225H45.9092V67.5735ZM46.3805 65.9011V64.2721H47.1686C47.7739 64.2721 48.0894 64.551 48.0894 65.0873C48.0894 65.6235 47.7739 65.9011 47.1686 65.9011H46.3805Z" fill="white"/>
<path d="M51.9281 67.5735H54.264V67.1348H52.3994V65.8808H54.0704V65.4461H52.3994V64.2612H54.2045V63.8225H51.9281V67.5735Z" fill="white"/>
<path d="M57.754 67.5735H58.2253V66.2288H59.05L59.9667 67.5735H60.5341L59.5916 66.1801C60.1387 66.046 60.4759 65.6344 60.4759 65.0277C60.4759 64.2829 59.9613 63.8225 59.184 63.8225H57.754V67.5735ZM58.2253 65.7779V64.2721H59.1312C59.6769 64.2721 59.9938 64.551 59.9938 65.0277C59.9938 65.5057 59.6769 65.7779 59.1312 65.7779H58.2253Z" fill="white"/>
<path d="M63.9979 67.5735H66.3339V67.1348H64.4692V65.8808H66.1402V65.4461H64.4692V64.2612H66.2743V63.8225H63.9979V67.5735Z" fill="white"/>
<path d="M69.8239 67.5735H70.2897V64.6363L72.3629 67.5735H72.803V63.8225H72.3412V66.7597L70.268 63.8225H69.8239V67.5735Z" fill="white"/>
<path d="M76.2284 67.5735H78.9015V67.1239H76.8554L78.8487 64.1705V63.8225H76.2812V64.2721H78.2217L76.2284 67.2255V67.5735Z" fill="white"/>
<path d="M81.866 67.5735H82.3698L82.7124 66.7217H84.5405L84.8939 67.5735H85.3923L83.8485 63.8225H83.4098L81.866 67.5735ZM82.8952 66.2816L83.6292 64.482L84.3631 66.2816H82.8952Z" fill="white"/>
</g>
<defs>
<clipPath id="clip0_781_13647">
<rect width="130" height="130" fill="white"/>
</clipPath>
</defs>
</svg>
