<svg width="132" height="130" viewBox="0 0 132 130" fill="none" xmlns="http://www.w3.org/2000/svg">
<g clip-path="url(#clip0_701_12969)">
<path d="M78.6658 88.5534C78.5059 88.3191 78.2748 87.8898 78.0697 87.5811C77.5979 86.7456 76.1745 85.9791 74.3204 85.5485C72.7658 85.2303 72.6783 85.1896 72.6113 84.7563C72.5593 84.4652 72.5074 84.1185 72.5457 83.9221C72.625 83.1814 71.1045 80.3864 69.9067 79.0823C67.1324 76.1357 63.5185 73.8173 54.1701 68.9776C52.9012 68.2829 51.8114 67.6694 51.7649 67.595C51.7212 67.5746 51.0526 67.1576 50.3169 66.7093C47.8024 65.3294 46.9205 64.7336 46.0727 64.1797C43.0755 61.9874 42.3932 61.4294 41.4265 60.5533C40.1317 59.2844 38.9106 57.8598 38.5483 57.023C38.3637 56.6695 38.2625 55.7379 38.2297 54.8915C38.2078 54.0777 38.1805 53.4493 38.1395 53.5373C38.0971 53.6254 38.0328 54.1047 38.0232 54.5828C38.0848 55.6553 37.9754 55.658 37.784 54.6315C37.6746 53.8312 37.9234 52.4459 38.1682 52.5583C38.2571 52.6003 38.5059 52.0721 38.7425 51.4573C39.8732 48.2033 43.9534 44.4929 50.2855 40.9409C54.0976 38.7688 63.4789 34.8349 67.0394 33.8843C68.0635 33.6081 69.2066 33.3074 69.4664 33.214C69.8479 33.0948 70.3483 32.9527 70.6998 32.954C71.0279 32.9459 72.2394 32.7292 73.3305 32.5383C74.4558 32.3907 76.0816 32.0982 77.0223 31.998C77.9083 31.8991 78.9119 31.7217 79.2497 31.6364C82.7418 31.0027 91.2097 31.979 95.3172 33.4808C96.7119 33.9656 96.824 34.0712 97.0031 34.6088C97.4666 35.9765 95.8122 38.1039 92.2626 40.6931C87.0025 44.5538 81.7355 47.3393 76.5191 49.1038C74.9426 49.6319 74.7689 49.659 73.3155 49.4681C72.2257 49.3123 71.2713 49.6726 71.2303 50.2169C71.0402 51.7092 72.2079 53.1893 73.6819 53.3897C74.1318 53.3559 74.639 53.4845 74.8168 53.5671C75.9243 54.0276 80.3476 52.5122 83.5964 50.5595C84.6452 50.0016 85.8867 49.2636 86.4049 48.967C88.9659 47.5005 92.3227 45.4922 94.1946 44.1083C94.3655 43.9729 94.9603 43.6316 95.4553 43.2714C96.0063 42.964 96.5656 42.5808 96.7146 42.3817C96.8732 42.1596 97.4516 41.6234 98.0614 41.0763C99.3249 39.8928 100.286 38.0863 100.244 36.915C100.266 36.0672 99.6434 34.5194 98.8777 33.3345C97.6102 31.4333 92.4116 28.8644 89.2339 28.5448C88.5311 28.4866 87.8912 28.3512 87.7586 28.2889C87.6027 28.2171 86.4583 28.0628 85.2386 27.9531C80.5883 27.4859 74.3423 28.0492 69.2572 29.4183C68.1579 29.7406 66.7304 30.0696 66.0768 30.1956C64.2979 30.5246 53.284 34.9352 50.8857 36.2893C50.6697 36.4031 50.1187 36.7105 49.621 36.9623C49.167 37.2345 48.7281 37.5934 48.6652 37.7261C48.6242 37.8141 48.255 37.9644 47.9391 38.0592C47.5905 38.112 47.3293 38.2055 47.3977 38.2908C47.4237 38.4641 44.6097 40.295 43.9793 40.4859C43.6854 40.5902 43.5555 40.6376 43.6649 40.6348C43.7975 40.6416 42.9074 41.4365 41.6727 42.3912C40.4585 43.3567 39.2593 44.4617 38.9394 44.7962C38.0574 45.8619 36.8542 48.0638 36.3537 49.4667C35.8847 50.8046 35.6359 52.993 35.9463 53.1379C36.0351 53.1785 35.9941 53.2665 35.908 53.3342C35.6701 53.4913 36.0584 55.7081 36.537 56.8144C37.0688 58.2661 38.2516 60.342 38.819 61.034C41.607 64.4695 45.5805 67.5706 51.3739 70.6567C52.5074 71.235 53.6669 71.9323 54.0251 72.2059C54.3601 72.4686 56.2525 73.5059 58.2939 74.4524C63.8439 77.024 67.8051 79.6362 69.651 81.8584C69.9231 82.1983 70.2513 82.5924 70.3853 82.6533C70.6956 82.7968 70.898 83.8016 70.7298 84.5017C70.6245 85.0691 70.5152 85.0718 67.6328 85.1571C62.5956 85.3955 59.4534 85.9764 53.9732 87.7246C50.0995 88.8784 47.0791 90.3463 44.4511 92.1297C43.9452 92.5116 43.6649 92.6497 43.7469 92.4737C44.1106 91.7045 43.5186 92.1 42.8103 93.1386C41.0245 95.6614 40.8946 96.9668 42.2893 98.7123C43.2533 99.9365 45.5832 100.559 48.1524 100.276C51.6063 99.8945 58.2105 98.344 58.4389 97.8606C58.4813 97.7726 59.2046 97.3853 60.0195 97.0928C62.7979 96.0216 66.4911 94.2761 67.6027 93.5841C68.9714 92.6917 70.7941 90.6672 71.7075 89.1343L72.4404 87.8127L73.5807 87.8587C74.2179 87.8858 75.4198 88.1485 76.2183 88.464C77.5911 88.9935 77.68 89.0341 77.8618 89.6814C78.0519 90.2529 78.0751 90.3165 78.4224 90.1554C78.8791 89.9915 79.0405 89.0761 78.6658 88.5534ZM45.9757 43.0182C45.7213 43.3283 45.5668 43.3107 45.6912 43.048C45.7323 42.96 45.884 42.8692 45.9702 42.8015C46.1233 42.8191 46.1493 42.9383 45.9757 43.0182ZM60.3737 35.5662C59.9771 35.9454 57.2849 36.9488 57.3888 36.7294C57.4298 36.6414 58.1777 36.3178 59.0993 35.9142C60.0346 35.5973 60.6102 35.4078 60.3737 35.5662ZM67.6643 33.0217C67.4687 33.0921 67.2623 33.1842 67.2185 33.1639C67.1734 33.1422 67.291 33.0095 67.4865 32.9391C67.682 32.8687 67.8776 32.7983 67.9213 32.8199C67.9665 32.8403 67.8598 32.9513 67.6643 33.0217ZM40.3368 46.6501C40.3395 46.7584 40.036 47.2879 39.6531 47.7537C39.2156 48.2209 38.5975 49.3002 38.1682 50.0937C37.784 50.9076 37.4832 51.5454 37.4162 51.5142C37.3724 51.4939 37.4572 50.9698 37.5734 50.3808C38.134 47.9338 40.2534 44.7082 42.6886 42.7013C48.7131 37.8547 60.0127 32.6656 69.3844 30.4691C73.001 29.5713 80.3476 28.7954 80.0892 29.3452C80.0468 29.4332 79.9169 29.4806 79.8281 29.4386C79.6941 29.3777 78.3062 29.5104 77.4134 29.7406C77.2588 29.723 75.6768 30.0344 73.8542 30.3418C72.0534 30.6601 70.1337 31.0568 69.6332 31.2004C69.1328 31.3439 68.5995 31.4983 68.445 31.4807C67.5439 31.3845 55.9941 35.7883 52.4787 37.6164C47.5987 40.0986 42.5013 43.4989 40.7962 45.3352C39.4097 46.8369 38.3336 48.4281 38.2612 49.0375C38.2707 49.3638 38.3774 49.2528 38.6673 48.6366C39.1144 47.6914 40.5665 45.8186 40.8755 45.8538C40.9849 45.8511 41.0464 45.7197 41.0861 45.522C41.1038 45.3704 41.19 45.3027 41.2789 45.3433C41.4115 45.4056 42.0254 44.9668 42.1909 44.6147C42.2114 44.5701 42.6517 44.2112 43.1466 43.851C43.6539 43.5233 44.1038 43.1428 44.1462 43.0547C44.3007 42.7243 48.8771 39.9672 51.6774 38.4519C53.2239 37.6408 57.1372 35.9427 60.308 34.732C65.6256 32.6398 67.2896 32.151 71.7075 31.2776C74.7607 30.656 75.0014 30.6059 75.7903 30.5964C76.2511 30.5951 77.0045 30.4894 77.5063 30.4001C78.5865 30.1766 81.205 30.0764 81.3814 30.159C81.4702 30.1996 80.7838 30.3378 79.8869 30.4041C78.9899 30.5246 77.8878 30.7372 77.4092 30.8374C76.9403 30.9688 76.526 31.0446 76.4781 30.9146C76.4549 30.851 76.3455 30.8537 76.3044 30.9417C76.2415 31.0731 76.0665 31.1002 75.912 31.027C75.778 30.9661 75.4294 31.0189 75.1135 31.1137C74.8318 31.2505 74.5693 31.2897 74.5255 31.2694C74.4572 31.1841 72.5908 31.5267 72.3542 31.6838C72.2681 31.7515 71.7116 31.8422 71.2084 31.8761C69.4035 32.0318 68.1401 32.3582 64.6726 33.5119C59.2155 35.3252 50.5781 39.1751 50.2253 39.9226C50.1624 40.0539 49.8055 40.2367 49.4788 40.3004C48.508 40.5197 44.8544 42.9275 42.6558 44.7759C41.6139 45.6073 40.6567 46.3156 40.5268 46.363C40.3956 46.409 40.334 46.5417 40.3368 46.6501ZM48.1935 68.5131C47.771 68.3167 47.6137 68.1908 47.8133 68.2287C48.0335 68.2775 48.3439 68.4223 48.5449 68.5686C48.7021 68.6945 48.5476 68.6769 48.1935 68.5131ZM69.0959 85.7272C69.2764 85.9182 69.3406 85.8952 69.3352 85.6771C69.3406 85.4388 69.3406 85.4388 69.4213 85.6108C69.5334 85.7164 69.4951 85.9128 69.3652 85.9588C69.1724 86.1376 68.9058 86.0143 68.8976 85.6893C68.8935 85.581 68.9591 85.5566 69.0959 85.7272ZM68.1469 85.5025C68.3657 85.4957 68.3452 85.5404 68.0663 85.7868C67.626 86.1457 67.5822 86.1254 67.7586 85.7503C67.8201 85.6189 67.9924 85.4848 68.1469 85.5025ZM67.3539 86.6088C67.4838 86.5614 67.8776 86.5303 68.2727 86.5519C69.3584 86.5452 68.4327 86.7862 66.539 86.9013C64.9952 87.0164 63.9451 87.1193 62.0131 87.4308C61.0847 87.5635 56.5082 88.659 54.9741 89.1005C53.7448 89.4688 53.351 89.5 54.1742 89.1316C55.7548 88.3625 62.5505 87.0367 65.7227 86.7375C66.5116 86.728 67.2431 86.6115 67.3539 86.6088ZM63.1234 87.9454C62.906 88.005 62.7104 88.0754 62.6653 88.0537C62.6216 88.0334 62.772 87.9427 62.9237 87.8519C63.1616 87.7477 63.3572 87.6786 63.4023 87.6989C63.4461 87.7192 63.3394 87.8303 63.1234 87.9454ZM67.0736 85.5404C67.3566 85.5119 67.4455 85.5526 67.332 85.795C67.2691 85.9263 67.116 85.9087 67.0025 85.8031C66.8671 85.6325 66.8015 85.6568 66.8288 85.8288C66.8548 86.0021 66.8138 86.0902 66.7687 86.0698C66.502 85.9466 66.6689 85.5945 67.0736 85.5404ZM62.8649 86.0292C63.1794 85.9344 63.4884 85.9696 63.5322 85.99C63.5349 86.0983 63.8398 86.0265 64.2323 85.9398C64.5796 85.7787 64.9624 85.7692 65.1101 85.971C65.2673 86.0969 65.333 86.0739 65.3166 85.8789C65.2906 85.7056 65.3548 85.6826 65.5353 85.8735C65.7158 86.0644 65.7815 86.0414 65.7555 85.8681C65.7281 85.6947 65.8375 85.692 65.9743 85.8627C66.1766 86.0631 66.2422 86.0401 66.193 85.8559C66.167 85.6839 66.2081 85.5959 66.2532 85.6162C66.2969 85.6365 66.3667 85.776 66.3694 85.8843C66.3721 85.9927 65.8498 86.1254 65.2058 86.2296C64.5249 86.2364 63.6197 86.3786 63.1152 86.4138C62.1758 86.514 61.9242 86.1294 62.8649 86.0292ZM55.32 87.68C58.9557 86.6846 59.8609 86.4869 60.0209 86.7212C60.1344 86.8823 60.1549 86.8377 60.1522 86.7293C60.1043 86.5465 60.3217 86.4856 60.5856 86.5005C60.8276 86.5601 61.2433 86.4842 61.5126 86.3136C61.7943 86.1768 61.968 86.1497 61.9953 86.3231C62.024 86.6047 61.2734 86.8201 58.4375 87.382C57.7183 87.531 56.5301 87.8113 55.897 87.9467C54.2986 88.4112 54.2986 88.4112 54.1646 88.3503C54.0757 88.3083 53.6204 88.4721 53.0448 88.7159C52.4828 88.9908 52.1013 89.1086 52.1533 88.9989C52.1943 88.9109 52.0193 88.8825 51.769 88.9542C50.5261 89.2359 53.6765 88.1241 55.32 87.68ZM55.3925 97.4936C55.3473 97.4733 54.6063 97.6128 53.7694 97.8944C52.8766 98.1233 51.8866 98.4429 51.5817 98.516L50.9705 98.6067L51.5407 98.604C52.1327 98.6094 55.078 98.0447 56.0802 97.8132C56.4166 97.6737 56.7666 97.6209 56.8555 97.6629C57.6759 98.0434 49.0877 99.5574 46.8589 99.4626C45.4533 99.4016 43.2109 98.7638 42.7706 98.2655C42.4096 97.8836 42.7802 97.7875 43.7551 98.1856C44.3308 98.3982 44.9912 98.4903 45.2305 98.4402C45.4793 98.3142 46.2026 98.275 46.8617 98.3115C47.5289 98.2722 48.229 98.2221 48.3808 98.1314C48.9879 97.8768 51.4997 97.4855 51.527 97.713C51.5667 97.973 53.3032 97.6778 53.4386 97.392C53.5001 97.2607 53.8679 97.0562 54.3041 96.9899C54.6856 96.872 54.9877 96.6906 54.985 96.5822C55.0055 96.5376 55.1587 96.5552 55.3829 96.7122C55.7849 97.0061 55.7849 97.0061 60.3764 95.2484C61.7984 94.7013 62.8978 94.379 62.8362 94.5104C62.7323 94.7311 55.614 97.5965 55.3925 97.4936ZM68.5065 88.7511C66.1971 91.4053 61.5879 93.7723 54.6254 95.8523C51.4176 96.8585 47.2842 97.3013 44.6657 96.9452C43.3572 96.7948 43.2437 96.6892 43.5719 96.2247C44.648 95.0344 47.6793 93.1427 51.2016 91.5867C52.491 90.9773 53.7995 90.3246 54.1236 90.0998C54.4353 89.8954 54.9782 89.6652 55.3255 89.5582L55.9695 89.4539L55.3966 89.7518C55.0493 89.8575 54.5201 90.1757 54.1974 90.4018L53.5931 90.7647L54.356 90.6361C54.7717 90.5603 55.1942 90.4086 55.2366 90.3206C55.2776 90.2326 55.7138 90.112 56.2142 89.9698C56.7051 89.9021 57.8386 89.6232 58.6987 89.4052C61.3253 88.7728 64.9282 88.1918 67.1707 88.0253L69.2394 87.8844L68.5065 88.7511Z" fill="#FFD700"/>
<mask id="mask0_701_12969" style="mask-type:luminance" maskUnits="userSpaceOnUse" x="0" y="59" width="132" height="13">
<path d="M0.108398 59.1377H131.372V71.8777H0.108398V59.1377Z" fill="white"/>
</mask>
<g mask="url(#mask0_701_12969)">
<path d="M0.11377 59.1377H131.367V71.8777H0.11377V59.1377Z" fill="#464A4E"/>
</g>
<path d="M41.604 67.6426C42.4313 67.6426 42.9672 67.2418 42.9672 66.5877C42.9672 66.0352 42.594 65.7034 41.6245 65.4678C40.8889 65.2904 40.6455 65.0981 40.6455 64.7866C40.6455 64.4278 40.9709 64.203 41.511 64.203C42.0689 64.203 42.4148 64.482 42.4258 64.9315H42.8961C42.8907 64.203 42.3615 63.7534 41.511 63.7534C40.6838 63.7534 40.1587 64.1543 40.1587 64.7866C40.1587 65.3662 40.5758 65.6872 41.5056 65.9065C42.1879 66.0677 42.475 66.2559 42.475 66.6039C42.475 66.9736 42.1386 67.193 41.604 67.193C41.0133 67.193 40.6031 66.9032 40.5922 66.4211H40.115C40.1205 67.1551 40.7002 67.6426 41.604 67.6426Z" fill="white"/>
<path d="M46.464 67.5736H46.9398V66.3413H47.7452C48.6011 66.3413 49.1522 65.8538 49.1522 65.0819C49.1522 64.3154 48.6011 63.8225 47.7452 63.8225H46.464V67.5736ZM46.9398 65.9012V64.2721H47.7356C48.3468 64.2721 48.6654 64.5511 48.6654 65.0873C48.6654 65.6236 48.3468 65.9012 47.7356 65.9012H46.9398Z" fill="white"/>
<path d="M52.5413 67.5736H54.9V67.1348H53.0172V65.8808H54.7044V65.4462H53.0172V64.2613H54.8398V63.8225H52.5413V67.5736Z" fill="white"/>
<path d="M58.424 67.5736H58.8998V66.2289H59.7325L60.6582 67.5736H61.2311L60.2794 66.1801C60.8318 66.0461 61.1723 65.6344 61.1723 65.0277C61.1723 64.2829 60.6527 63.8225 59.8679 63.8225H58.424V67.5736ZM58.8998 65.7779V64.2721H59.8145C60.3656 64.2721 60.6855 64.5511 60.6855 65.0277C60.6855 65.5057 60.3656 65.7779 59.8145 65.7779H58.8998Z" fill="white"/>
<path d="M64.7285 67.5736H67.0872V67.1348H65.2043V65.8808H66.8916V65.4462H65.2043V64.2613H67.027V63.8225H64.7285V67.5736Z" fill="white"/>
<path d="M70.6111 67.5736H71.0814V64.6364L73.1748 67.5736H73.6192V63.8225H73.153V66.7597L71.0596 63.8225H70.6111V67.5736Z" fill="white"/>
<path d="M77.0779 67.5736H79.777V67.124H77.711L79.7237 64.1705V63.8225H77.1312V64.2721H79.0906L77.0779 67.2255V67.5736Z" fill="white"/>
<path d="M82.7704 67.5736H83.279L83.625 66.7218H85.4709L85.8277 67.5736H86.3309L84.7722 63.8225H84.3291L82.7704 67.5736ZM83.8096 66.2817L84.5507 64.482L85.2917 66.2817H83.8096Z" fill="white"/>
</g>
<defs>
<clipPath id="clip0_701_12969">
<rect width="131.264" height="130" fill="white" transform="translate(0.108398)"/>
</clipPath>
</defs>
</svg>
