<svg width="132" height="130" viewBox="0 0 132 130" fill="none" xmlns="http://www.w3.org/2000/svg">
<g clip-path="url(#clip0_781_13672)">
<path d="M78.9651 88.5536C78.8052 88.3193 78.5741 87.89 78.369 87.5813C77.8973 86.7458 76.4739 85.9793 74.6198 85.5487C73.0651 85.2304 72.9776 85.1898 72.9106 84.7565C72.8586 84.4653 72.8067 84.1187 72.845 83.9223C72.9243 83.1816 71.4038 80.3866 70.206 79.0825C67.4317 76.1359 63.8178 73.8175 54.4694 68.9777C53.2005 68.2831 52.1107 67.6696 52.0643 67.5951C52.0205 67.5748 51.3519 67.1577 50.6162 66.7095C48.1017 65.3296 47.2198 64.7338 46.372 64.1799C43.3749 61.9875 42.6926 61.4296 41.7259 60.5535C40.431 59.2846 39.21 57.86 38.8476 57.0232C38.663 56.6697 38.5618 55.7381 38.529 54.8917C38.5072 54.0778 38.4798 53.4495 38.4388 53.5375C38.3964 53.6256 38.3321 54.1049 38.3226 54.5829C38.3841 55.6554 38.2747 55.6582 38.0833 54.6317C37.9739 53.8314 38.2227 52.4461 38.4675 52.5585C38.5564 52.6004 38.8052 52.0723 39.0418 51.4575C40.1726 48.2035 44.2527 44.493 50.5848 40.9411C54.3969 38.769 63.7782 34.8351 67.3387 33.8845C68.3629 33.6083 69.5059 33.3076 69.7657 33.2142C70.1472 33.095 70.6477 32.9528 70.9991 32.9542C71.3272 32.9461 72.5387 32.7294 73.6298 32.5385C74.7551 32.3909 76.3809 32.0984 77.3216 31.9982C78.2076 31.8993 79.2113 31.7219 79.549 31.6366C83.0412 31.0028 91.5091 31.9792 95.6165 33.481C97.0112 33.9658 97.1233 34.0714 97.3024 34.609C97.766 35.9767 96.1115 38.1041 92.5619 40.6933C87.3018 44.554 82.0348 47.3395 76.8184 49.104C75.2419 49.6321 75.0682 49.6592 73.6148 49.4683C72.525 49.3125 71.5706 49.6727 71.5296 50.2171C71.3395 51.7094 72.5072 53.1895 73.9812 53.3899C74.4311 53.3561 74.9384 53.4847 75.1161 53.5673C76.2236 54.0277 80.647 52.5124 83.8957 50.5597C84.9445 50.0018 86.186 49.2638 86.7042 48.9672C89.2653 47.5007 92.6221 45.4924 94.4939 44.1085C94.6649 43.9731 95.2596 43.6318 95.7546 43.2716C96.3057 42.9642 96.8649 42.581 97.0139 42.3819C97.1725 42.1598 97.7509 41.6236 98.3608 41.0765C99.6242 39.8929 100.585 38.0865 100.543 36.9151C100.565 36.0674 99.9428 34.5196 99.1771 33.3347C97.9095 31.4335 92.7109 28.8646 89.5333 28.545C88.8304 28.4868 88.1905 28.3514 88.0579 28.2891C87.902 28.2173 86.7576 28.0629 85.5379 27.9533C80.8876 27.4861 74.6416 28.0494 69.5565 29.4185C68.4572 29.7408 67.0297 30.0698 66.3761 30.1958C64.5972 30.5248 53.5834 34.9353 51.1851 36.2895C50.969 36.4033 50.418 36.7107 49.9203 36.9625C49.4663 37.2347 49.0274 37.5936 48.9645 37.7263C48.9235 37.8143 48.5543 37.9646 48.2385 38.0594C47.8898 38.1122 47.6286 38.2057 47.697 38.291C47.723 38.4643 44.909 40.2951 44.2787 40.4861C43.9847 40.5903 43.8548 40.6377 43.9642 40.635C44.0968 40.6418 43.2067 41.4367 41.972 42.3914C40.7578 43.3569 39.5586 44.4619 39.2387 44.7964C38.3567 45.8621 37.1535 48.064 36.6531 49.4669C36.1841 50.8048 35.9352 52.9932 36.2456 53.1381C36.3345 53.1787 36.2934 53.2667 36.2073 53.3344C35.9694 53.4915 36.3577 55.7083 36.8363 56.8146C37.3682 58.2663 38.5509 60.3422 39.1184 61.0342C41.9063 64.4697 45.8798 67.5708 51.6732 70.6569C52.8067 71.2351 53.9662 71.9325 54.3245 72.2061C54.6594 72.4688 56.5518 73.5061 58.5933 74.4526C64.1433 77.0242 68.1044 79.6364 69.9503 81.8586C70.2224 82.1985 70.5506 82.5925 70.6846 82.6535C70.995 82.797 71.1973 83.8018 71.0291 84.5019C70.9239 85.0693 70.8145 85.072 67.9321 85.1573C62.8949 85.3957 59.7528 85.9766 54.2725 87.7248C50.3988 88.8786 47.3784 90.3465 44.7504 92.1299C44.2445 92.5118 43.9642 92.6499 44.0462 92.4739C44.4099 91.7047 43.8179 92.1001 43.1096 93.1388C41.3239 95.6616 41.194 96.967 42.5886 98.7125C43.5526 99.9367 45.8825 100.56 48.4518 100.277C51.9056 99.8947 58.5099 98.3442 58.7382 97.8608C58.7806 97.7727 59.5039 97.3855 60.3188 97.0929C63.0973 96.0218 66.7904 94.2763 67.9021 93.5843C69.2708 92.6919 71.0934 90.6674 72.0068 89.1345L72.7397 87.8128L73.88 87.8589C74.5172 87.886 75.7191 88.1487 76.5176 88.4642C77.8904 88.9937 77.9793 89.0343 78.1612 89.6816C78.3512 90.2531 78.3745 90.3167 78.7218 90.1556C79.1784 89.9917 79.3398 89.0763 78.9651 88.5536ZM46.275 43.0184C46.0206 43.3285 45.8661 43.3109 45.9906 43.0482C46.0316 42.9601 46.1834 42.8694 46.2695 42.8017C46.4226 42.8193 46.4486 42.9385 46.275 43.0184ZM60.673 35.5664C60.2764 35.9455 57.5842 36.949 57.6881 36.7296C57.7291 36.6416 58.477 36.3179 59.3986 35.9144C60.3339 35.5975 60.9095 35.4079 60.673 35.5664ZM67.9636 33.0219C67.7681 33.0923 67.5616 33.1844 67.5178 33.1641C67.4727 33.1424 67.5903 33.0097 67.7858 32.9393C67.9814 32.8689 68.1769 32.7985 68.2206 32.8201C68.2658 32.8404 68.1591 32.9515 67.9636 33.0219ZM40.6361 46.6502C40.6388 46.7586 40.3353 47.288 39.9524 47.7539C39.5149 48.2211 38.8968 49.3003 38.4675 50.0939C38.0833 50.9077 37.7825 51.5456 37.7155 51.5144C37.6717 51.4941 37.7565 50.97 37.8727 50.381C38.4333 47.934 40.5527 44.7084 42.9879 42.7015C49.0124 37.8549 60.312 32.6658 69.6837 30.4693C73.3003 29.5715 80.647 28.7955 80.3885 29.3453C80.3461 29.4334 80.2163 29.4808 80.1274 29.4388C79.9934 29.3778 78.6055 29.5105 77.7127 29.7408C77.5582 29.7232 75.9762 30.0346 74.1535 30.342C72.3527 30.6602 70.433 31.057 69.9325 31.2005C69.4321 31.3441 68.8988 31.4985 68.7443 31.4809C67.8433 31.3847 56.2934 35.7885 52.778 37.6166C47.898 40.0988 42.8006 43.4991 41.0955 45.3353C39.709 46.8371 38.6329 48.4283 38.5605 49.0376C38.5701 49.364 38.6767 49.2529 38.9666 48.6368C39.4137 47.6916 40.8658 45.8188 41.1748 45.854C41.2842 45.8513 41.3457 45.7199 41.3854 45.5222C41.4032 45.3706 41.4893 45.3028 41.5782 45.3435C41.7108 45.4058 42.3247 44.967 42.4902 44.6149C42.5107 44.5702 42.951 44.2114 43.446 43.8512C43.9532 43.5235 44.4031 43.1429 44.4455 43.0549C44.6 42.7245 49.1764 39.9674 51.9767 38.4521C53.5232 37.641 57.4365 35.9428 60.6073 34.7322C65.9249 32.64 67.5889 32.1512 72.0068 31.2777C75.06 30.6562 75.3007 30.6061 76.0896 30.5966C76.5504 30.5952 77.3038 30.4896 77.8056 30.4002C78.8858 30.1768 81.5043 30.0766 81.6807 30.1592C81.7695 30.1998 81.0831 30.3379 80.1862 30.4043C79.2892 30.5248 78.1871 30.7374 77.7086 30.8376C77.2396 30.969 76.8253 31.0448 76.7774 30.9148C76.7542 30.8512 76.6448 30.8539 76.6038 30.9419C76.5409 31.0733 76.3658 31.1003 76.2113 31.0272C76.0773 30.9663 75.7287 31.0191 75.4128 31.1139C75.1311 31.2507 74.8686 31.2899 74.8249 31.2696C74.7565 31.1843 72.8901 31.5269 72.6535 31.684C72.5674 31.7517 72.0109 31.8424 71.5077 31.8763C69.7028 32.032 68.4394 32.3584 64.9719 33.5121C59.5148 35.3253 50.8774 39.1752 50.5246 39.9227C50.4617 40.0541 50.1049 40.2369 49.7781 40.3006C48.8073 40.5199 45.1538 42.9276 42.9551 44.7761C41.9132 45.6075 40.956 46.3158 40.8261 46.3632C40.6949 46.4092 40.6334 46.5419 40.6361 46.6502ZM48.4928 68.5133C48.0703 68.3169 47.913 68.191 48.1127 68.2289C48.3328 68.2776 48.6432 68.4225 48.8442 68.5688C49.0014 68.6947 48.8469 68.6771 48.4928 68.5133ZM69.3952 85.7274C69.5757 85.9184 69.6399 85.8953 69.6345 85.6773C69.6399 85.439 69.6399 85.439 69.7206 85.611C69.8327 85.7166 69.7944 85.9129 69.6646 85.959C69.4718 86.1377 69.2051 86.0145 69.1969 85.6895C69.1928 85.5812 69.2585 85.5568 69.3952 85.7274ZM68.4463 85.5026C68.665 85.4959 68.6445 85.5406 68.3656 85.787C67.9253 86.1459 67.8815 86.1256 68.0579 85.7504C68.1195 85.6191 68.2917 85.485 68.4463 85.5026ZM67.6532 86.609C67.7831 86.5616 68.1769 86.5304 68.5721 86.5521C69.6577 86.5453 68.732 86.7864 66.8383 86.9015C65.2946 87.0166 64.2444 87.1195 62.3124 87.431C61.384 87.5637 56.8075 88.6592 55.2734 89.1007C54.0441 89.469 53.6504 89.5001 54.4735 89.1318C56.0541 88.3626 62.8498 87.0369 66.022 86.7376C66.8109 86.7282 67.5425 86.6117 67.6532 86.609ZM63.4227 87.9456C63.2053 88.0051 63.0097 88.0756 62.9646 88.0539C62.9209 88.0336 63.0713 87.9428 63.223 87.8521C63.461 87.7478 63.6565 87.6788 63.7016 87.6991C63.7454 87.7194 63.6387 87.8304 63.4227 87.9456ZM67.3729 85.5406C67.6559 85.5121 67.7448 85.5527 67.6313 85.7951C67.5684 85.9265 67.4153 85.9089 67.3018 85.8033C67.1664 85.6326 67.1008 85.657 67.1281 85.829C67.1541 86.0023 67.1131 86.0903 67.068 86.07C66.8014 85.9468 66.9682 85.5947 67.3729 85.5406ZM63.1643 86.0294C63.4787 85.9346 63.7878 85.9698 63.8315 85.9901C63.8342 86.0985 64.1392 86.0267 64.5316 85.94C64.8789 85.7789 65.2617 85.7694 65.4094 85.9712C65.5667 86.0971 65.6323 86.0741 65.6159 85.8791C65.5899 85.7058 65.6542 85.6827 65.8347 85.8737C66.0151 86.0646 66.0808 86.0416 66.0548 85.8683C66.0274 85.6949 66.1368 85.6922 66.2736 85.8628C66.4759 86.0633 66.5416 86.0402 66.4923 85.8561C66.4664 85.6841 66.5074 85.5961 66.5525 85.6164C66.5963 85.6367 66.666 85.7762 66.6687 85.8845C66.6715 85.9928 66.1491 86.1256 65.5051 86.2298C64.8242 86.2366 63.919 86.3788 63.4145 86.414C62.4751 86.5142 62.2235 86.1296 63.1643 86.0294ZM55.6193 87.6801C59.2551 86.6848 60.1602 86.4871 60.3202 86.7214C60.4337 86.8825 60.4542 86.8378 60.4515 86.7295C60.4036 86.5467 60.621 86.4858 60.8849 86.5007C61.1269 86.5602 61.5426 86.4844 61.812 86.3138C62.0936 86.177 62.2673 86.1499 62.2946 86.3233C62.3233 86.6049 61.5727 86.8202 58.7368 87.3822C58.0176 87.5312 56.8294 87.8115 56.1963 87.9469C54.5979 88.4114 54.5979 88.4114 54.4639 88.3504C54.375 88.3085 53.9197 88.4723 53.3441 88.7161C52.7821 88.991 52.4006 89.1088 52.4526 88.9991C52.4936 88.9111 52.3186 88.8826 52.0684 88.9544C50.8254 89.2361 53.9758 88.1243 55.6193 87.6801ZM55.6918 97.4938C55.6467 97.4735 54.9056 97.6129 54.0688 97.8946C53.1759 98.1235 52.1859 98.4431 51.881 98.5162L51.2698 98.6069L51.84 98.6042C52.4321 98.6096 55.3773 98.0449 56.3796 97.8134C56.7159 97.6739 57.066 97.6211 57.1548 97.6631C57.9752 98.0436 49.387 99.5575 47.1583 99.4627C45.7526 99.4018 43.5102 98.764 43.0699 98.2657C42.709 97.8838 43.0795 97.7876 44.0544 98.1858C44.6301 98.3984 45.2905 98.4904 45.5298 98.4403C45.7786 98.3144 46.5019 98.2751 47.161 98.3117C47.8283 98.2724 48.5283 98.2223 48.6801 98.1316C49.2872 97.877 51.799 97.4857 51.8263 97.7132C51.866 97.9732 53.6025 97.6779 53.7379 97.3922C53.7994 97.2609 54.1672 97.0564 54.6034 96.99C54.9849 96.8722 55.2871 96.6908 55.2843 96.5824C55.3048 96.5377 55.458 96.5553 55.6822 96.7124C56.0842 97.0063 56.0842 97.0063 60.6757 95.2486C62.0977 94.7015 63.1971 94.3792 63.1355 94.5106C63.0316 94.7313 55.9133 97.5967 55.6918 97.4938ZM68.8059 88.7513C66.4964 91.4054 61.8872 93.7725 54.9247 95.8525C51.717 96.8587 47.5835 97.3015 44.9651 96.9453C43.6565 96.795 43.543 96.6894 43.8712 96.2249C44.9473 95.0346 47.9787 93.1428 51.5009 91.5869C52.7903 90.9775 54.0988 90.3248 54.4229 90.1C54.7347 89.8956 55.2775 89.6653 55.6248 89.5584L56.2688 89.4541L55.6959 89.752C55.3486 89.8576 54.8194 90.1759 54.4967 90.402L53.8924 90.7649L54.6553 90.6363C55.071 90.5604 55.4935 90.4088 55.5359 90.3208C55.5769 90.2327 56.0131 90.1122 56.5136 89.97C57.0044 89.9023 58.1379 89.6234 58.998 89.4053C61.6246 88.7729 65.2276 88.192 67.47 88.0254L69.5388 87.8846L68.8059 88.7513Z" fill="#FFD700"/>
<mask id="mask0_781_13672" style="mask-type:luminance" maskUnits="userSpaceOnUse" x="0" y="59" width="132" height="13">
<path d="M0.407654 59.1379H131.672V71.8779H0.407654V59.1379Z" fill="white"/>
</mask>
<g mask="url(#mask0_781_13672)">
<path d="M0.413025 59.1379H131.666V71.8779H0.413025V59.1379Z" fill="#464A4E"/>
</g>
<path d="M41.9033 67.6428C42.7305 67.6428 43.2665 67.242 43.2665 66.5879C43.2665 66.0354 42.8932 65.7037 41.9238 65.468C41.1882 65.2906 40.9448 65.0983 40.9448 64.7869C40.9448 64.428 41.2702 64.2032 41.8103 64.2032C42.3682 64.2032 42.7141 64.4822 42.725 64.9318H43.1954C43.1899 64.2032 42.6608 63.7537 41.8103 63.7537C40.9831 63.7537 40.458 64.1545 40.458 64.7869C40.458 65.3665 40.875 65.6874 41.8048 65.9068C42.4871 66.0679 42.7743 66.2562 42.7743 66.6042C42.7743 66.9739 42.4379 67.1932 41.9033 67.1932C41.3126 67.1932 40.9024 66.9035 40.8914 66.4214H40.4142C40.4197 67.1553 40.9995 67.6428 41.9033 67.6428Z" fill="white"/>
<path d="M46.7632 67.5737H47.2391V66.3414H48.0444C48.9004 66.3414 49.4514 65.8539 49.4514 65.0821C49.4514 64.3156 48.9004 63.8227 48.0444 63.8227H46.7632V67.5737ZM47.2391 65.9013V64.2723H48.0349C48.6461 64.2723 48.9646 64.5512 48.9646 65.0875C48.9646 65.6237 48.6461 65.9013 48.0349 65.9013H47.2391Z" fill="white"/>
<path d="M52.8406 67.5737H55.1992V67.135H53.3164V65.881H55.0037V65.4463H53.3164V64.2614H55.1391V63.8227H52.8406V67.5737Z" fill="white"/>
<path d="M58.7232 67.5737H59.199V66.229H60.0317L60.9574 67.5737H61.5303L60.5787 66.1803C61.1311 66.0462 61.4715 65.6346 61.4715 65.0279C61.4715 64.2831 60.952 63.8227 60.1671 63.8227H58.7232V67.5737ZM59.199 65.7781V64.2723H60.1138C60.6648 64.2723 60.9848 64.5512 60.9848 65.0279C60.9848 65.5059 60.6648 65.7781 60.1138 65.7781H59.199Z" fill="white"/>
<path d="M65.0278 67.5737H67.3864V67.135H65.5036V65.881H67.1909V65.4463H65.5036V64.2614H67.3263V63.8227H65.0278V67.5737Z" fill="white"/>
<path d="M70.9104 67.5737H71.3808V64.6365L73.4741 67.5737H73.9185V63.8227H73.4523V66.7599L71.3589 63.8227H70.9104V67.5737Z" fill="white"/>
<path d="M77.3771 67.5737H80.0763V67.1242H78.0102L80.0229 64.1707V63.8227H77.4305V64.2723H79.3898L77.3771 67.2257V67.5737Z" fill="white"/>
<path d="M83.0696 67.5737H83.5783L83.9242 66.722H85.7701L86.127 67.5737H86.6302L85.0714 63.8227H84.6284L83.0696 67.5737ZM84.1088 66.2819L84.8499 64.4822L85.591 66.2819H84.1088Z" fill="white"/>
</g>
<defs>
<clipPath id="clip0_781_13672">
<rect width="131.264" height="130" fill="white" transform="translate(0.407654 0.00012207)"/>
</clipPath>
</defs>
</svg>
