<svg width="130" height="130" viewBox="0 0 130 130" fill="none" xmlns="http://www.w3.org/2000/svg">
<g clip-path="url(#clip0_701_1912)">
<path d="M77.8011 88.5534C77.6427 88.3191 77.4139 87.8899 77.2107 87.5811C76.7435 86.7456 75.3339 85.9791 73.4976 85.5485C71.9579 85.2303 71.8713 85.1897 71.8049 84.7563C71.7534 84.4652 71.702 84.1185 71.7399 83.9222C71.8184 83.1814 70.3126 80.3864 69.1264 79.0824C66.3788 76.1357 62.7997 73.8174 53.5413 68.9776C52.2846 68.2829 51.2053 67.6695 51.1593 67.595C51.1159 67.5747 50.4538 67.1576 49.7252 66.7094C47.2349 65.3295 46.3615 64.7336 45.5219 64.1798C42.5535 61.9874 41.8778 61.4295 40.9204 60.5533C39.638 59.2845 38.4288 57.8599 38.0699 57.023C37.8871 56.6696 37.7869 55.7379 37.7544 54.8915C37.7327 54.0777 37.7056 53.4494 37.665 53.5374C37.623 53.6254 37.5594 54.1048 37.5499 54.5828C37.6108 55.6553 37.5025 55.658 37.3129 54.6315C37.2046 53.8312 37.451 52.4459 37.6934 52.5583C37.7815 52.6003 38.0279 52.0722 38.2622 51.4574C39.3821 48.2033 43.4229 44.4929 49.6941 40.9409C53.4695 38.7688 62.7604 34.835 66.2867 33.8844C67.3009 33.6081 68.433 33.3075 68.6903 33.214C69.0681 33.0949 69.5638 32.9527 69.9118 32.954C70.2368 32.9459 71.4366 32.7293 72.5172 32.5383C73.6317 32.3907 75.2418 32.0982 76.1734 31.998C77.0509 31.8991 78.0449 31.7218 78.3794 31.6364C81.8379 31.0027 90.2243 31.979 94.2922 33.4808C95.6734 33.9656 95.7845 34.0712 95.9619 34.6088C96.4209 35.9765 94.7824 38.1039 91.267 40.6931C86.0575 44.5538 80.8413 47.3394 75.6751 49.1038C74.1138 49.632 73.9418 49.659 72.5023 49.4681C71.423 49.3124 70.4778 49.6726 70.4372 50.217C70.249 51.7093 71.4054 53.1894 72.8652 53.3898C73.3107 53.3559 73.8131 53.4846 73.9892 53.5672C75.086 54.0276 79.4668 52.5123 82.6843 50.5596C83.7229 50.0016 84.9525 49.2636 85.4657 48.9671C88.0021 47.5005 91.3266 45.4923 93.1804 44.1083C93.3497 43.9729 93.9388 43.6316 94.429 43.2714C94.9747 42.964 95.5285 42.5808 95.6762 42.3818C95.8332 42.1597 96.406 41.6234 97.01 41.0763C98.2613 39.8928 99.2132 38.0863 99.1713 36.915C99.1929 36.0673 98.5768 34.5195 97.8184 33.3346C96.5631 31.4333 91.4146 28.8645 88.2675 28.5449C87.5715 28.4866 86.9377 28.3512 86.8064 28.2889C86.652 28.2172 85.5185 28.0628 84.3106 27.9531C79.7051 27.4859 73.5193 28.0493 68.4831 29.4183C67.3944 29.7406 65.9806 30.0697 65.3333 30.1956C63.5716 30.5247 52.6638 34.9352 50.2885 36.2894C50.0746 36.4031 49.5289 36.7105 49.0359 36.9624C48.5864 37.2346 48.1517 37.5934 48.0894 37.7261C48.0488 37.8141 47.6831 37.9645 47.3703 38.0593C47.025 38.1121 46.7664 38.2055 46.8341 38.2908C46.8598 38.4641 44.0729 40.295 43.4486 40.4859C43.1575 40.5902 43.0289 40.6376 43.1372 40.6349C43.2685 40.6416 42.387 41.4365 41.1642 42.3912C39.9617 43.3568 38.7741 44.4618 38.4572 44.7962C37.5838 45.862 36.3921 48.0638 35.8965 49.4668C35.432 50.8047 35.1855 52.993 35.4929 53.1379C35.5809 53.1785 35.5403 53.2665 35.455 53.3343C35.2194 53.4913 35.604 55.7081 36.0779 56.8145C36.6047 58.2661 37.776 60.3421 38.338 61.034C41.0992 64.4696 45.0344 67.5706 50.772 70.6568C51.8946 71.235 53.0429 71.9324 53.3977 72.2059C53.7295 72.4686 55.6036 73.5059 57.6254 74.4525C63.122 77.024 67.045 79.6362 68.8731 81.8584C69.1426 82.1983 69.4676 82.5924 69.6003 82.6533C69.9077 82.7969 70.1081 83.8017 69.9416 84.5018C69.8373 85.0691 69.729 85.0719 66.8744 85.1572C61.8856 85.3955 58.7738 85.9764 53.3463 87.7247C49.5099 88.8784 46.5185 90.3463 43.9158 92.1298C43.4148 92.5117 43.1372 92.6498 43.2184 92.4737C43.5786 91.7046 42.9923 92.1 42.2908 93.1386C40.5223 95.6614 40.3936 96.9669 41.7749 98.7124C42.7296 99.9365 45.0371 100.559 47.5816 100.276C51.0022 99.8946 57.5428 98.344 57.769 97.8606C57.8109 97.7726 58.5273 97.3853 59.3344 97.0928C62.086 96.0217 65.7436 94.2761 66.8446 93.5842C68.2001 92.6918 70.0052 90.6673 70.9098 89.1344L71.6356 87.8127L72.765 87.8587C73.396 87.8858 74.5864 88.1485 75.3772 88.464C76.7368 88.9935 76.8248 89.0341 77.0049 89.6814C77.1931 90.2529 77.2161 90.3165 77.5601 90.1554C78.0124 89.9915 78.1722 89.0761 77.8011 88.5534ZM45.4257 43.0182C45.1739 43.3283 45.0208 43.3107 45.1441 43.048C45.1847 42.96 45.335 42.8693 45.4203 42.8015C45.572 42.8191 45.5977 42.9383 45.4257 43.0182ZM59.6851 35.5662C59.2924 35.9454 56.626 36.9488 56.729 36.7295C56.7696 36.6414 57.5103 36.3178 58.423 35.9143C59.3493 35.5974 59.9194 35.4078 59.6851 35.5662ZM66.9055 33.0218C66.7119 33.0922 66.5074 33.1843 66.4641 33.1639C66.4194 33.1423 66.5358 33.0096 66.7295 32.9391C66.9231 32.8687 67.1168 32.7983 67.1601 32.82C67.2048 32.8403 67.0992 32.9513 66.9055 33.0218ZM39.8411 46.6501C39.8439 46.7584 39.5432 47.2879 39.1641 47.7537C38.7307 48.2209 38.1186 49.3002 37.6934 50.0937C37.3129 50.9076 37.015 51.5454 36.9486 51.5143C36.9053 51.4939 36.9893 50.9699 37.1044 50.3808C37.6596 47.9338 39.7585 44.7082 42.1703 42.7013C48.1368 37.8548 59.3276 32.6656 68.6091 30.4691C72.1908 29.5713 79.4668 28.7954 79.2108 29.3452C79.1689 29.4332 79.0402 29.4806 78.9522 29.4386C78.8195 29.3777 77.445 29.5104 76.5607 29.7406C76.4077 29.723 74.8409 30.0345 73.0358 30.3419C71.2524 30.6601 69.3511 31.0569 68.8555 31.2004C68.3599 31.3439 67.8318 31.4983 67.6788 31.4807C66.7864 31.3846 55.3477 35.7883 51.8661 37.6164C47.0331 40.0986 41.9848 43.4989 40.2961 45.3352C38.923 46.837 37.8573 48.4281 37.7855 49.0375C37.795 49.3638 37.9006 49.2528 38.1877 48.6366C38.6305 47.6914 40.0686 45.8186 40.3747 45.8538C40.483 45.8511 40.544 45.7198 40.5832 45.5221C40.6008 45.3704 40.6861 45.3027 40.7742 45.3433C40.9055 45.4056 41.5135 44.9669 41.6774 44.6148C41.6977 44.5701 42.1338 44.2112 42.624 43.851C43.1264 43.5233 43.5719 43.1428 43.6139 43.0548C43.7669 42.7244 48.2993 39.9673 51.0726 38.452C52.6042 37.6408 56.4798 35.9427 59.6201 34.7321C64.8865 32.6399 66.5345 32.151 70.9098 31.2776C73.9336 30.656 74.172 30.6059 74.9533 30.5964C75.4097 30.5951 76.1558 30.4895 76.6528 30.4001C77.7226 30.1766 80.3158 30.0764 80.4905 30.159C80.5785 30.1997 79.8988 30.3378 79.0104 30.4041C78.1221 30.5247 77.0306 30.7373 76.5567 30.8375C76.0922 30.9688 75.6819 31.0447 75.6345 30.9147C75.6115 30.851 75.5031 30.8537 75.4625 30.9418C75.4002 31.0731 75.2269 31.1002 75.0739 31.0271C74.9411 30.9661 74.5958 31.0189 74.283 31.1137C74.0041 31.2505 73.7441 31.2898 73.7007 31.2695C73.633 31.1841 71.7846 31.5268 71.5503 31.6838C71.465 31.7515 70.9139 31.8423 70.4155 31.8761C68.628 32.0319 67.3768 32.3582 63.9426 33.512C58.5381 35.3252 49.9839 39.1751 49.6345 39.9226C49.5722 40.0539 49.2188 40.2368 48.8951 40.3004C47.9336 40.5198 44.3153 42.9275 42.1378 44.7759C41.1059 45.6074 40.158 46.3156 40.0294 46.363C39.8994 46.409 39.8384 46.5418 39.8411 46.6501ZM47.6222 68.5131C47.2038 68.3168 47.048 68.1908 47.2457 68.2287C47.4638 68.2775 47.7711 68.4224 47.9702 68.5686C48.1259 68.6946 47.9729 68.677 47.6222 68.5131ZM68.3233 85.7273C68.5021 85.9182 68.5657 85.8952 68.5603 85.6772C68.5657 85.4388 68.5657 85.4388 68.6456 85.6108C68.7567 85.7164 68.7188 85.9128 68.5901 85.9588C68.3992 86.1376 68.1351 86.0144 68.127 85.6894C68.1229 85.581 68.1879 85.5566 68.3233 85.7273ZM67.3835 85.5025C67.6002 85.4957 67.5799 85.5404 67.3036 85.7869C66.8676 86.1457 66.8243 86.1254 66.999 85.7503C67.0599 85.6189 67.2305 85.4849 67.3835 85.5025ZM66.5981 86.6088C66.7268 86.5614 67.1168 86.5303 67.5081 86.552C68.5833 86.5452 67.6666 86.7862 65.791 86.9013C64.2622 87.0164 63.2222 87.1194 61.3088 87.4308C60.3893 87.5635 55.8569 88.659 54.3375 89.1005C53.1201 89.4688 52.7301 89.5 53.5453 89.1316C55.1107 88.3625 61.8409 87.0368 64.9826 86.7375C65.764 86.728 66.4884 86.6115 66.5981 86.6088ZM62.4083 87.9454C62.193 88.005 61.9994 88.0754 61.9547 88.0537C61.9114 88.0334 62.0603 87.9427 62.2106 87.852C62.4463 87.7477 62.6399 87.6786 62.6846 87.6989C62.7279 87.7193 62.6223 87.8303 62.4083 87.9454ZM66.3205 85.5404C66.6008 85.512 66.6889 85.5526 66.5765 85.795C66.5142 85.9263 66.3625 85.9087 66.2501 85.8031C66.116 85.6325 66.051 85.6569 66.0781 85.8288C66.1039 86.0022 66.0632 86.0902 66.0185 86.0699C65.7545 85.9466 65.9197 85.5946 66.3205 85.5404ZM62.1524 86.0293C62.4639 85.9345 62.7699 85.9697 62.8132 85.99C62.8159 86.0983 63.1179 86.0265 63.5066 85.9399C63.8505 85.7787 64.2297 85.7693 64.3759 85.971C64.5317 86.097 64.5967 86.0739 64.5804 85.8789C64.5547 85.7056 64.6183 85.6826 64.7971 85.8735C64.9758 86.0645 65.0408 86.0414 65.0151 85.8681C64.988 85.6948 65.0964 85.6921 65.2318 85.8627C65.4322 86.0631 65.4972 86.0401 65.4484 85.8559C65.4227 85.6839 65.4633 85.5959 65.508 85.6162C65.5514 85.6365 65.6204 85.776 65.6231 85.8844C65.6258 85.9927 65.1085 86.1254 64.4707 86.2297C63.7964 86.2364 62.8999 86.3786 62.4002 86.4138C61.4699 86.514 61.2207 86.1295 62.1524 86.0293ZM54.6801 87.68C58.2808 86.6847 59.1773 86.487 59.3357 86.7212C59.4481 86.8824 59.4684 86.8377 59.4657 86.7294C59.4183 86.5465 59.6336 86.4856 59.895 86.5005C60.1347 86.5601 60.5464 86.4843 60.8131 86.3136C61.0921 86.1769 61.2641 86.1498 61.2911 86.3231C61.3196 86.6048 60.5761 86.8201 57.7676 87.3821C57.0553 87.531 55.8785 87.8113 55.2516 87.9468C53.6685 88.4112 53.6685 88.4112 53.5358 88.3503C53.4478 88.3083 52.9969 88.4722 52.4268 88.7159C51.8702 88.9908 51.4924 89.1086 51.5439 88.9989C51.5845 88.9109 51.4111 88.8825 51.1633 88.9543C49.9324 89.2359 53.0524 88.1241 54.6801 87.68ZM54.7519 97.4936C54.7072 97.4733 53.9732 97.6128 53.1445 97.8945C52.2602 98.1233 51.2798 98.4429 50.9778 98.516L50.3725 98.6068L50.9372 98.604C51.5235 98.6095 54.4404 98.0448 55.433 97.8132C55.7661 97.6737 56.1128 97.6209 56.2008 97.6629C57.0133 98.0434 48.5078 99.5574 46.3005 99.4626C44.9084 99.4016 42.6876 98.7638 42.2516 98.2655C41.8941 97.8836 42.261 97.7875 43.2266 98.1856C43.7967 98.3982 44.4507 98.4903 44.6877 98.4402C44.9342 98.3143 45.6505 98.275 46.3032 98.3115C46.9641 98.2723 47.6574 98.2222 47.8077 98.1314C48.409 97.8769 50.8966 97.4855 50.9236 97.713C50.9629 97.973 52.6827 97.6778 52.8168 97.3921C52.8777 97.2607 53.242 97.0562 53.674 96.9899C54.0518 96.8721 54.351 96.6906 54.3483 96.5823C54.3686 96.5376 54.5203 96.5552 54.7424 96.7123C55.1405 97.0061 55.1405 97.0061 59.6878 95.2484C61.0961 94.7013 62.1849 94.379 62.124 94.5104C62.021 94.7311 54.9713 97.5965 54.7519 97.4936ZM67.7397 88.7511C65.4525 91.4053 60.8876 93.7724 53.9922 95.8524C50.8153 96.8585 46.7217 97.3013 44.1284 96.9452C42.8325 96.7949 42.7201 96.6893 43.0451 96.2248C44.1108 95.0345 47.113 93.1427 50.6014 91.5868C51.8783 90.9774 53.1743 90.3247 53.4952 90.0999C53.804 89.8954 54.3416 89.6652 54.6855 89.5582L55.3233 89.4539L54.7559 89.7519C54.412 89.8575 53.8879 90.1757 53.5683 90.4019L52.9698 90.7648L53.7254 90.6361C54.1371 90.5603 54.5555 90.4086 54.5975 90.3206C54.6381 90.2326 55.0701 90.1121 55.5657 89.9699C56.0519 89.9022 57.1745 89.6232 58.0263 89.4052C60.6276 88.7728 64.1958 88.1919 66.4167 88.0253L68.4655 87.8845L67.7397 88.7511Z" fill="#FFD700"/>
<mask id="mask0_701_1912" style="mask-type:luminance" maskUnits="userSpaceOnUse" x="0" y="59" width="130" height="13">
<path d="M0 59.1378H130V71.8778H0V59.1378Z" fill="white"/>
</mask>
<g mask="url(#mask0_701_1912)">
<path d="M0.00537109 59.1378H129.995V71.8778H0.00537109V59.1378Z" fill="#464A4E"/>
</g>
<path d="M41.096 67.6427C41.9153 67.6427 42.4461 67.2419 42.4461 66.5878C42.4461 66.0353 42.0764 65.7035 41.1163 65.4679C40.3878 65.2905 40.1468 65.0982 40.1468 64.7868C40.1468 64.4279 40.469 64.2031 41.0039 64.2031C41.5564 64.2031 41.899 64.4821 41.9099 64.9317H42.3757C42.3703 64.2031 41.8462 63.7535 41.0039 63.7535C40.1847 63.7535 39.6647 64.1544 39.6647 64.7868C39.6647 65.3664 40.0777 65.6873 40.9985 65.9067C41.6743 66.0678 41.9586 66.256 41.9586 66.6041C41.9586 66.9737 41.6255 67.1931 41.096 67.1931C40.511 67.1931 40.1048 66.9033 40.0939 66.4212H39.6213C39.6268 67.1552 40.2009 67.6427 41.096 67.6427Z" fill="white"/>
<path d="M45.9092 67.5736H46.3804V66.3414H47.178C48.0257 66.3414 48.5715 65.8539 48.5715 65.082C48.5715 64.3155 48.0257 63.8226 47.178 63.8226H45.9092V67.5736ZM46.3804 65.9012V64.2722H47.1686C47.7739 64.2722 48.0894 64.5511 48.0894 65.0874C48.0894 65.6236 47.7739 65.9012 47.1686 65.9012H46.3804Z" fill="white"/>
<path d="M51.928 67.5736H54.2639V67.1349H52.3992V65.8809H54.0703V65.4462H52.3992V64.2614H54.2043V63.8226H51.928V67.5736Z" fill="white"/>
<path d="M57.7539 67.5736H58.2252V66.229H59.0498L59.9666 67.5736H60.534L59.5915 66.1802C60.1386 66.0461 60.4758 65.6345 60.4758 65.0278C60.4758 64.283 59.9612 63.8226 59.1839 63.8226H57.7539V67.5736ZM58.2252 65.778V64.2722H59.1311C59.6768 64.2722 59.9937 64.5511 59.9937 65.0278C59.9937 65.5058 59.6768 65.778 59.1311 65.778H58.2252Z" fill="white"/>
<path d="M63.998 67.5736H66.334V67.1349H64.4693V65.8809H66.1403V65.4462H64.4693V64.2614H66.2744V63.8226H63.998V67.5736Z" fill="white"/>
<path d="M69.824 67.5736H70.2898V64.6365L72.363 67.5736H72.8031V63.8226H72.3414V66.7598L70.2681 63.8226H69.824V67.5736Z" fill="white"/>
<path d="M76.2285 67.5736H78.9016V67.1241H76.8555L78.8488 64.1706V63.8226H76.2813V64.2722H78.2218L76.2285 67.2256V67.5736Z" fill="white"/>
<path d="M81.8662 67.5736H82.37L82.7126 66.7219H84.5407L84.8941 67.5736H85.3925L83.8487 63.8226H83.41L81.8662 67.5736ZM82.8954 66.2818L83.6293 64.4821L84.3633 66.2818H82.8954Z" fill="white"/>
</g>
<defs>
<clipPath id="clip0_701_1912">
<rect width="130" height="130" fill="white"/>
</clipPath>
</defs>
</svg>
