<svg width="132" height="130" viewBox="0 0 132 130" fill="none" xmlns="http://www.w3.org/2000/svg">
<g clip-path="url(#clip0_701_2032)">
<path d="M78.6657 88.5534C78.5057 88.3191 78.2747 87.8898 78.0695 87.5811C77.5978 86.7456 76.1744 85.9791 74.3203 85.5485C72.7657 85.2303 72.6782 85.1896 72.6112 84.7563C72.5592 84.4652 72.5072 84.1185 72.5455 83.9221C72.6248 83.1814 71.1044 80.3864 69.9066 79.0823C67.1323 76.1357 63.5184 73.8173 54.17 68.9776C52.9011 68.2829 51.8113 67.6694 51.7648 67.595C51.7211 67.5746 51.0524 67.1576 50.3168 66.7093C47.8023 65.3294 46.9204 64.7336 46.0726 64.1797C43.0754 61.9874 42.3931 61.4294 41.4264 60.5533C40.1316 59.2844 38.9105 57.8598 38.5482 57.023C38.3636 56.6695 38.2624 55.7379 38.2296 54.8915C38.2077 54.0777 38.1804 53.4493 38.1393 53.5373C38.097 53.6254 38.0327 54.1047 38.0231 54.5828C38.0847 55.6553 37.9753 55.658 37.7838 54.6315C37.6745 53.8312 37.9233 52.4459 38.1681 52.5583C38.2569 52.6003 38.5058 52.0721 38.7423 51.4573C39.8731 48.2033 43.9532 44.4929 50.2854 40.9409C54.0975 38.7688 63.4787 34.8349 67.0393 33.8843C68.0634 33.6081 69.2065 33.3074 69.4663 33.214C69.8478 33.0948 70.3482 32.9527 70.6996 32.954C71.0278 32.9459 72.2392 32.7292 73.3304 32.5383C74.4557 32.3907 76.0814 32.0982 77.0222 31.998C77.9082 31.8991 78.9118 31.7217 79.2496 31.6364C82.7417 31.0027 91.2096 31.979 95.3171 33.4808C96.7118 33.9656 96.8239 34.0712 97.003 34.6088C97.4665 35.9765 95.8121 38.1039 92.2625 40.6931C87.0023 44.5538 81.7354 47.3393 76.519 49.1038C74.9425 49.6319 74.7688 49.659 73.3153 49.4681C72.2256 49.3123 71.2712 49.6726 71.2302 50.2169C71.0401 51.7092 72.2078 53.1893 73.6818 53.3897C74.1316 53.3559 74.6389 53.4845 74.8167 53.5671C75.9242 54.0276 80.3475 52.5122 83.5963 50.5595C84.6451 50.0016 85.8866 49.2636 86.4048 48.967C88.9658 47.5005 92.3226 45.4922 94.1945 44.1083C94.3654 43.9729 94.9602 43.6316 95.4552 43.2714C96.0062 42.964 96.5655 42.5808 96.7145 42.3817C96.8731 42.1596 97.4515 41.6234 98.0613 41.0763C99.3247 39.8928 100.286 38.0863 100.244 36.915C100.265 36.0672 99.6433 34.5194 98.8776 33.3345C97.6101 31.4333 92.4115 28.8644 89.2338 28.5448C88.531 28.4866 87.8911 28.3512 87.7585 28.2889C87.6026 28.2171 86.4581 28.0628 85.2385 27.9531C80.5882 27.4859 74.3422 28.0492 69.2571 29.4183C68.1578 29.7406 66.7303 30.0696 66.0767 30.1956C64.2978 30.5246 53.2839 34.9352 50.8856 36.2893C50.6696 36.4031 50.1185 36.7105 49.6208 36.9623C49.1669 37.2345 48.728 37.5934 48.6651 37.7261C48.6241 37.8141 48.2549 37.9644 47.939 38.0592C47.5903 38.112 47.3292 38.2055 47.3976 38.2908C47.4235 38.4641 44.6096 40.295 43.9792 40.4859C43.6852 40.5902 43.5554 40.6376 43.6647 40.6348C43.7974 40.6416 42.9072 41.4365 41.6725 42.3912C40.4583 43.3567 39.2592 44.4617 38.9392 44.7962C38.0573 45.8619 36.8541 48.0638 36.3536 49.4667C35.8846 50.8046 35.6358 52.993 35.9461 53.1379C36.035 53.1785 35.994 53.2665 35.9079 53.3342C35.6699 53.4913 36.0583 55.7081 36.5368 56.8144C37.0687 58.2661 38.2515 60.342 38.8189 61.034C41.6069 64.4695 45.5804 67.5706 51.3738 70.6567C52.5073 71.235 53.6668 71.9323 54.025 72.2059C54.36 72.4686 56.2524 73.5059 58.2938 74.4524C63.8438 77.024 67.805 79.6362 69.6509 81.8584C69.923 82.1983 70.2511 82.5924 70.3851 82.6533C70.6955 82.7968 70.8979 83.8016 70.7297 84.5017C70.6244 85.0691 70.515 85.0718 67.6327 85.1571C62.5955 85.3955 59.4533 85.9764 53.9731 87.7246C50.0994 88.8784 47.079 90.3463 44.451 92.1297C43.945 92.5116 43.6647 92.6497 43.7468 92.4737C44.1105 91.7045 43.5184 92.1 42.8102 93.1386C41.0244 95.6614 40.8945 96.9668 42.2892 98.7123C43.2532 99.9365 45.5831 100.559 48.1523 100.276C51.6062 99.8945 58.2104 98.344 58.4388 97.8606C58.4811 97.7726 59.2045 97.3853 60.0194 97.0928C62.7978 96.0216 66.491 94.2761 67.6026 93.5841C68.9713 92.6917 70.794 90.6672 71.7074 89.1343L72.4402 87.8127L73.5806 87.8587C74.2178 87.8858 75.4197 88.1485 76.2182 88.464C77.591 88.9935 77.6799 89.0341 77.8617 89.6814C78.0518 90.2529 78.075 90.3165 78.4223 90.1554C78.879 89.9915 79.0404 89.0761 78.6657 88.5534ZM45.9755 43.0182C45.7212 43.3283 45.5667 43.3107 45.6911 43.048C45.7321 42.96 45.8839 42.8692 45.9701 42.8015C46.1232 42.8191 46.1492 42.9383 45.9755 43.0182ZM60.3735 35.5662C59.977 35.9454 57.2847 36.9488 57.3887 36.7294C57.4297 36.6414 58.1776 36.3178 59.0992 35.9142C60.0344 35.5973 60.6101 35.4078 60.3735 35.5662ZM67.6642 33.0217C67.4686 33.0921 67.2622 33.1842 67.2184 33.1639C67.1733 33.1422 67.2909 33.0095 67.4864 32.9391C67.6819 32.8687 67.8775 32.7983 67.9212 32.8199C67.9663 32.8403 67.8597 32.9513 67.6642 33.0217ZM40.3367 46.6501C40.3394 46.7584 40.0358 47.2879 39.653 47.7537C39.2154 48.2209 38.5974 49.3002 38.1681 50.0937C37.7838 50.9076 37.483 51.5454 37.416 51.5142C37.3723 51.4939 37.4571 50.9698 37.5733 50.3808C38.1339 47.9338 40.2532 44.7082 42.6885 42.7013C48.7129 37.8547 60.0126 32.6656 69.3843 30.4691C73.0009 29.5713 80.3475 28.7954 80.0891 29.3452C80.0467 29.4332 79.9168 29.4806 79.8279 29.4386C79.6939 29.3777 78.3061 29.5104 77.4132 29.7406C77.2587 29.723 75.6767 30.0344 73.8541 30.3418C72.0533 30.6601 70.1336 31.0568 69.6331 31.2004C69.1327 31.3439 68.5994 31.4983 68.4449 31.4807C67.5438 31.3845 55.994 35.7883 52.4786 37.6164C47.5986 40.0986 42.5011 43.4989 40.7961 45.3352C39.4096 46.8369 38.3335 48.4281 38.261 49.0375C38.2706 49.3638 38.3773 49.2528 38.6671 48.6366C39.1143 47.6914 40.5664 45.8186 40.8754 45.8538C40.9848 45.8511 41.0463 45.7197 41.0859 45.522C41.1037 45.3704 41.1899 45.3027 41.2787 45.3433C41.4114 45.4056 42.0253 44.9668 42.1908 44.6147C42.2113 44.5701 42.6515 44.2112 43.1465 43.851C43.6538 43.5233 44.1037 43.1428 44.146 43.0547C44.3005 42.7243 48.877 39.9672 51.6773 38.4519C53.2238 37.6408 57.1371 35.9427 60.3079 34.732C65.6255 32.6398 67.2895 32.151 71.7074 31.2776C74.7606 30.656 75.0013 30.6059 75.7902 30.5964C76.251 30.5951 77.0044 30.4894 77.5062 30.4001C78.5864 30.1766 81.2048 30.0764 81.3812 30.159C81.4701 30.1996 80.7837 30.3378 79.8867 30.4041C78.9898 30.5246 77.8877 30.7372 77.4091 30.8374C76.9401 30.9688 76.5258 31.0446 76.478 30.9146C76.4547 30.851 76.3453 30.8537 76.3043 30.9417C76.2414 31.0731 76.0664 31.1002 75.9119 31.027C75.7779 30.9661 75.4292 31.0189 75.1134 31.1137C74.8317 31.2505 74.5692 31.2897 74.5254 31.2694C74.4571 31.1841 72.5906 31.5267 72.3541 31.6838C72.268 31.7515 71.7115 31.8422 71.2083 31.8761C69.4034 32.0318 68.14 32.3582 64.6724 33.5119C59.2154 35.3252 50.578 39.1751 50.2252 39.9226C50.1623 40.0539 49.8054 40.2367 49.4786 40.3004C48.5078 40.5197 44.8543 42.9275 42.6556 44.7759C41.6137 45.6073 40.6566 46.3156 40.5267 46.363C40.3954 46.409 40.3339 46.5417 40.3367 46.6501ZM48.1933 68.5131C47.7708 68.3167 47.6136 68.1908 47.8132 68.2287C48.0334 68.2775 48.3437 68.4223 48.5447 68.5686C48.702 68.6945 48.5475 68.6769 48.1933 68.5131ZM69.0957 85.7272C69.2762 85.9182 69.3405 85.8952 69.335 85.6771C69.3405 85.4388 69.3405 85.4388 69.4212 85.6108C69.5333 85.7164 69.495 85.9128 69.3651 85.9588C69.1723 86.1376 68.9057 86.0143 68.8975 85.6893C68.8934 85.581 68.959 85.5566 69.0957 85.7272ZM68.1468 85.5025C68.3656 85.4957 68.3451 85.5404 68.0661 85.7868C67.6259 86.1457 67.5821 86.1254 67.7585 85.7503C67.82 85.6189 67.9923 85.4848 68.1468 85.5025ZM67.3538 86.6088C67.4837 86.5614 67.8775 86.5303 68.2726 86.5519C69.3583 86.5452 68.4326 86.7862 66.5388 86.9013C64.9951 87.0164 63.945 87.1193 62.013 87.4308C61.0845 87.5635 56.5081 88.659 54.9739 89.1005C53.7447 89.4688 53.3509 89.5 54.1741 89.1316C55.7547 88.3625 62.5503 87.0367 65.7225 86.7375C66.5115 86.728 67.243 86.6115 67.3538 86.6088ZM63.1232 87.9454C62.9058 88.005 62.7103 88.0754 62.6652 88.0537C62.6214 88.0334 62.7718 87.9427 62.9236 87.8519C63.1615 87.7477 63.3571 87.6786 63.4022 87.6989C63.4459 87.7192 63.3393 87.8303 63.1232 87.9454ZM67.0735 85.5404C67.3565 85.5119 67.4454 85.5526 67.3319 85.795C67.269 85.9263 67.1159 85.9087 67.0024 85.8031C66.867 85.6325 66.8014 85.6568 66.8287 85.8288C66.8547 86.0021 66.8137 86.0902 66.7685 86.0698C66.5019 85.9466 66.6687 85.5945 67.0735 85.5404ZM62.8648 86.0292C63.1793 85.9344 63.4883 85.9696 63.5321 85.99C63.5348 86.0983 63.8397 86.0265 64.2321 85.9398C64.5795 85.7787 64.9623 85.7692 65.11 85.971C65.2672 86.0969 65.3328 86.0739 65.3164 85.8789C65.2905 85.7056 65.3547 85.6826 65.5352 85.8735C65.7157 86.0644 65.7813 86.0414 65.7554 85.8681C65.728 85.6947 65.8374 85.692 65.9741 85.8627C66.1765 86.0631 66.2421 86.0401 66.1929 85.8559C66.1669 85.6839 66.2079 85.5959 66.2531 85.6162C66.2968 85.6365 66.3666 85.776 66.3693 85.8843C66.372 85.9927 65.8497 86.1254 65.2057 86.2296C64.5248 86.2364 63.6196 86.3786 63.115 86.4138C62.1757 86.514 61.9241 86.1294 62.8648 86.0292ZM55.3199 87.68C58.9556 86.6846 59.8608 86.4869 60.0208 86.7212C60.1343 86.8823 60.1548 86.8377 60.152 86.7293C60.1042 86.5465 60.3216 86.4856 60.5855 86.5005C60.8275 86.5601 61.2432 86.4842 61.5125 86.3136C61.7942 86.1768 61.9678 86.1497 61.9952 86.3231C62.0239 86.6047 61.2732 86.8201 58.4374 87.382C57.7182 87.531 56.53 87.8113 55.8969 87.9467C54.2985 88.4112 54.2985 88.4112 54.1645 88.3503C54.0756 88.3083 53.6203 88.4721 53.0446 88.7159C52.4827 88.9908 52.1012 89.1086 52.1531 88.9989C52.1942 88.9109 52.0191 88.8825 51.7689 88.9542C50.526 89.2359 53.6763 88.1241 55.3199 87.68ZM55.3923 97.4936C55.3472 97.4733 54.6061 97.6128 53.7693 97.8944C52.8765 98.1233 51.8865 98.4429 51.5816 98.516L50.9704 98.6067L51.5406 98.604C52.1326 98.6094 55.0779 98.0447 56.0801 97.8132C56.4165 97.6737 56.7665 97.6209 56.8554 97.6629C57.6758 98.0434 49.0876 99.5574 46.8588 99.4626C45.4532 99.4016 43.2108 98.7638 42.7705 98.2655C42.4095 97.8836 42.7801 97.7875 43.755 98.1856C44.3306 98.3982 44.9911 98.4903 45.2303 98.4402C45.4792 98.3142 46.2025 98.275 46.8616 98.3115C47.5288 98.2722 48.2289 98.2221 48.3807 98.1314C48.9878 97.8768 51.4996 97.4855 51.5269 97.713C51.5666 97.973 53.3031 97.6778 53.4384 97.392C53.5 97.2607 53.8678 97.0562 54.3039 96.9899C54.6854 96.872 54.9876 96.6906 54.9849 96.5822C55.0054 96.5376 55.1585 96.5552 55.3828 96.7122C55.7848 97.0061 55.7848 97.0061 60.3763 95.2484C61.7983 94.7013 62.8976 94.379 62.8361 94.5104C62.7322 94.7311 55.6139 97.5965 55.3923 97.4936ZM68.5064 88.7511C66.197 91.4053 61.5877 93.7723 54.6253 95.8523C51.4175 96.8585 47.2841 97.3013 44.6656 96.9452C43.3571 96.7948 43.2436 96.6892 43.5718 96.2247C44.6479 95.0344 47.6792 93.1427 51.2015 91.5867C52.4909 90.9773 53.7994 90.3246 54.1235 90.0998C54.4352 89.8954 54.978 89.6652 55.3253 89.5582L55.9694 89.4539L55.3964 89.7518C55.0491 89.8575 54.52 90.1757 54.1973 90.4018L53.5929 90.7647L54.3559 90.6361C54.7716 90.5603 55.1941 90.4086 55.2365 90.3206C55.2775 90.2326 55.7137 90.112 56.2141 89.9698C56.705 89.9021 57.8385 89.6232 58.6986 89.4052C61.3252 88.7728 64.9281 88.1918 67.1705 88.0253L69.2393 87.8844L68.5064 88.7511Z" fill="#FFD700"/>
<mask id="mask0_701_2032" style="mask-type:luminance" maskUnits="userSpaceOnUse" x="0" y="59" width="132" height="13">
<path d="M0.108398 59.1377H131.372V71.8777H0.108398V59.1377Z" fill="white"/>
</mask>
<g mask="url(#mask0_701_2032)">
<path d="M0.11377 59.1377H131.367V71.8777H0.11377V59.1377Z" fill="#464A4E"/>
</g>
<path d="M41.6038 67.6426C42.431 67.6426 42.967 67.2418 42.967 66.5877C42.967 66.0352 42.5937 65.7034 41.6243 65.4678C40.8887 65.2904 40.6453 65.0981 40.6453 64.7866C40.6453 64.4278 40.9707 64.203 41.5108 64.203C42.0687 64.203 42.4146 64.482 42.4255 64.9315H42.8959C42.8904 64.203 42.3613 63.7534 41.5108 63.7534C40.6836 63.7534 40.1585 64.1543 40.1585 64.7866C40.1585 65.3662 40.5755 65.6872 41.5053 65.9065C42.1876 66.0677 42.4748 66.2559 42.4748 66.6039C42.4748 66.9736 42.1384 67.193 41.6038 67.193C41.0131 67.193 40.6029 66.9032 40.5919 66.4211H40.1147C40.1202 67.1551 40.7 67.6426 41.6038 67.6426Z" fill="white"/>
<path d="M46.4639 67.5736H46.9397V66.3413H47.7451C48.601 66.3413 49.152 65.8538 49.152 65.0819C49.152 64.3154 48.601 63.8225 47.7451 63.8225H46.4639V67.5736ZM46.9397 65.9012V64.2721H47.7355C48.3467 64.2721 48.6653 64.5511 48.6653 65.0873C48.6653 65.6236 48.3467 65.9012 47.7355 65.9012H46.9397Z" fill="white"/>
<path d="M52.5415 67.5736H54.9002V67.1348H53.0173V65.8808H54.7046V65.4462H53.0173V64.2613H54.84V63.8225H52.5415V67.5736Z" fill="white"/>
<path d="M58.4238 67.5736H58.8997V66.2289H59.7324L60.658 67.5736H61.231L60.2793 66.1801C60.8317 66.0461 61.1722 65.6344 61.1722 65.0277C61.1722 64.2829 60.6526 63.8225 59.8677 63.8225H58.4238V67.5736ZM58.8997 65.7779V64.2721H59.8144C60.3654 64.2721 60.6854 64.5511 60.6854 65.0277C60.6854 65.5057 60.3654 65.7779 59.8144 65.7779H58.8997Z" fill="white"/>
<path d="M64.7285 67.5736H67.0872V67.1348H65.2043V65.8808H66.8916V65.4462H65.2043V64.2613H67.027V63.8225H64.7285V67.5736Z" fill="white"/>
<path d="M70.6113 67.5736H71.0817V64.6364L73.1751 67.5736H73.6195V63.8225H73.1532V66.7597L71.0598 63.8225H70.6113V67.5736Z" fill="white"/>
<path d="M77.0781 67.5736H79.7772V67.124H77.7112L79.7239 64.1705V63.8225H77.1315V64.2721H79.0908L77.0781 67.2255V67.5736Z" fill="white"/>
<path d="M82.7705 67.5736H83.2792L83.6251 66.7218H85.471L85.8279 67.5736H86.331L84.7723 63.8225H84.3293L82.7705 67.5736ZM83.8097 66.2817L84.5508 64.482L85.2919 66.2817H83.8097Z" fill="white"/>
</g>
<defs>
<clipPath id="clip0_701_2032">
<rect width="131.264" height="130" fill="white" transform="translate(0.108398)"/>
</clipPath>
</defs>
</svg>
