<svg width="132" height="130" viewBox="0 0 132 130" fill="none" xmlns="http://www.w3.org/2000/svg">
<g clip-path="url(#clip0_701_1036)">
<path d="M78.666 88.5535C78.506 88.3192 78.2749 87.8899 78.0698 87.5812C77.5981 86.7456 76.1747 85.9792 74.3206 85.5486C72.7659 85.2303 72.6784 85.1897 72.6114 84.7564C72.5594 84.4652 72.5075 84.1186 72.5458 83.9222C72.6251 83.1815 71.1046 80.3865 69.9068 79.0824C67.1325 76.1357 63.5186 73.8174 54.1702 68.9776C52.9013 68.2829 51.8115 67.6695 51.7651 67.595C51.7213 67.5747 51.0527 67.1576 50.3171 66.7094C47.8025 65.3295 46.9206 64.7337 46.0729 64.1798C43.0757 61.9874 42.3934 61.4295 41.4267 60.5533C40.1318 59.2845 38.9108 57.8599 38.5484 57.023C38.3638 56.6696 38.2627 55.7379 38.2298 54.8916C38.208 54.0777 38.1806 53.4494 38.1396 53.5374C38.0972 53.6254 38.0329 54.1048 38.0234 54.5828C38.0849 55.6553 37.9755 55.658 37.7841 54.6316C37.6747 53.8313 37.9236 52.446 38.1683 52.5583C38.2572 52.6003 38.506 52.0722 38.7426 51.4574C39.8734 48.2033 43.9535 44.4929 50.2856 40.9409C54.0977 38.7689 63.479 34.835 67.0395 33.8844C68.0637 33.6081 69.2067 33.3075 69.4665 33.2141C69.848 33.0949 70.3485 32.9527 70.6999 32.9541C71.028 32.9459 72.2395 32.7293 73.3306 32.5383C74.4559 32.3907 76.0817 32.0982 77.0224 31.998C77.9084 31.8992 78.9121 31.7218 79.2498 31.6365C82.742 31.0027 91.2099 31.9791 95.3173 33.4808C96.712 33.9656 96.8241 34.0713 97.0032 34.6089C97.4668 35.9766 95.8123 38.104 92.2627 40.6931C87.0026 44.5539 81.7356 47.3394 76.5192 49.1039C74.9427 49.632 74.7691 49.6591 73.3156 49.4681C72.2258 49.3124 71.2714 49.6726 71.2304 50.217C71.0403 51.7093 72.208 53.1894 73.682 53.3898C74.1319 53.356 74.6392 53.4846 74.8169 53.5672C75.9244 54.0276 80.3478 52.5123 83.5966 50.5596C84.6453 50.0017 85.8868 49.2637 86.4051 48.9671C88.9661 47.5005 92.3229 45.4923 94.1947 44.1083C94.3657 43.9729 94.9604 43.6317 95.4554 43.2715C96.0065 42.9641 96.5657 42.5808 96.7147 42.3818C96.8733 42.1597 97.4517 41.6234 98.0616 41.0764C99.325 39.8928 100.286 38.0864 100.244 36.915C100.266 36.0673 99.6436 34.5195 98.8779 33.3346C97.6103 31.4333 92.4117 28.8645 89.2341 28.5449C88.5313 28.4867 87.8913 28.3513 87.7587 28.289C87.6028 28.2172 86.4584 28.0628 85.2387 27.9531C80.5884 27.4859 74.3424 28.0493 69.2573 29.4183C68.158 29.7406 66.7305 30.0697 66.0769 30.1956C64.298 30.5247 53.2842 34.9352 50.8859 36.2894C50.6698 36.4031 50.1188 36.7105 49.6211 36.9624C49.1671 37.2346 48.7282 37.5934 48.6653 37.7262C48.6243 37.8142 48.2551 37.9645 47.9393 38.0593C47.5906 38.1121 47.3294 38.2055 47.3978 38.2908C47.4238 38.4642 44.6098 40.295 43.9795 40.4859C43.6855 40.5902 43.5556 40.6376 43.665 40.6349C43.7976 40.6417 42.9075 41.4366 41.6728 42.3913C40.4586 43.3568 39.2594 44.4618 38.9395 44.7963C38.0576 45.862 36.8543 48.0639 36.3539 49.4668C35.8849 50.8047 35.636 52.993 35.9464 53.1379C36.0353 53.1786 35.9942 53.2666 35.9081 53.3343C35.6702 53.4914 36.0585 55.7081 36.5371 56.8145C37.069 58.2662 38.2517 60.3421 38.8192 61.0341C41.6071 64.4696 45.5806 67.5706 51.374 70.6568C52.5075 71.235 53.667 71.9324 54.0253 72.206C54.3603 72.4687 56.2526 73.506 58.2941 74.4525C63.8441 77.0241 67.8052 79.6363 69.6511 81.8585C69.9232 82.1983 70.2514 82.5924 70.3854 82.6533C70.6958 82.7969 70.8981 83.8017 70.73 84.5018C70.6247 85.0692 70.5153 85.0719 67.6329 85.1572C62.5957 85.3955 59.4536 85.9765 53.9733 87.7247C50.0996 88.8785 47.0792 90.3464 44.4512 92.1298C43.9453 92.5117 43.665 92.6498 43.747 92.4738C44.1107 91.7046 43.5187 92.1 42.8104 93.1387C41.0247 95.6615 40.8948 96.9669 42.2894 98.7124C43.2534 99.9366 45.5833 100.559 48.1526 100.276C51.6064 99.8946 58.2107 98.3441 58.439 97.8606C58.4814 97.7726 59.2047 97.3853 60.0196 97.0928C62.7981 96.0217 66.4912 94.2762 67.6029 93.5842C68.9716 92.6918 70.7942 90.6673 71.7076 89.1344L72.4405 87.8127L73.5808 87.8588C74.218 87.8858 75.4199 88.1486 76.2184 88.4641C77.5912 88.9936 77.6801 89.0342 77.862 89.6815C78.052 90.2529 78.0753 90.3166 78.4226 90.1554C78.8793 89.9916 79.0406 89.0762 78.666 88.5535ZM45.9758 43.0182C45.7214 43.3283 45.5669 43.3107 45.6914 43.048C45.7324 42.96 45.8842 42.8693 45.9703 42.8016C46.1234 42.8192 46.1494 42.9383 45.9758 43.0182ZM60.3738 35.5663C59.9773 35.9454 57.285 36.9489 57.3889 36.7295C57.4299 36.6415 58.1778 36.3178 59.0994 35.9143C60.0347 35.5974 60.6103 35.4078 60.3738 35.5663ZM67.6644 33.0218C67.4689 33.0922 67.2624 33.1843 67.2186 33.164C67.1735 33.1423 67.2911 33.0096 67.4866 32.9392C67.6822 32.8688 67.8777 32.7983 67.9215 32.82C67.9666 32.8403 67.8599 32.9514 67.6644 33.0218ZM40.3369 46.6501C40.3396 46.7584 40.0361 47.2879 39.6532 47.7538C39.2157 48.2209 38.5976 49.3002 38.1683 50.0938C37.7841 50.9076 37.4833 51.5454 37.4163 51.5143C37.3725 51.494 37.4573 50.9699 37.5735 50.3808C38.1341 47.9339 40.2535 44.7082 42.6887 42.7014C48.7132 37.8548 60.0128 32.6656 69.3845 30.4692C73.0011 29.5714 80.3478 28.7954 80.0893 29.3452C80.047 29.4332 79.9171 29.4806 79.8282 29.4387C79.6942 29.3777 78.3063 29.5104 77.4135 29.7406C77.259 29.723 75.677 30.0345 73.8543 30.3419C72.0535 30.6601 70.1338 31.0569 69.6334 31.2004C69.1329 31.344 68.5997 31.4983 68.4451 31.4807C67.5441 31.3846 55.9942 35.7883 52.4788 37.6165C47.5988 40.0987 42.5014 43.499 40.7963 45.3352C39.4098 46.837 38.3338 48.4281 38.2613 49.0375C38.2709 49.3639 38.3775 49.2528 38.6674 48.6367C39.1145 47.6915 40.5666 45.8187 40.8756 45.8539C40.985 45.8512 41.0465 45.7198 41.0862 45.5221C41.104 45.3704 41.1901 45.3027 41.279 45.3433C41.4116 45.4056 42.0256 44.9669 42.191 44.6148C42.2115 44.5701 42.6518 44.2113 43.1468 43.8511C43.654 43.5233 44.1039 43.1428 44.1463 43.0548C44.3008 42.7244 48.8773 39.9673 51.6775 38.452C53.224 37.6408 57.1373 35.9427 60.3081 34.7321C65.6257 32.6399 67.2897 32.1511 71.7076 31.2776C74.7608 30.6561 75.0015 30.6059 75.7905 30.5965C76.2512 30.5951 77.0046 30.4895 77.5065 30.4001C78.5866 30.1767 81.2051 30.0765 81.3815 30.1591C81.4704 30.1997 80.7839 30.3378 79.887 30.4042C78.99 30.5247 77.8879 30.7373 77.4094 30.8375C76.9404 30.9689 76.5261 31.0447 76.4782 30.9147C76.455 30.8511 76.3456 30.8538 76.3046 30.9418C76.2417 31.0731 76.0667 31.1002 75.9121 31.0271C75.7781 30.9662 75.4295 31.019 75.1136 31.1138C74.832 31.2505 74.5694 31.2898 74.5257 31.2695C74.4573 31.1842 72.5909 31.5268 72.3543 31.6839C72.2682 31.7516 71.7117 31.8423 71.2085 31.8762C69.4036 32.0319 68.1402 32.3582 64.6727 33.512C59.2157 35.3252 50.5782 39.1751 50.2254 39.9226C50.1625 40.054 49.8057 40.2368 49.4789 40.3004C48.5081 40.5198 44.8546 42.9275 42.6559 44.7759C41.614 45.6074 40.6569 46.3156 40.527 46.363C40.3957 46.4091 40.3342 46.5418 40.3369 46.6501ZM48.1936 68.5131C47.7711 68.3168 47.6138 68.1908 47.8135 68.2288C48.0336 68.2775 48.344 68.4224 48.545 68.5687C48.7022 68.6946 48.5477 68.677 48.1936 68.5131ZM69.096 85.7273C69.2765 85.9182 69.3407 85.8952 69.3353 85.6772C69.3407 85.4389 69.3407 85.4389 69.4214 85.6108C69.5335 85.7165 69.4953 85.9128 69.3654 85.9589C69.1726 86.1376 68.9059 86.0144 68.8977 85.6894C68.8936 85.5811 68.9593 85.5567 69.096 85.7273ZM68.1471 85.5025C68.3658 85.4957 68.3453 85.5404 68.0664 85.7869C67.6261 86.1457 67.5824 86.1254 67.7587 85.7503C67.8203 85.619 67.9926 85.4849 68.1471 85.5025ZM67.354 86.6089C67.4839 86.5615 67.8777 86.5303 68.2729 86.552C69.3585 86.5452 68.4328 86.7863 66.5391 86.9014C64.9954 87.0165 63.9453 87.1194 62.0132 87.4308C61.0848 87.5636 56.5083 88.6591 54.9742 89.1005C53.745 89.4689 53.3512 89.5 54.1743 89.1317C55.7549 88.3625 62.5506 87.0368 65.7228 86.7375C66.5117 86.728 67.2433 86.6116 67.354 86.6089ZM63.1235 87.9454C62.9061 88.005 62.7106 88.0754 62.6654 88.0538C62.6217 88.0335 62.7721 87.9427 62.9239 87.852C63.1618 87.7477 63.3573 87.6787 63.4024 87.699C63.4462 87.7193 63.3395 87.8303 63.1235 87.9454ZM67.0737 85.5404C67.3567 85.512 67.4456 85.5526 67.3321 85.795C67.2692 85.9264 67.1161 85.9088 67.0026 85.8031C66.8672 85.6325 66.8016 85.6569 66.829 85.8289C66.8549 86.0022 66.8139 86.0902 66.7688 86.0699C66.5022 85.9467 66.669 85.5946 67.0737 85.5404ZM62.8651 86.0293C63.1795 85.9345 63.4886 85.9697 63.5323 85.99C63.5351 86.0983 63.84 86.0266 64.2324 85.9399C64.5797 85.7788 64.9625 85.7693 65.1102 85.9711C65.2675 86.097 65.3331 86.074 65.3167 85.879C65.2907 85.7056 65.355 85.6826 65.5355 85.8736C65.7159 86.0645 65.7816 86.0415 65.7556 85.8681C65.7283 85.6948 65.8376 85.6921 65.9744 85.8627C66.1767 86.0631 66.2424 86.0401 66.1931 85.8559C66.1672 85.684 66.2082 85.596 66.2533 85.6163C66.2971 85.6366 66.3668 85.7761 66.3695 85.8844C66.3723 85.9927 65.8499 86.1254 65.2059 86.2297C64.525 86.2365 63.6198 86.3787 63.1153 86.4139C62.1759 86.5141 61.9243 86.1295 62.8651 86.0293ZM55.3201 87.68C58.9559 86.6847 59.861 86.487 60.021 86.7213C60.1345 86.8824 60.155 86.8377 60.1523 86.7294C60.1044 86.5466 60.3218 86.4856 60.5857 86.5005C60.8277 86.5601 61.2434 86.4843 61.5128 86.3137C61.7944 86.1769 61.9681 86.1498 61.9954 86.3231C62.0242 86.6048 61.2735 86.8201 58.4376 87.3821C57.7184 87.5311 56.5302 87.8114 55.8971 87.9468C54.2987 88.4113 54.2987 88.4113 54.1647 88.3503C54.0758 88.3083 53.6205 88.4722 53.0449 88.716C52.4829 88.9908 52.1014 89.1087 52.1534 88.999C52.1944 88.9109 52.0194 88.8825 51.7692 88.9543C50.5263 89.236 53.6766 88.1242 55.3201 87.68ZM55.3926 97.4937C55.3475 97.4734 54.6064 97.6128 53.7696 97.8945C52.8767 98.1233 51.8868 98.4429 51.5818 98.5161L50.9706 98.6068L51.5408 98.6041C52.1329 98.6095 55.0781 98.0448 56.0804 97.8132C56.4167 97.6738 56.7668 97.6209 56.8556 97.6629C57.676 98.0434 49.0878 99.5574 46.8591 99.4626C45.4535 99.4017 43.211 98.7639 42.7707 98.2655C42.4098 97.8837 42.7803 97.7875 43.7552 98.1856C44.3309 98.3982 44.9913 98.4903 45.2306 98.4402C45.4794 98.3143 46.2028 98.275 46.8618 98.3116C47.5291 98.2723 48.2291 98.2222 48.3809 98.1315C48.988 97.8769 51.4998 97.4855 51.5271 97.713C51.5668 97.973 53.3033 97.6778 53.4387 97.3921C53.5002 97.2607 53.868 97.0563 54.3042 96.9899C54.6857 96.8721 54.9879 96.6906 54.9851 96.5823C55.0056 96.5376 55.1588 96.5552 55.383 96.7123C55.785 97.0062 55.785 97.0062 60.3765 95.2485C61.7985 94.7014 62.8979 94.3791 62.8363 94.5104C62.7324 94.7312 55.6141 97.5966 55.3926 97.4937ZM68.5067 88.7512C66.1972 91.4053 61.588 93.7724 54.6255 95.8524C51.4178 96.8586 47.2843 97.3014 44.6659 96.9452C43.3573 96.7949 43.2438 96.6893 43.572 96.2248C44.6481 95.0345 47.6795 93.1427 51.2017 91.5868C52.4911 90.9774 53.7996 90.3247 54.1237 90.0999C54.4355 89.8954 54.9783 89.6652 55.3256 89.5582L55.9696 89.454L55.3967 89.7519C55.0494 89.8575 54.5202 90.1757 54.1975 90.4019L53.5932 90.7648L54.3562 90.6362C54.7718 90.5603 55.1943 90.4087 55.2367 90.3206C55.2777 90.2326 55.7139 90.1121 56.2144 89.9699C56.7052 89.9022 57.8387 89.6232 58.6988 89.4052C61.3254 88.7728 64.9284 88.1919 67.1708 88.0253L69.2396 87.8845L68.5067 88.7512Z" fill="#FFD700"/>
<mask id="mask0_701_1036" style="mask-type:luminance" maskUnits="userSpaceOnUse" x="0" y="59" width="132" height="13">
<path d="M0.108398 59.1378H131.372V71.8778H0.108398V59.1378Z" fill="white"/>
</mask>
<g mask="url(#mask0_701_1036)">
<path d="M0.11377 59.1378H131.367V71.8778H0.11377V59.1378Z" fill="#464A4E"/>
</g>
<path d="M41.604 67.6427C42.4313 67.6427 42.9672 67.2419 42.9672 66.5878C42.9672 66.0353 42.594 65.7035 41.6245 65.4679C40.8889 65.2905 40.6455 65.0982 40.6455 64.7868C40.6455 64.4279 40.9709 64.2031 41.511 64.2031C42.0689 64.2031 42.4148 64.4821 42.4258 64.9317H42.8961C42.8907 64.2031 42.3615 63.7535 41.511 63.7535C40.6838 63.7535 40.1587 64.1544 40.1587 64.7868C40.1587 65.3664 40.5758 65.6873 41.5056 65.9067C42.1879 66.0678 42.475 66.256 42.475 66.6041C42.475 66.9737 42.1386 67.1931 41.604 67.1931C41.0133 67.1931 40.6031 66.9033 40.5922 66.4212H40.115C40.1205 67.1552 40.7002 67.6427 41.604 67.6427Z" fill="white"/>
<path d="M46.4639 67.5736H46.9397V66.3413H47.7451C48.601 66.3413 49.152 65.8538 49.152 65.0819C49.152 64.3155 48.601 63.8226 47.7451 63.8226H46.4639V67.5736ZM46.9397 65.9012V64.2722H47.7355C48.3467 64.2722 48.6653 64.5511 48.6653 65.0874C48.6653 65.6236 48.3467 65.9012 47.7355 65.9012H46.9397Z" fill="white"/>
<path d="M52.5413 67.5736H54.8999V67.1349H53.0171V65.8809H54.7044V65.4462H53.0171V64.2613H54.8397V63.8226H52.5413V67.5736Z" fill="white"/>
<path d="M58.4238 67.5736H58.8997V66.2289H59.7324L60.658 67.5736H61.231L60.2793 66.1802C60.8317 66.0461 61.1722 65.6344 61.1722 65.0278C61.1722 64.283 60.6526 63.8226 59.8677 63.8226H58.4238V67.5736ZM58.8997 65.778V64.2722H59.8144C60.3654 64.2722 60.6854 64.5511 60.6854 65.0278C60.6854 65.5058 60.3654 65.778 59.8144 65.778H58.8997Z" fill="white"/>
<path d="M64.7285 67.5736H67.0872V67.1349H65.2043V65.8809H66.8916V65.4462H65.2043V64.2613H67.027V63.8226H64.7285V67.5736Z" fill="white"/>
<path d="M70.6111 67.5736H71.0814V64.6364L73.1748 67.5736H73.6192V63.8226H73.153V66.7598L71.0596 63.8226H70.6111V67.5736Z" fill="white"/>
<path d="M77.0779 67.5736H79.777V67.124H77.711L79.7237 64.1706V63.8226H77.1312V64.2722H79.0906L77.0779 67.2256V67.5736Z" fill="white"/>
<path d="M82.7703 67.5736H83.2789L83.6248 66.7218H85.4707L85.8276 67.5736H86.3308L84.772 63.8226H84.329L82.7703 67.5736ZM83.8094 66.2817L84.5505 64.482L85.2916 66.2817H83.8094Z" fill="white"/>
</g>
<defs>
<clipPath id="clip0_701_1036">
<rect width="131.264" height="130" fill="white" transform="translate(0.108398)"/>
</clipPath>
</defs>
</svg>
