<svg width="132" height="130" viewBox="0 0 132 130" fill="none" xmlns="http://www.w3.org/2000/svg">
<g clip-path="url(#clip0_701_1956)">
<path d="M78.666 88.5534C78.506 88.3191 78.2749 87.8898 78.0698 87.5811C77.5981 86.7456 76.1747 85.9791 74.3206 85.5485C72.7659 85.2303 72.6784 85.1896 72.6114 84.7563C72.5594 84.4652 72.5075 84.1185 72.5458 83.9221C72.6251 83.1814 71.1046 80.3864 69.9068 79.0823C67.1325 76.1357 63.5186 73.8173 54.1702 68.9776C52.9013 68.2829 51.8115 67.6694 51.7651 67.595C51.7213 67.5746 51.0527 67.1576 50.3171 66.7093C47.8025 65.3294 46.9206 64.7336 46.0729 64.1797C43.0757 61.9874 42.3934 61.4294 41.4267 60.5533C40.1318 59.2844 38.9108 57.8598 38.5484 57.023C38.3638 56.6695 38.2627 55.7379 38.2298 54.8915C38.208 54.0777 38.1806 53.4493 38.1396 53.5373C38.0972 53.6254 38.0329 54.1047 38.0234 54.5828C38.0849 55.6553 37.9755 55.658 37.7841 54.6315C37.6747 53.8312 37.9236 52.4459 38.1683 52.5583C38.2572 52.6003 38.506 52.0721 38.7426 51.4573C39.8734 48.2033 43.9535 44.4929 50.2856 40.9409C54.0977 38.7688 63.479 34.8349 67.0395 33.8843C68.0637 33.6081 69.2067 33.3074 69.4665 33.214C69.848 33.0948 70.3485 32.9527 70.6999 32.954C71.028 32.9459 72.2395 32.7292 73.3306 32.5383C74.4559 32.3907 76.0817 32.0982 77.0224 31.998C77.9084 31.8991 78.9121 31.7217 79.2498 31.6364C82.742 31.0027 91.2099 31.979 95.3173 33.4808C96.712 33.9656 96.8241 34.0712 97.0032 34.6088C97.4668 35.9765 95.8123 38.1039 92.2627 40.6931C87.0026 44.5538 81.7356 47.3393 76.5192 49.1038C74.9427 49.6319 74.7691 49.659 73.3156 49.4681C72.2258 49.3123 71.2714 49.6726 71.2304 50.2169C71.0403 51.7092 72.208 53.1893 73.682 53.3897C74.1319 53.3559 74.6392 53.4845 74.8169 53.5671C75.9244 54.0276 80.3478 52.5122 83.5966 50.5595C84.6453 50.0016 85.8868 49.2636 86.4051 48.967C88.9661 47.5005 92.3229 45.4922 94.1947 44.1083C94.3657 43.9729 94.9604 43.6316 95.4554 43.2714C96.0065 42.964 96.5657 42.5808 96.7147 42.3817C96.8733 42.1596 97.4517 41.6234 98.0616 41.0763C99.325 39.8928 100.286 38.0863 100.244 36.915C100.266 36.0672 99.6436 34.5194 98.8779 33.3345C97.6103 31.4333 92.4117 28.8644 89.2341 28.5448C88.5313 28.4866 87.8913 28.3512 87.7587 28.2889C87.6028 28.2171 86.4584 28.0628 85.2387 27.9531C80.5884 27.4859 74.3424 28.0492 69.2573 29.4183C68.158 29.7406 66.7305 30.0696 66.0769 30.1956C64.298 30.5246 53.2842 34.9352 50.8859 36.2893C50.6698 36.4031 50.1188 36.7105 49.6211 36.9623C49.1671 37.2345 48.7282 37.5934 48.6653 37.7261C48.6243 37.8141 48.2551 37.9644 47.9393 38.0592C47.5906 38.112 47.3294 38.2055 47.3978 38.2908C47.4238 38.4641 44.6098 40.295 43.9795 40.4859C43.6855 40.5902 43.5556 40.6376 43.665 40.6348C43.7976 40.6416 42.9075 41.4365 41.6728 42.3912C40.4586 43.3567 39.2594 44.4617 38.9395 44.7962C38.0576 45.8619 36.8543 48.0638 36.3539 49.4667C35.8849 50.8046 35.636 52.993 35.9464 53.1379C36.0353 53.1785 35.9942 53.2665 35.9081 53.3342C35.6702 53.4913 36.0585 55.7081 36.5371 56.8144C37.069 58.2661 38.2517 60.342 38.8192 61.034C41.6071 64.4695 45.5806 67.5706 51.374 70.6567C52.5075 71.235 53.667 71.9323 54.0253 72.2059C54.3603 72.4686 56.2526 73.5059 58.2941 74.4524C63.8441 77.024 67.8052 79.6362 69.6511 81.8584C69.9232 82.1983 70.2514 82.5924 70.3854 82.6533C70.6958 82.7968 70.8981 83.8016 70.73 84.5017C70.6247 85.0691 70.5153 85.0718 67.6329 85.1571C62.5957 85.3955 59.4536 85.9764 53.9733 87.7246C50.0996 88.8784 47.0792 90.3463 44.4512 92.1297C43.9453 92.5116 43.665 92.6497 43.747 92.4737C44.1107 91.7045 43.5187 92.1 42.8104 93.1386C41.0247 95.6614 40.8948 96.9668 42.2894 98.7123C43.2534 99.9365 45.5833 100.559 48.1526 100.276C51.6064 99.8945 58.2107 98.344 58.439 97.8606C58.4814 97.7726 59.2047 97.3853 60.0196 97.0928C62.7981 96.0216 66.4912 94.2761 67.6029 93.5841C68.9716 92.6917 70.7942 90.6672 71.7076 89.1343L72.4405 87.8127L73.5808 87.8587C74.218 87.8858 75.4199 88.1485 76.2184 88.464C77.5912 88.9935 77.6801 89.0341 77.862 89.6814C78.052 90.2529 78.0753 90.3165 78.4226 90.1554C78.8793 89.9915 79.0406 89.0761 78.666 88.5534ZM45.9758 43.0182C45.7214 43.3283 45.5669 43.3107 45.6914 43.048C45.7324 42.96 45.8842 42.8692 45.9703 42.8015C46.1234 42.8191 46.1494 42.9383 45.9758 43.0182ZM60.3738 35.5662C59.9773 35.9454 57.285 36.9488 57.3889 36.7294C57.4299 36.6414 58.1778 36.3178 59.0994 35.9142C60.0347 35.5973 60.6103 35.4078 60.3738 35.5662ZM67.6644 33.0217C67.4689 33.0921 67.2624 33.1842 67.2186 33.1639C67.1735 33.1422 67.2911 33.0095 67.4866 32.9391C67.6822 32.8687 67.8777 32.7983 67.9215 32.8199C67.9666 32.8403 67.8599 32.9513 67.6644 33.0217ZM40.3369 46.6501C40.3396 46.7584 40.0361 47.2879 39.6532 47.7537C39.2157 48.2209 38.5976 49.3002 38.1683 50.0937C37.7841 50.9076 37.4833 51.5454 37.4163 51.5142C37.3725 51.4939 37.4573 50.9698 37.5735 50.3808C38.1341 47.9338 40.2535 44.7082 42.6887 42.7013C48.7132 37.8547 60.0128 32.6656 69.3845 30.4691C73.0011 29.5713 80.3478 28.7954 80.0893 29.3452C80.047 29.4332 79.9171 29.4806 79.8282 29.4386C79.6942 29.3777 78.3063 29.5104 77.4135 29.7406C77.259 29.723 75.677 30.0344 73.8543 30.3418C72.0535 30.6601 70.1338 31.0568 69.6334 31.2004C69.1329 31.3439 68.5997 31.4983 68.4451 31.4807C67.5441 31.3845 55.9942 35.7883 52.4788 37.6164C47.5988 40.0986 42.5014 43.4989 40.7963 45.3352C39.4098 46.8369 38.3338 48.4281 38.2613 49.0375C38.2709 49.3638 38.3775 49.2528 38.6674 48.6366C39.1145 47.6914 40.5666 45.8186 40.8756 45.8538C40.985 45.8511 41.0465 45.7197 41.0862 45.522C41.104 45.3704 41.1901 45.3027 41.279 45.3433C41.4116 45.4056 42.0256 44.9668 42.191 44.6147C42.2115 44.5701 42.6518 44.2112 43.1468 43.851C43.654 43.5233 44.1039 43.1428 44.1463 43.0547C44.3008 42.7243 48.8773 39.9672 51.6775 38.4519C53.224 37.6408 57.1373 35.9427 60.3081 34.732C65.6257 32.6398 67.2897 32.151 71.7076 31.2776C74.7608 30.656 75.0015 30.6059 75.7905 30.5964C76.2512 30.5951 77.0046 30.4894 77.5065 30.4001C78.5866 30.1766 81.2051 30.0764 81.3815 30.159C81.4704 30.1996 80.7839 30.3378 79.887 30.4041C78.99 30.5246 77.8879 30.7372 77.4094 30.8374C76.9404 30.9688 76.5261 31.0446 76.4782 30.9146C76.455 30.851 76.3456 30.8537 76.3046 30.9417C76.2417 31.0731 76.0667 31.1002 75.9121 31.027C75.7781 30.9661 75.4295 31.0189 75.1136 31.1137C74.832 31.2505 74.5694 31.2897 74.5257 31.2694C74.4573 31.1841 72.5909 31.5267 72.3543 31.6838C72.2682 31.7515 71.7117 31.8422 71.2085 31.8761C69.4036 32.0318 68.1402 32.3582 64.6727 33.5119C59.2157 35.3252 50.5782 39.1751 50.2254 39.9226C50.1625 40.0539 49.8057 40.2367 49.4789 40.3004C48.5081 40.5197 44.8546 42.9275 42.6559 44.7759C41.614 45.6073 40.6569 46.3156 40.527 46.363C40.3957 46.409 40.3342 46.5417 40.3369 46.6501ZM48.1936 68.5131C47.7711 68.3167 47.6138 68.1908 47.8135 68.2287C48.0336 68.2775 48.344 68.4223 48.545 68.5686C48.7022 68.6945 48.5477 68.6769 48.1936 68.5131ZM69.096 85.7272C69.2765 85.9182 69.3407 85.8952 69.3353 85.6771C69.3407 85.4388 69.3407 85.4388 69.4214 85.6108C69.5335 85.7164 69.4953 85.9128 69.3654 85.9588C69.1726 86.1376 68.9059 86.0143 68.8977 85.6893C68.8936 85.581 68.9593 85.5566 69.096 85.7272ZM68.1471 85.5025C68.3658 85.4957 68.3453 85.5404 68.0664 85.7868C67.6261 86.1457 67.5824 86.1254 67.7587 85.7503C67.8203 85.6189 67.9926 85.4848 68.1471 85.5025ZM67.354 86.6088C67.4839 86.5614 67.8777 86.5303 68.2729 86.5519C69.3585 86.5452 68.4328 86.7862 66.5391 86.9013C64.9954 87.0164 63.9453 87.1193 62.0132 87.4308C61.0848 87.5635 56.5083 88.659 54.9742 89.1005C53.745 89.4688 53.3512 89.5 54.1743 89.1316C55.7549 88.3625 62.5506 87.0367 65.7228 86.7375C66.5117 86.728 67.2433 86.6115 67.354 86.6088ZM63.1235 87.9454C62.9061 88.005 62.7106 88.0754 62.6654 88.0537C62.6217 88.0334 62.7721 87.9427 62.9239 87.8519C63.1618 87.7477 63.3573 87.6786 63.4024 87.6989C63.4462 87.7192 63.3395 87.8303 63.1235 87.9454ZM67.0737 85.5404C67.3567 85.5119 67.4456 85.5526 67.3321 85.795C67.2692 85.9263 67.1161 85.9087 67.0026 85.8031C66.8672 85.6325 66.8016 85.6568 66.829 85.8288C66.8549 86.0021 66.8139 86.0902 66.7688 86.0698C66.5022 85.9466 66.669 85.5945 67.0737 85.5404ZM62.8651 86.0292C63.1795 85.9344 63.4886 85.9696 63.5323 85.99C63.5351 86.0983 63.84 86.0265 64.2324 85.9398C64.5797 85.7787 64.9625 85.7692 65.1102 85.971C65.2675 86.0969 65.3331 86.0739 65.3167 85.8789C65.2907 85.7056 65.355 85.6826 65.5355 85.8735C65.7159 86.0644 65.7816 86.0414 65.7556 85.8681C65.7283 85.6947 65.8376 85.692 65.9744 85.8627C66.1767 86.0631 66.2424 86.0401 66.1931 85.8559C66.1672 85.6839 66.2082 85.5959 66.2533 85.6162C66.2971 85.6365 66.3668 85.776 66.3695 85.8843C66.3723 85.9927 65.8499 86.1254 65.2059 86.2296C64.525 86.2364 63.6198 86.3786 63.1153 86.4138C62.1759 86.514 61.9243 86.1294 62.8651 86.0292ZM55.3201 87.68C58.9559 86.6846 59.861 86.4869 60.021 86.7212C60.1345 86.8823 60.155 86.8377 60.1523 86.7293C60.1044 86.5465 60.3218 86.4856 60.5857 86.5005C60.8277 86.5601 61.2434 86.4842 61.5128 86.3136C61.7944 86.1768 61.9681 86.1497 61.9954 86.3231C62.0242 86.6047 61.2735 86.8201 58.4376 87.382C57.7184 87.531 56.5302 87.8113 55.8971 87.9467C54.2987 88.4112 54.2987 88.4112 54.1647 88.3503C54.0758 88.3083 53.6205 88.4721 53.0449 88.7159C52.4829 88.9908 52.1014 89.1086 52.1534 88.9989C52.1944 88.9109 52.0194 88.8825 51.7692 88.9542C50.5263 89.2359 53.6766 88.1241 55.3201 87.68ZM55.3926 97.4936C55.3475 97.4733 54.6064 97.6128 53.7696 97.8944C52.8767 98.1233 51.8868 98.4429 51.5818 98.516L50.9706 98.6067L51.5408 98.604C52.1329 98.6094 55.0781 98.0447 56.0804 97.8132C56.4167 97.6737 56.7668 97.6209 56.8556 97.6629C57.676 98.0434 49.0878 99.5574 46.8591 99.4626C45.4535 99.4016 43.211 98.7638 42.7707 98.2655C42.4098 97.8836 42.7803 97.7875 43.7552 98.1856C44.3309 98.3982 44.9913 98.4903 45.2306 98.4402C45.4794 98.3142 46.2028 98.275 46.8618 98.3115C47.5291 98.2722 48.2291 98.2221 48.3809 98.1314C48.988 97.8768 51.4998 97.4855 51.5271 97.713C51.5668 97.973 53.3033 97.6778 53.4387 97.392C53.5002 97.2607 53.868 97.0562 54.3042 96.9899C54.6857 96.872 54.9879 96.6906 54.9851 96.5822C55.0056 96.5376 55.1588 96.5552 55.383 96.7122C55.785 97.0061 55.785 97.0061 60.3765 95.2484C61.7985 94.7013 62.8979 94.379 62.8363 94.5104C62.7324 94.7311 55.6141 97.5965 55.3926 97.4936ZM68.5067 88.7511C66.1972 91.4053 61.588 93.7723 54.6255 95.8523C51.4178 96.8585 47.2843 97.3013 44.6659 96.9452C43.3573 96.7948 43.2438 96.6892 43.572 96.2247C44.6481 95.0344 47.6795 93.1427 51.2017 91.5867C52.4911 90.9773 53.7996 90.3246 54.1237 90.0998C54.4355 89.8954 54.9783 89.6652 55.3256 89.5582L55.9696 89.4539L55.3967 89.7518C55.0494 89.8575 54.5202 90.1757 54.1975 90.4018L53.5932 90.7647L54.3562 90.6361C54.7718 90.5603 55.1943 90.4086 55.2367 90.3206C55.2777 90.2326 55.7139 90.112 56.2144 89.9698C56.7052 89.9021 57.8387 89.6232 58.6988 89.4052C61.3254 88.7728 64.9284 88.1918 67.1708 88.0253L69.2396 87.8844L68.5067 88.7511Z" fill="#FFD700"/>
<mask id="mask0_701_1956" style="mask-type:luminance" maskUnits="userSpaceOnUse" x="0" y="59" width="132" height="13">
<path d="M0.108398 59.1377H131.372V71.8777H0.108398V59.1377Z" fill="white"/>
</mask>
<g mask="url(#mask0_701_1956)">
<path d="M0.11377 59.1377H131.367V71.8777H0.11377V59.1377Z" fill="#464A4E"/>
</g>
<path d="M41.604 67.6426C42.4313 67.6426 42.9672 67.2418 42.9672 66.5877C42.9672 66.0352 42.594 65.7034 41.6245 65.4678C40.8889 65.2904 40.6455 65.0981 40.6455 64.7866C40.6455 64.4278 40.9709 64.203 41.511 64.203C42.0689 64.203 42.4148 64.482 42.4258 64.9315H42.8961C42.8907 64.203 42.3615 63.7534 41.511 63.7534C40.6838 63.7534 40.1587 64.1543 40.1587 64.7866C40.1587 65.3662 40.5758 65.6872 41.5056 65.9065C42.1879 66.0677 42.475 66.2559 42.475 66.6039C42.475 66.9736 42.1386 67.193 41.604 67.193C41.0133 67.193 40.6031 66.9032 40.5922 66.4211H40.115C40.1205 67.1551 40.7002 67.6426 41.604 67.6426Z" fill="white"/>
<path d="M46.4639 67.5736H46.9397V66.3413H47.7451C48.601 66.3413 49.152 65.8538 49.152 65.0819C49.152 64.3154 48.601 63.8225 47.7451 63.8225H46.4639V67.5736ZM46.9397 65.9012V64.2721H47.7355C48.3467 64.2721 48.6653 64.5511 48.6653 65.0873C48.6653 65.6236 48.3467 65.9012 47.7355 65.9012H46.9397Z" fill="white"/>
<path d="M52.5413 67.5736H54.8999V67.1348H53.0171V65.8808H54.7044V65.4462H53.0171V64.2613H54.8397V63.8225H52.5413V67.5736Z" fill="white"/>
<path d="M58.4238 67.5736H58.8997V66.2289H59.7324L60.658 67.5736H61.231L60.2793 66.1801C60.8317 66.0461 61.1722 65.6344 61.1722 65.0277C61.1722 64.2829 60.6526 63.8225 59.8677 63.8225H58.4238V67.5736ZM58.8997 65.7779V64.2721H59.8144C60.3654 64.2721 60.6854 64.5511 60.6854 65.0277C60.6854 65.5057 60.3654 65.7779 59.8144 65.7779H58.8997Z" fill="white"/>
<path d="M64.7285 67.5736H67.0872V67.1348H65.2043V65.8808H66.8916V65.4462H65.2043V64.2613H67.027V63.8225H64.7285V67.5736Z" fill="white"/>
<path d="M70.6113 67.5736H71.0817V64.6364L73.1751 67.5736H73.6195V63.8225H73.1532V66.7597L71.0598 63.8225H70.6113V67.5736Z" fill="white"/>
<path d="M77.0781 67.5736H79.7772V67.124H77.7112L79.7239 64.1705V63.8225H77.1315V64.2721H79.0908L77.0781 67.2255V67.5736Z" fill="white"/>
<path d="M82.7705 67.5736H83.2792L83.6251 66.7218H85.471L85.8279 67.5736H86.331L84.7723 63.8225H84.3293L82.7705 67.5736ZM83.8097 66.2817L84.5508 64.482L85.2919 66.2817H83.8097Z" fill="white"/>
</g>
<defs>
<clipPath id="clip0_701_1956">
<rect width="131.264" height="130" fill="white" transform="translate(0.108398)"/>
</clipPath>
</defs>
</svg>
