<svg width="130" height="130" viewBox="0 0 130 130" fill="none" xmlns="http://www.w3.org/2000/svg">
<g clip-path="url(#clip0_701_12925)">
<path d="M77.8011 88.5534C77.6426 88.3191 77.4138 87.8898 77.2107 87.5811C76.7435 86.7456 75.3338 85.9791 73.4975 85.5485C71.9579 85.2303 71.8712 85.1896 71.8048 84.7563C71.7534 84.4652 71.7019 84.1185 71.7398 83.9221C71.8184 83.1814 70.3125 80.3864 69.1263 79.0823C66.3787 76.1357 62.7996 73.8173 53.5412 68.9776C52.2845 68.2829 51.2053 67.6694 51.1592 67.595C51.1159 67.5746 50.4537 67.1576 49.7252 66.7093C47.2348 65.3294 46.3614 64.7336 45.5218 64.1797C42.5535 61.9874 41.8778 61.4294 40.9204 60.5533C39.638 59.2844 38.4287 57.8598 38.0698 57.023C37.887 56.6695 37.7868 55.7379 37.7543 54.8915C37.7327 54.0777 37.7056 53.4493 37.6649 53.5373C37.623 53.6254 37.5593 54.1047 37.5498 54.5828C37.6108 55.6553 37.5024 55.658 37.3129 54.6315C37.2045 53.8312 37.451 52.4459 37.6934 52.5583C37.7814 52.6003 38.0279 52.0721 38.2621 51.4573C39.382 48.2033 43.4229 44.4929 49.694 40.9409C53.4694 38.7688 62.7604 34.8349 66.2866 33.8843C67.3009 33.6081 68.433 33.3074 68.6903 33.214C69.0681 33.0948 69.5637 32.9527 69.9117 32.954C70.2367 32.9459 71.4365 32.7292 72.5171 32.5383C73.6316 32.3907 75.2417 32.0982 76.1734 31.998C77.0509 31.8991 78.0448 31.7217 78.3793 31.6364C81.8379 31.0027 90.2242 31.979 94.2921 33.4808C95.6734 33.9656 95.7844 34.0712 95.9618 34.6088C96.4209 35.9765 94.7823 38.1039 91.2669 40.6931C86.0574 44.5538 80.8412 47.3393 75.675 49.1038C74.1137 49.6319 73.9417 49.659 72.5022 49.4681C71.423 49.3123 70.4778 49.6726 70.4371 50.2169C70.2489 51.7092 71.4054 53.1893 72.8651 53.3897C73.3107 53.3559 73.8131 53.4845 73.9891 53.5671C75.086 54.0276 79.4667 52.5122 82.6842 50.5595C83.7229 50.0016 84.9524 49.2636 85.4657 48.967C88.002 47.5005 91.3265 45.4922 93.1804 44.1083C93.3496 43.9729 93.9387 43.6316 94.4289 43.2714C94.9746 42.964 95.5285 42.5808 95.6761 42.3817C95.8332 42.1596 96.406 41.6234 97.0099 41.0763C98.2612 39.8928 99.2132 38.0863 99.1712 36.915C99.1929 36.0672 98.5767 34.5194 97.8184 33.3345C96.5631 31.4333 91.4145 28.8644 88.2674 28.5448C87.5714 28.4866 86.9377 28.3512 86.8063 28.2889C86.6519 28.2171 85.5185 28.0628 84.3106 27.9531C79.705 27.4859 73.5192 28.0492 68.4831 29.4183C67.3943 29.7406 65.9806 30.0696 65.3333 30.1956C63.5715 30.5246 52.6637 34.9352 50.2885 36.2893C50.0745 36.4031 49.5288 36.7105 49.0359 36.9623C48.5863 37.2345 48.1516 37.5934 48.0893 37.7261C48.0487 37.8141 47.6831 37.9644 47.3703 38.0592C47.0249 38.112 46.7663 38.2055 46.834 38.2908C46.8597 38.4641 44.0729 40.295 43.4486 40.4859C43.1574 40.5902 43.0288 40.6376 43.1371 40.6348C43.2685 40.6416 42.3869 41.4365 41.1641 42.3912C39.9616 43.3567 38.774 44.4617 38.4571 44.7962C37.5837 45.8619 36.392 48.0638 35.8964 49.4667C35.4319 50.8046 35.1855 52.993 35.4929 53.1379C35.5809 53.1785 35.5403 53.2665 35.4549 53.3342C35.2193 53.4913 35.6039 55.7081 36.0779 56.8144C36.6046 58.2661 37.776 60.342 38.338 61.034C41.0991 64.4695 45.0343 67.5706 50.7719 70.6567C51.8945 71.235 53.0429 71.9323 53.3976 72.2059C53.7294 72.4686 55.6036 73.5059 57.6254 74.4524C63.1219 77.024 67.0449 79.6362 68.8731 81.8584C69.1425 82.1983 69.4675 82.5924 69.6003 82.6533C69.9076 82.7968 70.1081 83.8016 69.9415 84.5017C69.8372 85.0691 69.7289 85.0718 66.8743 85.1571C61.8856 85.3955 58.7737 85.9764 53.3462 87.7246C49.5098 88.8784 46.5185 90.3463 43.9158 92.1297C43.4147 92.5116 43.1371 92.6497 43.2184 92.4737C43.5786 91.7045 42.9922 92.1 42.2908 93.1386C40.5222 95.6614 40.3936 96.9668 41.7748 98.7123C42.7295 99.9365 45.037 100.559 47.5815 100.276C51.0021 99.8945 57.5428 98.344 57.7689 97.8606C57.8109 97.7726 58.5272 97.3853 59.3343 97.0928C62.086 96.0216 65.7436 94.2761 66.8445 93.5841C68.2 92.6917 70.0051 90.6672 70.9097 89.1343L71.6356 87.8127L72.7649 87.8587C73.396 87.8858 74.5863 88.1485 75.3771 88.464C76.7367 88.9935 76.8247 89.0341 77.0048 89.6814C77.1931 90.2529 77.2161 90.3165 77.56 90.1554C78.0123 89.9915 78.1721 89.0761 77.8011 88.5534ZM45.4257 43.0182C45.1738 43.3283 45.0208 43.3107 45.144 43.048C45.1846 42.96 45.3349 42.8692 45.4203 42.8015C45.5719 42.8191 45.5976 42.9383 45.4257 43.0182ZM59.685 35.5662C59.2923 35.9454 56.626 36.9488 56.7289 36.7294C56.7695 36.6414 57.5103 36.3178 58.423 35.9142C59.3492 35.5973 59.9193 35.4078 59.685 35.5662ZM66.9055 33.0217C66.7118 33.0921 66.5073 33.1842 66.464 33.1639C66.4193 33.1422 66.5358 33.0095 66.7294 32.9391C66.9231 32.8687 67.1167 32.7983 67.16 32.8199C67.2047 32.8403 67.0991 32.9513 66.9055 33.0217ZM39.8411 46.6501C39.8438 46.7584 39.5432 47.2879 39.164 47.7537C38.7307 48.2209 38.1186 49.3002 37.6934 50.0937C37.3129 50.9076 37.0149 51.5454 36.9486 51.5142C36.9053 51.4939 36.9892 50.9698 37.1043 50.3808C37.6595 47.9338 39.7585 44.7082 42.1703 42.7013C48.1367 37.8547 59.3275 32.6656 68.609 30.4691C72.1908 29.5713 79.4667 28.7954 79.2108 29.3452C79.1688 29.4332 79.0401 29.4806 78.9521 29.4386C78.8194 29.3777 77.4449 29.5104 76.5607 29.7406C76.4076 29.723 74.8409 30.0344 73.0358 30.3418C71.2523 30.6601 69.3511 31.0568 68.8555 31.2004C68.3598 31.3439 67.8317 31.4983 67.6787 31.4807C66.7863 31.3845 55.3476 35.7883 51.8661 37.6164C47.0331 40.0986 41.9847 43.4989 40.2961 45.3352C38.923 46.8369 37.8572 48.4281 37.7855 49.0375C37.7949 49.3638 37.9006 49.2528 38.1876 48.6366C38.6305 47.6914 40.0686 45.8186 40.3746 45.8538C40.483 45.8511 40.5439 45.7197 40.5832 45.522C40.6008 45.3704 40.6861 45.3027 40.7741 45.3433C40.9055 45.4056 41.5135 44.9668 41.6773 44.6147C41.6976 44.5701 42.1337 44.2112 42.6239 43.851C43.1263 43.5233 43.5718 43.1428 43.6138 43.0547C43.7668 42.7243 48.2992 39.9672 51.0725 38.4519C52.6041 37.6408 56.4797 35.9427 59.62 34.732C64.8864 32.6398 66.5344 32.151 70.9097 31.2776C73.9336 30.656 74.1719 30.6059 74.9533 30.5964C75.4096 30.5951 76.1558 30.4894 76.6528 30.4001C77.7225 30.1766 80.3158 30.0764 80.4905 30.159C80.5785 30.1996 79.8987 30.3378 79.0104 30.4041C78.122 30.5246 77.0306 30.7372 76.5566 30.8374C76.0921 30.9688 75.6818 31.0446 75.6344 30.9146C75.6114 30.851 75.5031 30.8537 75.4624 30.9417C75.4001 31.0731 75.2268 31.1002 75.0738 31.027C74.9411 30.9661 74.5958 31.0189 74.283 31.1137C74.004 31.2505 73.744 31.2897 73.7007 31.2694C73.633 31.1841 71.7845 31.5267 71.5503 31.6838C71.4649 31.7515 70.9138 31.8422 70.4155 31.8761C68.628 32.0318 67.3767 32.3582 63.9425 33.5119C58.5381 35.3252 49.9838 39.1751 49.6344 39.9226C49.5721 40.0539 49.2187 40.2367 48.895 40.3004C47.9336 40.5197 44.3153 42.9275 42.1378 44.7759C41.1059 45.6073 40.158 46.3156 40.0293 46.363C39.8993 46.409 39.8384 46.5417 39.8411 46.6501ZM47.6221 68.5131C47.2037 68.3167 47.048 68.1908 47.2457 68.2287C47.4637 68.2775 47.7711 68.4223 47.9701 68.5686C48.1259 68.6945 47.9729 68.6769 47.6221 68.5131ZM68.3233 85.7272C68.502 85.9182 68.5657 85.8952 68.5603 85.6771C68.5657 85.4388 68.5657 85.4388 68.6456 85.6108C68.7566 85.7164 68.7187 85.9128 68.59 85.9588C68.3991 86.1376 68.135 86.0143 68.1269 85.6893C68.1229 85.581 68.1879 85.5566 68.3233 85.7272ZM67.3835 85.5025C67.6001 85.4957 67.5798 85.5404 67.3036 85.7868C66.8675 86.1457 66.8242 86.1254 66.9989 85.7503C67.0598 85.6189 67.2305 85.4848 67.3835 85.5025ZM66.5981 86.6088C66.7267 86.5614 67.1167 86.5303 67.5081 86.5519C68.5833 86.5452 67.6665 86.7862 65.791 86.9013C64.2621 87.0164 63.2221 87.1193 61.3087 87.4308C60.3892 87.5635 55.8568 88.659 54.3374 89.1005C53.12 89.4688 52.73 89.5 53.5453 89.1316C55.1107 88.3625 61.8409 87.0367 64.9825 86.7375C65.7639 86.728 66.4884 86.6115 66.5981 86.6088ZM62.4083 87.9454C62.193 88.005 61.9993 88.0754 61.9546 88.0537C61.9113 88.0334 62.0603 87.9427 62.2106 87.8519C62.4462 87.7477 62.6398 87.6786 62.6845 87.6989C62.7279 87.7192 62.6222 87.8303 62.4083 87.9454ZM66.3205 85.5404C66.6008 85.5119 66.6888 85.5526 66.5764 85.795C66.5141 85.9263 66.3624 85.9087 66.25 85.8031C66.116 85.6325 66.051 85.6568 66.0781 85.8288C66.1038 86.0021 66.0632 86.0902 66.0185 86.0698C65.7544 85.9466 65.9196 85.5945 66.3205 85.5404ZM62.1523 86.0292C62.4638 85.9344 62.7698 85.9696 62.8132 85.99C62.8159 86.0983 63.1179 86.0265 63.5065 85.9398C63.8505 85.7787 64.2296 85.7692 64.3759 85.971C64.5316 86.0969 64.5966 86.0739 64.5804 85.8789C64.5546 85.7056 64.6183 85.6826 64.797 85.8735C64.9758 86.0644 65.0408 86.0414 65.015 85.8681C64.988 85.6947 65.0963 85.692 65.2317 85.8627C65.4321 86.0631 65.4971 86.0401 65.4484 85.8559C65.4226 85.6839 65.4633 85.5959 65.508 85.6162C65.5513 85.6365 65.6204 85.776 65.6231 85.8843C65.6258 85.9927 65.1085 86.1254 64.4707 86.2296C63.7963 86.2364 62.8998 86.3786 62.4001 86.4138C61.4698 86.514 61.2207 86.1294 62.1523 86.0292ZM54.68 87.68C58.2808 86.6846 59.1772 86.4869 59.3357 86.7212C59.4481 86.8823 59.4684 86.8377 59.4657 86.7293C59.4183 86.5465 59.6336 86.4856 59.8949 86.5005C60.1346 86.5601 60.5463 86.4842 60.8131 86.3136C61.092 86.1768 61.264 86.1497 61.2911 86.3231C61.3195 86.6047 60.5761 86.8201 57.7675 87.382C57.0553 87.531 55.8785 87.8113 55.2515 87.9467C53.6685 88.4112 53.6685 88.4112 53.5358 88.3503C53.4478 88.3083 52.9968 88.4721 52.4267 88.7159C51.8701 88.9908 51.4923 89.1086 51.5438 88.9989C51.5844 88.9109 51.4111 88.8825 51.1633 88.9542C49.9323 89.2359 53.0523 88.1241 54.68 87.68ZM54.7518 97.4936C54.7071 97.4733 53.9732 97.6128 53.1444 97.8944C52.2601 98.1233 51.2797 98.4429 50.9778 98.516L50.3724 98.6067L50.9371 98.604C51.5235 98.6094 54.4404 98.0447 55.433 97.8132C55.7661 97.6737 56.1128 97.6209 56.2008 97.6629C57.0133 98.0434 48.5078 99.5574 46.3005 99.4626C44.9084 99.4016 42.6875 98.7638 42.2515 98.2655C41.894 97.8836 42.261 97.7875 43.2265 98.1856C43.7966 98.3982 44.4507 98.4903 44.6876 98.4402C44.9341 98.3142 45.6505 98.275 46.3032 98.3115C46.964 98.2722 47.6573 98.2221 47.8076 98.1314C48.4089 97.8768 50.8965 97.4855 50.9236 97.713C50.9629 97.973 52.6826 97.6778 52.8167 97.392C52.8776 97.2607 53.2419 97.0562 53.6739 96.9899C54.0517 96.872 54.351 96.6906 54.3483 96.5822C54.3686 96.5376 54.5203 96.5552 54.7423 96.7122C55.1405 97.0061 55.1405 97.0061 59.6878 95.2484C61.0961 94.7013 62.1848 94.379 62.1239 94.5104C62.021 94.7311 54.9712 97.5965 54.7518 97.4936ZM67.7396 88.7511C65.4524 91.4053 60.8875 93.7723 53.9921 95.8523C50.8153 96.8585 46.7216 97.3013 44.1284 96.9452C42.8324 96.7948 42.72 96.6892 43.045 96.2247C44.1108 95.0344 47.113 93.1427 50.6013 91.5867C51.8783 90.9773 53.1742 90.3246 53.4951 90.0998C53.8039 89.8954 54.3415 89.6652 54.6855 89.5582L55.3233 89.4539L54.7559 89.7518C54.4119 89.8575 53.8879 90.1757 53.5683 90.4018L52.9697 90.7647L53.7254 90.6361C54.137 90.5603 54.5555 90.4086 54.5974 90.3206C54.6381 90.2326 55.07 90.112 55.5657 89.9698C56.0518 89.9021 57.1744 89.6232 58.0262 89.4052C60.6275 88.7728 64.1958 88.1918 66.4166 88.0253L68.4655 87.8844L67.7396 88.7511Z" fill="#FFD700"/>
<mask id="mask0_701_12925" style="mask-type:luminance" maskUnits="userSpaceOnUse" x="0" y="59" width="130" height="13">
<path d="M0 59.1377H130V71.8777H0V59.1377Z" fill="white"/>
</mask>
<g mask="url(#mask0_701_12925)">
<path d="M0.00537109 59.1377H129.995V71.8777H0.00537109V59.1377Z" fill="#464A4E"/>
</g>
<path d="M41.096 67.6426C41.9153 67.6426 42.4461 67.2418 42.4461 66.5877C42.4461 66.0352 42.0764 65.7034 41.1163 65.4678C40.3878 65.2904 40.1468 65.0981 40.1468 64.7866C40.1468 64.4278 40.469 64.203 41.0039 64.203C41.5564 64.203 41.899 64.482 41.9099 64.9315H42.3757C42.3703 64.203 41.8462 63.7534 41.0039 63.7534C40.1847 63.7534 39.6647 64.1543 39.6647 64.7866C39.6647 65.3662 40.0777 65.6872 40.9985 65.9065C41.6743 66.0677 41.9586 66.2559 41.9586 66.6039C41.9586 66.9736 41.6255 67.193 41.096 67.193C40.511 67.193 40.1048 66.9032 40.0939 66.4211H39.6213C39.6268 67.1551 40.2009 67.6426 41.096 67.6426Z" fill="white"/>
<path d="M45.9092 67.5736H46.3805V66.3413H47.1781C48.0258 66.3413 48.5715 65.8538 48.5715 65.0819C48.5715 64.3154 48.0258 63.8225 47.1781 63.8225H45.9092V67.5736ZM46.3805 65.9012V64.2721H47.1686C47.7739 64.2721 48.0894 64.5511 48.0894 65.0873C48.0894 65.6236 47.7739 65.9012 47.1686 65.9012H46.3805Z" fill="white"/>
<path d="M51.9281 67.5736H54.264V67.1348H52.3994V65.8808H54.0704V65.4462H52.3994V64.2613H54.2045V63.8225H51.9281V67.5736Z" fill="white"/>
<path d="M57.754 67.5736H58.2253V66.2289H59.05L59.9667 67.5736H60.5341L59.5916 66.1801C60.1387 66.0461 60.4759 65.6344 60.4759 65.0277C60.4759 64.2829 59.9613 63.8225 59.184 63.8225H57.754V67.5736ZM58.2253 65.7779V64.2721H59.1312C59.6769 64.2721 59.9938 64.5511 59.9938 65.0277C59.9938 65.5057 59.6769 65.7779 59.1312 65.7779H58.2253Z" fill="white"/>
<path d="M63.9979 67.5736H66.3339V67.1348H64.4692V65.8808H66.1402V65.4462H64.4692V64.2613H66.2743V63.8225H63.9979V67.5736Z" fill="white"/>
<path d="M69.8239 67.5736H70.2897V64.6364L72.3629 67.5736H72.803V63.8225H72.3412V66.7597L70.268 63.8225H69.8239V67.5736Z" fill="white"/>
<path d="M76.2284 67.5736H78.9015V67.124H76.8554L78.8487 64.1705V63.8225H76.2812V64.2721H78.2217L76.2284 67.2255V67.5736Z" fill="white"/>
<path d="M81.866 67.5736H82.3698L82.7124 66.7218H84.5405L84.8939 67.5736H85.3923L83.8485 63.8225H83.4098L81.866 67.5736ZM82.8952 66.2817L83.6292 64.482L84.3631 66.2817H82.8952Z" fill="white"/>
</g>
<defs>
<clipPath id="clip0_701_12925">
<rect width="130" height="130" fill="white"/>
</clipPath>
</defs>
</svg>
