<svg width="130" height="130" viewBox="0 0 130 130" fill="none" xmlns="http://www.w3.org/2000/svg">
<g clip-path="url(#clip0_701_2121)">
<path d="M77.8009 88.5534C77.6425 88.3191 77.4136 87.8899 77.2105 87.5811C76.7433 86.7456 75.3336 85.9791 73.4974 85.5485C71.9577 85.2303 71.871 85.1897 71.8047 84.7563C71.7532 84.4652 71.7017 84.1185 71.7397 83.9222C71.8182 83.1814 70.3124 80.3864 69.1261 79.0824C66.3785 76.1357 62.7994 73.8174 53.541 68.9776C52.2843 68.2829 51.2051 67.6695 51.159 67.595C51.1157 67.5747 50.4535 67.1576 49.725 66.7094C47.2347 65.3295 46.3612 64.7336 45.5216 64.1798C42.5533 61.9874 41.8776 61.4295 40.9202 60.5533C39.6378 59.2845 38.4285 57.8599 38.0697 57.023C37.8868 56.6696 37.7866 55.7379 37.7541 54.8915C37.7325 54.0777 37.7054 53.4494 37.6648 53.5374C37.6228 53.6254 37.5591 54.1048 37.5497 54.5828C37.6106 55.6553 37.5023 55.658 37.3127 54.6315C37.2043 53.8312 37.4508 52.4459 37.6932 52.5583C37.7812 52.6003 38.0277 52.0722 38.2619 51.4574C39.3818 48.2033 43.4227 44.4929 49.6938 40.9409C53.4692 38.7688 62.7602 34.835 66.2864 33.8844C67.3007 33.6081 68.4328 33.3075 68.6901 33.214C69.0679 33.0949 69.5635 32.9527 69.9115 32.954C70.2365 32.9459 71.4363 32.7293 72.5169 32.5383C73.6314 32.3907 75.2415 32.0982 76.1732 31.998C77.0507 31.8991 78.0447 31.7218 78.3791 31.6364C81.8377 31.0027 90.224 31.979 94.2919 33.4808C95.6732 33.9656 95.7842 34.0712 95.9616 34.6088C96.4207 35.9765 94.7822 38.1039 91.2667 40.6931C86.0573 44.5538 80.841 47.3394 75.6749 49.1038C74.1135 49.632 73.9415 49.659 72.502 49.4681C71.4228 49.3124 70.4776 49.6726 70.4369 50.217C70.2487 51.7093 71.4052 53.1894 72.865 53.3898C73.3105 53.3559 73.8129 53.4846 73.9889 53.5672C75.0858 54.0276 79.4665 52.5123 82.684 50.5596C83.7227 50.0016 84.9523 49.2636 85.4655 48.9671C88.0018 47.5005 91.3263 45.4923 93.1802 44.1083C93.3494 43.9729 93.9385 43.6316 94.4287 43.2714C94.9744 42.964 95.5283 42.5808 95.6759 42.3818C95.833 42.1597 96.4058 41.6234 97.0098 41.0763C98.261 39.8928 99.213 38.0863 99.171 36.915C99.1927 36.0673 98.5765 34.5195 97.8182 33.3346C96.5629 31.4333 91.4143 28.8645 88.2673 28.5449C87.5712 28.4866 86.9375 28.3512 86.8061 28.2889C86.6517 28.2172 85.5183 28.0628 84.3104 27.9531C79.7049 27.4859 73.519 28.0493 68.4829 29.4183C67.3941 29.7406 65.9804 30.0697 65.3331 30.1956C63.5713 30.5247 52.6635 34.9352 50.2883 36.2894C50.0743 36.4031 49.5286 36.7105 49.0357 36.9624C48.5861 37.2346 48.1514 37.5934 48.0891 37.7261C48.0485 37.8141 47.6829 37.9645 47.3701 38.0593C47.0248 38.1121 46.7661 38.2055 46.8338 38.2908C46.8596 38.4641 44.0727 40.295 43.4484 40.4859C43.1573 40.5902 43.0286 40.6376 43.1369 40.6349C43.2683 40.6416 42.3867 41.4365 41.1639 42.3912C39.9614 43.3568 38.7738 44.4618 38.4569 44.7962C37.5835 45.862 36.3918 48.0638 35.8962 49.4668C35.4317 50.8047 35.1853 52.993 35.4927 53.1379C35.5807 53.1785 35.5401 53.2665 35.4548 53.3343C35.2191 53.4913 35.6037 55.7081 36.0777 56.8145C36.6044 58.2661 37.7758 60.3421 38.3378 61.034C41.0989 64.4696 45.0341 67.5706 50.7717 70.6568C51.8943 71.235 53.0427 71.9324 53.3975 72.2059C53.7292 72.4686 55.6034 73.5059 57.6252 74.4525C63.1217 77.024 67.0448 79.6362 68.8729 81.8584C69.1424 82.1983 69.4674 82.5924 69.6001 82.6533C69.9075 82.7969 70.1079 83.8017 69.9413 84.5018C69.837 85.0691 69.7287 85.0719 66.8741 85.1572C61.8854 85.3955 58.7735 85.9764 53.346 87.7247C49.5097 88.8784 46.5183 90.3463 43.9156 92.1298C43.4146 92.5117 43.1369 92.6498 43.2182 92.4737C43.5784 91.7046 42.9921 92.1 42.2906 93.1386C40.5221 95.6614 40.3934 96.9669 41.7747 98.7124C42.7293 99.9365 45.0368 100.559 47.5813 100.276C51.0019 99.8946 57.5426 98.344 57.7687 97.8606C57.8107 97.7726 58.5271 97.3853 59.3341 97.0928C62.0858 96.0217 65.7434 94.2761 66.8443 93.5842C68.1999 92.6918 70.005 90.6673 70.9095 89.1344L71.6354 87.8127L72.7648 87.8587C73.3958 87.8858 74.5861 88.1485 75.3769 88.464C76.7365 88.9935 76.8245 89.0341 77.0047 89.6814C77.1929 90.2529 77.2159 90.3165 77.5599 90.1554C78.0122 89.9915 78.1719 89.0761 77.8009 88.5534ZM45.4255 43.0182C45.1736 43.3283 45.0206 43.3107 45.1438 43.048C45.1844 42.96 45.3348 42.8693 45.4201 42.8015C45.5717 42.8191 45.5975 42.9383 45.4255 43.0182ZM59.6849 35.5662C59.2922 35.9454 56.6258 36.9488 56.7287 36.7295C56.7693 36.6414 57.5101 36.3178 58.4228 35.9143C59.349 35.5974 59.9191 35.4078 59.6849 35.5662ZM66.9053 33.0218C66.7116 33.0922 66.5072 33.1843 66.4638 33.1639C66.4191 33.1423 66.5356 33.0096 66.7292 32.9391C66.9229 32.8687 67.1165 32.7983 67.1599 32.82C67.2045 32.8403 67.0989 32.9513 66.9053 33.0218ZM39.8409 46.6501C39.8436 46.7584 39.543 47.2879 39.1638 47.7537C38.7305 48.2209 38.1184 49.3002 37.6932 50.0937C37.3127 50.9076 37.0148 51.5454 36.9484 51.5143C36.9051 51.4939 36.989 50.9699 37.1041 50.3808C37.6593 47.9338 39.7583 44.7082 42.1701 42.7013C48.1365 37.8548 59.3274 32.6656 68.6088 30.4691C72.1906 29.5713 79.4665 28.7954 79.2106 29.3452C79.1686 29.4332 79.04 29.4806 78.9519 29.4386C78.8192 29.3777 77.4448 29.5104 76.5605 29.7406C76.4075 29.723 74.8407 30.0345 73.0356 30.3419C71.2522 30.6601 69.3509 31.0569 68.8553 31.2004C68.3597 31.3439 67.8315 31.4983 67.6785 31.4807C66.7861 31.3846 55.3475 35.7883 51.8659 37.6164C47.0329 40.0986 41.9846 43.4989 40.2959 45.3352C38.9228 46.837 37.8571 48.4281 37.7853 49.0375C37.7948 49.3638 37.9004 49.2528 38.1875 48.6366C38.6303 47.6914 40.0684 45.8186 40.3744 45.8538C40.4828 45.8511 40.5437 45.7198 40.583 45.5221C40.6006 45.3704 40.6859 45.3027 40.7739 45.3433C40.9053 45.4056 41.5133 44.9669 41.6772 44.6148C41.6975 44.5701 42.1335 44.2112 42.6237 43.851C43.1261 43.5233 43.5716 43.1428 43.6136 43.0548C43.7666 42.7244 48.299 39.9673 51.0724 38.452C52.6039 37.6408 56.4795 35.9427 59.6199 34.7321C64.8862 32.6399 66.5342 32.151 70.9095 31.2776C73.9334 30.656 74.1717 30.6059 74.9531 30.5964C75.4094 30.5951 76.1556 30.4895 76.6526 30.4001C77.7224 30.1766 80.3156 30.0764 80.4903 30.159C80.5783 30.1997 79.8985 30.3378 79.0102 30.4041C78.1218 30.5247 77.0304 30.7373 76.5564 30.8375C76.0919 30.9688 75.6816 31.0447 75.6342 30.9147C75.6112 30.851 75.5029 30.8537 75.4623 30.9418C75.4 31.0731 75.2266 31.1002 75.0736 31.0271C74.9409 30.9661 74.5956 31.0189 74.2828 31.1137C74.0038 31.2505 73.7438 31.2898 73.7005 31.2695C73.6328 31.1841 71.7843 31.5268 71.5501 31.6838C71.4648 31.7515 70.9136 31.8423 70.4153 31.8761C68.6278 32.0319 67.3765 32.3582 63.9424 33.512C58.5379 35.3252 49.9836 39.1751 49.6342 39.9226C49.5719 40.0539 49.2185 40.2368 48.8949 40.3004C47.9334 40.5198 44.3151 42.9275 42.1376 44.7759C41.1057 45.6074 40.1578 46.3156 40.0291 46.363C39.8991 46.409 39.8382 46.5418 39.8409 46.6501ZM47.6219 68.5131C47.2035 68.3168 47.0478 68.1908 47.2455 68.2287C47.4635 68.2775 47.7709 68.4224 47.97 68.5686C48.1257 68.6946 47.9727 68.677 47.6219 68.5131ZM68.3231 85.7273C68.5018 85.9182 68.5655 85.8952 68.5601 85.6772C68.5655 85.4388 68.5655 85.4388 68.6454 85.6108C68.7564 85.7164 68.7185 85.9128 68.5899 85.9588C68.3989 86.1376 68.1349 86.0144 68.1267 85.6894C68.1227 85.581 68.1877 85.5566 68.3231 85.7273ZM67.3833 85.5025C67.6 85.4957 67.5797 85.5404 67.3034 85.7869C66.8674 86.1457 66.824 86.1254 66.9987 85.7503C67.0597 85.6189 67.2303 85.4849 67.3833 85.5025ZM66.5979 86.6088C66.7265 86.5614 67.1165 86.5303 67.5079 86.552C68.5831 86.5452 67.6663 86.7862 65.7908 86.9013C64.2619 87.0164 63.2219 87.1194 61.3085 87.4308C60.389 87.5635 55.8566 88.659 54.3373 89.1005C53.1199 89.4688 52.7299 89.5 53.5451 89.1316C55.1105 88.3625 61.8407 87.0368 64.9824 86.7375C65.7637 86.728 66.4882 86.6115 66.5979 86.6088ZM62.4081 87.9454C62.1928 88.005 61.9991 88.0754 61.9544 88.0537C61.9111 88.0334 62.0601 87.9427 62.2104 87.852C62.446 87.7477 62.6397 87.6786 62.6843 87.6989C62.7277 87.7193 62.622 87.8303 62.4081 87.9454ZM66.3203 85.5404C66.6006 85.512 66.6886 85.5526 66.5762 85.795C66.5139 85.9263 66.3623 85.9087 66.2499 85.8031C66.1158 85.6325 66.0508 85.6569 66.0779 85.8288C66.1036 86.0022 66.063 86.0902 66.0183 86.0699C65.7542 85.9466 65.9194 85.5946 66.3203 85.5404ZM62.1522 86.0293C62.4636 85.9345 62.7697 85.9697 62.813 85.99C62.8157 86.0983 63.1177 86.0265 63.5063 85.9399C63.8503 85.7787 64.2294 85.7693 64.3757 85.971C64.5314 86.097 64.5964 86.0739 64.5802 85.8789C64.5544 85.7056 64.6181 85.6826 64.7968 85.8735C64.9756 86.0645 65.0406 86.0414 65.0149 85.8681C64.9878 85.6948 65.0961 85.6921 65.2315 85.8627C65.4319 86.0631 65.4969 86.0401 65.4482 85.8559C65.4225 85.6839 65.4631 85.5959 65.5078 85.6162C65.5511 85.6365 65.6202 85.776 65.6229 85.8844C65.6256 85.9927 65.1083 86.1254 64.4705 86.2297C63.7961 86.2364 62.8997 86.3786 62.4 86.4138C61.4697 86.514 61.2205 86.1295 62.1522 86.0293ZM54.6799 87.68C58.2806 86.6847 59.177 86.487 59.3355 86.7212C59.4479 86.8824 59.4682 86.8377 59.4655 86.7294C59.4181 86.5465 59.6334 86.4856 59.8948 86.5005C60.1344 86.5601 60.5461 86.4843 60.8129 86.3136C61.0918 86.1769 61.2638 86.1498 61.2909 86.3231C61.3193 86.6048 60.5759 86.8201 57.7674 87.3821C57.0551 87.531 55.8783 87.8113 55.2513 87.9468C53.6683 88.4112 53.6683 88.4112 53.5356 88.3503C53.4476 88.3083 52.9966 88.4722 52.4265 88.7159C51.87 88.9908 51.4922 89.1086 51.5436 88.9989C51.5842 88.9109 51.4109 88.8825 51.1631 88.9543C49.9322 89.2359 53.0522 88.1241 54.6799 87.68ZM54.7516 97.4936C54.7069 97.4733 53.973 97.6128 53.1442 97.8945C52.26 98.1233 51.2796 98.4429 50.9776 98.516L50.3723 98.6068L50.9369 98.604C51.5233 98.6095 54.4402 98.0448 55.4328 97.8132C55.7659 97.6737 56.1126 97.6209 56.2006 97.6629C57.0131 98.0434 48.5076 99.5574 46.3003 99.4626C44.9082 99.4016 42.6874 98.7638 42.2513 98.2655C41.8938 97.8836 42.2608 97.7875 43.2263 98.1856C43.7964 98.3982 44.4505 98.4903 44.6875 98.4402C44.9339 98.3143 45.6503 98.275 46.303 98.3115C46.9638 98.2723 47.6572 98.2222 47.8075 98.1314C48.4087 97.8769 50.8963 97.4855 50.9234 97.713C50.9627 97.973 52.6825 97.6778 52.8165 97.3921C52.8775 97.2607 53.2417 97.0562 53.6737 96.9899C54.0515 96.8721 54.3508 96.6906 54.3481 96.5823C54.3684 96.5376 54.5201 96.5552 54.7422 96.7123C55.1403 97.0061 55.1403 97.0061 59.6876 95.2484C61.0959 94.7013 62.1847 94.379 62.1237 94.5104C62.0208 94.7311 54.971 97.5965 54.7516 97.4936ZM67.7394 88.7511C65.4523 91.4053 60.8874 93.7724 53.9919 95.8524C50.8151 96.8585 46.7214 97.3013 44.1282 96.9452C42.8323 96.7949 42.7199 96.6893 43.0449 96.2248C44.1106 95.0345 47.1128 93.1427 50.6011 91.5868C51.8781 90.9774 53.174 90.3247 53.495 90.0999C53.8037 89.8954 54.3413 89.6652 54.6853 89.5582L55.3231 89.4539L54.7557 89.7519C54.4117 89.8575 53.8877 90.1757 53.5681 90.4019L52.9695 90.7648L53.7252 90.6361C54.1368 90.5603 54.5553 90.4086 54.5973 90.3206C54.6379 90.2326 55.0699 90.1121 55.5655 89.9699C56.0516 89.9022 57.1742 89.6232 58.026 89.4052C60.6274 88.7728 64.1956 88.1919 66.4164 88.0253L68.4653 87.8845L67.7394 88.7511Z" fill="#FFD700"/>
<mask id="mask0_701_2121" style="mask-type:luminance" maskUnits="userSpaceOnUse" x="0" y="59" width="130" height="13">
<path d="M0 59.1378H130V71.8778H0V59.1378Z" fill="white"/>
</mask>
<g mask="url(#mask0_701_2121)">
<path d="M0.00537109 59.1378H129.995V71.8778H0.00537109V59.1378Z" fill="#464A4E"/>
</g>
<path d="M41.0963 67.6427C41.9155 67.6427 42.4464 67.2419 42.4464 66.5878C42.4464 66.0353 42.0767 65.7035 41.1166 65.4679C40.388 65.2905 40.147 65.0982 40.147 64.7868C40.147 64.4279 40.4693 64.2031 41.0042 64.2031C41.5567 64.2031 41.8993 64.4821 41.9101 64.9317H42.376C42.3705 64.2031 41.8465 63.7535 41.0042 63.7535C40.1849 63.7535 39.6649 64.1544 39.6649 64.7868C39.6649 65.3664 40.0779 65.6873 40.9988 65.9067C41.6745 66.0678 41.9589 66.256 41.9589 66.6041C41.9589 66.9737 41.6257 67.1931 41.0963 67.1931C40.5113 67.1931 40.105 66.9033 40.0942 66.4212H39.6216C39.627 67.1552 40.2012 67.6427 41.0963 67.6427Z" fill="white"/>
<path d="M45.9092 67.5736H46.3804V66.3414H47.178C48.0257 66.3414 48.5715 65.8539 48.5715 65.082C48.5715 64.3155 48.0257 63.8226 47.178 63.8226H45.9092V67.5736ZM46.3804 65.9012V64.2722H47.1686C47.7739 64.2722 48.0894 64.5511 48.0894 65.0874C48.0894 65.6236 47.7739 65.9012 47.1686 65.9012H46.3804Z" fill="white"/>
<path d="M51.9282 67.5736H54.2642V67.1349H52.3995V65.8809H54.0705V65.4462H52.3995V64.2614H54.2046V63.8226H51.9282V67.5736Z" fill="white"/>
<path d="M57.7539 67.5736H58.2252V66.229H59.0498L59.9666 67.5736H60.534L59.5915 66.1802C60.1386 66.0461 60.4758 65.6345 60.4758 65.0278C60.4758 64.283 59.9612 63.8226 59.1839 63.8226H57.7539V67.5736ZM58.2252 65.778V64.2722H59.1311C59.6768 64.2722 59.9937 64.5511 59.9937 65.0278C59.9937 65.5058 59.6768 65.778 59.1311 65.778H58.2252Z" fill="white"/>
<path d="M63.998 67.5736H66.334V67.1349H64.4693V65.8809H66.1403V65.4462H64.4693V64.2614H66.2744V63.8226H63.998V67.5736Z" fill="white"/>
<path d="M69.8237 67.5736H70.2896V64.6365L72.3628 67.5736H72.8029V63.8226H72.3411V66.7598L70.2679 63.8226H69.8237V67.5736Z" fill="white"/>
<path d="M76.2285 67.5736H78.9016V67.1241H76.8555L78.8488 64.1706V63.8226H76.2813V64.2722H78.2218L76.2285 67.2256V67.5736Z" fill="white"/>
<path d="M81.8662 67.5736H82.37L82.7126 66.7219H84.5407L84.8941 67.5736H85.3925L83.8487 63.8226H83.41L81.8662 67.5736ZM82.8954 66.2818L83.6293 64.4821L84.3633 66.2818H82.8954Z" fill="white"/>
</g>
<defs>
<clipPath id="clip0_701_2121">
<rect width="130" height="130" fill="white"/>
</clipPath>
</defs>
</svg>
