<svg width="113" height="45" viewBox="0 0 113 45" fill="none" xmlns="http://www.w3.org/2000/svg">
<path d="M82.5292 0.42676C87.708 1.7354 92.7989 3.2914 97.483 5.93261C99.1507 5.13466 99.9168 6.51511 100.603 7.46467C103.587 11.5661 107.035 15.2686 110.21 19.2025C111.942 21.349 112.828 23.7029 112.517 26.4239C111.942 31.4271 111.663 36.4781 110.474 41.3934C110.115 42.8696 109.915 44.6331 107.88 44.9762C103.26 42.3191 98.1772 42.8776 93.182 42.8617C65.3969 42.7739 37.6199 43.0213 9.83488 42.734C7.68038 42.7101 5.52588 42.8457 3.37139 43.0931C1.77546 43.2846 0.323178 43.1809 1.08124 40.8668C8.15916 31.475 9.68326 20.7106 8.92519 9.34783C8.74166 6.62683 8.96509 3.8739 8.99701 1.13693C31.9783 1.08906 54.9596 1.05715 77.9409 0.969371C79.465 0.969371 81.1088 1.50399 82.5132 0.410797L82.5292 0.42676Z" fill="#013258"/>
</svg>
