<svg width="18" height="113" viewBox="0 0 18 113" fill="none" xmlns="http://www.w3.org/2000/svg">
<path d="M17.082 112.753C13.2438 112.777 9.39768 112.633 5.57544 112.873C2.35168 113.072 1.2425 111.827 1.47391 108.684C1.60956 106.896 2.00855 104.973 0.883423 103.281C1.20261 93.1954 1.41805 83.1013 1.87289 73.0232C2.58307 57.3116 3.4768 41.616 4.25082 25.9044C4.6099 18.5473 4.85728 11.1902 5.18445 3.83311C5.25626 2.10156 5.12061 0.082745 7.80176 0.385966C9.81262 0.609391 11.1452 1.30363 11.2649 3.84908C11.9911 18.6989 12.9087 33.5408 13.7625 48.3826C14.9036 68.2515 16.0527 88.1284 17.1778 107.997C17.2656 109.577 17.1299 111.165 17.098 112.753H17.082Z" fill="#04C9B7"/>
</svg>
