<svg width="46" height="31" viewBox="0 0 46 31" fill="none" xmlns="http://www.w3.org/2000/svg">
<path d="M1.18252 13.3536C1.28626 10.1938 1.46979 7.02594 1.46979 3.86606C1.46979 0.44286 2.90611 -0.0997706 6.14583 0.498691C13.0721 1.77541 17.8998 6.23597 22.8951 10.5529C30.364 17.0003 37.8249 23.4637 45.0305 30.5814C42.5728 29.8712 40.0991 29.2009 37.6494 28.4429C29.4064 25.8974 20.9161 24.3653 12.5295 22.4503C11.4044 22.1949 10.2234 22.1471 9.27385 23.0727C7.32683 21.9316 5.47554 20.5831 3.4168 19.7053C0.208998 18.3328 -1.11562 16.5534 1.17453 13.3616L1.18252 13.3536Z" fill="#00CAB8"/>
</svg>
