<svg width="91" height="46" viewBox="0 0 91 46" fill="none" xmlns="http://www.w3.org/2000/svg">
<path d="M90.0434 12.4861C89.9557 23.4419 91.1845 34.3659 90.6339 45.3297C89.1816 42.7683 89.812 39.9355 89.8918 37.2704C89.9796 34.1663 88.7826 32.0598 86.4685 30.2484C79.1193 24.4872 70.5971 21.072 61.9392 17.9361C51.5417 14.1618 40.9847 10.9221 30.2841 8.09735C21.8097 5.86309 13.4151 3.34958 4.75725 1.84146C3.66405 1.64995 2.61873 1.21104 0.98291 0.708337C4.54182 -0.416771 7.28681 0.684391 10.0398 1.09932C26.5097 3.5969 42.9716 6.15834 59.4416 8.7038C68.5144 10.1082 77.6032 11.4807 86.668 12.9569C87.9128 13.1564 88.9183 12.7095 90.0275 12.4941L90.0434 12.4861Z" fill="#C0DBE8"/>
</svg>
