<svg width="75" height="42" viewBox="0 0 75 42" fill="none" xmlns="http://www.w3.org/2000/svg">
<path d="M62.837 3.1893C68.4308 4.27451 70.298 9.2218 71.8541 13.3951C74.3676 20.1058 75.7321 27.2714 72.5163 34.4051C70.6491 38.5464 67.6408 41.0201 63.1084 41.5946C53.4451 42.8154 45.3138 39.5678 38.2598 33.1124C33.121 28.4045 26.833 25.9309 20.2179 24.3509C14.0896 22.8907 8.0171 21.0793 1.66532 20.7362C0.947157 20.6963 -0.0183834 20.6325 0.0374739 19.7627C0.10929 18.7014 1.0509 18.079 2.02442 17.6801C7.47449 15.4458 12.8926 13.1397 18.3746 10.9932C28.5726 7.01147 38.9461 3.67605 49.8941 2.46316C52.6391 -0.712672 55.9028 -0.170048 59.1106 1.40989C60.3474 2.02431 61.3688 3.06163 62.845 3.1893H62.837Z" fill="#F9D6C0"/>
</svg>
