<svg width="80" height="60" viewBox="0 0 80 60" fill="none" xmlns="http://www.w3.org/2000/svg">
<path d="M68.7305 0.637309C72.6245 -0.176599 75.9042 2.87955 79.7503 2.39281C74.8828 15.0164 71.9622 27.9671 72.7921 41.628C73.1273 47.1099 74.8828 52.3284 75.585 59.0152C66.2009 49.3202 53.5612 46.2561 45.1826 36.2418C35.1203 24.2167 20.4777 20.0115 5.32443 17.9688C4.47062 17.857 3.59286 17.881 2.73106 17.8012C1.87724 17.7214 0.815947 17.7054 0.632416 16.7C0.456864 15.7505 1.33464 15.1281 2.0927 14.753C5.57181 13.0295 8.9392 10.9229 12.6018 9.77383C22.6003 6.62991 32.4871 2.97529 42.8127 1.0283C50.513 -0.415991 58.357 0.75701 66.1291 0.621359C66.9909 0.6054 67.8607 0.621342 68.7225 0.629322L68.7305 0.637309Z" fill="#F9D6C0"/>
</svg>
