<svg width="74" height="102" viewBox="0 0 74 102" fill="none" xmlns="http://www.w3.org/2000/svg">
<path d="M1.47773 0.750153C1.84479 1.71567 0.759566 2.91261 3.45668 3.0323C11.1251 3.35946 17.7162 7.52475 23.8047 11.714C32.287 17.539 40.53 23.7471 48.4059 30.4738C53.1218 34.5034 53.5687 39.9374 55.2603 44.9246C61.1812 62.3438 66.6712 79.9146 72.3287 97.4296C72.5043 97.9802 72.6798 98.5308 72.8155 99.0894C73.0389 99.9911 73.9965 101.06 72.6958 101.723C71.7782 102.185 71.1637 101.172 70.5732 100.598C62.825 93.1287 53.8878 87.3835 44.1926 82.8751C34.6969 78.4624 25.0575 74.2572 14.3887 73.5869C11.2208 73.3874 9.6329 71.1691 7.72577 69.2381C5.06856 68.3284 5.31592 65.8149 4.69351 63.7801C4.96482 61.6895 3.72798 59.7186 4.14292 57.612C4.18282 57.4125 4.22272 57.2051 4.27059 57.0056C3.20931 48.7388 1.86075 40.496 1.15056 32.1973C0.264827 21.7282 -0.00648016 11.2192 1.47773 0.750153Z" fill="#00CAB7"/>
</svg>
