<svg width="58" height="180" viewBox="0 0 58 180" fill="none" xmlns="http://www.w3.org/2000/svg">
<path d="M53.4673 63.7914C54.1216 79.2955 55.3185 94.7598 56.7708 110.208C57.3454 116.36 57.3932 122.56 57.8481 128.728C58.0396 131.306 57.0102 132.439 54.5684 132.702C50.5786 133.125 46.5968 133.644 42.607 134.091C41.3462 134.234 39.7503 133.883 39.2077 135.351C38.6491 136.86 40.1892 137.594 41.051 138.479C44.1631 141.687 47.1793 145.015 50.5068 147.983C53.6189 150.768 52.6055 152.595 49.7647 154.574C42.4394 159.665 35.17 164.812 27.8766 169.95C25.8817 171.355 23.6554 172.552 21.9558 174.259C15.6997 180.555 8.2069 179.638 0.578384 178.297C0.45071 171.147 3.91385 164.979 6.07633 158.468C16.8727 125.888 29.5763 93.906 37.1809 60.3203C40.1413 47.226 42.3437 33.996 43.6683 20.6064C44.2189 15.0367 44.7456 9.47501 45.1844 3.88937C45.2642 2.36529 45.3919 0.873116 47.1315 0.242737C50.3632 2.15781 50.8819 5.28577 50.8978 8.64514C50.4111 13.6882 51.4724 18.6514 51.8474 23.6386C52.7172 35.145 53.4992 46.6514 54.0977 58.1658C53.986 60.2565 52.414 61.4614 51.1612 62.8019C39.471 75.3776 32.5367 90.0439 31.0844 107.296C30.2466 117.238 31.8664 126.837 34.3242 136.373C34.9705 138.886 35.7845 141.36 36.5824 143.826C37.2208 145.821 37.4442 147.76 36.0717 149.603C35.5131 150.361 34.4678 151.35 35.8483 152.1C37.2367 152.858 38.9364 153.249 40.3647 152.252C41.5856 151.398 40.9393 150.297 40.3488 149.204C25.2992 121.3 29.8237 87.4266 49.1902 66.0256C50.3233 64.7808 51.3606 63.2089 53.4752 63.7914H53.4673Z" fill="#BFDAE9"/>
</svg>
