<svg width="53" height="159" viewBox="0 0 53 159" fill="none" xmlns="http://www.w3.org/2000/svg">
<path d="M51.375 70.6094C47.5926 78.9959 43.7544 87.3504 40.0599 95.7688C37.6819 101.187 36.9957 107.108 35.4476 112.773C32.1521 124.846 30.5163 137.238 28.6331 149.574C28.3059 151.697 28.4815 153.899 28.3857 156.062C28.3378 157.227 28.258 158.535 26.7499 158.695C25.4971 158.831 25.0582 157.69 24.7071 156.788C22.4648 151.043 20.2545 145.289 18.092 139.512C14.158 129.011 10.2879 118.494 6.36195 107.993C4.55058 103.158 2.45194 98.3222 1.23904 93.4148C0.185729 89.1538 1.22308 84.2943 1.7258 79.738C3.09031 67.3139 4.82986 54.9218 7.7903 42.777C9.41814 36.0902 11.7482 29.539 14.166 23.0836C16.8392 15.942 19.7438 8.88014 23.8134 2.35292C24.5874 1.1161 25.1619 0.214382 26.694 0.373971C31.3541 8.05024 34.0831 16.5724 37.1952 24.895C40.3711 33.4011 43.1161 42.0668 46.0446 50.6607C50.3456 55.991 50.6329 62.7097 52.3006 68.9417C52.4682 69.5721 52.2607 70.3621 51.3829 70.6094H51.375Z" fill="#00CAB8"/>
</svg>
