<svg width="55" height="52" viewBox="0 0 55 52" fill="none" xmlns="http://www.w3.org/2000/svg">
<path d="M36.1736 0.838201C44.0096 3.73476 48.0473 10.1742 50.8641 17.3877C55.2209 28.543 55.3645 40.1611 53.5771 51.867C50.5768 48.0449 45.9646 49.0982 42.1024 48.4199C31.4417 46.5447 20.6453 46.7601 9.85681 47.4065C8.3726 47.4943 7.09584 48.1805 5.69143 48.4439C4.04762 48.7551 2.42777 48.771 1.41436 47.2549C0.488727 45.8744 1.15106 44.4541 1.94104 43.2173C4.26311 39.5866 6.68092 36.0038 9.1546 32.4689C15.8974 22.8217 22.72 13.2304 29.6223 3.69487C31.3539 1.30102 33.277 0.143986 36.1816 0.838201H36.1736Z" fill="#00CAB8"/>
</svg>
