<svg width="38" height="149" viewBox="0 0 38 149" fill="none" xmlns="http://www.w3.org/2000/svg">
<path d="M37.4565 54.1923C37.4485 60.9509 37.4326 67.7095 37.4246 74.4602C28.7587 98.0396 26.0377 122.648 25.112 148.454C21.0265 142.956 19.4625 137.291 17.1324 132.08C11.4509 119.385 6.32802 106.434 0.925825 93.6189C-0.84565 89.4217 0.99764 85.3601 1.26097 81.2746C2.12277 68.2122 4.56453 55.3413 7.30154 42.5821C10.1343 29.4 14.2199 16.553 20.2604 4.40028C21.0744 2.76448 22.1995 1.58351 23.7395 0.697784C26.5484 6.57069 27.1628 13.058 28.9103 19.2261C32.182 30.7725 33.5226 42.7975 37.4645 54.1843L37.4565 54.1923Z" fill="#00CAB8"/>
</svg>
