<svg width="231" height="204" viewBox="0 0 231 204" fill="none" xmlns="http://www.w3.org/2000/svg">
<path d="M213.017 25.1455C220.837 35.0161 226.359 46.0278 228.8 58.4119C230.795 68.5539 230.396 78.6399 227.276 88.6063C225.736 93.5297 224.459 98.5328 222.153 103.193C216.647 114.348 207.694 122.288 198.103 129.804C183.277 141.423 168.786 153.472 154.079 165.249C141.168 175.583 128.193 185.836 115.139 195.994C111.548 198.795 108.5 202.434 103.911 203.838C101.932 202.162 102.571 199.848 102.563 197.766C102.507 176.58 102.523 155.403 102.547 134.217C102.547 131.895 102.411 129.613 101.661 127.411C100.408 121.713 98.573 116.303 94.2481 112.09C89.5162 107.478 84.0023 104.853 77.2515 104.869C55.3714 104.9 33.4993 104.892 11.6192 104.869C9.03376 104.869 6.43242 105.02 3.87894 104.446C0.766891 103.608 -0.302377 101.788 0.886586 98.6365C2.46655 94.4393 3.34429 90.0586 3.86297 85.5981C4.28589 81.9434 5.44292 78.8873 9.66414 78.0654C10.9169 77.818 11.8984 76.7887 12.7124 75.7514C17.939 70.6285 20.0057 64.0774 20.8037 57.0873C21.4979 50.9591 19.0562 47.0571 13.4784 44.4398C12.3054 43.8893 11.0845 43.4105 10.3584 42.2216C9.2093 38.9978 10.4382 35.4549 9.00187 32.2632C7.79694 26.8052 7.20643 21.2355 6.03342 15.7696C5.70626 14.2534 5.39505 12.6336 6.67977 11.301C11.4675 8.97901 16.0718 6.0665 21.083 4.45464C33.6987 0.39308 46.6097 -0.213358 59.7282 2.15655C74.682 4.85362 86.7153 12.873 98.0065 22.3925C102.292 26.0072 103.927 26.2307 108.013 22.5202C114.357 16.767 121.467 12.099 128.872 7.96561C136.899 3.48114 145.796 1.57405 154.917 0.887811C166.432 0.0260261 177.563 1.78949 188.2 6.32184C198.031 10.5111 206.33 16.7989 213.033 25.1614L213.017 25.1455Z" fill="#D4EFF6"/>
</svg>
