<svg width="14" height="20" viewBox="0 0 14 20" fill="none" xmlns="http://www.w3.org/2000/svg">
<path d="M8.88267 0.788551C9.09014 0.780571 9.28963 0.812485 9.48114 0.884301C9.6567 3.26219 9.16993 5.75976 11.5159 7.58706C14.3168 9.77344 14.636 12.6541 12.9204 15.6543C11.4122 18.2876 8.93055 19.5084 5.98607 18.894C3.11341 18.2955 1.18235 16.3645 0.86317 13.2924C0.504087 9.8293 1.33397 6.97264 5.22802 6.0151C5.43549 7.73069 5.65092 9.43831 5.83446 11.1539C5.97809 12.4386 5.86637 14.0584 7.78148 13.7951C9.51306 13.5557 9.32952 11.9598 9.27367 10.6911C9.13003 7.38759 8.34005 4.116 8.87469 0.788551H8.88267Z" fill="#8DB4C8"/>
</svg>
