<svg width="56" height="190" viewBox="0 0 56 190" fill="none" xmlns="http://www.w3.org/2000/svg">
<path d="M0.439209 4.01559C1.76383 2.86655 3.08843 1.70953 4.42103 0.560486C5.77756 1.70155 5.53021 3.16179 5.05941 4.54224C4.046 7.50263 4.11781 10.5348 4.40508 13.5511C6.01696 30.699 9.75142 47.3921 15.002 63.7899C22.6146 87.5848 31.9826 110.717 41.0315 133.978C45.1091 144.455 48.6042 155.163 51.3172 166.127C52.594 171.274 54.557 176.245 55.2512 181.567C55.6103 184.328 55.8816 187.001 54.8602 189.65L54.6527 189.962C51.8279 183.809 51.038 177.051 48.8436 170.691C41.9332 150.671 33.1796 131.44 24.6813 112.074C17.2203 95.0695 9.79131 78.0174 5.86534 59.7284C2.21865 42.748 0.814239 25.5602 0.925954 8.22079C0.933933 6.80842 1.35686 5.32423 0.455159 4.00762L0.439209 4.01559Z" fill="#08B0A2"/>
</svg>
