<svg width="33" height="138" viewBox="0 0 33 138" fill="none" xmlns="http://www.w3.org/2000/svg">
<path d="M27.7352 0.62715C30.5041 9.23702 31.326 17.3202 31.6532 25.2758C32.0521 35.0587 33.3608 44.8255 32.7145 54.6403C32.1639 62.9549 32.1559 71.3893 30.6398 79.5283C29.6982 84.5793 26.4983 89.2394 24.1284 93.9872C17.6968 106.85 11.6962 119.912 5.91095 133.071C5.23268 134.619 4.92943 136.374 2.79089 137.787C2.13656 132.775 2.14455 128.068 2.64726 123.463C3.54896 115.117 3.59685 106.834 2.61536 98.4876C1.88124 92.2317 2.49566 85.9358 1.05933 79.6001C0.269344 76.1051 2.43184 71.8042 3.66868 68.0059C9.86086 48.9988 15.0955 29.6884 22.6522 11.1201C24.0486 7.69695 25.2216 4.30568 27.7512 0.611176L27.7352 0.62715Z" fill="#00CAB8"/>
</svg>
