<svg width="34" height="194" viewBox="0 0 34 194" fill="none" xmlns="http://www.w3.org/2000/svg">
<path d="M33.8128 3.7417C29.1474 3.93853 26.8147 6.39887 26.8147 11.1227C26.8147 69.6283 26.8147 128.134 26.8147 186.64C26.8147 193.462 26.687 193.606 19.6889 192.76C18.2366 192.584 16.8481 192.473 15.4437 192.919C15.8587 184.086 14.2787 175.388 13.6244 166.635C12.0763 145.928 10.3288 125.229 8.48548 104.539C6.37088 80.8315 4.87072 57.0766 3.30671 33.3297C3.24288 24.7437 1.73476 16.2934 0.944778 7.77133C0.70539 5.178 0.737285 2.57668 2.71623 0.486053C13.0897 1.57126 23.4552 2.65649 33.8208 3.7417H33.8128Z" fill="#014972"/>
</svg>
