<svg width="115" height="92" viewBox="0 0 115 92" fill="none" xmlns="http://www.w3.org/2000/svg">
<path d="M0.950921 7.15206C1.91379 2.4814 4.93807 0.146069 10.0237 0.146069C43.0514 0.146069 76.079 0.209912 109.115 0.0662816C113.041 0.0503226 114.269 1.08765 114.246 5.13325C114.07 31.9922 114.15 58.8512 114.142 85.7022C114.142 87.5614 114.413 89.4844 113.232 91.1521C110.431 84.0983 107.798 76.9726 104.782 70.0065C102.843 65.53 100.513 61.1892 98.0788 56.96C92.8841 47.9432 85.6944 41.5995 75.6401 37.8172C57.9812 31.1783 40.1707 25.2176 21.7617 21.0842C18.131 22.4886 15.6893 19.4165 12.6331 18.6585C8.45975 15.7779 4.14276 13.0808 0.623753 9.33844C0.248711 8.53251 -0.230055 7.71062 0.958908 7.15206H0.950921Z" fill="#014972"/>
</svg>
