<svg width="48" height="176" viewBox="0 0 48 176" fill="none" xmlns="http://www.w3.org/2000/svg">
<path d="M47.4373 0.969177C46.775 14.4864 45.187 27.8919 42.9687 41.2416C38.4283 68.5235 29.6666 94.6085 20.6576 120.622C14.3378 138.863 7.93816 157.072 1.5784 175.297C1.33901 175.297 1.10759 175.281 0.868204 175.249C0.796387 174.156 0.716592 173.063 0.644775 171.97C0.668714 171.738 0.69265 171.507 0.716589 171.275C1.48263 162.147 4.7064 153.577 7.14816 144.879C13.2685 123.063 19.2612 101.215 25.8843 79.5432C28.9166 69.6087 32.2201 59.7301 34.6858 49.6441C37.8298 36.7572 40.7902 23.8224 44.0539 10.9675C44.5167 9.14815 43.9741 7.19318 44.3412 5.3579C44.7082 3.50665 44.5327 1.08885 47.4452 0.97714L47.4373 0.969177Z" fill="#09AFA1"/>
</svg>
