<svg width="28" height="29" viewBox="0 0 28 29" fill="none" xmlns="http://www.w3.org/2000/svg">
<path d="M19.4285 27.7977C14.5291 24.4064 9.82907 20.656 4.65828 17.7515C1.25896 15.8444 0.0859597 13.642 0.125858 9.90761C0.221613 0.962605 0.0779785 0.962603 8.95131 0.978562C9.52584 0.978562 10.1004 1.00253 10.6749 1.01051C10.7387 4.322 10.8584 7.6335 10.8505 10.945C10.8505 16.77 10.8106 16.77 16.8671 16.77C18.8859 16.77 20.9207 16.9615 22.9156 16.7301C26.4347 16.3311 27.3363 17.8791 27.3124 21.1826C27.2645 28.412 27.4161 28.4121 19.4206 27.7817L19.4285 27.7977Z" fill="#0CC6B5"/>
</svg>
