<svg width="100" height="69" viewBox="0 0 100 69" fill="none" xmlns="http://www.w3.org/2000/svg">
<path d="M66.8012 50.4663C61.2952 48.8305 55.933 50.8333 50.5388 51.2722C40.0376 52.118 29.9274 55.0225 19.9928 58.4537C13.258 60.7837 6.87428 63.8798 0.299072 68.3084C1.74338 62.6589 3.95374 58.1904 6.08429 53.7059C12.3244 40.5717 18.8676 27.5651 24.7965 14.2873C28.1878 6.69078 34.4119 3.22767 41.5217 0.514648C42.8065 1.22482 43.2932 2.51752 43.2853 3.77828C43.2613 7.8159 45.6712 8.35852 48.9667 8.3266C63.737 8.21489 78.5073 8.23084 93.2696 8.72557C95.2166 8.78941 97.3472 8.20686 98.9351 9.97831C100.308 13.8005 96.7407 15.3964 95.0889 17.5109C86.1677 28.9136 76.7757 39.9333 66.8092 50.4503L66.8012 50.4663Z" fill="#02CABA"/>
</svg>
