<svg width="50" height="52" viewBox="0 0 50 52" fill="none" xmlns="http://www.w3.org/2000/svg">
<path d="M34.1939 1.22577C34.8642 5.28733 34.2817 9.36483 34.3456 13.4264C33.7311 15.7963 34.5051 17.0172 37.0826 16.9773C40.2505 16.9294 43.4264 17.081 46.5943 16.9613C49.06 16.8735 49.9297 17.9268 49.826 20.3047C49.7063 23.1853 49.8101 26.0739 49.8021 28.9624C49.7861 34.3167 49.3552 34.7715 44.0009 35.1465C37.9843 35.5721 34.9813 38.7932 34.9919 44.8097C34.9999 50.8901 34.9999 50.9699 28.8556 50.8581C24.8418 50.7863 19.8227 52.494 17.0697 50.1879C14.1651 47.7462 16.152 42.5834 16.0244 38.6176C15.9366 35.9685 15.0109 35.0189 12.4335 35.1306C9.40926 35.2663 6.377 35.0987 3.35272 35.1705C1.17429 35.2264 0.200781 34.3566 0.240679 32.1143C0.320475 27.7895 0.320475 23.4566 0.240679 19.1238C0.200781 16.8656 1.20621 16.0357 3.36869 16.0915C6.24933 16.1713 9.15391 15.9001 12.0106 16.1394C15.7371 16.4586 16.9181 14.6233 16.8303 11.2959C16.7744 9.13344 16.942 6.95503 16.7744 4.80057C16.535 1.74443 18.0592 0.595363 20.844 0.595363C25.2967 0.595363 29.7653 0.188409 34.178 1.19382L34.1939 1.22577Z" fill="#EBFBFC"/>
</svg>
