<svg width="51" height="138" viewBox="0 0 51 138" fill="none" xmlns="http://www.w3.org/2000/svg">
<path d="M50.0742 51.6875C45.446 56.6587 43.3235 63.0184 40.6024 69.0189C32.8861 86.0312 28.7048 104.041 25.8481 122.402C25.2736 126.088 25.1379 129.847 24.8107 133.565C24.6911 134.953 25.1858 136.861 23.4063 137.259C21.3556 137.714 21.3875 135.576 20.9805 134.339C17.27 123.144 13.6951 111.909 9.96867 100.713C6.7449 91.0423 3.22588 81.427 1.24694 71.4208C-0.325044 63.4572 0.329282 55.2942 0.895835 47.2509C1.43845 39.5108 2.73914 31.8425 4.90959 24.3577C7.04015 17.0166 9.61756 9.87496 13.376 3.15623C14.3495 1.40872 16.2406 1.95132 17.1184 0.602783C23.6537 6.17247 28.3058 13.2662 32.9978 20.3201C39.6129 30.2705 45.4301 40.6519 50.0742 51.6715V51.6875Z" fill="#00CAB8"/>
</svg>
