<svg width="154" height="126" viewBox="0 0 154 126" fill="none" xmlns="http://www.w3.org/2000/svg">
<path d="M122.648 108.403C120.565 112.783 118.538 117.188 116.384 121.529C113.902 126.532 109.913 127.043 106.29 122.758C103.505 119.462 100.776 116.103 98.3261 112.552C96.5706 109.998 94.4879 109.097 91.4397 109.113C73.9803 109.224 56.5129 109.001 39.0535 109.216C24.8259 109.392 13.5347 103.958 5.71469 92.1563C2.40315 87.1612 0.392278 81.3282 0.36834 75.1201C0.320462 61.6827 0.224706 48.2452 0.392278 34.8157C0.599748 18.394 14.7317 3.28081 31.018 1.50138C46.1314 -0.15037 61.2688 1.03059 76.3981 0.759292C88.8064 0.535866 101.223 0.679496 113.631 0.727373C126.103 0.76727 136.636 4.9964 144.416 15.1383C149.196 21.3623 151.877 28.3444 151.997 36.2122C152.101 42.8591 152.013 49.506 152.013 56.1449C152.452 56.7115 153.074 57.2541 153.138 57.9642C154.167 70.2925 154.63 82.5331 147.393 93.5208C146.834 94.3667 145.996 94.9811 145.486 95.8588C142.046 100.694 137.211 103.814 132.184 106.711C129.072 107.66 126.255 110.27 122.648 108.395V108.403Z" fill="#FEFEFE"/>
</svg>
