<svg width="125" height="163" viewBox="0 0 125 163" fill="none" xmlns="http://www.w3.org/2000/svg">
<path d="M23.8576 0.849704C47.5969 0.897581 71.3443 1.36837 95.0757 0.849704C110.069 0.514565 122.031 10.1618 124.113 24.6765C124.592 26.0888 124.369 27.5411 124.369 28.9774C124.385 72.0108 124.393 115.044 124.305 158.078C124.305 159.498 125.566 161.525 123.228 162.474C121.368 152.157 117.658 142.326 115.224 132.16C113.461 105.636 114.865 79.0806 114.418 52.5488C114.402 51.679 114.418 50.8173 114.418 49.9475C114.402 45.2556 112.107 42.9043 107.532 42.8936C75.9565 42.8856 44.3811 42.9654 12.8058 42.7979C8.4968 42.7739 5.17728 43.3086 3.78085 47.8888C1.4109 48.7745 1.52261 46.6679 1.22736 45.5189C-0.456336 38.9837 0.445364 32.3368 0.756569 25.7377C0.852324 23.671 2.54399 22.1549 4.01224 20.7745C9.67777 15.4362 15.3034 10.066 19.1496 3.15578C20.155 1.34443 21.743 0.514569 23.8496 0.865666L23.8576 0.849704Z" fill="#003157"/>
</svg>
