<svg width="140" height="137" viewBox="0 0 140 137" fill="none" xmlns="http://www.w3.org/2000/svg">
<path d="M134.672 39.293C135.909 46.2272 137.145 53.1694 138.374 60.1036C138.965 63.439 138.47 66.8063 138.678 70.1497C139.156 71.3467 139.507 72.5595 139.045 73.8522C138.063 75.48 137.688 77.2355 137.672 79.1426C137.664 80.4512 137.361 81.9195 135.781 82.0631C134.129 82.2067 133.754 80.7784 133.571 79.4618C133.387 78.1851 133.315 76.9004 132.35 75.9029C128.224 66.4951 121.386 59.7924 112.153 55.3717C107.661 53.2173 102.865 52.2438 98.0853 51.1506C93.9997 50.217 89.9141 49.3472 85.9961 47.7832C75.6785 43.6498 69.9571 37.1146 67.244 26.1827C64.8661 32.4147 60.5651 37.3062 55.3863 40.9129C41.2225 50.7516 36.5784 65.1705 34.7431 81.1694C34.6154 82.3185 34.5994 83.4755 34.36 84.6165C33.3466 87.561 33.9291 90.6171 33.6977 93.6174C33.61 94.7585 33.5461 96.1868 32.2135 96.4182C30.8171 96.6656 30.3383 95.2452 29.9633 94.2159C27.9684 88.7738 27.4337 83.0047 26.3166 77.3632C26.0134 75.8471 26.6039 73.4054 24.2738 73.2139C22.1832 73.0463 21.082 75.0252 20.3319 76.7328C16.8767 84.6485 19.3424 91.9337 22.9811 99.0195C24.0344 101.078 25.6463 102.762 27.2582 104.414C32.8918 106.249 34.4398 110.606 34.8468 116C35.2218 121.051 36.8497 125.863 38.7807 130.546C39.4351 132.134 40.0655 133.77 39.874 135.558C39.6585 136.316 38.9483 137.13 38.4057 136.778C34.0648 134.01 28.2796 134.409 24.5212 130.419C-1.02157 118.027 -5.72954 87.154 9.74294 67.8117C13.4056 63.2315 17.7465 59.4173 23.0689 56.9916C25.7421 55.7707 26.8353 54.2147 27.2742 51.2942C29.2371 38.1839 34.2084 26.2945 42.9621 16.2403C47.7817 10.7105 53.4233 5.61961 61.2992 6.44948C65.8875 6.92824 68.9836 5.73132 72.9894 3.70453C86.1557 -2.95036 99.1146 0.0579052 111.228 7.20753C122.87 14.0779 129.477 24.9539 133.81 37.4179C134.033 38.0642 134.377 38.6706 134.656 39.293H134.672Z" fill="#00213F"/>
</svg>
