<svg width="106" height="85" viewBox="0 0 106 85" fill="none" xmlns="http://www.w3.org/2000/svg">
<path d="M72.8011 80.5711C70.6306 82.167 68.1489 81.2015 65.8109 81.377C64.981 81.4408 64.3746 81.5844 64.0315 81.8797C62.5473 82.6297 61.3104 83.2522 59.8262 84.0022C42.5424 84.0342 25.2585 84.0501 7.97469 84.09C1.75058 84.106 1.75057 84.1379 1.67876 77.9777C1.6628 76.8287 1.57501 75.6796 1.51915 74.5306C1.51915 73.3496 1.51915 72.1687 1.51915 70.9797C0.553621 69.8067 -0.124619 68.3385 0.449913 66.982C1.80645 63.7902 0.944655 60.4388 1.50323 57.2071C1.51919 55.4357 1.53515 53.6642 1.55909 51.8928C1.59899 37.2983 1.63087 22.7038 1.67077 8.10934C1.67077 6.80868 1.58302 5.50004 1.70272 4.20736C1.82241 2.84287 1.16807 1.08738 2.74006 0.273476C4.37588 -0.572349 5.42916 0.991615 6.45055 1.8534C12.8263 7.23955 19.1381 12.7135 25.458 18.1715C37.3317 28.4171 49.2932 38.559 61.0072 48.9803C64.247 51.8609 66.178 52.3556 69.7768 49.092C81.4909 38.4633 93.6917 28.3613 105.701 18.0597C106.1 20.0706 104.488 20.9882 103.419 22.1612C102.509 23.1507 102.429 23.781 103.898 24.1082C104.736 26.0791 103.187 26.9409 101.999 27.7548C100.036 29.0954 98.2082 30.5955 96.4287 32.1675C87.9623 40.6816 78.5225 48.0946 69.5055 55.9783C66.2418 58.827 64.4943 58.7552 60.7359 55.4915C48.4074 44.7911 35.8954 34.306 23.6866 23.4619C18.5237 18.8816 13.2971 14.3812 7.83905 10.2C6.21918 11.6283 6.74584 13.1683 6.74584 14.5089C6.70594 33.8831 6.70593 53.2573 6.72987 72.6395C6.73785 78.8315 6.92934 79.015 12.9938 79.047C21.8033 79.0869 30.6128 79.047 39.4223 79.0709C41.4332 79.0709 43.476 78.8953 45.3991 79.7412C45.7741 79.9407 46.1013 80.204 46.3886 80.5152C50.8811 83.0367 55.3018 82.3904 59.7145 80.2439C64.1192 79.3741 68.532 77.5628 72.825 80.5791L72.8011 80.5711Z" fill="#DFFBFC"/>
</svg>
