<svg width="105" height="82" viewBox="0 0 105 82" fill="none" xmlns="http://www.w3.org/2000/svg">
<path d="M96.6135 43.8095C94.9218 47.3125 93.9084 51.031 92.8072 54.7574C91.6023 58.8269 90.0542 62.9842 84.5642 62.8964C84.1892 63.7502 83.4232 64.1572 82.6252 64.4445C77.1352 66.4313 72.531 69.5833 69.2753 74.5385C68.7247 75.3844 67.8789 75.9429 66.8894 76.2461C56.9388 77.1558 47.0521 74.8577 37.1015 75.6078C27.0791 76.3659 17.0248 76.9084 7.56893 80.8583C6.76299 81.1934 5.95705 81.5126 5.07929 81.5525C3.60306 81.6243 2.05504 81.5764 1.2092 80.172C0.363358 78.7517 0.993736 77.3633 1.89543 76.1584C6.81886 69.5753 10.3698 62.1384 14.7905 55.2361C23.9591 40.9289 33.1995 26.6616 42.376 12.3544C43.7565 10.1999 45.5998 8.29283 47.0361 6.13039C47.9618 4.74196 49.2226 3.56897 50.7866 3.38544C55.1993 2.86677 59.2849 0.89581 63.8652 0.959646C75.3877 1.11126 86.9342 0.504813 98.3371 2.80291C101.082 3.35349 104.338 3.28967 104.394 7.40709C103.915 16.1845 101.696 24.6189 99.4462 33.0532C98.4887 36.636 97.5551 40.2267 96.6055 43.8175L96.6135 43.8095Z" fill="#00CAB8"/>
</svg>
