<svg width="112" height="134" viewBox="0 0 112 134" fill="none" xmlns="http://www.w3.org/2000/svg">
<path d="M94.1734 2.83818C88.8032 3.58027 87.1753 8.48767 84.6059 12.0066C76.6742 22.8986 69.1813 34.1098 61.5129 45.1933C60.7867 46.2386 59.4941 47.3478 60.1324 48.5926C60.9304 50.1326 62.7816 49.5421 64.0504 49.2868C79.2595 46.2785 94.2453 48.1537 109.263 50.8667C111.697 51.3056 111.513 52.311 111.561 53.859C111.505 54.3697 111.449 54.8884 111.385 55.3991C108.601 50.6114 103.478 52.1354 99.4081 51.3056C91.0454 49.598 82.4674 50.5795 73.985 50.1965C68.6706 49.9571 63.7551 51.4333 58.7519 52.5345C53.8844 53.6037 52.3363 58.519 49.9345 62.03C41.4122 74.502 33.273 87.2372 25.1498 99.9725C19.7635 108.423 15.1434 117.352 9.41399 125.603C8.02554 127.597 8.96712 128.531 11.1934 128.34C12.0393 128.268 12.917 128.124 13.707 127.829C29.2912 122.084 45.3541 121.397 61.6964 122.985C65.8458 123.392 70.0591 123.105 74.2404 123.137C75.2299 124.653 74.4 125.619 73.2429 126.496C71.3198 127.438 69.317 126.895 67.3141 126.871C50.6686 126.68 33.9194 124.781 17.617 130.191C15.0157 131.053 12.5659 132.249 9.94861 133.039C6.70091 133.375 3.34148 134.492 0.564575 131.659C3.8442 129.616 2.82283 126.257 3.27766 123.265C5.50398 108.726 6.17426 94.0836 5.66356 79.4333C5.34438 70.1372 3.9958 60.881 3.0941 51.6088C2.92653 49.9012 1.74557 48.808 0.58055 47.7148C1.09923 46.2546 1.75353 44.8981 3.24571 44.164C5.59172 47.1004 5.15285 50.8109 5.54385 54.1064C7.50683 70.5601 8.0415 87.1175 7.41909 103.675C7.14778 110.793 6.1184 117.878 5.36832 125.595C9.5257 123.44 10.5311 119.602 12.3744 116.61C24.8226 96.4136 37.4543 76.3452 50.892 56.7875C53.2779 53.3084 54.2993 49.7257 54.3871 45.5045C54.6025 35.3786 53.613 25.3802 51.5224 15.5335C50.908 12.629 50.0063 9.39733 47.4448 7.21893C48.1789 6.60451 48.8413 5.86241 49.9185 5.91029C52.9189 6.2933 53.0864 9.00633 53.7009 11.0012C55.9511 18.3184 57.3954 25.8031 57.4912 33.5113C57.5231 36.2244 57.1401 38.9613 57.8183 41.6344C59.0472 42.0414 59.4302 41.044 59.8531 40.4375C68.3434 28.2768 77.3125 16.4671 85.4437 4.05904C86.6806 2.1679 87.8376 -0.00250059 90.7661 0.76353C91.8913 1.45775 93.0244 2.14396 94.1495 2.83818H94.1734Z" fill="#02B19A"/>
</svg>
