<svg width="13" height="178" viewBox="0 0 13 178" fill="none" xmlns="http://www.w3.org/2000/svg">
<path d="M0.648 3.40259C3.73611 2.46101 6.82422 1.52741 9.91233 0.585831C11.0694 0.0911024 12.3461 0.426241 11.8833 1.67104C10.3831 5.72462 12.011 9.65851 11.9392 13.6403C11.7397 24.4445 10.2395 35.2168 10.9497 46.029C12.4578 68.9302 11.6678 91.8472 11.5721 114.756C11.5721 116.185 12.777 117.469 11.9392 118.938C9.74477 130.667 7.51046 142.389 5.36394 154.127C3.93559 161.915 2.63492 169.719 1.27838 177.523C0.376687 176.406 0.560223 175.065 0.560223 173.781C0.560223 117.565 0.560219 61.3496 0.568198 5.13414C0.568198 4.55961 0.616073 3.97711 0.640012 3.40259H0.648Z" fill="#023356"/>
</svg>
