<svg width="42" height="41" viewBox="0 0 42 41" fill="none" xmlns="http://www.w3.org/2000/svg">
<path d="M41.638 4.94149C41.3746 9.98453 38.1429 13.9743 36.6347 18.6104C34.7915 24.2838 33.3312 29.8694 32.996 35.7902C32.9482 36.6121 33.2514 37.6653 32.2539 38.0803C31.2645 38.4872 30.7697 37.4898 30.0994 37.019C27.8332 35.4311 27.3704 31.9122 23.612 31.0823C25.1601 34.7449 27.7375 37.1387 29.7643 40.0831C21.5453 37.6574 13.3582 36.5482 4.99556 36.9232C3.01662 37.011 2.81713 35.3593 1.93937 34.3459C-0.414615 24.6827 1.0297 15.8175 7.38147 7.94972C8.17145 6.97623 9.55193 6.48152 9.75142 5.02925V4.94149C16.8613 -1.7932 25.4154 0.441066 33.6743 1.2071C35.1505 1.34275 36.6188 2.15664 38.2147 2.29229C39.8505 2.42795 41.2869 3.03439 41.6459 4.9335L41.638 4.94149Z" fill="#00CAB8"/>
</svg>
