<svg width="38" height="66" viewBox="0 0 38 66" fill="none" xmlns="http://www.w3.org/2000/svg">
<path d="M0.253662 62.6109C1.1394 59.4909 2.05705 56.1555 3.03854 52.844C6.35806 41.6887 9.71748 30.5413 13.0131 19.378C13.819 16.665 15.0159 14.1036 15.5586 11.2629C15.9815 9.02866 17.4577 7.43277 19.9154 6.37948C24.7671 4.28885 29.1398 1.08109 34.5899 0.434751C35.4198 0.338997 36.3215 -0.291402 36.9998 0.514526C37.8536 1.52792 36.9359 2.32587 36.4891 3.2116C29.2994 17.2954 21.9742 31.3074 16.3485 46.1333C15.2394 49.0618 13.7711 51.8625 12.9253 54.9346C11.4171 60.4086 6.13464 61.9646 2.15281 64.7654C0.0621553 66.2336 0.45316 63.9754 0.26165 62.6109H0.253662Z" fill="#02C9B7"/>
</svg>
