<svg width="76" height="110" viewBox="0 0 76 110" fill="none" xmlns="http://www.w3.org/2000/svg">
<path d="M34.9403 16.7285C35.6476 15.959 35.9652 15.0339 35.8281 13.9205C39.6677 7.51858 44.1712 2.18087 51.4823 1.35402C54.0878 2.10719 56.7654 0.453508 59.2121 1.16574C66.9851 3.458 72.8455 8.52554 75.0468 17.7109C77.3635 27.3875 75.5231 35.8934 68.8038 42.7129C67.6418 43.8917 66.4077 45.439 65.0147 45.7747C59.7172 47.06 60.0781 51.3661 60.107 55.9261C60.208 72.0947 60.0998 88.2633 60.1792 104.44C60.1936 107.723 59.4286 109.278 56.2097 109.254C37.9211 109.115 19.6325 109.164 1.34388 109.147C-1.05226 106.495 0.759265 105.643 2.77289 105.357C4.94529 105.046 7.15378 105.152 9.26844 104.35C20.9821 103.441 32.7102 104.154 44.4311 103.932C46.6468 103.892 48.8697 103.801 51.0782 103.932C54.1599 104.121 55.5673 102.876 55.5457 99.1269C55.4735 84.4729 55.4735 69.827 55.5457 55.1729C55.5601 51.8983 54.5786 50.22 51.6051 49.9908C49.7935 49.8516 47.917 49.344 46.4086 48.1897C43.565 46.0203 40.8729 46.094 38.1087 48.2143C35.4528 48.4108 34.5434 47.5675 36.5714 44.9151C37.4014 43.8263 38.4046 42.8848 38.9243 41.5176C36.8457 36.4583 34.7743 31.4071 32.6958 26.3478C31.7214 25.1526 31.9885 23.8427 32.4215 22.5165C33.0783 20.4862 33.1866 18.1366 34.9259 16.7039L34.9403 16.7285Z" fill="#FBFDFD"/>
</svg>
