<svg width="53" height="119" viewBox="0 0 53 119" fill="none" xmlns="http://www.w3.org/2000/svg">
<path d="M0.269818 37.164C12.5983 21.9631 26.6265 8.80486 44.4689 0.218933C48.9535 1.28818 49.0332 5.51731 49.8152 8.66921C52.3607 18.9149 52.7278 29.4319 52.8395 39.9568C52.8794 43.7949 51.3952 46.9548 49.2646 49.9551C38.0772 65.6906 28.0229 82.1603 17.6813 98.4544C14.4416 103.561 11.3694 108.756 8.28134 113.951C7.61105 115.076 6.853 116.121 6.05504 117.142C5.2491 118.164 4.37932 119.337 2.86319 118.778C1.32313 118.212 1.37098 116.783 1.59441 115.467C2.83125 108.205 3.12653 100.84 3.42178 93.5231C3.8048 84.187 3.9085 74.8351 3.0866 65.4432C2.31257 56.5461 1.69019 47.657 0.0224518 38.8715C-0.0812832 38.321 0.22194 37.7385 0.269818 37.164Z" fill="#00CAB8"/>
</svg>
