<svg width="349" height="476" viewBox="0 0 349 476" fill="none" xmlns="http://www.w3.org/2000/svg">
<path d="M2.20269 272.645C-0.933298 266.804 0.096079 260.444 0.638693 254.42C1.90745 240.264 3.53529 226.108 5.76161 212.072C8.0358 197.757 9.55192 183.29 13.3183 169.231C13.4619 168.704 13.3023 168.097 13.2784 167.523C12.8315 161.482 13.7093 155.53 14.7307 149.625C17.0687 136.044 19.8377 122.535 22.6066 109.033C25.2399 98.2291 27.3146 87.2892 30.0196 76.501C32.9801 64.7232 35.9804 52.9615 39.8585 41.4391C42.9626 32.2068 48.277 25.3445 57.6291 21.4664C70.4604 16.1441 83.5389 11.5958 96.6893 7.19911C102.714 5.1803 108.762 3.20936 114.763 1.11874C116.503 0.512296 118.282 -0.405338 120.11 0.951175C120.676 2.58697 119.703 3.744 118.761 4.80527C102.506 23.1661 95.1971 45.365 90.9999 68.9763C89.0289 80.0758 88.6459 91.2949 87.7362 102.474C87.5926 104.19 87.7522 105.945 86.9702 107.557C85.869 109.408 83.7305 109.847 82.1665 111.076C78.424 114.005 77.0675 118.968 78.8469 123.492C80.4907 127.673 85.0391 130.315 89.5955 129.732C93.689 129.213 97.7666 125.128 98.3491 120.771C98.9157 116.518 97.1123 113.231 93.7927 110.701C92.3245 109.584 90.4732 108.93 89.6433 107.07C88.8773 103.184 89.5476 99.2425 89.1725 95.3485C89.8428 66.0319 95.8914 38.2393 112.625 13.5428C114.093 11.3724 115.282 8.61148 118.593 8.50775C120.971 9.68871 120.644 11.9948 120.309 13.846C118.992 21.0355 119.495 28.2729 119.671 35.4624C119.894 44.8703 119.296 54.2541 118.713 63.5901C118.075 73.8278 118.099 84.0895 117.564 94.3271C116.981 105.411 116.08 116.534 116.383 127.673C116.519 132.732 115.322 137.72 115.505 142.81C115.721 148.803 116 149.282 121.841 149.577C124.738 149.729 127.602 150.064 130.443 150.559C134.912 151.333 135.742 153.423 133.036 157.166C130.834 160.214 128.257 162.959 125.639 165.656C122.36 169.031 122.352 169.614 126.174 172.239C134.034 177.641 142.045 182.804 150.001 188.07C152.355 189.626 155.092 190.975 155.826 194.151C155.052 196.002 153.321 195.85 151.789 195.994C150.065 196.153 148.317 196.185 146.594 196.042C132.725 194.94 119.703 198.507 106.855 203.143C101.453 205.098 95.668 206.08 90.5929 210.078C96.6574 211.115 102.427 211.953 107.957 213.868C119.04 217.714 129.15 222.925 136.46 232.588C139.955 237.208 145.389 239.362 150.201 242.243C153.544 244.246 156.896 246.225 160.582 249.105C159.138 242.73 158.372 236.881 158.364 230.896C158.34 220.339 160.095 210.197 163.934 200.39C164.62 198.635 165.29 196.88 166.87 195.683C168.929 194.677 171.083 194.661 173.278 194.98C173.748 195.012 174.219 195.036 174.69 195.044C184.601 197.526 192.453 193.76 200.033 187.599C206.848 182.062 214.277 177.25 221.483 172.191C225.081 169.661 225.121 169.007 222.193 165.855C219.44 162.895 216.32 160.278 213.758 157.142C211.085 153.862 211.979 151.5 216.152 150.766C218.985 150.271 221.858 149.92 224.738 149.673C229.741 149.242 230.651 148.444 230.252 143.521C229.534 134.6 228.736 125.679 228.273 116.749C227.667 105.099 225.528 93.5132 226.438 81.7834C227.172 79.4215 229.039 78.057 230.859 76.6127C233.667 74.3864 236.444 74.4662 239.133 76.6925C254.223 89.1484 263.344 104.772 264.485 124.625C265.195 137.009 262.609 148.747 257.782 160.094C256.641 162.783 255.3 165.305 253.369 167.499C252.635 168.329 252.316 169.382 253.202 170.212C254.295 171.241 255.651 170.779 256.888 170.388C258.109 170.005 258.46 169.111 257.854 168.018C256.018 164.714 257.782 161.85 258.923 158.929C265.283 142.595 267.533 126.006 262.25 108.89C258.197 95.7555 250.512 85.1028 239.9 76.5887C236.62 73.9635 234.801 71.0909 234.274 66.8857C232.678 54.2621 230.779 41.6865 227.228 29.422C225.776 24.4109 223.948 19.5514 221.858 14.7796C221.1 13.064 220.182 11.4043 220.158 9.44932C220.341 7.07942 219.392 4.61375 220.732 2.3396C222.257 0.528254 224.172 1.27035 225.951 1.66135C245.597 6.00219 264.549 12.5055 282.966 20.5169C289.214 23.2379 293.562 28.5043 297.265 34.0261C304.143 44.2878 308.788 55.6506 312.658 67.3325C313.2 68.9763 313.695 70.6281 314.413 72.2C317.557 82.0307 320.717 91.8535 322.393 102.075C322.481 103.743 323.542 105.068 324.045 106.592C327.508 121.641 330.428 136.802 333.221 151.995C336.301 168.744 338.974 185.565 342.374 202.258C343.866 209.591 345.502 216.94 344.927 224.544C344.696 227.609 345.629 230.529 346.443 233.449C347.146 235.875 347.465 238.373 347.951 240.846C349.252 248.89 348.805 256.981 348.534 265.056C348.446 271.113 347.193 276.842 343.762 281.957C340.81 285.564 336.788 286.274 332.455 286.13C330.795 286.114 329.144 286.09 327.484 286.106C326.542 286.162 325.601 286.306 324.659 286.122C323.701 286.074 322.744 286.082 321.786 286.01C321.292 286.01 320.813 285.947 320.334 285.835C312.49 285.013 304.59 284.997 296.77 283.88C294.64 283.577 292.485 283.425 290.371 283.026C283.62 284.023 277.188 281.845 270.669 280.864C255.548 278.574 240.402 276.467 225.313 273.961C218.37 272.812 211.524 271.169 207.47 270.45C222.552 273.275 240.235 277.576 257.455 283.784C263.431 285.939 269.408 288.037 275.161 290.726C278.441 292.258 281.561 294.006 284.593 296.001C289.341 299.137 292.078 303.078 291.185 309.007C290.873 311.058 291.631 313.005 292.094 314.976C293.81 327.711 293.906 340.566 294.991 353.349C296.172 367.273 297.018 381.23 298.207 395.154C299.196 406.788 300.114 418.43 301.119 430.056C302.133 441.69 303.082 453.324 304.223 464.942C304.542 468.198 305.3 471.581 302.883 474.486C300.967 475.802 298.773 475.691 296.611 475.691C262.977 475.707 229.342 475.707 195.708 475.691C193.546 475.691 191.352 475.802 189.428 474.51C188.12 473.369 187.872 471.797 187.753 470.201C186.971 460.003 186.508 449.781 185.997 439.568C185.215 424.032 184.513 408.496 183.524 392.967C183.188 387.653 183.141 382.323 182.797 377C182.414 364.449 181.433 351.929 180.659 339.401C179.621 322.692 179.127 305.951 177.563 289.282C176.996 283.234 177.85 277.129 176.613 271.121C176.438 270.275 176.446 269.389 176.214 268.551C176.063 268.001 175.847 267.394 175.169 267.338C174.203 267.267 174.068 268.072 173.908 268.759C173.74 269.469 173.78 270.195 173.756 270.913C172.823 293.407 171.786 315.894 170.461 338.372C169.894 348.011 169.767 357.698 169.296 367.361C168.833 372.069 168.53 376.761 168.442 381.517C168.131 397.923 166.806 414.305 166.192 430.694C165.841 440.19 165.003 449.67 164.987 459.197C164.987 464.288 165.194 469.578 162.633 474.358C160.758 475.747 158.563 475.659 156.409 475.659C117.213 475.675 78.025 475.675 38.8291 475.659C36.8183 475.659 34.7755 475.731 32.9322 474.701C30.3229 472.531 31.1208 469.722 31.6714 467.081C35.1026 450.539 38.5419 433.998 41.3587 417.337C45.8193 390.996 49.7851 364.6 51.796 337.933C52.6099 327.137 53.5436 316.364 53.4398 305.52C53.4079 301.898 54.0143 298.331 54.8203 294.812C57.1104 289.888 61.0923 286.681 65.6965 284.055C76.9238 277.648 89.0209 273.363 101.23 269.357C110.789 266.229 120.485 263.54 130.427 261.872C105.81 266.82 81.1929 271.711 56.2726 274.911C55.3948 275.023 54.6368 275.461 53.7989 275.685C47.1439 276.946 40.4649 277.911 33.6663 277.472C32.3337 277.385 31.0969 277.688 29.86 278.063C24.2743 278.023 18.6407 279.236 13.1268 277.424C9.17688 276.539 4.85991 276.483 2.23462 272.597L2.20269 272.645Z" fill="#FEFEFE"/>
</svg>
