<svg width="17" height="36" viewBox="0 0 17 36" fill="none" xmlns="http://www.w3.org/2000/svg">
<path d="M7.72584 34.3977C7.59019 34.3498 7.46252 34.254 7.32686 34.2461C5.24418 34.1503 2.59495 36.8474 1.27034 34.2461C0.169151 32.0916 1.66132 29.4584 3.01785 27.1523C5.24416 23.37 4.43824 19.2287 3.58442 15.1831C1.70123 11.3529 3.61633 7.6983 4.11904 3.97986C4.23874 2.81485 4.36643 1.64187 4.48612 0.476863C4.59784 0.0220324 4.82124 -0.0418018 5.15638 0.285357C14.6441 2.90263 18.0834 8.91916 15.7453 18.6462C14.325 24.551 12.7849 30.36 7.71786 34.3897L7.72584 34.3977Z" fill="#F9D6C0"/>
</svg>
