<svg width="149" height="70" viewBox="0 0 149 70" fill="none" xmlns="http://www.w3.org/2000/svg">
<path d="M0.656738 34.4194C0.656738 15.6417 15.8791 0.419373 34.6567 0.419373H114.657C133.434 0.419373 148.657 15.6417 148.657 34.4194V35.4194C148.657 54.1971 133.434 69.4194 114.657 69.4194H34.6567C15.8791 69.4194 0.656738 54.1971 0.656738 35.4194V34.4194Z" fill="#00E676"/>
<path d="M34.1447 57.7394V55.6874H40.3547C40.3907 56.6474 40.2767 57.5534 40.0127 58.4054C39.7607 59.2574 39.3587 60.0134 38.8067 60.6734C38.2667 61.3214 37.5947 61.8314 36.7907 62.2034C35.9867 62.5754 35.0687 62.7614 34.0367 62.7614C33.0647 62.7614 32.1647 62.5994 31.3367 62.2754C30.5207 61.9514 29.8067 61.4954 29.1947 60.9074C28.5947 60.3194 28.1267 59.6174 27.7907 58.8014C27.4667 57.9854 27.3047 57.0914 27.3047 56.1194C27.3047 55.1474 27.4727 54.2594 27.8087 53.4554C28.1567 52.6394 28.6367 51.9434 29.2487 51.3674C29.8607 50.7914 30.5807 50.3474 31.4087 50.0354C32.2367 49.7234 33.1367 49.5674 34.1087 49.5674C34.9727 49.5674 35.7467 49.6874 36.4307 49.9274C37.1267 50.1674 37.7387 50.5034 38.2667 50.9354C38.8067 51.3554 39.2687 51.8594 39.6527 52.4474L37.4567 53.7254C37.1447 53.1734 36.7067 52.7294 36.1427 52.3934C35.5907 52.0454 34.9127 51.8714 34.1087 51.8714C33.3527 51.8714 32.6627 52.0454 32.0387 52.3934C31.4147 52.7294 30.9167 53.2154 30.5447 53.8514C30.1847 54.4874 30.0047 55.2434 30.0047 56.1194C30.0047 56.9834 30.1847 57.7454 30.5447 58.4054C30.9047 59.0534 31.3907 59.5574 32.0027 59.9174C32.6267 60.2774 33.3287 60.4574 34.1087 60.4574C34.6247 60.4574 35.0867 60.3914 35.4947 60.2594C35.9027 60.1154 36.2507 59.9174 36.5387 59.6654C36.8387 59.4134 37.0907 59.1254 37.2947 58.8014C37.4987 58.4774 37.6547 58.1234 37.7627 57.7394H34.1447Z" fill="white"/>
<path d="M46.3264 62.5994C45.4264 62.5994 44.6404 62.4194 43.9684 62.0594C43.2964 61.6994 42.7744 61.2014 42.4024 60.5654C42.0424 59.9174 41.8624 59.1554 41.8624 58.2794C41.8624 57.3914 42.0424 56.6294 42.4024 55.9934C42.7744 55.3454 43.2964 54.8474 43.9684 54.4994C44.6404 54.1394 45.4324 53.9594 46.3444 53.9594C47.2564 53.9594 48.0304 54.1274 48.6664 54.4634C49.3144 54.7874 49.8064 55.2674 50.1424 55.9034C50.4784 56.5274 50.6464 57.2834 50.6464 58.1714C50.6464 58.2794 50.6404 58.3934 50.6284 58.5134C50.6284 58.6334 50.6224 58.7294 50.6104 58.8014H43.1944V57.3614H48.5764L47.9464 58.1894C47.9944 58.1174 48.0364 58.0214 48.0724 57.9014C48.1204 57.7694 48.1444 57.6614 48.1444 57.5774C48.1444 57.1694 48.0664 56.8214 47.9104 56.5334C47.7664 56.2454 47.5564 56.0174 47.2804 55.8494C47.0044 55.6814 46.6804 55.5974 46.3084 55.5974C45.8524 55.5974 45.4684 55.6994 45.1564 55.9034C44.8564 56.0954 44.6224 56.3894 44.4544 56.7854C44.2984 57.1694 44.2144 57.6494 44.2024 58.2254C44.2024 58.7774 44.2804 59.2454 44.4364 59.6294C44.6044 60.0134 44.8504 60.3074 45.1744 60.5114C45.4984 60.7154 45.8884 60.8174 46.3444 60.8174C46.8604 60.8174 47.2984 60.7214 47.6584 60.5294C48.0304 60.3254 48.3364 60.0254 48.5764 59.6294L50.6104 60.2594C50.1784 61.0394 49.6024 61.6274 48.8824 62.0234C48.1744 62.4074 47.3224 62.5994 46.3264 62.5994Z" fill="white"/>
<path d="M51.5228 54.1394H56.6348V56.1014H51.5228V54.1394ZM52.9448 51.2594H55.1948V62.4194H52.9448V51.2594Z" fill="white"/>
<path d="M64.9463 58.1894C65.2103 58.6574 65.4983 59.0654 65.8103 59.4134C66.1343 59.7614 66.4883 60.0314 66.8723 60.2234C67.2563 60.4154 67.6703 60.5114 68.1143 60.5114C68.6303 60.5114 69.0503 60.3794 69.3743 60.1154C69.6982 59.8514 69.8603 59.4914 69.8603 59.0354C69.8603 58.6394 69.7583 58.3214 69.5543 58.0814C69.3623 57.8414 69.0683 57.6314 68.6723 57.4514C68.2883 57.2594 67.8143 57.0554 67.2503 56.8394C66.9502 56.7314 66.6022 56.5874 66.2063 56.4074C65.8223 56.2154 65.4563 55.9754 65.1083 55.6874C64.7603 55.3874 64.4723 55.0274 64.2443 54.6074C64.0163 54.1754 63.9023 53.6594 63.9023 53.0594C63.9023 52.3394 64.0823 51.7214 64.4423 51.2054C64.8143 50.6774 65.3123 50.2754 65.9363 49.9994C66.5723 49.7114 67.2803 49.5674 68.0603 49.5674C68.8643 49.5674 69.5543 49.7054 70.1303 49.9814C70.7183 50.2454 71.2043 50.5874 71.5883 51.0074C71.9843 51.4154 72.2903 51.8414 72.5063 52.2854L70.4903 53.4014C70.3223 53.1014 70.1183 52.8314 69.8783 52.5914C69.6503 52.3394 69.3863 52.1414 69.0863 51.9974C68.7863 51.8414 68.4443 51.7634 68.0603 51.7634C67.5563 51.7634 67.1783 51.8834 66.9263 52.1234C66.6743 52.3514 66.5483 52.6214 66.5483 52.9334C66.5483 53.2454 66.6503 53.5214 66.8543 53.7614C67.0583 53.9894 67.3703 54.2114 67.7903 54.4274C68.2103 54.6314 68.7383 54.8414 69.3743 55.0574C69.7822 55.2014 70.1723 55.3814 70.5443 55.5974C70.9283 55.8134 71.2702 56.0774 71.5703 56.3894C71.8822 56.6894 72.1223 57.0494 72.2903 57.4694C72.4703 57.8774 72.5603 58.3514 72.5603 58.8914C72.5603 59.5034 72.4403 60.0494 72.2003 60.5294C71.9603 61.0094 71.6303 61.4174 71.2103 61.7534C70.7903 62.0774 70.3163 62.3234 69.7883 62.4914C69.2723 62.6714 68.7262 62.7614 68.1503 62.7614C67.3823 62.7614 66.6623 62.6174 65.9903 62.3294C65.3303 62.0294 64.7543 61.6274 64.2623 61.1234C63.7703 60.6194 63.3863 60.0734 63.1103 59.4854L64.9463 58.1894Z" fill="white"/>
<path d="M73.5608 54.1394H78.6728V56.1014H73.5608V54.1394ZM74.9828 51.2594H77.2328V62.4194H74.9828V51.2594Z" fill="white"/>
<path d="M81.7498 59.8454C81.7498 60.0854 81.8098 60.2954 81.9298 60.4754C82.0498 60.6434 82.2118 60.7754 82.4158 60.8714C82.6318 60.9554 82.8658 60.9974 83.1178 60.9974C83.4778 60.9974 83.8018 60.9254 84.0898 60.7814C84.3778 60.6254 84.6118 60.4094 84.7918 60.1334C84.9718 59.8454 85.0618 59.5034 85.0618 59.1074L85.3498 60.1874C85.3498 60.7154 85.1998 61.1594 84.8998 61.5194C84.6118 61.8794 84.2338 62.1494 83.7658 62.3294C83.3098 62.5094 82.8298 62.5994 82.3258 62.5994C81.8098 62.5994 81.3298 62.4974 80.8858 62.2934C80.4418 62.0894 80.0818 61.7954 79.8058 61.4114C79.5418 61.0154 79.4098 60.5354 79.4098 59.9714C79.4098 59.1674 79.6918 58.5314 80.2558 58.0634C80.8198 57.5954 81.6178 57.3614 82.6498 57.3614C83.1778 57.3614 83.6398 57.4154 84.0358 57.5234C84.4438 57.6314 84.7858 57.7634 85.0618 57.9194C85.3378 58.0754 85.5358 58.2254 85.6558 58.3694V59.4494C85.3318 59.2094 84.9658 59.0294 84.5578 58.9094C84.1618 58.7894 83.7418 58.7294 83.2978 58.7294C82.9378 58.7294 82.6438 58.7774 82.4158 58.8734C82.1878 58.9574 82.0198 59.0834 81.9118 59.2514C81.8038 59.4074 81.7498 59.6054 81.7498 59.8454ZM80.8498 56.4794L79.9858 54.8954C80.4178 54.6674 80.9458 54.4514 81.5698 54.2474C82.1938 54.0314 82.8898 53.9234 83.6578 53.9234C84.3658 53.9234 84.9958 54.0254 85.5478 54.2294C86.0998 54.4334 86.5318 54.7334 86.8438 55.1294C87.1558 55.5134 87.3118 55.9874 87.3118 56.5514V62.4194H85.0618V57.0374C85.0618 56.8094 85.0258 56.6174 84.9538 56.4614C84.8818 56.2934 84.7678 56.1554 84.6118 56.0474C84.4678 55.9394 84.2938 55.8614 84.0898 55.8134C83.8858 55.7654 83.6578 55.7414 83.4058 55.7414C83.0218 55.7414 82.6558 55.7834 82.3078 55.8674C81.9598 55.9514 81.6598 56.0534 81.4078 56.1734C81.1558 56.2934 80.9698 56.3954 80.8498 56.4794Z" fill="white"/>
<path d="M91.9465 54.1394V62.4194H89.6605V54.1394H91.9465ZM94.3765 56.5694C94.2205 56.4254 94.0585 56.3174 93.8905 56.2454C93.7345 56.1614 93.5365 56.1194 93.2965 56.1194C93.0085 56.1194 92.7625 56.1974 92.5585 56.3534C92.3545 56.5094 92.1985 56.7314 92.0905 57.0194C91.9945 57.2954 91.9465 57.6314 91.9465 58.0274L91.2985 57.3794C91.2985 56.7194 91.4245 56.1374 91.6765 55.6334C91.9285 55.1174 92.2585 54.7094 92.6665 54.4094C93.0745 54.0974 93.4945 53.9414 93.9265 53.9414C94.2265 53.9414 94.5085 53.9954 94.7725 54.1034C95.0485 54.2114 95.2705 54.3734 95.4385 54.5894L94.3765 56.5694Z" fill="white"/>
<path d="M95.7922 54.1394H100.904V56.1014H95.7922V54.1394ZM97.2142 51.2594H99.4642V62.4194H97.2142V51.2594Z" fill="white"/>
<path d="M106.231 62.5994C105.331 62.5994 104.545 62.4194 103.873 62.0594C103.201 61.6994 102.679 61.2014 102.307 60.5654C101.947 59.9174 101.767 59.1554 101.767 58.2794C101.767 57.3914 101.947 56.6294 102.307 55.9934C102.679 55.3454 103.201 54.8474 103.873 54.4994C104.545 54.1394 105.337 53.9594 106.249 53.9594C107.161 53.9594 107.935 54.1274 108.571 54.4634C109.219 54.7874 109.711 55.2674 110.047 55.9034C110.383 56.5274 110.551 57.2834 110.551 58.1714C110.551 58.2794 110.545 58.3934 110.533 58.5134C110.533 58.6334 110.527 58.7294 110.515 58.8014H103.099V57.3614H108.481L107.851 58.1894C107.899 58.1174 107.941 58.0214 107.977 57.9014C108.025 57.7694 108.049 57.6614 108.049 57.5774C108.049 57.1694 107.971 56.8214 107.815 56.5334C107.671 56.2454 107.461 56.0174 107.185 55.8494C106.909 55.6814 106.585 55.5974 106.213 55.5974C105.757 55.5974 105.373 55.6994 105.061 55.9034C104.761 56.0954 104.527 56.3894 104.359 56.7854C104.203 57.1694 104.119 57.6494 104.107 58.2254C104.107 58.7774 104.185 59.2454 104.341 59.6294C104.509 60.0134 104.755 60.3074 105.079 60.5114C105.403 60.7154 105.793 60.8174 106.249 60.8174C106.765 60.8174 107.203 60.7214 107.563 60.5294C107.935 60.3254 108.241 60.0254 108.481 59.6294L110.515 60.2594C110.083 61.0394 109.507 61.6274 108.787 62.0234C108.079 62.4074 107.227 62.5994 106.231 62.5994Z" fill="white"/>
<path d="M118.736 48.3794H121.076V62.4194H118.736V48.3794ZM111.932 58.2794C111.932 57.3554 112.118 56.5754 112.49 55.9394C112.862 55.2914 113.354 54.7994 113.966 54.4634C114.578 54.1274 115.226 53.9594 115.91 53.9594C116.606 53.9594 117.218 54.1334 117.746 54.4814C118.286 54.8294 118.706 55.3274 119.006 55.9754C119.318 56.6114 119.474 57.3794 119.474 58.2794C119.474 59.1674 119.318 59.9354 119.006 60.5834C118.706 61.2314 118.286 61.7294 117.746 62.0774C117.218 62.4254 116.606 62.5994 115.91 62.5994C115.226 62.5994 114.578 62.4314 113.966 62.0954C113.354 61.7594 112.862 61.2674 112.49 60.6194C112.118 59.9714 111.932 59.1914 111.932 58.2794ZM114.344 58.2794C114.344 58.7714 114.446 59.1974 114.65 59.5574C114.854 59.9174 115.13 60.1934 115.478 60.3854C115.826 60.5774 116.198 60.6734 116.594 60.6734C116.942 60.6734 117.278 60.5834 117.602 60.4034C117.938 60.2114 118.208 59.9354 118.412 59.5754C118.628 59.2154 118.736 58.7834 118.736 58.2794C118.736 57.7754 118.628 57.3434 118.412 56.9834C118.208 56.6234 117.938 56.3534 117.602 56.1734C117.278 55.9814 116.942 55.8854 116.594 55.8854C116.198 55.8854 115.826 55.9814 115.478 56.1734C115.13 56.3654 114.854 56.6414 114.65 57.0014C114.446 57.3614 114.344 57.7874 114.344 58.2794Z" fill="white"/>
</svg>
