<svg width="63" height="63" viewBox="0 0 63 63" fill="none" xmlns="http://www.w3.org/2000/svg">
<path d="M10.7971 41.5495C0.240117 41.5175 0.208207 41.5175 0.232145 30.857C0.256084 20.5076 -0.908952 21.7444 9.49647 21.5928C13.3586 21.5369 18.2581 23.2365 20.8195 20.8746C23.6363 18.2733 21.7372 13.2143 21.817 9.24851C21.9925 0.766313 21.8729 0.766292 30.3472 0.774272C37.4012 0.774272 40.9282 4.34644 40.9282 11.4907C40.9282 18.2627 44.3514 21.6433 51.1979 21.6327C58.7892 21.622 62.5822 25.4442 62.5769 33.0992C62.5689 42.5549 63.1275 41.3819 54.2302 41.6053C49.9691 41.717 44.5589 39.6903 41.758 42.5868C39.1647 45.2679 41.0479 50.5823 40.9601 54.7316C40.7686 63.4372 41.9416 62.344 33.4593 62.3839C27.0836 62.4079 21.8649 57.277 21.8649 50.8934C21.8649 44.6748 18.7502 41.5628 12.5208 41.5574C11.9462 41.5574 11.3637 41.5574 10.7892 41.5574L10.7971 41.5495Z" fill="#FEFEFE"/>
</svg>
