<svg width="39" height="39" viewBox="0 0 39 39" fill="none" xmlns="http://www.w3.org/2000/svg">
<path d="M12.8801 13.5784C12.9667 13.3928 13.0116 13.1905 13.0116 12.9858C13.0118 5.91873 18.74 0.191505 25.8078 0.191733C32.8762 0.191961 38.6034 5.91834 38.6032 12.988C38.6031 15.7886 37.9568 17.8813 36.5383 20.7184C36.4446 20.906 35.9553 21.8692 35.8252 22.1315C35.5742 22.6381 35.3892 23.0398 35.2361 23.4192C34.8804 24.3001 34.7086 25.0432 34.7085 25.7842C34.7085 27.3227 35.0916 28.9037 35.7339 30.429C35.9606 30.9676 36.2033 31.4592 36.4447 31.892C36.5865 32.1456 36.6928 32.3187 36.7466 32.3995C37.1498 33.0043 36.8746 33.8269 36.1884 34.067L25.0611 37.9609C24.475 38.1662 23.8346 37.8517 23.638 37.2626L22.9972 35.3401C22.2025 32.9556 19.971 31.3472 17.4576 31.3471C15.0013 31.347 13.0105 29.3567 13.0106 26.9001L13.0107 24.6676C13.0107 23.7477 12.265 23.0019 11.3451 23.0019C9.9166 23.0018 9.08516 21.7092 9.69084 20.412L12.8801 13.5784ZM27.8145 10.7622C29.6581 10.7623 31.1528 9.26792 31.1529 7.42438C31.1529 6.20364 30.2716 4.88147 28.5803 3.27857C28.151 2.8719 27.4786 2.87188 27.0495 3.27852C25.3582 4.88138 24.4767 6.20342 24.4767 7.42416C24.4766 9.2677 25.971 10.7622 27.8145 10.7622ZM31.7088 18.5516C33.5523 18.5516 35.0468 17.057 35.0468 15.2135C35.0469 13.9927 34.1658 12.6708 32.4743 11.0679C32.0452 10.661 31.3728 10.661 30.9437 11.0679C29.2521 12.6707 28.371 13.9925 28.3709 15.2132C28.3709 17.0568 29.8652 18.5515 31.7088 18.5516ZM0.553469 12.4305C0.553535 10.3575 1.66618 8.34257 1.66625 6.26957L1.66634 3.52895C1.6664 1.68541 3.16113 0.191043 5.00467 0.191102C6.84821 0.191162 8.34257 1.68562 8.34251 3.52916L8.34242 6.2697C8.34236 8.34275 9.45515 10.3578 9.45508 12.4308C9.455 14.889 7.4623 16.8815 5.00413 16.8815C2.54596 16.8814 0.553389 14.8887 0.553469 12.4305ZM3.8915 9.94267C3.89149 10.2591 3.7569 10.5607 3.52097 10.7718C3.05123 11.1921 2.7789 11.788 2.77888 12.4306C2.77884 13.6598 3.77499 14.656 5.00417 14.656C6.23309 14.6561 7.22958 13.6599 7.22962 12.4307C7.22964 11.7882 6.95732 11.1923 6.48763 10.7719C6.25172 10.5607 6.11688 10.2591 6.11689 9.94274L6.1171 3.52909C6.11712 2.91475 5.61891 2.41649 5.00455 2.41647C4.38994 2.41645 3.89168 2.91466 3.89166 3.52902L3.8915 9.94267ZM27.0715 6.59249C27.0715 6.59249 27.0715 6.59249 27.0715 6.59248C27.1393 6.49081 27.2155 6.38498 27.2999 6.27512C27.561 5.93541 28.0683 5.93533 28.3295 6.27503C28.414 6.38495 28.4902 6.49083 28.558 6.59254C28.8177 6.98205 28.9274 7.26785 28.9274 7.42431C28.9274 8.03891 28.4292 8.53714 27.8145 8.53712C27.2002 8.5371 26.702 8.03886 26.702 7.42423C26.702 7.26775 26.8118 6.98196 27.0715 6.59251C27.0715 6.5925 27.0715 6.59249 27.0715 6.59249ZM30.9657 14.3812C30.9657 14.3812 30.9657 14.3812 30.9657 14.3812C31.0335 14.2795 31.1096 14.1737 31.1941 14.0639C31.4552 13.7242 31.9626 13.7242 32.2237 14.0639C32.3081 14.1737 32.3842 14.2796 32.452 14.3812C32.7119 14.771 32.8217 15.0568 32.8216 15.213C32.8216 15.8276 32.3234 16.3258 31.7088 16.3258C31.0941 16.3258 30.5962 15.8275 30.5962 15.2129C30.5962 15.0567 30.7057 14.7709 30.9657 14.3812C30.9657 14.3812 30.9657 14.3812 30.9657 14.3812Z" fill="#02A295"/>
</svg>
