<svg width="181" height="369" viewBox="0 0 181 369" fill="none" xmlns="http://www.w3.org/2000/svg">
<path d="M53.767 194.849C60.3342 198.839 66.9094 202.836 73.4846 206.818C74.139 207.217 74.913 208.183 75.2801 206.547C75.6232 203.275 78.057 204.783 79.5252 204.919C89.6833 205.829 99.2508 208.949 108.715 212.667C117.053 215.939 124.817 220.232 133.068 225.722C131.6 220.702 129.98 216.864 128.376 213.098C121.969 198.065 116.926 182.537 111.268 167.232C109.465 162.356 106.105 158.782 102.507 155.598C88.5422 143.277 72.6707 134.412 54.3735 130.175C50.6151 129.305 46.6173 129.058 43.3297 126.656C42.7791 125.435 42.2285 124.214 41.6779 123.002C41.1672 122.459 41.1273 121.853 41.4545 121.206C41.6938 121.039 42.0689 120.783 42.2205 120.895C47.8302 125.292 54.9879 124.637 61.3237 126.68C77.3148 131.851 91.8457 139.511 105.14 150.954C103.185 143.469 100.567 136.846 98.405 130.087C94.096 116.626 89.7551 103.165 85.486 89.6872C84.8077 87.5567 83.8262 85.7134 82.1345 84.2532C71.2025 74.8135 59.9751 65.8046 46.9764 59.2694C44.0957 57.8251 41.1193 56.6761 37.9195 56.6362C34.7755 56.5963 34.6798 55.0483 35.4937 52.7422C35.6373 52.1836 35.773 51.6251 35.9166 51.0665C43.585 51.1543 50.0325 54.7929 56.3843 58.4236C65.138 63.4347 72.958 69.8263 81.576 76.6328C79.8843 69.0204 77.6899 62.3655 75.8306 55.6467C71.2424 39.1053 67.3802 22.3962 63.55 5.67119C63.167 3.98752 62.7122 2.24801 64.1565 0.771801C64.332 0.564334 64.5554 0.484532 64.8268 0.540389C68.0425 -0.289478 68.0266 2.32779 68.3617 4.13116C70.2369 14.2013 72.966 24.0639 75.288 34.0223C77.7378 44.5233 81.2727 54.7371 83.5868 65.4934C84.7199 57.474 85.4461 49.6063 87.042 41.8422C88.8933 32.8653 92.133 24.423 96.0909 16.2361C97.208 13.938 98.2534 11.4882 100.639 10.0838C102.307 10.7621 103.368 12.0388 104.142 13.6028C99.7775 19.5555 96.9766 26.2583 94.7344 33.2244C89.6114 49.1195 88.0793 65.4695 89.38 82.003C90.0742 90.8123 93.8965 98.9913 96.4021 107.418C99.9849 119.451 104.19 131.292 108.068 143.238C108.443 144.403 108.603 145.767 110.191 146.836C111.228 136.718 112.673 126.928 114.723 117.224C118.266 100.444 124.139 84.5165 132.047 69.3315C133.116 67.2728 134.018 64.6955 137.098 64.6636C138.271 65.6131 138.654 66.9058 138.702 68.3421C123.238 94.4749 117.484 123.265 114.787 153.084C114.109 160.577 116.838 166.665 118.96 173.105C124.379 189.582 131.161 205.557 137.138 221.835C137.338 222.37 137.585 222.897 138.542 223.415C139.253 220.567 139.253 217.718 139.58 214.973C141.527 198.711 144.862 182.696 149.49 167.04C152.18 157.96 156.13 149.174 160.909 140.884C161.596 139.695 162.194 138.171 164.101 138.522C166.088 140.213 166.2 142.336 165.537 144.642C156.672 158.359 152.65 173.911 149.219 189.558C146.315 202.804 144.479 216.266 143.203 229.783C142.899 233.031 143.083 236.023 144.28 239.095C150.592 255.333 157.949 271.117 164.891 287.834C165.37 266.393 168.721 246.077 173.94 226.041C174.531 223.79 175.712 221.78 176.701 219.697C177.172 218.708 177.898 217.463 179.262 218.939C180.81 224.652 180.795 230.374 179.286 236.087C178.289 237.26 177.539 236.813 177.124 235.624C176.685 234.355 177.475 233.174 177.371 232.464C174.427 247.202 171.323 262.467 170.517 278.107C170.23 283.708 169.224 289.31 169.775 294.92C170.589 303.123 174.371 310.137 179.175 316.664C180.595 319.999 180.427 323.382 179.51 326.79C177.02 329.67 176.709 326.542 176.246 325.377C173.246 317.861 169.096 310.879 166.176 303.33C164.117 298 160.558 294.05 155.731 291.026C145.365 284.53 133.986 280.788 121.993 277.78C122.208 280.022 123.405 281.155 124.291 282.392C134.297 296.34 143.953 310.567 155.268 323.534C158.308 327.021 160.47 331.123 163.391 334.737C168.386 340.905 173.685 346.73 179.558 352.069C180.707 356.665 179.989 361.373 180.467 366.009C180.571 366.99 180.18 367.964 179.23 368.554C178.433 368.467 177.635 368.387 176.829 368.299C176.31 365.259 174.235 363.559 171.969 361.62C158.635 350.202 142.476 345.677 125.895 342.078C123.517 341.56 121.33 340.435 118.968 339.884C117.732 339.278 116.064 339.541 115.266 338.049C116.176 335.096 118.522 336.198 120.261 336.533C129.454 338.28 138.598 340.211 147.16 343.148C139.564 336.333 131.273 329.886 123.549 322.784C120.469 319.951 116.878 318.347 112.928 317.254C110.087 316.472 109.01 317.406 108.802 320.318C108.611 323.031 109.959 326.143 107.167 328.354C107.055 324.356 106.784 320.358 106.895 316.369C106.975 313.352 106.201 311.828 102.834 312.068C99.8493 312.283 96.833 311.932 93.8406 311.98C91.9654 312.012 90.7286 311.597 90.968 309.394C88.7736 306.075 89.8748 302.452 90.0583 298.925C90.0902 298.255 90.577 297.481 91.3989 297.465C92.2447 297.441 92.54 298.231 92.8033 298.901C93.1305 299.715 93.306 300.593 93.2262 301.447C92.8033 305.915 95.3009 307.567 99.2668 308.221C103.217 308.876 106.975 310.36 111.252 311.748C100.033 301.447 89.1646 291.512 78.9986 280.86C74.6975 276.359 68.9682 274.596 63.4543 272.673C50.5113 268.156 37.4008 264.095 23.5961 263.073C22.2794 262.978 21.0665 262.523 19.9095 261.909C18.7365 261.406 18.154 260.504 18.0901 259.243C19.702 257.687 21.665 258.414 23.4445 258.573C38.3424 259.866 52.6738 263.56 67.093 269.05C66.0716 267.742 65.13 266.696 64.2762 265.595C63.3904 264.454 62.393 263.409 61.3716 262.387C51.9477 253.027 43.1382 243.093 34.4723 233.039C32.2061 230.413 29.4451 228.762 26.1815 227.836C20.1888 226.152 14.1402 224.908 7.86027 225.043C5.72971 225.091 3.48744 225.378 1.66809 223.775C0.471148 222.45 0.862149 220.878 0.989822 219.354C6.39202 221.149 12.1134 220.2 17.6193 221.301C20.2845 221.836 22.9577 222.306 25.6947 223.096C24.6494 221.764 23.5642 220.623 22.8221 219.242C22.2076 218.093 21.3857 216.761 22.7582 215.747C24.035 214.806 25.192 215.803 26.2373 216.593C27.6018 217.614 28.2003 219.458 30.3309 220.248C31.855 209.244 34.8473 198.823 40.6804 189.383C42.0928 188.769 43.3057 188.984 44.2713 190.245C44.9336 191.865 43.7925 192.982 43.1222 194.211C38.3584 202.972 35.6373 212.3 34.9511 222.274C34.7516 225.131 35.5894 227.293 37.4407 229.328C46.3619 239.159 54.7964 249.445 64.324 258.709C67.085 261.398 69.0639 264.877 73.0537 267.47C72.958 259.993 73.6362 253.187 74.4661 246.372C74.8731 243.069 72.543 240.093 70.8833 237.228C64.2841 225.833 59.0655 213.76 53.4797 201.871C52.4743 199.732 50.9981 197.546 51.8838 194.897C52.4903 194.498 53.1127 194.482 53.7351 194.857L53.767 194.849Z" fill="#01B09F"/>
</svg>
