<svg width="100" height="192" viewBox="0 0 100 192" fill="none" xmlns="http://www.w3.org/2000/svg">
<path d="M52.8522 191.658C51.9825 184.349 50.7775 177.215 48.1283 170.202C46.1972 165.087 45.2317 159.517 43.6517 154.179C40.3482 143.015 35.9913 132.259 31.7142 121.479C26.8546 109.238 22.3222 96.886 17.71 84.5577C13.385 72.9794 9.86602 61.1538 6.6263 49.2484C3.23496 36.8084 1.70288 24.0812 0.64957 11.2501C0.386243 8.00249 2.87588 5.64854 2.42105 2.56048C2.85993 1.46729 3.76162 0.988516 4.83887 0.757111C6.69812 5.37723 6.64225 10.3724 7.62375 15.1681C9.77824 25.6212 13.9596 34.9652 21.5163 42.6414C23.4234 44.8198 25.5859 46.7908 26.7988 49.5118C32.3845 55.8156 36.7494 62.9333 40.7551 70.2983C41.9601 72.0139 43.0373 73.8013 43.9629 75.6845C45.3274 77.1208 44.346 79.395 45.8142 80.7834C47.5139 85.0045 48.3597 89.4571 49.0459 93.9176C49.4369 96.4631 50.5062 97.1014 52.7724 96.3434C54.5599 93.7022 52.8203 90.3747 54.4402 87.7016C54.4721 83.6001 57.2809 80.3685 57.9831 76.4745C59.0923 74.4078 60.1536 72.3172 61.2388 70.2425C66.5053 59.8851 73.703 50.98 81.531 42.4659C88.2498 35.1646 93.7717 27.1133 94.6654 16.7081C94.841 14.6255 94.9686 12.3752 96.2533 10.508C98.1445 12.4311 99.0303 14.8888 99.908 17.3544C99.7484 18.5593 99.5968 19.7643 99.4372 20.9692C97.5939 21.7911 97.6578 23.9136 97.7216 25.0866C98.1844 34.1752 94.5377 42.418 92.5508 50.9561C90.4203 60.1405 88.7126 69.4286 85.832 78.4454C81.906 90.7737 78.1476 103.15 74.5568 115.582C71.1654 127.32 68.3805 139.241 64.7578 150.899C62.0128 159.732 60.2653 168.845 56.9857 177.527C55.7488 180.806 55.9004 184.493 54.5439 187.844C54.0173 189.145 54.0891 190.677 52.8602 191.674L52.8522 191.658Z" fill="#00CAB8"/>
</svg>
