<svg width="39" height="39" viewBox="0 0 39 39" fill="none" xmlns="http://www.w3.org/2000/svg">
<path d="M12.537 13.8537C12.6236 13.6682 12.6684 13.4659 12.6684 13.2612C12.6687 6.19413 18.3969 0.466896 25.4647 0.467124C32.5331 0.467352 38.2603 6.19374 38.2601 13.2634C38.26 16.064 37.6137 18.1567 36.1952 20.9937C36.1015 21.1814 35.6122 22.1445 35.4821 22.4069C35.2311 22.9135 35.0461 23.3151 34.893 23.6946C34.5373 24.5755 34.3655 25.3186 34.3654 26.0596C34.3654 27.598 34.7485 29.1791 35.3908 30.7044C35.6175 31.243 35.8602 31.7346 36.1016 32.1674C36.2433 32.421 36.3497 32.5941 36.4035 32.6749C36.8067 33.2797 36.5315 34.1023 35.8453 34.3424L24.718 38.2363C24.1319 38.4416 23.4915 38.127 23.2949 37.538L22.6541 35.6155C21.8593 33.231 19.6279 31.6226 17.1145 31.6225C14.6582 31.6224 12.6674 29.6321 12.6675 27.1755L12.6676 24.943C12.6676 24.0231 11.9219 23.2773 11.002 23.2773C9.57349 23.2772 8.74205 21.9846 9.34773 20.6874L12.537 13.8537ZM27.4714 11.0376C29.315 11.0377 30.8097 9.54331 30.8098 7.69977C30.8098 6.47903 29.9284 5.15686 28.2372 3.55396C27.8079 3.1473 27.1355 3.14727 26.7064 3.55391C25.0151 5.15677 24.1336 6.47881 24.1336 7.69955C24.1335 9.54309 25.6279 11.0376 27.4714 11.0376ZM31.3657 18.827C33.2092 18.827 34.7037 17.3324 34.7037 15.4889C34.7038 14.2681 33.8227 12.9462 32.1312 11.3433C31.7021 10.9364 31.0297 10.9364 30.6006 11.3433C28.909 12.9461 28.0279 14.2679 28.0278 15.4886C28.0278 17.3322 29.5221 18.8269 31.3657 18.827ZM0.210359 12.7059C0.210426 10.6329 1.32307 8.61796 1.32314 6.54496L1.32323 3.80434C1.32329 1.9608 2.81802 0.466433 4.66156 0.466493C6.5051 0.466552 7.99946 1.96101 7.9994 3.80455L7.99932 6.54509C7.99925 8.61814 9.11204 10.6331 9.11197 12.7062C9.11189 15.1644 7.11919 17.1569 4.66102 17.1569C2.20285 17.1568 0.21028 15.1641 0.210359 12.7059ZM3.54839 10.2181C3.54838 10.5345 3.41379 10.8361 3.17786 11.0472C2.70812 11.4675 2.43579 12.0634 2.43577 12.706C2.43573 13.9352 3.43188 14.9314 4.66107 14.9314C5.88998 14.9315 6.88647 13.9353 6.88651 12.7061C6.88653 12.0636 6.61421 11.4677 6.14452 11.0473C5.90861 10.8361 5.77377 10.5345 5.77378 10.2181L5.77399 3.80448C5.77401 3.19014 5.2758 2.69188 4.66144 2.69186C4.04684 2.69184 3.54857 3.19005 3.54855 3.80441L3.54839 10.2181ZM26.7284 6.86789C26.7284 6.86789 26.7284 6.86788 26.7284 6.86787C26.7962 6.7662 26.8723 6.66037 26.9568 6.55051C27.2179 6.2108 27.7252 6.21072 27.9864 6.55042C28.0709 6.66034 28.147 6.76622 28.2149 6.86793C28.4746 7.25744 28.5843 7.54324 28.5843 7.6997C28.5843 8.3143 28.0861 8.81253 27.4714 8.81251C26.8571 8.81249 26.3589 8.31425 26.3589 7.69962C26.3589 7.54314 26.4687 7.25735 26.7283 6.8679C26.7284 6.86789 26.7284 6.86789 26.7284 6.86789ZM30.6226 14.6566C30.6226 14.6566 30.6226 14.6566 30.6226 14.6566C30.6904 14.5549 30.7665 14.4491 30.851 14.3393C31.1121 13.9996 31.6195 13.9995 31.8806 14.3393C31.965 14.4491 32.0411 14.5549 32.1089 14.6566C32.3688 15.0464 32.4785 15.3322 32.4785 15.4884C32.4785 16.103 31.9803 16.6012 31.3656 16.6012C30.751 16.6012 30.2531 16.1029 30.2531 15.4883C30.2531 15.3321 30.3626 15.0463 30.6226 14.6566C30.6226 14.6566 30.6226 14.6566 30.6226 14.6566Z" fill="#02A295"/>
</svg>
