<svg width="92" height="74" viewBox="0 0 92 74" fill="none" xmlns="http://www.w3.org/2000/svg">
<path d="M91.144 24.0184C92.8995 25.4069 91.559 26.524 90.8169 27.689C81.393 42.499 71.5142 56.9817 60.9252 70.9857C59.6804 72.6295 58.2042 72.9407 56.4487 73.0045C51.2779 73.188 46.1071 73.3556 40.9363 73.5232C28.6716 73.4594 16.407 73.3636 4.13431 73.3636C1.63669 73.3636 0.160438 73.0045 0.176398 69.8606C0.312051 47.1749 0.280119 24.4893 0.312037 1.80357C0.312037 1.26096 0.423777 0.718344 0.487614 0.143821C2.38676 -0.215256 3.13682 1.25296 4.15023 2.13071C21.8171 17.3556 39.5079 32.5485 57.079 47.8851C59.6804 50.1593 61.3561 50.1353 63.9336 47.8133C72.8787 39.746 82.0552 31.9341 91.144 24.0264V24.0184Z" fill="#01CAB8"/>
</svg>
