<svg width="95" height="53" viewBox="0 0 95 53" fill="none" xmlns="http://www.w3.org/2000/svg">
<path d="M0.233765 0.368734C9.57789 -0.365379 18.4991 2.02051 27.3325 4.43031C36.4692 6.91991 45.4862 9.88032 54.2079 13.6706C55.9235 14.4127 57.4715 15.5058 58.7962 16.8304C69.4809 27.5628 80.1496 38.3033 91.6881 48.142C92.7335 49.0357 93.3559 50.4241 94.465 52.012C92.0073 52.1397 90.2678 51.3896 88.4484 50.7832C85.3443 49.7538 82.2243 48.6207 79.0165 48.0781C73.1355 47.0727 72.2179 46.2588 72.1939 40.4976C72.1939 39.3645 72.1939 38.2314 71.2922 37.0904C71.2922 40.6811 71.2922 44.2719 71.2922 47.8627L70.9731 47.9105H70.6539C67.7413 43.8729 68.0206 39.8034 70.5023 35.7019C70.2549 33.723 68.659 34.1778 67.486 34.1539C63.576 34.0821 59.6659 34.2177 55.7639 34.1379C53.6892 34.0901 52.0933 35.67 52.1491 37.7447C52.213 40.346 52.213 42.9393 52.197 45.5406C52.189 47.7909 51.3512 48.509 49.3323 47.0487C32.7108 35.0635 17.0229 22.041 3.99216 6.08207C2.56381 4.32659 1.47858 2.29181 0.233765 0.384708V0.368734Z" fill="#00CAB8"/>
</svg>
