<svg width="43" height="64" viewBox="0 0 43 64" fill="none" xmlns="http://www.w3.org/2000/svg">
<path d="M42.6359 63.8017C36.324 59.7162 32.1347 54.3141 27.1474 49.8296C19.9897 43.3822 13.5422 36.1528 6.34457 29.7612C0.97429 24.9974 1.13388 18.7974 0.75884 12.7569C0.55137 9.39755 1.64458 5.95837 2.15527 2.55911C2.27497 1.75318 1.93982 0.620093 3.02505 0.364749C4.20603 0.0854673 4.81249 1.13079 5.32318 1.96863C9.20128 8.32829 12.8001 14.8795 16.9654 21.0396C20.8914 26.8567 24.6418 32.8014 28.871 38.4269C32.8927 43.7812 36.8586 49.1753 40.9282 54.4976C42.7157 56.8356 43.1545 60.0354 42.6359 63.7937V63.8017Z" fill="#00CAB8"/>
</svg>
