<svg width="314" height="266" viewBox="0 0 314 266" fill="none" xmlns="http://www.w3.org/2000/svg">
<path d="M1.86086 76.1922C1.90076 50.8574 1.94067 25.5305 1.98056 0.195618C7.62215 1.3686 13.3435 0.49087 19.0091 0.905804C20.2698 0.427034 21.4907 0.450983 22.935 1.0654C21.3631 3.93802 18.7218 3.5151 16.4476 3.555C13.4313 3.61086 11.971 5.13492 12.4897 7.87188C13.4233 12.8192 12.5057 17.6787 12.2902 22.5621C12.0189 28.5148 13.3036 34.3638 13.2159 40.3005C13.1201 47.3783 12.9126 54.4402 12.4578 61.51C11.8274 71.3088 13.4872 81.0996 13.2398 90.9463C12.4179 123.582 13.5989 156.227 13.1999 188.871C13.1281 195.023 13.1999 195.039 19.2724 196.531C20.2858 196.778 21.1396 197.265 21.9137 197.943C63.5433 197.919 105.165 197.895 146.795 197.863C148.518 197.863 150.25 197.8 151.973 197.76C152.484 197.488 151.766 197.632 152.317 197.512C161.166 195.565 170.007 195.198 178.825 197.72C211.701 197.768 244.577 197.816 277.453 197.871C282.352 197.871 287.26 197.903 292.159 197.919C293.524 195.932 295.575 196.036 297.609 196.172C299.995 196.331 301.855 194.488 301.791 192.094C301.743 190.363 301.791 188.623 301.791 186.892C301.791 130.9 301.791 74.9076 301.791 18.9155C301.791 18.0457 301.791 17.184 301.791 16.3142C301.839 8.26289 302.501 7.68837 310.52 8.74167C310.856 8.81348 311.191 8.87733 311.534 8.94914C312.228 9.74709 312.491 10.7046 312.547 11.742C312.595 12.7554 312.611 13.7608 312.603 14.7742C312.276 58.3581 313.361 101.942 312.986 145.526C312.747 173.949 312.643 202.38 312.611 230.803C312.611 232.838 312.595 234.856 311.542 236.692C310.864 252.331 304.089 261.755 291.154 265.234C288.872 265.849 286.574 265.817 284.283 265.817C199.069 265.841 113.863 265.849 28.6484 265.833C17.3812 265.833 9.56918 260.279 4.48616 250.472C3.82385 249.196 3.24135 247.879 2.61894 246.578C1.70128 240.809 2.06834 234.976 1.78905 229.175C0.879372 228.178 0.36868 226.997 0.320802 225.656C0.113332 220.182 0.0973683 214.716 0.328777 209.242C0.384634 207.934 0.719779 206.673 1.81299 205.771L1.79704 194.504C0.121316 192.94 0.209092 190.857 0.201113 188.847C0.169194 166.001 0.169194 143.156 0.201113 120.311C0.201113 118.3 0.121308 116.217 1.81299 114.661L1.79704 96.4681C0.847461 95.6782 0.336763 94.569 0.38464 93.436C0.663927 87.6748 -1.35492 81.7141 1.82895 76.2002L1.86086 76.1922Z" fill="#003256"/>
</svg>
