<svg width="81" height="6" viewBox="0 0 81 6" fill="none" xmlns="http://www.w3.org/2000/svg">
<path d="M80.6789 1.92235C80.0565 2.9517 79.7134 4.05288 79.8012 5.27374C57.3625 5.32162 34.9318 5.3695 12.4931 5.42535C9.33317 5.42535 6.1653 5.49717 3.00537 5.42535C1.80045 5.39344 0.1646 5.60887 0.236416 3.61399C0.308233 1.71488 1.88021 1.92233 3.11705 1.8585C5.26356 1.74678 7.42606 1.73084 9.57258 1.67498C12.7724 1.69094 15.9802 1.70691 19.188 1.73085C24.662 0.326457 30.2238 0.0312099 35.8574 0.0790868C48.6647 0.1908 61.472 0.0790927 74.2793 0.134949C76.5455 0.142929 78.9553 -0.136353 80.6709 1.93033L80.6789 1.92235Z" fill="#DFFBFC"/>
</svg>
