<svg width="67" height="184" viewBox="0 0 67 184" fill="none" xmlns="http://www.w3.org/2000/svg">
<path d="M23.9243 37.318C23.5173 34.4294 22.1927 31.8999 20.9 29.3544C18.2428 27.9022 17.9635 24.7662 16.1841 22.6916C12.8725 16.683 8.07678 11.9991 2.91397 7.62631C0.751491 5.79901 -1.3232 3.82009 1.50158 0.883636C5.14827 3.75625 8.79495 6.63686 12.4416 9.50947C16.9262 12.1826 19.9425 15.9808 21.299 21.0638C30.5314 39.6001 33.3802 59.7483 36.0294 79.9284C36.2608 81.7079 36.6358 83.0724 38.1998 84.3251C65.5141 106.221 73.5176 135.553 61.1971 168.198C60.4869 170.081 59.665 171.924 58.899 173.783C58.2367 175.387 56.5769 177.095 59.7368 178.092C60.7422 178.411 60.7662 179.848 60.4869 180.805C59.5533 184.021 56.3535 182.776 54.2628 183.654C52.7467 184.284 51.2305 183.095 50.672 181.34C50.0097 179.249 50.5682 177.637 52.7227 176.863C53.8239 176.464 54.1591 175.579 54.5979 174.653C68.7378 145.057 66.4637 114.129 40.8172 90.9082C34.6569 85.3306 34.1621 85.3944 27.4592 92.7914C16.192 103.548 9.87219 116.826 7.57406 132.114C5.55522 145.568 7.98103 158.518 12.1943 171.238C12.9842 173.608 13.4231 176.225 16.0963 177.629C17.5326 178.379 17.4927 180.103 16.99 181.531C16.3836 183.255 14.644 184.404 13.2795 183.646C11.133 182.457 7.62194 184.372 6.68035 180.765C6.36914 179.56 6.60855 178.124 7.9172 177.901C11.4841 177.286 9.92805 175.307 9.29766 173.512C1.90854 152.478 0.687671 131.532 10.2871 110.769C14.3967 101.872 20.4293 94.3713 27.3556 87.5409C32.5184 82.3063 30.4756 76.1302 29.7016 70.0738C28.4567 60.3308 26.1586 50.8033 24.2994 41.18C24.052 39.9033 23.8685 38.6266 23.9243 37.326V37.318Z" fill="#06182A"/>
</svg>
