<svg width="123" height="159" viewBox="0 0 123 159" fill="none" xmlns="http://www.w3.org/2000/svg">
<path d="M28.9405 19.9134C33.5847 16.6738 35.6435 11.4632 38.6917 7.01861C41.3329 5.55038 41.7239 1.96758 44.6045 0.722778C47.174 0.794594 48.0358 2.58198 48.347 4.69655C50.6212 20.2246 51.7543 35.8485 50.9563 51.5282C50.4696 61.0956 49.4322 70.647 48.6582 80.2064C48.4427 82.8556 46.7032 84.2361 44.7881 85.5687C43.4316 86.2948 41.9234 86.3666 40.4312 86.5661C62.838 86.6619 85.2447 86.622 107.651 86.6539C109.798 86.6539 111.968 86.4384 114.083 87.013C115.4 87.1885 116.876 87.5795 117.179 88.9121C118.272 93.7796 121.496 97.8252 122.398 102.741C121.273 105.733 118.703 107.488 116.429 109.419C106.654 117.734 96.9748 126.16 87.1917 134.475C82.3322 138.6 80.3373 138.824 75.6373 134.682C59.8297 120.782 43.6869 107.249 27.975 93.2449C26.1397 91.6092 24.2086 90.101 22.2696 88.6009C20.1869 86.989 19.1815 87.5875 19.1815 90.1729C19.1815 91.7608 19.1655 93.3487 19.1655 94.9366C19.1655 106.77 19.1735 118.612 19.1576 130.445C19.1576 132.751 19.2932 135.073 18.567 137.324C16.0375 143.771 11.6966 149.301 9.22295 155.788C8.76811 156.977 7.95416 158.278 6.39813 158.038C4.54686 157.759 4.53891 156.123 4.37931 154.671C3.86064 150.027 5.10546 145.487 5.17728 140.89C5.31293 132.512 5.67999 124.086 5.07354 115.755C4.36335 105.908 3.98832 95.934 1.34707 86.3507C-0.0174439 81.3874 0.134134 76.9827 2.00934 72.0993C8.91171 54.0736 17.817 37.1252 27.999 20.7912C28.2304 20.4162 28.5815 20.1608 28.9405 19.9055V19.9134Z" fill="#01CAB8"/>
</svg>
