<svg width="58" height="134" viewBox="0 0 58 134" fill="none" xmlns="http://www.w3.org/2000/svg">
<path d="M35.4392 19.0156C35.0322 19.654 34.6332 20.3003 34.2263 20.9387C25.1056 30.8891 19.5119 42.8344 15.3385 55.4579C9.84857 72.0553 6.76046 89.1154 6.43329 106.638C5.82684 111.043 6.02632 115.448 6.32157 119.86C7.41477 122.725 6.88016 125.813 7.63822 128.757C8.1569 130.76 7.38287 132.955 4.89323 133.362C2.40359 133.769 1.91683 131.654 1.31836 129.875C0.807662 128.343 0.871492 126.763 0.887451 125.183C0.528368 123.204 0.751796 121.361 2.13227 119.789C2.64296 102.744 3.83992 85.772 7.78185 69.1029C12.7372 48.1487 20.9642 28.8623 36.1015 13.0709C39.4849 11.9936 41.1686 8.64226 44.1928 7.04637C48.2704 4.88392 51.6697 1.38093 56.5772 0.8862C59.2185 3.82265 56.8006 5.26694 54.71 6.43993C50.5925 8.76196 46.6186 11.2675 43.0039 14.3157C42.0383 15.0498 41.009 15.7041 40.0993 16.526C38.6869 17.6192 37.466 19.0954 35.4232 19.0156H35.4392Z" fill="#0A192B"/>
</svg>
