<svg width="25" height="25" viewBox="0 0 25 25" fill="none" xmlns="http://www.w3.org/2000/svg">
<path d="M10.1403 0.78853C10.1722 2.53604 10.1962 4.27556 10.2281 6.02307C9.08699 7.14818 8.24115 8.53661 7.73045 9.98888C6.78088 12.6859 7.34741 15.1516 9.88493 16.7555C11.9995 18.0801 14.0822 17.5694 15.75 15.8937C17.7528 13.8829 17.9204 11.497 16.133 9.31062C14.2578 7.00454 13.8987 4.44312 14.1301 1.6503C14.1301 1.21143 14.3296 0.900246 14.7046 0.69278C20.1308 2.04929 23.0513 5.91135 23.9051 11.0501C24.6392 15.4628 22.5725 19.0855 19.0136 21.9182C14.944 25.1499 10.6669 24.8467 6.45371 22.7241C2.35218 20.6574 0.660514 16.9789 0.628596 12.3827C0.588698 7.54715 2.74319 4.10001 6.86067 1.82585C7.84217 1.28325 9.04709 1.12368 10.1483 0.796517L10.1403 0.78853Z" fill="#C1DAE8"/>
</svg>
