<svg width="62" height="192" viewBox="0 0 62 192" fill="none" xmlns="http://www.w3.org/2000/svg">
<path d="M60.8681 190.249C58.4982 190.297 56.1203 190.345 53.7503 190.393C49.6009 192.827 46.2175 190.393 42.7304 188.637C34.5753 181.288 24.7205 176.389 15.879 170.029C14.8337 169.271 13.7246 168.601 12.6952 167.827C6.71047 163.31 6.75036 163.334 11.8653 158.044C14.3629 155.459 16.7089 152.722 19.1108 150.048C19.8609 149.211 21.0578 148.461 20.603 147.152C20.1162 145.74 18.6879 146.194 17.5947 146.099C13.8762 145.771 10.1577 145.428 6.43917 145.165C2.64885 144.902 0.590102 143.689 0.84545 139.117C1.70725 123.74 2.13017 108.332 2.69673 92.9393C3.31116 76.2462 3.4867 59.5132 4.63577 42.86C5.30606 33.1889 5.14647 23.5497 5.24223 13.9025C5.27414 10.2558 7.4446 6.58527 5.24223 2.95461C5.02678 1.79758 5.46565 1.11932 6.65461 0.983673C9.04849 2.42796 8.23459 4.82979 8.26651 6.87254C8.51388 26.2707 10.046 45.5491 15.3205 64.2849C19.7093 79.8769 25.9174 94.8384 32.5325 109.608C41.4936 129.637 50.6462 149.578 57.1736 170.588C58.8333 175.942 59.8228 181.48 61.6102 186.794C61.9693 188.079 61.7698 189.244 60.8841 190.257L60.8681 190.249Z" fill="#BFDAEA"/>
</svg>
