<svg width="58" height="71" viewBox="0 0 58 71" fill="none" xmlns="http://www.w3.org/2000/svg">
<path d="M55.7787 31.1976C56.4251 33.2084 57.0794 35.2272 57.7257 37.2381C57.7098 37.8206 57.6938 38.4111 57.6779 39.0016C57.5342 46.6619 57.5342 46.8534 49.8499 46.6858C46.291 46.606 45.3653 47.8907 45.5169 51.2102C45.7404 56.2612 45.4691 61.3282 45.6047 66.3872C45.6765 69.0842 44.9424 70.3849 41.974 70.2652C37.2181 70.0817 32.4463 70.1215 27.6825 70.2492C24.8418 70.321 23.8363 69.0843 23.8842 66.3553C23.98 61.1526 23.7805 55.942 23.956 50.7473C24.0597 47.779 23.1182 46.5901 20.03 46.7018C14.8353 46.9013 9.6326 46.622 4.43787 46.8055C1.50935 46.9093 0.168777 46.0634 0.392206 42.9274C0.583717 40.1985 0.368267 37.4376 0.328369 34.6926C0.567758 27.7611 4.29158 24.298 11.4998 24.3034C14.8114 24.3034 18.1229 24.2155 21.4345 24.3193C24.2672 24.415 24.9934 23.0426 24.4428 20.545C23.2458 15.1269 24.1316 9.62905 23.8842 4.17906C23.7725 1.80915 24.9934 0.803726 27.3234 0.827665C32.3665 0.867562 37.4017 0.923444 42.4448 0.803752C45.0382 0.739916 45.8281 2.06449 45.5169 4.27481C44.695 10.1477 47.3602 15.9568 45.7324 21.8616C45.1818 23.8565 46.7139 24.2714 48.3337 24.2635C50.3526 24.2635 52.3714 24.1916 54.2865 24.9976L54.3025 25.0614C54.877 27.0882 54.7095 29.2905 55.7947 31.1897L55.7787 31.1976Z" fill="#FEFEFE"/>
</svg>
