<svg width="116" height="267" viewBox="0 0 116 267" fill="none" xmlns="http://www.w3.org/2000/svg">
<path d="M8.83885 169.757C12.1424 165.759 16.6668 163.525 21.1993 161.387C23.3059 160.389 24.6864 159.4 23.5852 156.886C23.8086 155.474 24.0241 154.069 24.2475 152.657C25.1492 147.279 26.019 141.901 26.9606 136.531C27.6787 132.445 26.7052 129.205 23.6171 126.117C19.8986 122.399 16.8344 118.018 13.483 113.925C9.82833 106.384 7.36262 98.4604 6.74819 90.1139C6.52476 87.0577 5.58317 85.4459 2.58283 85.0708C1.50558 84.9352 0.803379 84.2489 0.3645 83.2834C0.180969 82.653 0.388446 82.0865 0.970958 81.895C5.98216 80.2033 6.40507 75.8386 6.87587 71.6094C7.21899 68.5134 6.55669 65.3535 7.22697 62.2575C7.64989 52.2033 9.86023 42.588 14.3687 33.5473C16.7227 28.8314 19.8827 24.7539 24.0879 21.5541C31.2696 16.0882 37.6772 9.9599 41.5872 0.895203C42.3453 3.49652 42.824 5.50735 43.5103 7.45434C47.1011 17.6122 54.7296 23.2059 64.752 25.9348C70.5851 27.5228 76.6018 28.5042 82.3072 30.4432C93.7021 34.3213 102.567 41.2794 107.1 52.8816C108.616 58.3954 110.954 63.8055 109.374 69.7502C109.717 68.6251 109.486 67.4681 109.685 66.3589C109.885 65.2418 110.044 64.0848 110.994 63.2868C113.268 62.7761 113.276 64.6433 113.42 65.9041C113.811 69.3273 113.978 72.7824 112.263 75.9902C111.521 77.3786 110.507 78.8708 111.082 80.4347C111.752 82.2541 113.715 80.6741 114.896 81.4402C115.263 81.6795 115.534 81.9987 115.702 82.4057C115.008 83.7303 113.97 85.007 112.566 85.1267C108.169 85.5017 107.563 88.6776 107.22 91.989C106.693 96.9922 105.735 101.884 103.581 106.448C102.815 108.076 103.812 108.379 104.834 108.866C103.573 109.129 102.448 109.344 101.777 110.805C98.2904 118.441 92.5131 124.274 86.2172 129.564C83.536 131.815 82.5785 134.24 82.6264 137.712C82.7141 143.904 82.6902 150.064 83.9191 156.168C83.7036 156.878 83.951 157.437 84.4776 157.9C83.3286 160.82 84.6292 162.432 87.063 164.116C92.7525 168.065 97.4286 173.029 100.221 179.524C100.692 188.469 98.0669 196.472 93.2632 203.981C89.1856 210.341 83.4483 215.232 78.852 221.161C74.2478 227.098 70.1941 233.33 66.2682 239.689C64.5844 241.501 63.2758 243.496 63.0125 246.041C62.2225 249.903 60.2276 253.358 59.3099 257.18C57.2751 259.686 58.8551 263.221 56.8921 265.75C53.9875 267.187 52.623 265.679 51.8171 263.101C50.5643 259.119 49.8142 255.01 48.8008 250.972C48.5215 249.113 48.5454 247.174 47.4921 245.498C47.3086 245.139 47.165 244.764 47.0453 244.381C46.8617 242.227 45.2339 241.078 43.8055 239.793C39.2811 232.747 35.0519 225.51 29.7933 218.959C29.3305 215.671 27.1601 213.82 24.3353 212.527C13.1479 200.47 8.51169 186.027 8.79896 169.789L8.83885 169.757Z" fill="#F9D6C0"/>
</svg>
