<svg width="84" height="81" viewBox="0 0 84 81" fill="none" xmlns="http://www.w3.org/2000/svg">
<path d="M83.6779 80.3046C81.6989 80.8472 80.6775 79.6742 79.4726 78.996C72.8256 75.2297 65.8035 72.4767 58.5261 70.0589C52.7888 68.1518 46.9078 67.0587 41.1625 65.3351C39.5506 64.8484 38.3776 64.0105 37.452 62.6061C31.188 53.1344 24.6606 43.8304 18.636 34.2071C13.0264 25.2382 7.9593 15.9341 2.60497 6.80553C1.64742 5.17772 0.115329 3.46212 1.50378 1.71462C2.7885 0.09478 5.09461 0.701221 6.81821 1.11615C13.1061 2.63226 19.4499 4.07656 25.5623 6.16718C38.1542 10.4841 49.8124 16.4527 59.5236 25.9164C62.9548 29.2598 63.9922 33.5688 65.7317 37.5505C71.892 51.6902 77.6932 65.9814 83.6779 80.3046Z" fill="#00CAB8"/>
</svg>
