<svg width="37" height="200" viewBox="0 0 37 200" fill="none" xmlns="http://www.w3.org/2000/svg">
<path d="M11.5252 199.954C4.567 199.996 1.08523 196.525 1.07991 189.541C1.07991 167.565 1.67839 145.574 0.864471 123.63C0.337817 109.482 2.32473 95.3508 0.920322 81.3229C-0.47611 67.4306 2.31676 53.6181 0.888409 39.8774C-0.140961 29.9429 1.39112 20.0803 0.297913 10.2097C-0.324497 4.60807 0.54529 3.88193 5.97941 3.87395C7.70301 3.87395 9.4266 3.87395 11.3337 3.87395C10.5597 2.61319 9.41862 3.32336 8.62066 2.9164C16.7998 2.03068 24.9868 1.15293 33.1659 0.267208C35.3683 -0.307315 36.1104 1.30454 36.2221 2.81267C36.669 8.70951 37.6585 14.6941 34.8576 20.3516C33.8682 35.0179 33.6766 49.7241 32.4238 64.3904C30.3811 88.3927 27.2291 112.235 23.2872 135.982C19.9118 156.282 15.938 176.478 11.5252 196.579C11.2858 197.672 10.831 198.821 11.5332 199.938L11.5252 199.954Z" fill="#004973"/>
</svg>
