<svg width="93" height="102" viewBox="0 0 93 102" fill="none" xmlns="http://www.w3.org/2000/svg">
<path d="M0.329651 0.656189C10.2723 1.73342 19.8159 4.49429 28.9366 8.40424C40.4751 13.3515 50.9683 20.1421 60.5758 28.2812C67.7175 34.3296 70.263 42.9315 73.407 51.2222C77.8756 63.0079 81.61 75.0489 86.7489 86.6032C88.5363 90.6169 90.244 94.7982 91.6244 99.0353C91.8878 99.8412 92.4384 100.735 91.6404 101.445C90.635 102.347 89.8131 101.517 88.9991 100.918C75.9445 91.3111 61.2141 85.3744 45.5501 81.8076C41.289 80.8421 36.8603 79.1663 32.28 80.5627C23.295 64.0612 15.5468 46.9851 9.08329 29.3425C6.28245 21.6901 3.35393 14.0777 1.35902 6.15402C0.904184 4.35065 0.67277 2.49148 0.337626 0.664176L0.329651 0.656189Z" fill="#00CAB8"/>
</svg>
