<svg width="86" height="301" viewBox="0 0 86 301" fill="none" xmlns="http://www.w3.org/2000/svg">
<path d="M1.16136 300.684C1.1055 278.604 1.00973 256.525 0.993768 234.446C0.95387 182.484 0.945892 130.521 0.945892 78.5587C0.945892 76.6835 1.08155 74.8164 1.15337 72.9412C1.95133 72.9412 2.7413 72.9571 3.53128 72.9571C4.53671 76.093 3.30786 79.1891 3.33978 82.3171C3.49937 97.3504 3.41955 112.384 3.41157 127.417C3.41157 135.612 3.7308 143.823 2.46204 151.499C3.69888 138.884 6.91464 126.164 10.5134 113.645C12.9552 105.146 12.5962 97.0951 10.689 88.8922C9.55592 84.0167 8.86169 78.9098 5.94913 74.585C5.61398 74.0902 5.78953 73.4758 6.14063 72.9651C7.87221 72.9571 9.60379 72.9492 11.3354 72.9412C13.833 79.5881 14.3437 86.6898 16.2109 92.7622C17.7589 85.3812 21.3817 77.689 21.7248 69.2387C24.398 64.4111 25.7545 59.2085 26.2173 53.7345C26.6642 53.1441 27.7893 53.4872 27.9728 52.6972C29.3693 46.6647 32.7686 40.9514 30.1593 34.3125C28.9144 31.1366 27.9569 27.7852 27.0313 24.2902C27.1749 26.0537 27.7255 27.8092 25.5151 28.5194C25.0922 26.2293 24.6693 23.9311 24.2384 21.641C26.1774 19.3828 23.7836 17.388 23.8474 15.2335C23.9272 12.704 22.0999 9.63191 25.9939 8.29934C26.1455 17.2443 32.7925 23.8274 34.4124 32.8283C37.2133 21.9443 41.7377 12.3928 44.8098 2.33866C45.121 1.33325 45.6557 0.511354 46.7728 0.240051C48.2012 0.551251 49.6295 0.854475 51.0499 1.16567C45.5519 11.7545 41.9611 23.0215 38.9448 34.6396C48.2171 31.2244 59.4365 31.2164 62.6682 18.9519C63.1151 17.2603 64.2322 15.5367 65.9638 14.5393C69.7461 20.4441 70.5122 27.2746 71.9246 33.9055C72.156 35.7089 71.6852 37.3287 70.6878 38.8289C60.6813 53.7824 53.0368 69.885 46.4936 86.626C44.5784 91.5174 44.73 95.7146 45.7594 100.47C47.4032 108.051 47.8341 115.823 48.7996 123.507C50.1482 134.264 49.1507 144.956 49.3662 155.665C49.4699 160.755 47.9698 165.854 49.1907 172.23C53.3082 164.49 56.9229 157.683 60.5457 150.877C62.2134 151.978 62.0219 153.654 61.9181 155.297C61.5271 157.093 61.184 158.896 61.0085 160.747C60.8808 162.04 61.5272 164.793 58.3194 163.373C57.4735 162.998 57.3139 164.155 57.0027 164.697C55.8058 166.78 54.9041 168.998 53.9306 171.28C56.7314 171.863 58.4789 168.073 61.2239 170.131C61.8383 171.153 61.8463 172.214 61.4553 173.307C60.3941 175.47 58.2316 176.084 56.2686 176.93C52.191 178.693 48.7997 181.111 46.693 185.252C38.2586 201.866 30.3508 218.734 22.6185 235.683C22.3951 236.17 22.0839 236.688 22.3951 237.526C34.1331 230.656 46.9723 226.977 60.1307 224.192C67.4959 222.636 74.9967 222.237 82.4577 221.535C83.6387 221.423 86.0645 220.426 85.7932 223.434C85.2186 224.416 84.6361 225.397 83.3354 225.541C82.1385 227.169 80.4069 227.009 78.6514 227.121C60.1706 228.326 42.4718 232.308 26.2333 241.707C20.073 245.274 15.8359 250.102 13.5138 256.908C11.0401 264.146 8.23927 271.279 5.23893 278.317C2.45404 284.86 3.25997 291.635 3.67491 298.402C3.12431 299.471 2.31042 300.245 1.16136 300.652V300.684Z" fill="#01B1A1"/>
</svg>
