<svg width="15" height="88" viewBox="0 0 15 88" fill="none" xmlns="http://www.w3.org/2000/svg">
<path d="M0.863465 87.7663C0.863465 75.6694 -0.00631869 63.4767 1.20658 51.4995C1.87687 44.9244 3.22541 38.1099 5.18042 31.487C7.13542 24.872 7.70199 17.6984 9.48144 10.884C10.2076 8.09912 11.1891 5.37808 12.0509 2.62516C12.3142 1.77933 12.6413 0.76593 13.6468 0.869663C14.7719 0.989355 14.6283 2.12244 14.6362 2.96029C14.6682 6.13612 14.7081 9.31995 14.6602 12.4958C14.4448 25.5981 15.123 38.7084 13.8782 51.8027C13.168 59.2556 10.6624 66.0062 7.7658 72.7489C5.62727 77.7281 3.69619 82.7871 1.66937 87.8142C1.39806 87.7982 1.12678 87.7743 0.855478 87.7583L0.863465 87.7663Z" fill="#04C8B7"/>
</svg>
