<svg width="122" height="129" viewBox="0 0 122 129" fill="none" xmlns="http://www.w3.org/2000/svg">
<path d="M2.94716 128.938C1.19962 126.464 1.03206 123.679 1.04802 120.751C1.11984 105.143 0.944277 89.5349 1.12781 73.927C1.22356 65.5485 -0.284579 57.2579 0.210157 48.8714C0.728832 39.9663 0.992156 31.0372 1.50285 22.1321C1.57467 20.8794 1.2874 19.8899 0.840541 18.8366C-0.124992 16.5545 -0.140946 14.3043 1.31932 12.2456C1.95769 11.3518 2.30081 10.8332 0.90438 10.5858C5.38094 7.88077 9.40268 4.59322 13.0813 0.882755C13.2728 1.24183 13.568 1.92807 13.6478 1.90413C19.9757 -0.0109491 26.4312 1.2578 32.7989 1.2179C58.8524 1.05831 84.9138 1.18598 110.967 1.11417C114.606 1.10619 118.101 0.970533 120.232 4.66504C122.035 5.91782 120.846 7.31423 120.439 8.67872C114.063 12.445 107.48 15.8922 101.862 20.8395C101.096 21.5177 100.083 21.7651 99.0936 21.0788C90.6432 23.8398 82.1768 26.5448 73.7503 29.3616C61.0468 33.6146 48.407 37.9874 36.0945 43.3735C28.6176 46.6451 23.9336 52.0233 21.2285 59.2687C14.9565 76.0416 11.2061 93.5326 7.19232 110.936C5.80387 116.944 4.35957 122.937 2.9392 128.938H2.94716Z" fill="#014972"/>
</svg>
